<?xml version="1.0" standalone="no"?>
<!DOCTYPE svg PUBLIC "-//W3C//DTD SVG 20010904//EN"
 "http://www.w3.org/TR/2001/REC-SVG-20010904/DTD/svg10.dtd">
<svg version="1.0" xmlns="http://www.w3.org/2000/svg"
 width="600.000000pt" height="600.000000pt" viewBox="0 0 600.000000 600.000000"
 preserveAspectRatio="xMidYMid meet">
<metadata>
Created by potrace 1.11, written by Peter Selinger 2001-2013
</metadata>
<g transform="translate(0.000000,600.000000) scale(0.100000,-0.100000)"
fill="#000000" stroke="none">
<path d="M3565 5636 c-222 -272 -1135 -2251 -1135 -2462 0 -28 10 -45 47 -85
25 -27 67 -62 93 -76 l47 -26 -5 -103 c-6 -124 18 -216 74 -289 l36 -47 -17
-97 c-34 -203 -169 -711 -193 -724 -20 -11 -478 34 -650 64 -181 31 -230 51
-320 131 -120 106 -238 154 -332 133 -36 -8 -95 -56 -115 -95 -63 -122 -87
-744 -36 -935 27 -104 46 -129 98 -133 53 -4 71 18 90 110 32 157 132 396 188
448 26 24 31 25 153 24 189 -1 389 -48 882 -204 175 -56 262 -79 280 -75 134
34 468 663 554 1047 l6 26 62 -19 c35 -11 172 -40 305 -64 209 -39 359 -78
380 -99 4 -3 -3 -27 -15 -54 -32 -69 -40 -117 -57 -346 -21 -285 -43 -403
-106 -583 -37 -104 -126 -283 -172 -345 -121 -160 -165 -298 -118 -374 51 -83
135 -98 511 -91 288 5 404 18 530 58 95 30 128 53 136 95 4 23 1 42 -10 59
-16 24 -28 28 -131 40 -130 16 -358 93 -415 141 l-28 24 99 298 c138 412 223
687 276 892 41 162 44 182 41 271 -6 131 -43 212 -137 303 -64 61 -225 173
-325 227 -25 13 -46 30 -46 37 0 7 13 39 30 72 47 94 267 581 393 870 290 669
477 1191 477 1333 0 77 -134 181 -428 330 -359 183 -780 337 -919 337 -37 0
-46 -5 -78 -44z m270 -196 c316 -119 859 -393 933 -473 21 -22 22 -28 12 -73
-72 -331 -674 -1802 -830 -2029 -32 -47 -33 -47 -80 -43 -31 3 -96 28 -186 71
-203 96 -428 159 -850 236 -89 16 -171 35 -183 43 -44 27 -42 38 49 268 229
576 780 1758 923 1978 56 86 45 85 212 22z"/>
<path d="M3837 5233 c-2 -5 18 -107 44 -228 125 -563 129 -708 19 -872 -79
-118 -297 -310 -787 -693 -164 -128 -207 -166 -190 -168 44 -8 99 22 342 181
438 286 787 534 905 644 56 52 60 58 60 100 0 60 -27 162 -99 374 -57 169
-180 490 -234 612 -23 51 -48 71 -60 50z"/>
<path d="M477 2219 c-3 -10 -2 -21 1 -23 4 -2 117 -38 251 -80 188 -59 246
-74 253 -64 17 27 34 20 -282 118 -91 28 -177 55 -192 60 -21 7 -27 5 -31 -11z"/>
<path d="M573 2094 c-3 -8 -2 -19 3 -24 10 -8 340 -112 364 -114 8 -1 15 7 15
18 0 16 -31 29 -185 77 -102 32 -186 59 -188 59 -1 0 -5 -7 -9 -16z"/>
<path d="M655 1982 c-3 -3 -5 -13 -5 -21 0 -12 33 -26 128 -55 153 -47 147
-46 147 -21 0 16 -22 26 -132 61 -73 23 -135 39 -138 36z"/>
<path d="M3034 925 c-4 -9 -3 -20 2 -24 5 -5 114 -55 242 -112 191 -84 235
-100 243 -88 5 8 9 16 9 19 0 5 -405 188 -477 217 -7 3 -16 -2 -19 -12z"/>
<path d="M3117 793 c-20 -19 8 -36 168 -108 163 -72 213 -85 203 -53 -4 11
-338 167 -359 168 -3 0 -9 -3 -12 -7z"/>
<path d="M3176 654 c-4 -9 -5 -18 -4 -20 14 -13 261 -114 268 -109 27 16 0 37
-116 89 -69 31 -130 56 -134 56 -4 0 -11 -7 -14 -16z"/>
</g>
</svg>
