<?xml version="1.0" encoding="utf-8"?>
<!-- Generator: Adobe Illustrator 19.1.0, SVG Export Plug-In . SVG Version: 6.00 Build 0)  -->
<svg version="1.1" id="Ebene_1" xmlns="http://www.w3.org/2000/svg" xmlns:xlink="http://www.w3.org/1999/xlink" x="0px" y="0px"
	 viewBox="0 0 512 512" enable-background="new 0 0 512 512" xml:space="preserve">
<path d="M112,112v80c0,22,5,47,15,75s25,50,45,66L32,400c-3,1-6,2-9,4s-8,6-14,11c-6,6-9,12-9,17v48c0,9,3,16,10,22c6,7,13,10,22,10
	h448c9,0,16-3,23-10c6-6,9-13,9-22v-48c0-6-3-12-8-17s-11-9-16-11l-8-4l-139-66c20-16,35-38,45-66c9-27,14-53,14-76v-80
	c0-27-15-52-46-76S291,0,256,0s-68,12-98,36C127,60,112,85,112,112z M256,32c27,0,52,9,76,27s36,36,36,53v80c0,19-4,40-12,63
	s-20,41-35,54c-9,7-13,17-12,28c1,12,7,21,18,26l139,66c0,0,0,0,1,0c9,3,13,9,13,19v32H32v-33c0-8,4-14,13-18l141-67
	c11-5,17-13,18-25c1-11-2-21-11-29c-15-12-27-30-36-54c-9-23-13-44-13-62v-80c0-17,12-35,37-53C205,41,230,32,256,32z"/>
</svg>
