<?xml version="1.0" encoding="utf-8"?>
<!-- Generator: Adobe Illustrator 19.1.0, SVG Export Plug-In . SVG Version: 6.00 Build 0)  -->
<svg version="1.1" id="Ebene_1" xmlns="http://www.w3.org/2000/svg" xmlns:xlink="http://www.w3.org/1999/xlink" x="0px" y="0px"
	 viewBox="0 0 512 512" enable-background="new 0 0 512 512" xml:space="preserve">
<path d="M144,320h-32c-5,0-8,1-11,4s-5,7-5,12v32c0,5,2,8,5,11s6,5,11,5h32c5,0,9-2,12-5s4-6,4-11v-32c0-5-1-9-4-12S149,320,144,320
	z M144,192h-32c-5,0-8,1-11,4s-5,7-5,12v32c0,5,2,8,5,11s6,5,11,5h32c5,0,9-2,12-5s4-6,4-11v-32c0-5-1-9-4-12S149,192,144,192z
	 M272,192h-32c-5,0-8,1-11,4s-5,7-5,12v32c0,5,2,8,5,11s6,5,11,5h32c5,0,9-2,12-5s4-6,4-11v-32c0-5-1-9-4-12S277,192,272,192z
	 M272,320h-32c-5,0-8,1-11,4s-5,7-5,12v32c0,5,2,8,5,11s6,5,11,5h32c5,0,9-2,12-5s4-6,4-11v-32c0-5-1-9-4-12S277,320,272,320z
	 M368,384h32c5,0,9-2,12-5s4-6,4-11v-32c0-5-1-9-4-12s-7-4-12-4h-32c-5,0-8,1-11,4s-5,7-5,12v32c0,5,2,8,5,11S363,384,368,384z
	 M368,256h32c5,0,9-2,12-5s4-6,4-11v-32c0-5-1-9-4-12s-7-4-12-4h-32c-5,0-8,1-11,4s-5,7-5,12v32c0,5,2,8,5,11S363,256,368,256z
	 M480,80v400H32V80h128v16c0,5,2,8,5,11s6,5,11,5s9-2,12-5s4-6,4-11V80h128v16c0,5,2,8,5,11s6,5,11,5s9-2,12-5s4-6,4-11V80H480z
	 M480,48H352V16c0-5-1-9-4-12s-7-4-12-4s-8,1-11,4s-5,7-5,12v32H192V16c0-5-1-9-4-12s-7-4-12-4s-8,1-11,4s-5,7-5,12v32H32
	c-9,0-16,3-22,9C3,64,0,71,0,80v400c0,9,3,16,10,22c6,7,13,10,22,10h448c9,0,16-3,23-10c6-6,9-13,9-22V80c0-9-3-16-9-23
	C496,51,489,48,480,48z"/>
</svg>
