<?xml version="1.0" encoding="utf-8"?>
<!-- Generator: Adobe Illustrator 19.1.0, SVG Export Plug-In . SVG Version: 6.00 Build 0)  -->
<svg version="1.1" id="Ebene_1" xmlns="http://www.w3.org/2000/svg" xmlns:xlink="http://www.w3.org/1999/xlink" x="0px" y="0px"
	 viewBox="0 0 512 512" enable-background="new 0 0 512 512" xml:space="preserve">
<path d="M0,224c0,33,9,63,28,90c19,28,45,51,79,68c0,0,0,0,0,1c0,22-9,48-26,77c-1,2-1,4-1,6c0,4,1,7,4,10s6,4,11,4c0,0,1,0,2,0
	s1,0,1,0h1c21-4,44-14,68-29c23-15,39-27,47-37c9,1,18,2,29,2c1,0,3,0,6,0s5,0,7,0c71,0,131-19,181-56s75-83,75-136s-25-99-75-136
	S327,32,256,32S125,51,75,88S0,171,0,224z M256,384h-8h-5c-9,0-17-1-24-2l-18-2l-11,14c-3,4-11,10-23,19c-13,9-26,17-39,24
	c7-19,10-36,11-51v-1v-3v-19l-18-9c-28-15-50-33-65-56c-16-23-24-47-24-74c0-44,22-82,66-113c43-31,96-47,158-47s115,16,159,47
	c43,31,65,69,65,113s-22,82-65,113C371,368,318,384,256,384z"/>
</svg>
