<?xml version="1.0" encoding="utf-8"?>
<!-- Generator: Adobe Illustrator 19.1.0, SVG Export Plug-In . SVG Version: 6.00 Build 0)  -->
<svg version="1.1" xmlns="http://www.w3.org/2000/svg" xmlns:xlink="http://www.w3.org/1999/xlink" x="0px" y="0px"
	 viewBox="0 0 512 512" enable-background="new 0 0 512 512" xml:space="preserve">
<path fill="#010202" d="M331.106,0H208.999c-54.412,0-92.077,11.929-125.977,39.934C56.36,62.936,40.449,96.366,40.449,129.362
	c0,50.837,38.76,104.863,110.585,104.863c6.906,0,14.552-0.709,21.299-1.338l-0.994,2.417c-2.887,6.916-5.621,13.442-5.621,23.626
	c0,19.829,9.566,32.06,18.814,43.878l1.163,1.496l-2.068,0.143c-29.659,2.031-84.864,5.817-125.19,30.601
	c-47.628,28.316-51.329,69.509-51.329,81.454C7.109,464.029,51.4,512,150.357,512c115.063,0,175.271-63.48,175.271-126.184
	c0.011-46.38-27.185-69.276-56.051-93.584l-24.35-18.941c-7.525-6.234-16.895-13.992-16.895-28.364
	c0-14.129,9.37-23.457,17.64-31.685l0.862-0.872c26.296-20.712,56.099-44.196,56.099-94.991c0-51.07-31.912-77.462-47.257-90.147
	h40.521c0.497,0,0.994-0.137,1.407-0.407l34.905-21.945c0.994-0.629,1.459-1.84,1.132-2.972C333.327,0.777,332.28,0,331.106,0z
	 M183.03,484.022c-70.138,0-117.263-32.758-117.263-81.517c0-31.838,19.274-54.972,57.236-68.726
	c30.4-10.232,69.641-10.74,70.032-10.74c6.647,0,9.989,0,15.298,0.666c49.076,34.926,72.671,53.264,72.671,88.191
	C280.998,456.388,243.455,484.022,183.03,484.022z M182.369,215.511c-58.864,0-83.294-77.377-83.294-118.807
	c0-21.067,4.791-37.237,14.647-49.447c10.697-13.384,29.014-22.029,46.665-22.029c54.047,0,83.934,72.644,83.934,122.852
	c0,7.921,0,32.018-16.646,48.754C216.481,208.008,198.275,215.511,182.369,215.511z"/>
<path fill="#010202" d="M502.247,239.132h-64.342v-64.115c0-1.459-1.19-2.644-2.644-2.644h-27.677c-1.459,0-2.644,1.184-2.644,2.644
	v64.115h-64.02c-1.459,0-2.644,1.184-2.644,2.644v28.047c0,1.454,1.184,2.644,2.644,2.644h64.02v64.527
	c0,1.454,1.184,2.644,2.644,2.644h27.677c1.454,0,2.644-1.19,2.644-2.644v-64.538h64.342c1.459,0,2.644-1.179,2.644-2.644v-28.036
	C504.891,240.311,503.711,239.132,502.247,239.132z"/>
</svg>
