<?xml version="1.0" encoding="utf-8"?>
<!-- Generator: Adobe Illustrator 20.1.0, SVG Export Plug-In . SVG Version: 6.00 Build 0)  -->
<svg version="1.1" id="Ebene_1" xmlns="http://www.w3.org/2000/svg" xmlns:xlink="http://www.w3.org/1999/xlink" x="0px" y="0px"
	 viewBox="0 0 20 20" style="enable-background:new 0 0 20 20;" xml:space="preserve">
<style type="text/css">
	.st0{enable-background:new    ;}
	.st1{fill:#5F666B;}
</style>
<g class="st0">
	<path class="st1" d="M20,10.3c0,2.8-1,5.1-2.9,7.1s-4.3,2.9-7.1,2.9c-2.8,0-5.1-1-7.1-2.9S0,13,0,10.3C0,7.5,1,5.1,3,3.2
		S7.3,0.3,10,0.3c2.8,0,5.1,1,7.1,2.9S20,7.5,20,10.3z M18.8,10.3c0-2.4-0.9-4.5-2.6-6.2c-1.7-1.7-3.8-2.6-6.2-2.6S5.6,2.4,3.8,4.1
		c-1.7,1.7-2.6,3.8-2.6,6.2s0.9,4.5,2.6,6.2C5.6,18.2,7.6,19,10,19s4.5-0.9,6.2-2.6C17.9,14.7,18.8,12.7,18.8,10.3z M12.4,5.4
		c0.6,0.5,0.8,1.2,0.8,2.1c0,0.7-0.2,1.3-0.5,1.8c-0.4,0.5-0.8,1.1-1.4,1.7c-0.3,0.3-0.4,0.5-0.5,0.7c-0.1,0.2-0.1,0.5-0.1,1H9.1
		c0-0.7,0.1-1.2,0.2-1.5c0.1-0.3,0.4-0.7,1-1.1c0.5-0.6,0.9-1.1,1.1-1.4c0.2-0.3,0.3-0.7,0.3-1.2c0-0.5-0.1-1-0.4-1.3
		C11,6,10.6,5.9,10,5.9C9.6,5.9,9.2,6,8.8,6.3C8.5,6.5,8.4,7,8.4,7.7H6.9l0,0c0-1,0.3-1.8,0.9-2.3C8.3,4.9,9.1,4.6,10,4.6
		C11,4.6,11.8,4.9,12.4,5.4z M9.1,14.3h1.6v1.6H9.1V14.3z"/>
</g>
</svg>
