<?xml version="1.0" encoding="utf-8"?>
<!-- Generator: Adobe Illustrator 20.1.0, SVG Export Plug-In . SVG Version: 6.00 Build 0)  -->
<svg version="1.1" id="Ebene_1" xmlns="http://www.w3.org/2000/svg" xmlns:xlink="http://www.w3.org/1999/xlink" x="0px" y="0px"
	 viewBox="0 0 20 20" style="enable-background:new 0 0 20 20;" xml:space="preserve">
<style type="text/css">
	.st0{enable-background:new    ;}
	.st1{fill:#5F666B;}
</style>
<g class="st0">
	<path class="st1" d="M19.7,0.5c0.3,0.2,0.4,0.5,0.4,0.9v15.2c0,0.3-0.1,0.6-0.3,0.9c-0.2,0.3-0.5,0.4-0.8,0.5l-8.2,2.2
		c-0.2,0.1-0.5,0.1-0.7,0.1c-0.3,0-0.6,0-0.8-0.1l-8.1-2.2c-0.3-0.1-0.5-0.3-0.7-0.5c-0.2-0.3-0.3-0.6-0.3-0.9V1.3
		c0-0.4,0.1-0.7,0.4-0.9c0.3-0.2,0.6-0.3,1-0.2l8,2.2c0.1,0,0.3,0,0.4,0s0.3,0,0.4,0l8.2-2.2C19,0.2,19.4,0.2,19.7,0.5z M9.5,3.8
		c-0.1,0-0.2,0-0.2,0L1.3,1.5v15c0,0.1,0.1,0.2,0.2,0.2l8,2.2V3.8z M8.2,6.5c0.1,0.1,0.1,0.3,0,0.4C8.1,7.2,7.9,7.4,7.6,7.4
		c-0.1,0-0.1,0-0.2,0L3.1,6.1C2.9,6.1,2.8,6,2.7,5.9C2.6,5.7,2.6,5.6,2.6,5.4c0-0.2,0.1-0.3,0.3-0.4c0.2-0.1,0.3-0.1,0.5-0.1
		l4.4,1.3C8,6.2,8.1,6.3,8.2,6.5z M8.2,10.2c0.1,0.1,0.1,0.3,0,0.4c-0.1,0.3-0.3,0.5-0.6,0.5c-0.1,0-0.1,0-0.2,0L3.1,9.9
		C2.9,9.8,2.8,9.7,2.7,9.6C2.6,9.5,2.6,9.3,2.6,9.1c0-0.2,0.1-0.3,0.3-0.4c0.2-0.1,0.3-0.1,0.5-0.1l4.4,1.3C8,10,8.1,10.1,8.2,10.2z
		 M8.2,14c0.1,0.1,0.1,0.3,0,0.4c-0.1,0.3-0.3,0.5-0.6,0.5c-0.1,0-0.1,0-0.2,0l-4.4-1.3c-0.2-0.1-0.3-0.1-0.4-0.3
		c-0.1-0.1-0.1-0.3-0.1-0.5c0-0.2,0.1-0.3,0.3-0.4c0.2-0.1,0.3-0.1,0.5-0.1l4.4,1.3C8,13.7,8.1,13.8,8.2,14z M18.8,1.5l-8.1,2.2h0
		v15.2l8-2.1c0.1,0,0.2-0.1,0.2-0.2V1.5z M12,6.9c-0.1-0.2,0-0.3,0-0.4c0.1-0.1,0.2-0.2,0.4-0.3l4.4-1.3c0.2-0.1,0.3,0,0.5,0.1
		c0.2,0.1,0.3,0.2,0.3,0.4c0,0.2,0,0.3-0.1,0.5c-0.1,0.1-0.2,0.2-0.4,0.3l-4.4,1.3c-0.1,0-0.1,0-0.2,0C12.3,7.4,12.1,7.2,12,6.9z
		 M12,10.7c-0.1-0.2,0-0.3,0-0.4c0.1-0.1,0.2-0.2,0.4-0.3l4.4-1.3c0.2-0.1,0.3,0,0.5,0.1c0.2,0.1,0.3,0.2,0.3,0.4
		c0,0.2,0,0.3-0.1,0.5c-0.1,0.1-0.2,0.2-0.4,0.3l-4.4,1.3c-0.1,0-0.1,0-0.2,0C12.3,11.1,12.1,11,12,10.7z M12,14.4
		c-0.1-0.2,0-0.3,0-0.4c0.1-0.1,0.2-0.2,0.4-0.3l4.4-1.3c0.2-0.1,0.3,0,0.5,0.1c0.2,0.1,0.3,0.2,0.3,0.4c0,0.2,0,0.3-0.1,0.5
		c-0.1,0.1-0.2,0.2-0.4,0.3l-4.4,1.3c-0.1,0-0.1,0-0.2,0C12.3,14.9,12.1,14.7,12,14.4z"/>
</g>
</svg>
