<?xml version="1.0" encoding="utf-8"?>
<!-- Generator: Adobe Illustrator 20.0.0, SVG Export Plug-In . SVG Version: 6.00 Build 0)  -->
<svg version="1.1" id="Ebene_1" xmlns="http://www.w3.org/2000/svg" xmlns:xlink="http://www.w3.org/1999/xlink" x="0px" y="0px"
	 viewBox="0 0 510 510" enable-background="new 0 0 510 510" xml:space="preserve">
<g>
	<path fill="#FFFFFF" d="M500,307.772c0-24.141-3.083-45.197-9.244-63.175c-6.163-17.976-14.642-32.871-25.426-44.685
		c-10.787-11.813-23.499-20.545-38.136-26.194c-14.64-5.651-30.69-8.474-48.152-8.474c-13.874,0-25.94,1.669-36.216,5.008
		c-10.268,3.338-19.129,7.704-26.577,13.098c-7.447,5.393-13.74,11.171-18.877,17.334c-5.136,6.163-9.501,11.813-13.098,16.95
		v-44.685H179.495c0.514,8.732,0.77,25.682,0.77,50.85v95.538c0,0-0.256,56.756-0.77,170.267h104.779V312.394
		c0-4.622,0.258-9.111,0.772-13.481c0.514-4.368,1.539-8.348,3.08-11.94c4.11-9.248,10.401-17.976,18.873-26.199
		c8.474-8.214,20.163-12.326,35.058-12.326c19.005,0,32.615,6.547,40.833,19.645c8.22,13.095,12.328,30.432,12.328,52.006v169.499
		h104.781L500,307.772L500,307.772z"/>
	<path fill="#FFFFFF" d="M68.553,129.801c18.491,0,33.129-5.393,43.915-16.179c10.787-10.787,15.923-23.627,15.409-38.522
		c0-15.409-5.264-28.377-15.793-38.908c-10.529-10.529-24.782-15.793-42.76-15.793c-17.976,0-32.359,5.264-43.144,15.793
		C15.393,46.721,10,59.691,10,75.1c0,14.895,5.136,27.735,15.409,38.522c10.273,10.787,24.397,16.179,42.374,16.179H68.553
		L68.553,129.801z"/>
	<rect x="16.163" y="172.945" fill="#FFFFFF" width="104.781" height="316.653"/>
</g>
</svg>
