<?xml version="1.0" encoding="utf-8"?>
<!-- Generator: Adobe Illustrator 20.0.0, SVG Export Plug-In . SVG Version: 6.00 Build 0)  -->
<svg version="1.1" xmlns="http://www.w3.org/2000/svg" xmlns:xlink="http://www.w3.org/1999/xlink" x="0px" y="0px"
	 viewBox="0 0 512 512" enable-background="new 0 0 512 512" xml:space="preserve">
<circle fill="#0077B5" stroke="#FFFFFF" stroke-miterlimit="10" cx="256" cy="256" r="245"/>
<g>
	<path fill="#FFFFFF" d="M407.523,286.484c0-13.945-1.781-26.108-5.34-36.493c-3.56-10.384-8.458-18.988-14.687-25.812
		c-6.231-6.824-13.574-11.868-22.029-15.131c-8.457-3.264-17.728-4.895-27.815-4.895c-8.014,0-14.984,0.964-20.92,2.893
		c-5.931,1.928-11.05,4.45-15.352,7.566c-4.302,3.115-7.937,6.453-10.904,10.013c-2.967,3.56-5.488,6.824-7.566,9.791v-25.812
		h-60.525c0.297,5.044,0.445,14.835,0.445,29.373v55.187c0,0-0.148,32.785-0.445,98.354h60.525V289.154
		c0-2.67,0.149-5.263,0.446-7.787c0.297-2.523,0.889-4.822,1.779-6.897c2.374-5.342,6.008-10.384,10.902-15.134
		c4.895-4.745,11.647-7.12,20.251-7.12c10.978,0,18.84,3.782,23.587,11.348c4.748,7.564,7.121,17.579,7.121,30.041v97.91h60.526
		L407.523,286.484L407.523,286.484z"/>
	<path fill="#FFFFFF" d="M158.3,183.68c10.681,0,19.137-3.115,25.367-9.346c6.231-6.231,9.198-13.648,8.901-22.252
		c0-8.901-3.041-16.392-9.123-22.475c-6.082-6.082-14.315-9.123-24.7-9.123c-10.384,0-18.692,3.041-24.922,9.123
		c-6.231,6.082-9.346,13.574-9.346,22.475c0,8.604,2.967,16.021,8.901,22.252c5.934,6.231,14.093,9.346,24.477,9.346L158.3,183.68
		L158.3,183.68z"/>
	<rect x="128.037" y="208.602" fill="#FFFFFF" width="60.526" height="182.913"/>
</g>
</svg>
