<?xml version="1.0" encoding="utf-8"?>
<!-- Generator: Adobe Illustrator 20.0.0, SVG Export Plug-In . SVG Version: 6.00 Build 0)  -->
<svg version="1.1" xmlns="http://www.w3.org/2000/svg" xmlns:xlink="http://www.w3.org/1999/xlink" x="0px" y="0px"
	 viewBox="0 0 388 66" enable-background="new 0 0 388 66" xml:space="preserve">
<g>
	<g>
		<path fill="none" d="M35.128,44.768c0.08,0.08,0.161,0.08,0.241,0.161C35.289,44.849,35.209,44.849,35.128,44.768z"/>
		<path fill="#3D3D3D" d="M35.128,44.768c-2.895-1.93-5.147-5.227-5.629-6.755l0,0l0,0c0.08,0.643-1.608,8.283-2.493,9.892
			c-2.573-0.965-4.825-0.322-7.077-0.643c-2.01-0.322-3.699-0.724-4.262-1.367c-1.287-1.287-2.252-1.93-3.78-1.93
			c0,0-1.528-0.08-2.01,1.85c-0.402,1.608-1.206,9.57,0.402,11.822c0.322,0.322,1.448,0.483,1.528-0.724
			c0.08-1.367,1.689-5.629,2.734-5.871c0,0,0.161-0.08,0.643-0.161c3.619-0.483,12.867,3.78,14.636,3.378
			c1.126-0.241,3.941-4.825,5.629-9.248l-0.08-0.08C35.289,44.849,35.209,44.849,35.128,44.768z"/>
		<path fill="#131313" d="M35.289,44.929l0.08,0.08l0,0C35.37,44.929,35.37,44.929,35.289,44.929z"/>
		<path fill="none" d="M29.66,38.174c-0.08-0.08-0.08-0.08-0.161-0.161C29.579,38.094,29.66,38.174,29.66,38.174z"/>
		<path fill="none" d="M29.821,38.335L29.821,38.335L29.821,38.335z"/>
		<path fill="#3D3D3D" d="M29.499,38.013L29.499,38.013L29.499,38.013z"/>
		<path fill="#3D3D3D" d="M29.821,38.335c-0.08,0-0.08-0.08-0.161-0.08C29.74,38.254,29.74,38.254,29.821,38.335z"/>
		
			<rect x="35.935" y="55.64" transform="matrix(0.4051 -0.9143 0.9143 0.4051 -32.2396 68.0052)" fill="#3D3D3D" width="0.402" height="6.273"/>
		
			<rect x="36.187" y="57.743" transform="matrix(0.4051 -0.9143 0.9143 0.4051 -33.3149 69.0318)" fill="#3D3D3D" width="0.402" height="4.745"/>
		
			<rect x="36.349" y="59.663" transform="matrix(0.4051 -0.9143 0.9143 0.4051 -34.385 69.9397)" fill="#3D3D3D" width="0.402" height="3.458"/>
		
			<rect x="5.576" y="39.897" transform="matrix(0.2987 -0.9543 0.9543 0.2987 -37.0168 35.6924)" fill="#3D3D3D" width="0.402" height="6.272"/>
		
			<rect x="5.941" y="41.938" transform="matrix(0.2987 -0.9543 0.9543 0.2987 -37.9805 36.9357)" fill="#3D3D3D" width="0.402" height="4.745"/>
		
			<rect x="6.276" y="43.823" transform="matrix(0.2987 -0.9543 0.9543 0.2987 -38.9295 38.1263)" fill="#3D3D3D" width="0.402" height="3.458"/>
		<path fill="#3D3D3D" d="M52.821,62.059c-1.367,0-5.549-1.206-5.951-2.171c0,0,0.241-0.483,0.402-1.045
			c0.161-0.643,3.458-9.972,4.182-13.35c0.483-1.689,0.885-3.297-0.241-5.308c-0.483-0.965-1.769-2.01-3.378-2.976
			c-0.724-0.483-1.448-0.885-2.171-1.206c1.448-2.976,11.58-24.93,10.776-27.584C55.716,6.167,41.884,0.216,40.034,0.94
			S25.317,29.65,26.041,31.017c0.724,1.367,2.332,1.93,2.332,1.93c-0.804,2.252-0.08,3.86,1.126,5.147l0,0l0,0l0,0
			c0.08,0.08,0.08,0.08,0.161,0.161c0.08,0,0.08,0.08,0.161,0.08c0,0,0,0,0.08,0.08c1.448,1.287,4.343,2.332,5.79,2.815l0,0
			c0.402,0.161,0.724,0.241,0.804,0.241l0,0l0,0l0,0c1.206,0.322,2.091,0.563,2.252,0.563c1.367,0.322,4.504,0.643,6.112,1.287
			c0.322,0.161,0.563,0.241,0.724,0.322c0,0,0.08,0.161-0.322,0.804c-1.126,2.895,0.402,8.122-3.619,14.636
			c0,0-1.769,2.734-1.93,4.101c0,0-0.08,1.448,1.85,1.769c1.608,0.241,9.972,0.483,12.143-1.287
			C54.027,63.185,54.107,62.059,52.821,62.059z M44.377,33.831c-0.563,0.885-2.01,0.563-2.734,0.322
			c-4.504-1.769-8.364-2.413-8.364-2.413l0,0c-0.724-0.161-1.448-0.241-1.93-0.402c-1.769-0.322-2.734-0.322-3.056-1.045
			c-0.322-0.804,11.42-27.182,12.626-27.262c1.126-0.161,12.706,5.147,13.269,6.434c0.483,1.045-7.238,19.944-9.57,24.045
			C44.537,33.59,44.457,33.671,44.377,33.831z"/>
		<path d="M29.499,38.013L29.499,38.013L29.499,38.013c0.402,1.528,2.654,4.825,5.629,6.755c0.08,0.08,0.161,0.08,0.241,0.161
			l0.08,0.08l0,0l0,0c0.483-1.287,0.804-2.493,1.045-3.619C36.174,41.31,31.268,39.943,29.499,38.013z"/>
		<path fill="#FFFFFF" d="M54.188,9.464C53.625,8.177,42.125,2.87,40.919,3.031c-1.206,0.08-12.948,26.458-12.626,27.182
			s1.367,0.724,3.056,1.045c0.563,0.08,1.206,0.241,1.93,0.402l0,0c0,0,3.86,0.643,8.364,2.413c0.724,0.241,2.171,0.563,2.734-0.322
			c0.08-0.08,0.08-0.161,0.161-0.241C46.87,29.408,54.59,10.51,54.188,9.464z M47.513,18.793
			c-0.402,1.367-13.35,9.731-14.073,10.213c-0.724,0.402-1.126,0.483-1.448,0.483c-0.08,0-0.241,0-0.241,0
			c0-0.08,0.161-0.161,0.322-0.241c9.892-7.72,11.42-9.007,12.224-11.259c0.804-2.171-1.126-10.213-1.448-11.58
			c0-0.161,0-0.161,0-0.241c0-0.08,0.08-0.08,0.08-0.161c0.08-0.08,0.161,0,0.241,0.08c0.08,0.08,0.08,0.08,0.08,0.161
			C43.974,7.615,47.835,17.426,47.513,18.793z"/>
		<path fill="#3D3D3D" d="M43.17,6.006c0,0-0.08-0.08-0.241-0.08c-0.08,0-0.08,0.08-0.08,0.161c0,0.08,0,0.08,0,0.241
			c0.322,1.287,2.252,9.409,1.448,11.58c-0.804,2.252-2.332,3.619-12.224,11.259c-0.161,0.08-0.322,0.241-0.322,0.241
			s0.161,0,0.241,0c0.322,0,0.724-0.08,1.367-0.483c0.724-0.483,13.752-8.846,14.073-10.213c0.402-1.287-3.458-11.098-4.182-12.545
			C43.251,6.087,43.17,6.087,43.17,6.006z"/>
	</g>
	<g>
		<path fill="#00BAFF" d="M297.859,51.765l0.322-2.332c0.08-0.563,0.322-0.965,0.724-1.367l17.129-14.556
			c2.091-1.769,3.538-3.297,4.343-4.584c0.804-1.287,1.206-2.734,1.206-4.343c0-1.689-0.563-3.056-1.689-4.021
			c-1.126-0.965-2.654-1.448-4.584-1.448c-3.378,0-6.353,1.608-8.927,4.825c-0.483,0.563-1.045,0.643-1.608,0.161l-1.769-1.528
			c-0.563-0.563-0.563-1.045-0.08-1.608c1.689-2.091,3.619-3.699,5.871-4.825c2.252-1.126,4.664-1.689,7.238-1.689
			c3.297,0,5.871,0.885,7.801,2.654c1.93,1.769,2.895,4.101,2.895,7.157c0,2.493-0.483,4.584-1.528,6.434
			c-1.045,1.769-2.895,3.86-5.629,6.112l-13.752,11.5v0.08h16.004c0.402,0,0.724,0.08,0.885,0.322s0.241,0.483,0.241,0.885
			l-0.322,2.332c-0.08,0.724-0.563,1.045-1.287,1.045h-22.357C298.101,52.971,297.699,52.569,297.859,51.765z"/>
		<path fill="#3D3D3D" d="M61.828,52.006l5.71-36.108c0.08-0.563,0.402-0.804,0.885-0.804h2.413c0.483,0,0.885,0.241,1.045,0.724
			l13.028,30.962h0.08l4.906-30.881c0.08-0.563,0.322-0.804,0.885-0.804h1.85c0.241,0,0.483,0.08,0.643,0.241
			c0.161,0.161,0.161,0.402,0.161,0.643l-5.71,36.189c-0.08,0.563-0.322,0.804-0.885,0.804h-2.171c-0.483,0-0.885-0.241-1.045-0.724
			L70.352,20.803h-0.08l-4.986,31.364c-0.08,0.563-0.322,0.804-0.885,0.804h-1.85c-0.241,0-0.483-0.08-0.643-0.241
			C61.828,52.569,61.747,52.328,61.828,52.006z"/>
		<path fill="#3D3D3D" d="M94.478,45.09c0-0.483,0.08-1.367,0.241-2.493l1.287-7.881c1.126-7.077,4.986-10.615,11.42-10.615
			c3.056,0,5.388,0.724,6.997,2.171c1.608,1.448,2.413,3.538,2.413,6.192c0,0.322-0.08,1.126-0.241,2.413l-0.643,4.262
			c-0.08,0.563-0.402,0.804-0.885,0.804H98.74l-0.402,2.573c-0.161,0.885-0.241,1.608-0.241,2.332c0,2.01,0.563,3.458,1.689,4.343
			c1.126,0.965,2.815,1.367,5.147,1.367c2.252,0,4.423-0.965,6.514-2.895c0.402-0.483,0.804-0.483,1.206,0.08l0.804,1.045
			c0.322,0.402,0.322,0.804-0.08,1.206c-2.493,2.413-5.388,3.619-8.766,3.619c-3.217,0-5.71-0.724-7.399-2.171
			C95.523,49.996,94.478,47.905,94.478,45.09z M99.062,37.129h13.671l0.322-1.769c0.161-0.804,0.241-1.608,0.241-2.493
			c0-1.93-0.483-3.378-1.448-4.343s-2.493-1.367-4.504-1.367c-2.332,0-4.182,0.643-5.469,2.01c-1.287,1.287-2.171,3.378-2.493,6.192
			L99.062,37.129z"/>
		<path fill="#3D3D3D" d="M121.579,25.709c-0.08-0.643,0.241-0.885,0.804-0.885h1.85c0.563,0,0.885,0.241,0.885,0.804l2.734,22.115
			h0.08l10.052-22.276c0.161-0.402,0.483-0.643,0.965-0.643h1.608c0.563,0,0.885,0.241,0.885,0.804l2.895,22.035h0.08l9.892-22.196
			c0.161-0.402,0.483-0.643,0.965-0.643h1.93c0.322,0,0.563,0.08,0.643,0.241c0.08,0.161,0.08,0.402,0,0.724l-12.143,26.458
			c-0.161,0.402-0.483,0.643-0.965,0.643h-2.01c-0.563,0-0.885-0.241-0.885-0.804l-2.815-21.231h-0.08l-9.731,21.392
			c-0.161,0.402-0.483,0.643-0.965,0.643h-2.091c-0.563,0-0.885-0.241-0.885-0.804L121.579,25.709z"/>
		<path fill="#3D3D3D" d="M156.482,50.076c-0.322-0.402-0.322-0.804,0.08-1.206l1.045-1.045c0.402-0.483,0.804-0.402,1.206,0.08
			c1.689,1.85,4.101,2.734,7.399,2.734c2.252,0,4.021-0.563,5.388-1.608c1.287-1.045,2.01-2.493,2.01-4.343
			c0-1.287-0.483-2.252-1.367-2.976c-0.965-0.643-2.573-1.206-4.906-1.528c-2.895-0.483-4.986-1.206-6.192-2.252
			c-1.206-1.045-1.769-2.493-1.769-4.503c0-2.895,1.045-5.147,3.056-6.836c2.01-1.689,4.745-2.493,8.203-2.493
			c3.297,0,5.951,0.804,7.881,2.493c0.402,0.402,0.402,0.804,0.08,1.287l-0.965,1.126c-0.322,0.483-0.724,0.483-1.206,0.08
			c-1.367-1.287-3.297-1.93-5.79-1.93c-2.413,0-4.262,0.483-5.629,1.528c-1.367,1.045-2.01,2.413-2.01,4.262
			c0,1.206,0.402,2.091,1.287,2.734c0.885,0.643,2.413,1.126,4.745,1.448c2.976,0.483,5.066,1.206,6.353,2.332
			c1.287,1.126,1.93,2.654,1.93,4.745c0,2.895-0.965,5.227-2.895,6.916s-4.664,2.493-8.042,2.493
			C161.709,53.615,158.573,52.489,156.482,50.076z"/>
		<path fill="#3D3D3D" d="M180.929,52.006l6.031-38.199c0.08-0.563,0.322-0.804,0.885-0.804h1.769c0.241,0,0.483,0.08,0.643,0.241
			c0.161,0.161,0.161,0.483,0.161,0.804l-6.031,38.039c-0.08,0.563-0.402,0.804-0.965,0.804h-1.769c-0.241,0-0.483-0.08-0.643-0.241
			C180.929,52.569,180.849,52.328,180.929,52.006z"/>
		<path fill="#3D3D3D" d="M192.268,45.09c0-0.483,0.08-1.367,0.241-2.493l1.287-7.881c1.126-7.077,4.986-10.615,11.42-10.615
			c3.056,0,5.388,0.724,6.997,2.171c1.608,1.448,2.413,3.538,2.413,6.192c0,0.322-0.08,1.126-0.241,2.413l-0.643,4.262
			c-0.08,0.563-0.402,0.804-0.885,0.804h-16.325l-0.402,2.573c-0.161,0.885-0.241,1.608-0.241,2.332c0,2.01,0.563,3.458,1.689,4.343
			c1.126,0.965,2.815,1.367,5.147,1.367c2.252,0,4.423-0.965,6.514-2.895c0.402-0.483,0.804-0.483,1.206,0.08l0.804,1.045
			c0.322,0.402,0.322,0.804-0.08,1.206c-2.493,2.413-5.388,3.619-8.766,3.619c-3.217,0-5.71-0.724-7.399-2.171
			C193.314,49.996,192.268,47.905,192.268,45.09z M196.852,37.129h13.671l0.322-1.769c0.161-0.804,0.241-1.608,0.241-2.493
			c0-1.93-0.483-3.378-1.448-4.343c-0.965-0.965-2.493-1.367-4.503-1.367c-2.332,0-4.182,0.643-5.469,2.01
			c-1.287,1.287-2.171,3.378-2.493,6.192L196.852,37.129z"/>
		<path fill="#3D3D3D" d="M251.699,25.066c-0.161-0.161-0.322-0.241-0.643-0.241h-8.605l1.045-6.675c0.08-0.241,0-0.483-0.08-0.643
			c-0.161-0.161-0.322-0.241-0.643-0.241h-1.769c-0.563,0-0.885,0.241-0.885,0.804l-1.045,6.836H227.01l1.045-6.675
			c0.08-0.241,0-0.483-0.08-0.643c-0.161-0.161-0.322-0.241-0.643-0.241h-1.769c-0.563,0-0.885,0.241-0.885,0.804l-1.045,6.836
			h-3.458c-0.563,0-0.804,0.241-0.885,0.804l-0.241,1.287c-0.08,0.241,0,0.483,0.161,0.643c0.161,0.161,0.322,0.241,0.643,0.241
			h3.378l-2.734,17.129c-0.08,0.724-0.161,1.367-0.161,1.93c0,2.171,0.643,3.78,1.93,4.986c1.287,1.126,3.136,1.689,5.549,1.689
			c2.01,0,3.699-0.402,5.066-1.287c0.402-0.241,0.483-0.643,0.322-1.206l-0.483-1.206c-0.241-0.563-0.643-0.724-1.206-0.402
			c-0.965,0.643-2.091,0.965-3.217,0.965c-2.976,0-4.423-1.367-4.423-4.182c0-0.322,0-0.804,0.08-1.528l2.654-17.129h12.063
			l-2.734,17.129c-0.08,0.724-0.161,1.367-0.161,1.93c0,2.171,0.643,3.78,1.93,4.986c1.287,1.126,3.136,1.689,5.549,1.689
			c2.01,0,3.699-0.402,5.066-1.287c0.402-0.241,0.483-0.643,0.322-1.206l-0.483-1.206c-0.241-0.563-0.643-0.724-1.206-0.402
			c-0.965,0.643-2.091,0.965-3.217,0.965c-2.976,0-4.423-1.367-4.423-4.182c0-0.322,0-0.804,0.08-1.528l2.654-17.129h8.685
			c0.563,0,0.885-0.241,0.885-0.804l0.241-1.287C251.859,25.468,251.859,25.226,251.699,25.066z"/>
		<path fill="#3D3D3D" d="M253.709,45.09c0-0.483,0.08-1.367,0.241-2.493l1.287-7.881c1.126-7.077,4.986-10.615,11.42-10.615
			c3.056,0,5.388,0.724,6.997,2.171c1.608,1.448,2.413,3.538,2.413,6.192c0,0.322-0.08,1.126-0.241,2.413l-0.643,4.262
			c-0.08,0.563-0.402,0.804-0.885,0.804h-16.325l-0.402,2.573c-0.161,0.885-0.241,1.608-0.241,2.332c0,2.01,0.563,3.458,1.689,4.343
			c1.126,0.965,2.815,1.367,5.147,1.367c2.252,0,4.423-0.965,6.514-2.895c0.402-0.483,0.804-0.483,1.206,0.08l0.804,1.045
			c0.322,0.402,0.322,0.804-0.08,1.206c-2.493,2.413-5.388,3.619-8.766,3.619c-3.217,0-5.71-0.724-7.399-2.171
			C254.594,49.996,253.709,47.905,253.709,45.09z M258.293,37.129h13.671l0.322-1.769c0.161-0.804,0.241-1.608,0.241-2.493
			c0-1.93-0.483-3.378-1.448-4.343c-0.965-0.965-2.493-1.367-4.504-1.367c-2.332,0-4.182,0.643-5.469,2.01
			c-1.287,1.287-2.171,3.378-2.493,6.192L258.293,37.129z"/>
		<path fill="#3D3D3D" d="M279.122,52.006l2.895-18.014c0.563-3.297,1.608-5.79,3.378-7.399c1.689-1.608,4.021-2.413,6.997-2.413
			c2.493,0,4.584,0.643,6.273,1.85c0.483,0.322,0.483,0.724,0.08,1.287l-0.885,1.126c-0.322,0.483-0.724,0.483-1.206,0.08
			c-1.045-0.885-2.493-1.287-4.262-1.287c-2.01,0-3.619,0.563-4.664,1.769c-1.126,1.126-1.85,2.976-2.252,5.469l-2.895,17.773
			c-0.08,0.563-0.322,0.804-0.885,0.804h-1.769c-0.241,0-0.483-0.08-0.643-0.241C279.122,52.569,279.041,52.328,279.122,52.006z"/>
		<path fill="#3D3D3D" d="M330.992,42.999c0-0.724,0.08-1.85,0.322-3.217l1.85-11.902c1.367-9.007,6.353-13.591,14.958-13.591
			c2.895,0,5.388,0.563,7.318,1.769c1.93,1.206,3.378,2.895,4.182,5.227c0.161,0.483,0,0.885-0.563,1.126l-1.528,0.643
			c-0.483,0.241-0.885,0.08-1.126-0.483c-1.367-3.378-4.262-5.066-8.605-5.066c-3.217,0-5.71,0.885-7.559,2.734
			s-3.056,4.584-3.619,8.364l-1.608,10.294c-0.161,1.287-0.241,2.413-0.241,3.217c0,5.388,2.734,8.042,8.203,8.042
			c3.217,0,5.71-0.885,7.479-2.734s2.976-4.664,3.619-8.524l0.402-2.654h-8.203c-0.241,0-0.483-0.08-0.643-0.241
			c-0.161-0.161-0.161-0.402-0.08-0.643l0.241-1.528c0.08-0.563,0.322-0.804,0.885-0.804h11.017c0.322,0,0.483,0.08,0.643,0.241
			c0.161,0.161,0.161,0.402,0.161,0.643l-0.885,5.79c-1.448,9.087-6.353,13.671-14.797,13.671c-3.78,0-6.675-0.885-8.685-2.734
			C332.038,49.111,330.992,46.457,330.992,42.999z"/>
		<path fill="#3D3D3D" d="M362.678,45.331c0-0.885,0.08-1.689,0.241-2.493l1.367-8.122c1.126-6.997,5.066-10.535,11.661-10.535
			c2.976,0,5.308,0.724,6.916,2.171c1.608,1.448,2.413,3.458,2.413,6.192c0,0.885-0.08,1.85-0.241,2.734l-1.287,8.042
			c-1.126,6.916-4.986,10.374-11.661,10.374c-3.056,0-5.388-0.724-6.997-2.171C363.482,50.076,362.678,47.985,362.678,45.331z
			 M366.216,45.01c0,1.93,0.483,3.297,1.528,4.182c0.965,0.885,2.493,1.367,4.504,1.367c2.332,0,4.182-0.643,5.469-2.01
			c1.287-1.367,2.171-3.378,2.654-6.192l1.126-7.077c0.161-0.804,0.241-1.608,0.241-2.413c0-3.78-2.01-5.71-5.951-5.71
			c-2.413,0-4.262,0.643-5.549,2.01c-1.287,1.287-2.171,3.378-2.654,6.192l-1.206,7.399
			C366.216,43.643,366.216,44.366,366.216,45.01z"/>
	</g>
</g>
</svg>
