<?xml version="1.0" encoding="utf-8"?>
<!-- Generator: Adobe Illustrator 19.2.0, SVG Export Plug-In . SVG Version: 6.00 Build 0)  -->
<svg version="1.1" id="Ebene_1" xmlns="http://www.w3.org/2000/svg" xmlns:xlink="http://www.w3.org/1999/xlink" x="0px" y="0px"
	 viewBox="0 0 55 66" style="enable-background:new 0 0 55 66;" xml:space="preserve">
<style type="text/css">
	.st0{fill:#FFFFFF;}
	.st1{fill:#3D3D3D;}
	.st2{fill:#121212;}
</style>
<g>
	<path class="st0" d="M38.2,1.6L24.8,30.7l15.9,5.7h2c0,0,6.8-14.6,9.1-21C55.4,5,49.4,6.9,46,5.1C42.5,3.4,38.2,1.6,38.2,1.6z"/>
	<g>
		<g>
			<g>
				<path class="st1" d="M41.1,5.7c0,0-0.3,0.1-0.4,0.1c1.2,5.9,2.4,9.6,1.5,11.9s-2.4,3.7-12.8,11.8c0.4,0,0.9,0,1.8-0.5
					c0.7-0.5,14-9,14.3-10.4C45.9,17.2,41.6,6.4,41.1,5.7z"/>
			</g>
			<path class="st1" d="M51,62.7c-1.4,0-5.7-1.2-6.1-2.2c0,0,0.2-0.5,0.4-1.1c0.2-0.7,3.5-10.1,4.2-13.6c0.5-1.8,0.9-3.3-0.2-5.4
				c-0.8-1.4-3.1-3-5.6-4.3c1.4-2.9,11.8-25.4,11-28.1C53.9,5.7,39.9-0.3,38,0.4C36.1,1.1,23,29.6,23.7,31c0.7,1.4,2.4,2,2.4,2
				c-0.1,0.2-0.9,3.1,1.1,5.2c0,0,0,0,0,0c0.2,0.3-1.6,8.4-2.5,10.1c-4.2-0.3-10.4-0.7-11.5-2.1c-1.3-1.3-2.2-1.9-3.9-1.9
				c0,0-1.5-0.1-2,1.9c-0.4,1.6-1.3,9.7,0.4,12c0.3,0.3,1.5,0.5,1.6-0.8C9.4,56,11,51.6,12,51.3c0,0,0.2,0,0.7-0.1
				c3.8-0.5,14,3.4,14.6,3.4c0.1,0,0.2,0,0.3,0c1.5-0.2,5.8-7.9,6.8-13c1,0.3,1.9,0.5,2.3,0.6c1.4,0.3,4.6,0.7,6.2,1.3
				c0.4,0.1,0.6,0.3,0.7,0.3c0,0,0,0.2-0.3,0.8c-1.1,2.9,0.4,8.3-3.7,14.9l0,0.1c0,0-2,2.4-1.9,4.1c0,0-0.1,1.4,1.9,1.8
				c1.7,0.3,10.2,0.5,12.4-1.3C52.1,63.8,52.2,62.7,51,62.7z M38.8,2.6C40,2.5,51.7,7.8,52.3,9.2C52.8,10.4,43,34.7,41.7,35
				c-1.3,0.3-2.5-0.9-4.7-1.7c-2.9-1-6.1-1.6-7.9-1.9C27.3,31,26.3,31,26,30.3C25.6,29.5,37.6,2.7,38.8,2.6z"/>
			<path class="st2" d="M27.2,38.2c0.4,1.6,2.9,5.2,6,7.1c0.5-1.3,0.9-2.5,1.1-3.7h0v0C33.9,41.5,28.9,40.1,27.2,38.2z"/>
		</g>
	</g>
	
		<rect x="33.8" y="56.1" transform="matrix(0.4051 -0.9143 0.9143 0.4051 -33.9916 66.3531)" class="st1" width="0.4" height="6.4"/>
	<rect x="34" y="58.2" transform="matrix(0.4051 -0.9143 0.9143 0.4051 -35.0701 67.3922)" class="st1" width="0.4" height="4.8"/>
	
		<rect x="34.2" y="60.2" transform="matrix(0.4051 -0.9143 0.9143 0.4051 -36.1666 68.3097)" class="st1" width="0.4" height="3.5"/>
	<rect x="2.9" y="40" transform="matrix(0.2988 -0.9543 0.9543 0.2988 -39.0855 33.2971)" class="st1" width="0.4" height="6.4"/>
	<rect x="3.3" y="42.1" transform="matrix(0.2987 -0.9543 0.9543 0.2987 -40.0446 34.6141)" class="st1" width="0.4" height="4.8"/>
	<rect x="3.6" y="44.1" transform="matrix(0.2988 -0.9543 0.9543 0.2988 -41.051 35.7901)" class="st1" width="0.4" height="3.5"/>
</g>
</svg>
