<?xml version="1.0" encoding="utf-8"?>
<!-- Generator: Adobe Illustrator 19.1.0, SVG Export Plug-In . SVG Version: 6.00 Build 0)  -->
<svg version="1.1" xmlns="http://www.w3.org/2000/svg" xmlns:xlink="http://www.w3.org/1999/xlink" x="0px" y="0px"
	 viewBox="0 0 512 512" enable-background="new 0 0 512 512" xml:space="preserve">
<path d="M472,400H56c-5,0-10-3-15-9c-6-5-9-10-9-15V147l214,171c3,2,6,3,10,3s7-1,10-3l214-171v229C480,392,477,400,472,400z
	 M56,112h416L256,284L41,113C43,112,48,112,56,112z M512,116c0-3-1-6-2-9c-4-18-17-27-38-27H56c-23,0-39,7-50,21c-1,1-1,1-2,2
	c-3,4-5,8-4,13c0,1,0,3,0,4v256c0,13,6,26,18,38s25,18,38,18h416c13,0,23-6,30-17s10-24,10-39V120c0-1,0-2,0-3S512,116,512,116z"/>
</svg>
