<?xml version="1.0" encoding="utf-8"?>
<!-- Generator: Adobe Illustrator 19.1.0, SVG Export Plug-In . SVG Version: 6.00 Build 0)  -->
<svg version="1.1" xmlns="http://www.w3.org/2000/svg" xmlns:xlink="http://www.w3.org/1999/xlink" x="0px" y="0px"
	 viewBox="0 0 512 512" enable-background="new 0 0 512 512" xml:space="preserve">
<path fill="#020203" d="M40.49,97.972l184.421,146.081c8.363,6.617,19.887,9.557,31.08,9.006
	c11.175,0.551,22.699-2.371,31.061-9.006L471.473,97.972c14.777-11.634,11.432-21.173-7.315-21.173H256.009H47.86
	C29.095,76.799,25.75,86.338,40.49,97.972z"/>
<path fill="#020203" d="M484.798,136.514l-201.532,153.01c-7.536,5.661-17.405,8.418-27.239,8.289
	c-9.851,0.129-19.721-2.647-27.257-8.289L27.202,136.514C12.241,125.174,0,131.258,0,150.023V401.07
	c0,18.766,15.365,34.131,34.131,34.131h221.86h221.878c18.766,0,34.131-15.365,34.131-34.131V150.023
	C512,131.258,499.759,125.174,484.798,136.514z"/>
</svg>
