<?xml version="1.0" encoding="utf-8"?>
<!-- Generator: Adobe Illustrator 19.1.0, SVG Export Plug-In . SVG Version: 6.00 Build 0)  -->
<svg version="1.1" id="Ebene_1" xmlns="http://www.w3.org/2000/svg" xmlns:xlink="http://www.w3.org/1999/xlink" x="0px" y="0px"
	 viewBox="0 0 512 512" enable-background="new 0 0 512 512" xml:space="preserve">
<path d="M304.031,5.803c-114.674,0-207.969,93.295-207.969,207.972c0,40.451,11.625,78.236,31.691,110.213L0,451.726l53.467,53.471
	l125.437-125.426c34.842,26.33,78.191,41.97,125.128,41.97c114.655,0,207.969-93.31,207.969-207.965
	C512,99.098,418.686,5.803,304.031,5.803z M304.031,346.119c-72.967,0-132.348-59.381-132.348-132.344
	c0-72.971,59.381-132.344,132.348-132.344c72.967,0,132.34,59.373,132.34,132.344C436.371,286.739,376.998,346.119,304.031,346.119z
	"/>
</svg>
