<?xml version="1.0" encoding="utf-8"?>
<!-- Generator: Adobe Illustrator 19.1.0, SVG Export Plug-In . SVG Version: 6.00 Build 0)  -->
<svg version="1.1" id="Ebene_1" xmlns="http://www.w3.org/2000/svg" xmlns:xlink="http://www.w3.org/1999/xlink" x="0px" y="0px"
	 viewBox="0 0 512 512" enable-background="new 0 0 512 512" xml:space="preserve">
<path d="M407,150c-7,7-14,10-23,10s-16-3-22-10c-7-6-10-13-10-22s3-16,10-23c6-6,13-9,22-9s16,3,23,9c6,7,9,14,9,23S413,144,407,150
	z M430,82c-13-12-28-18-45-18c-18,0-33,6-46,18c-13,13-19,28-19,46s6,33,19,45c13,13,28,19,46,19c17,0,32-6,45-19c12-12,18-27,18-45
	S442,95,430,82z M479,227L225,480L32,286L285,34c1-1,6-2,15-2h7h166c5,0,7,2,7,7v169C480,219,480,225,479,227z M512,208V39
	c0-11-4-20-11-28c-8-7-17-11-28-11H307h-7c-18,0-31,4-38,11L9,264c-6,6-9,13-9,22s3,17,9,23l194,194c6,6,14,9,23,9s16-3,22-9
	l253-253C508,243,512,229,512,208z"/>
</svg>
