<?xml version="1.0" encoding="utf-8"?>
<!-- Generator: Adobe Illustrator 19.1.0, SVG Export Plug-In . SVG Version: 6.00 Build 0)  -->
<svg version="1.1" xmlns="http://www.w3.org/2000/svg" xmlns:xlink="http://www.w3.org/1999/xlink" x="0px" y="0px"
	 viewBox="0 0 512 512" enable-background="new 0 0 512 512" xml:space="preserve">
<path fill="#020203" d="M512,97.261c-18.844,8.35-39.064,14.013-60.309,16.541c21.692-12.99,38.297-33.594,46.167-58.069
	c-20.348,12.03-42.808,20.764-66.74,25.5c-19.164-20.444-46.423-33.178-76.658-33.178c-58.005,0-105.036,47.031-105.036,105.005
	c0,8.222,0.928,16.253,2.72,23.932c-87.279-4.384-164.673-46.2-216.471-109.741c-9.055,15.486-14.206,33.529-14.206,52.79
	c0,36.442,18.557,68.596,46.712,87.407c-17.213-0.576-33.402-5.311-47.575-13.182v1.312c0,50.87,36.217,93.326,84.24,102.989
	c-8.799,2.368-18.076,3.679-27.675,3.679c-6.782,0-13.341-0.672-19.772-1.952c13.373,41.752,52.15,72.114,98.094,72.947
	c-35.93,28.155-81.233,44.888-130.44,44.888c-8.478,0-16.829-0.512-25.051-1.44c46.488,29.851,101.677,47.255,160.994,47.255
	c193.212,0,298.824-160.035,298.824-298.824l-0.352-13.597C480.102,136.805,497.954,118.313,512,97.261z"/>
</svg>
