<?xml version="1.0" encoding="utf-8"?>
<!-- Generator: Adobe Illustrator 19.2.0, SVG Export Plug-In . SVG Version: 6.00 Build 0)  -->
<svg version="1.1" xmlns="http://www.w3.org/2000/svg" xmlns:xlink="http://www.w3.org/1999/xlink" x="0px" y="0px"
	 viewBox="0 0 512 512" enable-background="new 0 0 512 512" xml:space="preserve">
<circle fill="#2DA9E0" stroke="#FFFFFF" stroke-miterlimit="10" cx="256" cy="256" r="245"/>
<g transform="translate(-282.32053,-396.30734)">
	<path fill="#FFFFFF" d="M708.806,571.309c-11.307,5.016-23.461,8.404-36.215,9.929
		c13.018-7.804,23.017-20.16,27.724-34.885c-12.185,7.227-25.679,12.474-40.043,15.301c-11.501-12.255-27.889-19.911-46.025-19.911
		c-34.822,0-63.057,28.231-63.057,63.053c0,4.942,0.558,9.755,1.634,14.37c-52.406-2.629-98.867-27.733-129.967-65.883
		c-5.428,9.313-8.538,20.143-8.538,31.7c0,21.877,11.132,41.177,28.051,52.484c-10.336-0.327-20.059-3.164-28.56-7.886
		c-0.007,0.263-0.007,0.527-0.007,0.793c0,30.55,21.735,56.034,50.581,61.83c-5.291,1.441-10.862,2.211-16.612,2.211
		c-4.063,0-8.012-0.396-11.864-1.131c8.025,25.05,31.311,43.28,58.904,43.788c-21.58,16.913-48.768,26.994-78.312,26.994
		c-5.09,0-10.109-0.3-15.042-0.882c27.905,17.892,61.05,28.331,96.659,28.331c115.982,0,179.407-96.081,179.407-179.408
		c0-2.734-0.061-5.452-0.183-8.159C689.662,595.059,700.352,583.954,708.806,571.309L708.806,571.309z"/>
</g>
</svg>
