<?xml version="1.0" encoding="utf-8"?>
<!-- Generator: Adobe Illustrator 19.2.0, SVG Export Plug-In . SVG Version: 6.00 Build 0)  -->
<svg version="1.1" xmlns="http://www.w3.org/2000/svg" xmlns:xlink="http://www.w3.org/1999/xlink" x="0px" y="0px"
	 viewBox="0 0 512 512" enable-background="new 0 0 512 512" xml:space="preserve">
<path class="colorPath" d="M66.292,428.586
	C18.538,418.67,6.274,384.747,6.013,261.841c-0.261-86.895,3.392-116.382,17.744-144.826c11.221-22.181,24.529-28.965,63.41-33.14
	c37.837-3.914,238.767-4.175,318.617-0.261c111.424,7.046,98.638,59.235,99.943,162.57c1.305,106.988-1.566,130.474-19.571,157.612
	c-17.744,27.139-10.96,26.095-217.891,27.139C162.842,431.717,75.686,430.674,66.292,428.586L66.292,428.586z M337.155,255.317
	c-46.71-31.053-96.55-63.932-121.862-79.328c1.044,43.317,0.261,122.384,0.783,161.265
	C253.391,314.291,309.755,275.932,337.155,255.317L337.155,255.317z"/>
<path fill="#FFFFFF" d="M337.155,255.317c-46.71-31.053-96.55-63.932-121.862-79.328c1.044,43.317,0.261,122.384,0.783,161.265
	C253.391,314.291,309.755,275.932,337.155,255.317L337.155,255.317z"/>
</svg>
