<?xml version="1.0" encoding="utf-8"?>
<!-- Generator: Adobe Illustrator 19.2.0, SVG Export Plug-In . SVG Version: 6.00 Build 0)  -->
<svg version="1.1" xmlns="http://www.w3.org/2000/svg" xmlns:xlink="http://www.w3.org/1999/xlink" x="0px" y="0px"
	 viewBox="0 0 512 512" enable-background="new 0 0 512 512" xml:space="preserve">
<circle fill="#D03427" stroke="#FFFFFF" stroke-miterlimit="10" cx="256" cy="256" r="245"/>
<g>
	<path fill="#FFFFFF" d="M333.074,305.853c-2.307,0-3.978,0.681-4.972,2.062c-1.032,1.313-1.52,3.558-1.52,6.684v7.539h12.889
		v-7.539c0-3.126-0.525-5.371-1.539-6.684C336.958,306.534,335.307,305.853,333.074,305.853z"/>
	<g>
		<path fill="#FFFFFF" d="M282.812,305.603c-1.033,0-2.083,0.231-3.096,0.719c-1.013,0.48-2.008,1.257-3.002,2.283v46.457
			c1.182,1.199,2.327,2.12,3.452,2.656c1.126,0.509,2.289,0.796,3.527,0.796c1.782,0,3.095-0.527,3.939-1.592
			c0.826-1.055,1.257-2.753,1.257-5.141v-38.506c0-2.532-0.507-4.431-1.52-5.735C286.301,306.255,284.781,305.603,282.812,305.603z"
			/>
		<g>
			<path fill="#FFFFFF" d="M347.446,246.394H164.555c-29.081,0-52.646,26.899-52.646,56.62v43.253
				c0,29.722,23.566,53.824,52.646,53.824h182.891c29.081,0,52.645-24.102,52.645-53.824v-43.253
				C400.091,273.293,376.527,246.394,347.446,246.394z M202.979,282.854h-16.998v86.374h-16.436v-86.374h-16.979v-14.693h50.413
				V282.854z M251.01,369.228h-14.578v-8.171c-2.701,3.021-5.478,5.333-8.405,6.887c-2.908,1.621-5.722,2.387-8.48,2.387
				c-3.377,0-5.891-1.103-7.598-3.337c-1.689-2.225-2.571-5.524-2.571-9.993V294.66h14.578v57.209c0,1.765,0.319,3.031,0.901,3.817
				c0.638,0.815,1.632,1.189,3.002,1.189c1.05,0,2.42-0.518,4.071-1.564c1.632-1.055,3.152-2.387,4.502-4.009V294.66h14.578V369.228
				z M303.918,353.835c0,5.266-1.144,9.313-3.433,12.142c-2.27,2.819-5.591,4.21-9.906,4.21c-2.871,0-5.403-0.527-7.637-1.621
				c-2.213-1.073-4.315-2.743-6.229-5.044v5.706h-14.728V268.161h14.728v32.551c1.988-2.263,4.071-4,6.248-5.17
				c2.232-1.208,4.465-1.784,6.736-1.784c4.615,0,8.142,1.573,10.563,4.757c2.439,3.175,3.658,7.826,3.658,13.936V353.835z
				 M354.462,333.742h-27.88v14.051c0,3.922,0.469,6.646,1.426,8.171c0.958,1.525,2.608,2.264,4.954,2.264
				c2.42,0,4.089-0.643,5.065-1.928c0.939-1.305,1.445-4.124,1.445-8.507v-3.395h14.99v3.826c0,7.645-1.801,13.399-5.497,17.283
				c-3.621,3.845-9.081,5.764-16.342,5.764c-6.548,0-11.707-2.043-15.441-6.148c-3.734-4.066-5.628-9.715-5.628-16.899v-33.5
				c0-6.445,2.063-11.748,6.209-15.814c4.109-4.067,9.401-6.1,15.948-6.1c6.679,0,11.801,1.889,15.385,5.658
				c3.583,3.779,5.365,9.188,5.365,16.256V333.742z"/>
			<polygon fill="#FFFFFF" points="166.506,111.909 188.495,179.159 188.495,223.267 206.975,223.267 206.975,177.069 
				228.496,111.909 209.696,111.909 198.27,156.429 197.107,156.429 185.099,111.909 			"/>
			<path fill="#FFFFFF" d="M236.431,144.7c-4.39,3.768-6.604,8.823-6.604,15.21v42.573c0,6.982,2.158,12.516,6.436,16.66
				c4.333,4.124,10.075,6.205,17.26,6.205c7.449,0,13.303-2.005,17.58-6.004c4.222-4.018,6.36-9.504,6.36-16.534v-42.429
				c0-6.254-2.176-11.403-6.492-15.374c-4.353-3.963-9.906-5.957-16.717-5.957C246.807,139.051,240.86,140.94,236.431,144.7z
				 M260.747,159.278v44.76c0,2.196-0.675,3.932-1.97,5.198c-1.313,1.256-3.096,1.88-5.309,1.88c-2.177,0-3.846-0.595-5.01-1.86
				c-1.163-1.238-1.744-2.964-1.744-5.218v-44.76c0-1.785,0.638-3.223,1.857-4.355c1.276-1.103,2.89-1.64,4.897-1.64
				c2.176,0,3.921,0.537,5.254,1.64C260.072,156.055,260.747,157.493,260.747,159.278z"/>
			<path fill="#FFFFFF" d="M337.614,223.267v-82.136h-16.416v62.35c-1.52,1.784-3.208,3.251-5.047,4.422
				c-1.876,1.15-3.396,1.725-4.597,1.725c-1.539,0-2.665-0.431-3.34-1.323c-0.675-0.864-1.051-2.264-1.051-4.202v-62.973h-16.398
				v68.652c0,4.9,0.976,8.554,2.89,10.981c1.932,2.455,4.766,3.702,8.573,3.702c3.096,0,6.248-0.891,9.513-2.628
				c3.302-1.755,6.454-4.315,9.456-7.663v9.092H337.614z"/>
		</g>
	</g>
</g>
</svg>
