<?xml version="1.0" standalone="no"?>
<!DOCTYPE svg PUBLIC "-//W3C//DTD SVG 1.1//EN" "http://www.w3.org/Graphics/SVG/1.1/DTD/svg11.dtd" >
<svg>
<metadata>
Created by FontForge 20110222 at Mon Aug 11 05:43:51 2014
 By Orthosie Webhosting
Copyright (c) 2014 by Ryoichi Tsunekawa. All rights reserved.
</metadata>
<defs>
<font id="Kiro-ExtraBoldItalic" horiz-adv-x="330" >
  <font-face 
    font-family="Kiro-ExtraBoldItalic"
    font-weight="400"
    font-style="italic"
    font-stretch="normal"
    units-per-em="1000"
    panose-1="2 11 6 6 2 2 3 12 2 4"
    ascent="808"
    descent="-192"
    x-height="500"
    cap-height="664"
    bbox="-216.231 -262.714 1099.81 916"
    underline-thickness="68"
    underline-position="-12"
    slope="-9"
    unicode-range="U+0020-FB04"
  />
<missing-glyph horiz-adv-x="600" 
d="M543 0h-462v664h462v-664zM468 623h-312l156 -248zM285 332l-159 253v-506zM339 332l159 -253v506zM468 41l-156 248l-156 -248h312z" />
    <glyph glyph-name="ff" unicode="ff" horiz-adv-x="631" 
d="M712 695q26 -11 13 -37l-29 -60q-10 -21 -33 -15q-22 7 -51 7q-26 0 -44.5 -17.5t-22.5 -47.5l-4 -25h98q30 0 25 -30l-10 -66q-5 -26 -30 -26h-102l-56 -352q-5 -26 -30 -26h-86q-30 0 -25 30l55 348h-140l-56 -352q-5 -26 -30 -26h-86q-30 0 -25 30l55 348h-28
q-30 0 -25 30l10 66q5 26 30 26h33l2 15q29 187 217 187q79 0 137 -33q49 43 132 43q61 0 106 -17zM399 500q8 50 14 67q-29 16 -74 16q-29 0 -50 -17.5t-26 -47.5l-3 -18h139z" />
    <glyph glyph-name="fi" unicode="fi" horiz-adv-x="548" 
d="M259 500h250q30 0 25 -30l-70 -444q-5 -26 -30 -26h-86q-30 0 -25 30l55 348h-138l-56 -352q-5 -26 -30 -26h-86q-30 0 -25 30l55 348h-28q-30 0 -25 30l10 66q5 26 30 26h32l4 25q30 187 218 187q78 0 131 -29q24 -12 10 -38l-36 -59q-12 -21 -37 -10q-29 14 -68 14
q-66 0 -76 -65z" />
    <glyph glyph-name="fl" unicode="fl" horiz-adv-x="558" 
d="M465 700h86q30 0 25 -30l-102 -644q-5 -26 -30 -26h-86q-30 0 -25 30l86 541q-31 19 -80 19q-30 0 -51 -17.5t-25 -47.5l-4 -25h78q30 0 25 -30l-10 -66q-5 -26 -30 -26h-82l-56 -352q-5 -26 -30 -26h-86q-30 0 -25 30l55 348h-28q-30 0 -25 30l10 66q5 26 30 26h32l4 25
q30 187 216 187q59 0 108 -19q7 7 20 7z" />
    <glyph glyph-name="ffi" unicode="ffi" horiz-adv-x="830" 
d="M541 500h250q30 0 25 -30l-70 -444q-5 -26 -30 -26h-86q-30 0 -25 30l55 348h-138l-56 -352q-5 -26 -30 -26h-86q-30 0 -25 30l55 348h-140l-56 -352q-5 -26 -30 -26h-86q-30 0 -25 30l55 348h-28q-30 0 -25 30l10 66q5 26 30 26h33l2 15q29 187 217 187q78 0 138 -34
q55 44 146 44q78 0 131 -29q24 -12 10 -38l-36 -59q-12 -21 -37 -10q-29 14 -68 14q-66 0 -76 -65zM399 500q8 50 14 67q-29 16 -74 16q-29 0 -50 -17.5t-26 -47.5l-3 -18h139z" />
    <glyph glyph-name="ffl" unicode="ffl" horiz-adv-x="840" 
d="M747 700h86q30 0 25 -30l-102 -644q-5 -26 -30 -26h-86q-30 0 -25 30l86 541q-31 19 -80 19q-30 0 -51 -17.5t-25 -47.5l-4 -25h78q30 0 25 -30l-10 -66q-5 -26 -30 -26h-82l-56 -352q-5 -26 -30 -26h-86q-30 0 -25 30l55 348h-140l-56 -352q-5 -26 -30 -26h-86
q-30 0 -25 30l55 348h-28q-30 0 -25 30l10 66q5 26 30 26h33l2 15q29 187 217 187q76 0 137 -33q54 43 145 43q59 0 108 -19q7 7 20 7zM399 500q8 50 14 67q-29 16 -74 16q-29 0 -50 -17.5t-26 -47.5l-3 -18h139z" />
    <glyph glyph-name="f_b" unicode="fb" horiz-adv-x="806" 
d="M357 185l62 386q-31 19 -80 19q-30 0 -51 -17.5t-25 -47.5l-4 -25h78q30 0 25 -30l-10 -66q-5 -26 -30 -26h-82l-56 -352q-5 -26 -30 -26h-86q-30 0 -25 30l55 348h-28q-30 0 -25 30l10 66q5 26 30 26h32l4 25q30 187 216 187q59 0 108 -19q7 7 20 7h86q30 0 25 -30
l-28 -181h2q32 23 80 23q76 0 116 -39.5t40 -111.5q0 -23 -4 -46l-22 -140q-30 -187 -219 -187q-89 0 -138 41.5t-49 116.5q0 20 3 39zM620 188l19 124q2 9 2 26q0 52 -49 52q-61 0 -73 -78l-19 -124q-2 -18 -2 -25q0 -53 49 -53q61 0 73 78z" />
    <glyph glyph-name="f_f_b" unicode="ffb" horiz-adv-x="1088" 
d="M727 693q7 7 20 7h86q30 0 25 -30l-28 -181h2q32 23 80 23q76 0 116 -39.5t40 -111.5q0 -23 -4 -46l-22 -140q-30 -187 -219 -187q-89 0 -138 41.5t-49 116.5q0 20 3 39l62 386q-31 19 -80 19q-30 0 -51 -17.5t-25 -47.5l-4 -25h78q30 0 25 -30l-10 -66q-5 -26 -30 -26
h-82l-56 -352q-5 -26 -30 -26h-86q-30 0 -25 30l55 348h-140l-56 -352q-5 -26 -30 -26h-86q-30 0 -25 30l55 348h-28q-30 0 -25 30l10 66q5 26 30 26h33l2 15q29 187 217 187q76 0 137 -33q54 43 145 43q59 0 108 -19zM399 500q8 50 14 67q-29 16 -74 16q-29 0 -50 -17.5
t-26 -47.5l-3 -18h139zM902 188l19 124q2 9 2 26q0 52 -49 52q-61 0 -73 -78l-19 -124q-2 -18 -2 -25q0 -53 49 -53q61 0 73 78z" />
    <glyph glyph-name="f_h" unicode="fh" horiz-adv-x="808" 
d="M576 670l-29 -181h2q34 23 83 23q71 0 108.5 -38t37.5 -107q0 -26 -4 -49l-46 -292q-5 -26 -30 -26h-86q-30 0 -25 30l45 286q2 18 2 25q0 49 -46 49q-56 0 -68 -74l-46 -290q-5 -26 -30 -26h-86q-30 0 -25 30l86 541q-31 19 -80 19q-30 0 -51 -17.5t-25 -47.5l-4 -25h78
q30 0 25 -30l-10 -66q-5 -26 -30 -26h-82l-56 -352q-5 -26 -30 -26h-86q-30 0 -25 30l55 348h-28q-30 0 -25 30l10 66q5 26 30 26h32l4 25q30 187 216 187q59 0 108 -19q7 7 20 7h86q30 0 25 -30z" />
    <glyph glyph-name="f_f_h" unicode="ffh" horiz-adv-x="1090" 
d="M727 693q7 7 20 7h86q30 0 25 -30l-29 -181h2q34 23 83 23q71 0 108.5 -38t37.5 -107q0 -26 -4 -49l-46 -292q-5 -26 -30 -26h-86q-30 0 -25 30l45 286q2 18 2 25q0 49 -46 49q-56 0 -68 -74l-46 -290q-5 -26 -30 -26h-86q-30 0 -25 30l86 541q-31 19 -80 19
q-30 0 -51 -17.5t-25 -47.5l-4 -25h78q30 0 25 -30l-10 -66q-5 -26 -30 -26h-82l-56 -352q-5 -26 -30 -26h-86q-30 0 -25 30l55 348h-140l-56 -352q-5 -26 -30 -26h-86q-30 0 -25 30l55 348h-28q-30 0 -25 30l10 66q5 26 30 26h33l2 15q29 187 217 187q76 0 137 -33
q54 43 145 43q59 0 108 -19zM399 500q8 50 14 67q-29 16 -74 16q-29 0 -50 -17.5t-26 -47.5l-3 -18h139z" />
    <glyph glyph-name="f_j" unicode="fj" horiz-adv-x="548" 
d="M259 500h250q30 0 25 -30l-73 -465q-13 -84 -58 -124.5t-125 -40.5h-27q-30 0 -25 30l10 66q5 26 30 26q26 0 38 10.5t16 37.5l58 368h-138l-56 -352q-5 -26 -30 -26h-86q-30 0 -25 30l55 348h-28q-30 0 -25 30l10 66q5 26 30 26h32l4 25q30 187 218 187q78 0 131 -29
q24 -12 10 -38l-36 -59q-12 -21 -37 -10q-29 14 -68 14q-66 0 -76 -65z" />
    <glyph glyph-name="f_f_j" unicode="ffj" horiz-adv-x="830" 
d="M541 500h250q30 0 25 -30l-73 -465q-13 -84 -58 -124.5t-125 -40.5h-27q-30 0 -25 30l10 66q5 26 30 26q26 0 38 10.5t16 37.5l58 368h-138l-56 -352q-5 -26 -30 -26h-86q-30 0 -25 30l55 348h-140l-56 -352q-5 -26 -30 -26h-86q-30 0 -25 30l55 348h-28q-30 0 -25 30
l10 66q5 26 30 26h33l2 15q29 187 217 187q78 0 138 -34q55 44 146 44q78 0 131 -29q24 -12 10 -38l-36 -59q-12 -21 -37 -10q-29 14 -68 14q-66 0 -76 -65zM399 500q8 50 14 67q-29 16 -74 16q-29 0 -50 -17.5t-26 -47.5l-3 -18h139z" />
    <glyph glyph-name="f_k" unicode="fk" horiz-adv-x="801" 
d="M333 30l86 541q-31 19 -80 19q-30 0 -51 -17.5t-25 -47.5l-4 -25h78q30 0 25 -30l-10 -66q-5 -26 -30 -26h-82l-56 -352q-5 -26 -30 -26h-86q-30 0 -25 30l55 348h-28q-30 0 -25 30l10 66q5 26 30 26h32l4 25q30 187 216 187q59 0 108 -19q7 7 20 7h86q30 0 25 -30
l-58 -366h2l136 179q13 17 34 17h104q18 0 22.5 -10t-6.5 -24l-173 -211l112 -222q8 -14 2 -23.5t-22 -9.5h-103q-23 0 -32 21l-88 197h-2l-30 -192q-5 -26 -30 -26h-86q-30 0 -25 30z" />
    <glyph glyph-name="f_f_k" unicode="ffk" horiz-adv-x="1083" 
d="M727 693q7 7 20 7h86q30 0 25 -30l-58 -366h2l136 179q13 17 34 17h104q18 0 22.5 -10t-6.5 -24l-173 -211l112 -222q8 -14 2 -23.5t-22 -9.5h-103q-23 0 -32 21l-88 197h-2l-30 -192q-5 -26 -30 -26h-86q-30 0 -25 30l86 541q-31 19 -80 19q-30 0 -51 -17.5t-25 -47.5
l-4 -25h78q30 0 25 -30l-10 -66q-5 -26 -30 -26h-82l-56 -352q-5 -26 -30 -26h-86q-30 0 -25 30l55 348h-140l-56 -352q-5 -26 -30 -26h-86q-30 0 -25 30l55 348h-28q-30 0 -25 30l10 66q5 26 30 26h33l2 15q29 187 217 187q76 0 137 -33q54 43 145 43q59 0 108 -19z
M399 500q8 50 14 67q-29 16 -74 16q-29 0 -50 -17.5t-26 -47.5l-3 -18h139z" />
    <glyph glyph-name="f_t" unicode="ft" horiz-adv-x="645" 
d="M438 577h85q30 0 25 -30l-7 -47h98q30 0 25 -30l-10 -66q-5 -26 -30 -26h-102l-33 -210q-1 -5 -1 -14q0 -44 50 -44q14 0 29 5q31 10 34 -19l7 -64q3 -27 -20 -34q-33 -10 -74 -10q-170 0 -170 144q0 23 4 44l32 202h-140l-56 -352q-5 -26 -30 -26h-86q-30 0 -25 30
l55 348h-28q-30 0 -25 30l10 66q5 26 30 26h32l4 25q30 187 203 187q63 0 106 -17q27 -9 13 -37l-30 -60q-10 -20 -37 -13q-23 5 -46 5q-26 0 -44.5 -17.5t-22.5 -47.5l-4 -25h140l9 51q5 26 30 26z" />
    <glyph glyph-name="f_f_t" unicode="fft" horiz-adv-x="927" 
d="M823 500h98q30 0 25 -30l-10 -66q-5 -26 -30 -26h-102l-33 -210q-1 -5 -1 -14q0 -44 50 -44q14 0 29 5q31 10 34 -19l7 -64q3 -27 -20 -34q-33 -10 -74 -10q-170 0 -170 144q0 23 4 44l32 202h-140l-56 -352q-5 -26 -30 -26h-86q-30 0 -25 30l55 348h-140l-56 -352
q-5 -26 -30 -26h-86q-30 0 -25 30l55 348h-28q-30 0 -25 30l10 66q5 26 30 26h33l2 15q29 187 217 187q79 0 137 -33q49 43 132 43q63 0 106 -17q27 -9 13 -37l-30 -60q-10 -19 -37 -13q-23 5 -46 5q-26 0 -44.5 -17.5t-22.5 -47.5l-4 -25h140l9 51q5 26 30 26h85
q30 0 25 -30zM399 500l5 28q3 21 9 39q-29 16 -74 16q-29 0 -50 -17.5t-26 -47.5l-3 -18h139z" />
    <glyph glyph-name=".notdef" horiz-adv-x="600" 
d="M543 0h-462v664h462v-664zM468 623h-312l156 -248zM285 332l-159 253v-506zM339 332l159 -253v506zM468 41l-156 248l-156 -248h312z" />
    <glyph glyph-name=".null" horiz-adv-x="0" 
 />
    <glyph glyph-name="nonmarkingreturn" horiz-adv-x="333" 
 />
    <glyph glyph-name="space" unicode=" " horiz-adv-x="215" 
 />
    <glyph glyph-name="exclam" unicode="!" horiz-adv-x="268" 
d="M223 380l-47 -142q-6 -17 -24 -17h-43q-21 0 -21 21l-2 137q0 15 3 34l34 225q5 26 30 26h86q30 0 25 -30l-33 -221q-3 -17 -8 -33zM99 -12q-36 0 -57.5 22t-21.5 57q0 39 26 65t64 26q36 0 57.5 -22t21.5 -57q0 -39 -26 -65t-64 -26z" />
    <glyph glyph-name="quotedbl" unicode="&#x22;" horiz-adv-x="435" 
d="M94 419l19 218q1 27 29 27h83q32 0 25 -31l-51 -218q-5 -21 -27 -21h-55q-25 0 -23 25zM289 419l19 218q2 27 29 27h83q32 0 25 -31l-51 -218q-4 -21 -27 -21h-55q-25 0 -23 25z" />
    <glyph glyph-name="numbersign" unicode="#" horiz-adv-x="530" 
d="M415 275h44q28 0 20 -27l-22 -65q-7 -20 -28 -20h-51l-48 -143q-7 -20 -28 -20h-66q-28 0 -20 27l46 136h-64l-48 -143q-7 -20 -28 -20h-66q-28 0 -20 27l46 136h-43q-28 0 -20 27l22 65q7 20 28 20h50l32 94h-44q-28 0 -20 27l22 65q7 20 28 20h51l41 123q7 20 28 20h66
q28 0 20 -27l-39 -116h64l41 123q7 20 28 20h66q28 0 20 -27l-39 -116h43q28 0 20 -27l-22 -65q-7 -20 -28 -20h-50zM267 369l-32 -94h64l32 94h-64z" />
    <glyph glyph-name="dollar" unicode="$" horiz-adv-x="530" 
d="M342 485l-17 -107q96 -10 137 -46.5t41 -107.5q0 -97 -64.5 -155.5t-172.5 -60.5l-10 -68q-1 -10 -12 -10h-20q-12 0 -10 12l11 67q-120 7 -184 81q-18 21 4 40l65 56q19 17 39 -3q38 -39 96 -44l17 108q-94 10 -135 46.5t-41 106.5q0 97 63.5 155.5t171.5 60.5l9 62
q1 10 12 10h20q12 0 10 -12l-10 -61q105 -7 157 -67q18 -20 -3 -39l-64 -56q-19 -16 -40 2q-27 25 -70 30zM235 427q0 -32 49 -42l16 100q-30 -4 -47.5 -19.5t-17.5 -38.5zM352 197q0 33 -49 43l-16 -101q65 8 65 58z" />
    <glyph glyph-name="percent" unicode="%" horiz-adv-x="652" 
d="M57 433l13 82q18 121 138 121q57 0 90 -29t33 -78q0 -8 -2 -24l-13 -82q-20 -121 -137 -121q-58 0 -91 28.5t-33 77.5q0 7 2 25zM163 511l-13 -84q-1 -6 -1 -10q0 -30 31 -30q17 0 28.5 10.5t14.5 29.5l13 84q1 5 1 9q0 31 -31 31q-37 0 -43 -40zM348 119l13 82
q18 121 138 121q57 0 90 -28.5t33 -77.5q0 -7 -2 -25l-13 -82q-20 -121 -137 -121q-58 0 -91 28.5t-33 77.5q0 7 2 25zM454 197l-13 -84q-1 -5 -1 -9q0 -31 32 -31q36 0 42 40l13 84q1 6 1 10q0 30 -30 30q-17 0 -29 -10.5t-15 -29.5zM46 28l477 583q12 13 28 13h67
q14 0 18 -8.5t-5 -19.5l-477 -583q-12 -13 -28 -13h-67q-14 0 -18 8.5t5 19.5z" />
    <glyph glyph-name="ampersand" unicode="&#x26;" horiz-adv-x="613" 
d="M493 343l75 -26q29 -10 14 -37q-46 -87 -92 -143l68 -103q9 -14 3.5 -24t-22.5 -10h-112q-22 0 -34 18l-12 19q-77 -49 -163 -49q-93 0 -147.5 47.5t-54.5 129.5q0 138 141 220q-26 53 -26 107q0 86 55 135t151 49q82 0 141 -38q23 -14 6 -38l-42 -58q-14 -21 -39 -6
q-30 18 -61 18q-32 0 -51 -15t-19 -44q0 -23 28 -67l115 -175q28 46 42 75q12 24 36 15zM242 113q34 0 72 26l-90 139q-60 -41 -60 -98q0 -31 20.5 -49t57.5 -18z" />
    <glyph glyph-name="quotesingle" unicode="'" horiz-adv-x="240" 
d="M94 419l19 218q1 27 29 27h83q32 0 25 -31l-51 -218q-5 -21 -27 -21h-55q-25 0 -23 25z" />
    <glyph glyph-name="parenleft" unicode="(" horiz-adv-x="354" 
d="M204 182q0 -135 56 -244q7 -12 2 -20t-19 -8h-80q-19 0 -29 16q-73 127 -73 276q0 115 46 234t144 216q11 12 29 12h78q15 0 16.5 -11t-10.5 -28q-160 -214 -160 -443z" />
    <glyph glyph-name="parenright" unicode=")" horiz-adv-x="354" 
d="M124 664h80q19 0 29 -16q73 -127 73 -276q0 -115 -46 -234t-144 -216q-11 -12 -29 -12h-78q-15 0 -19 8.5t6 21.5q167 217 167 452q0 135 -56 244q-6 12 -1.5 20t18.5 8z" />
    <glyph glyph-name="asterisk" unicode="*" horiz-adv-x="490" 
d="M348 463l93 -98q19 -20 -3 -36l-58 -41q-22 -16 -34 9l-57 121l-70 -123q-12 -23 -34 -8l-59 42q-23 16 -2 35l102 100l-133 22q-28 5 -18 31l24 69q10 26 33 13l124 -62l-12 137q-2 26 24 26h71q28 0 22 -27l-27 -134l123 60q25 13 32 -14l20 -68q7 -25 -19 -30z" />
    <glyph glyph-name="plus" unicode="+" horiz-adv-x="530" 
d="M329 213l-24 -151q-5 -26 -30 -26h-76q-30 0 -25 30l23 147h-147q-30 0 -25 30l12 76q5 26 30 26h151l24 151q5 26 30 26h76q30 0 25 -30l-23 -147h147q30 0 25 -30l-12 -76q-5 -26 -30 -26h-151z" />
    <glyph glyph-name="comma" unicode="," horiz-adv-x="266" 
d="M125 158q35 0 56.5 -22.5t21.5 -61.5q0 -55 -36 -115.5t-98 -107.5q-16 -13 -29 2l-27 29q-16 16 2 30q45 41 63 93q-43 18 -43 66q0 40 25.5 63.5t64.5 23.5z" />
    <glyph glyph-name="hyphen" unicode="-" horiz-adv-x="340" 
d="M74 343h224q30 0 25 -30l-12 -80q-5 -26 -30 -26h-224q-30 0 -25 30l12 80q5 26 30 26z" />
    <glyph glyph-name="period" unicode="." horiz-adv-x="266" 
d="M98 -12q-36 0 -57.5 22t-21.5 57q0 39 26 65t64 26q36 0 57.5 -22t21.5 -57q0 -39 -26 -65t-64 -26z" />
    <glyph glyph-name="slash" unicode="/" horiz-adv-x="370" 
d="M415 636l-299 -618q-8 -18 -29 -18h-82q-13 0 -18 8t1 20l299 618q8 18 29 18h82q13 0 18 -8t-1 -20z" />
    <glyph glyph-name="zero" unicode="0" horiz-adv-x="530" 
d="M33 207l35 220q16 102 78 155.5t165 53.5q97 0 152 -46.5t55 -129.5q0 -13 -4 -43l-35 -220q-16 -102 -78 -155.5t-165 -53.5q-97 0 -152 46.5t-55 129.5q0 13 4 43zM215 422l-35 -220q-2 -14 -2 -20q0 -64 65 -64q36 0 59.5 22t29.5 62l35 220q2 14 2 20q0 64 -65 64
q-36 0 -59.5 -22t-29.5 -62z" />
    <glyph glyph-name="one" unicode="1" horiz-adv-x="530" 
d="M477 594l-90 -568q-5 -26 -30 -26h-92q-30 0 -25 30l62 402l-88 -58q-24 -16 -38 9l-35 61q-12 23 9 38l197 131q17 11 35 11h70q30 0 25 -30z" />
    <glyph glyph-name="two" unicode="2" horiz-adv-x="530" 
d="M251 130h186q31 0 26 -30l-12 -74q-5 -26 -30 -26h-368q-30 0 -25 30l12 76q3 20 18 32l262 222q54 46 54 88q0 27 -17.5 42.5t-47.5 15.5q-53 0 -105 -58q-20 -23 -40 -2l-52 55q-19 19 0 39q92 96 216 96q88 0 141 -48t53 -130q0 -59 -24 -103t-83 -91l-164 -132v-2z
" />
    <glyph glyph-name="three" unicode="3" horiz-adv-x="530" 
d="M434 316v-2q64 -40 64 -126q0 -94 -67 -147t-184 -53q-138 0 -207 83q-17 21 3 39l57 56q20 20 40 -2q43 -46 111 -46q100 0 100 82q0 31 -24.5 43.5t-82.5 12.5h-13q-30 0 -25 30l10 68q5 26 30 26h12q64 0 91 16t27 54q0 56 -69 56q-54 0 -112 -55q-23 -21 -39 3
l-44 64q-15 22 4 40q94 78 213 78q91 0 143.5 -44.5t52.5 -123.5q0 -112 -91 -152z" />
    <glyph glyph-name="four" unicode="4" horiz-adv-x="530" 
d="M444 253h42q31 0 26 -30l-12 -74q-5 -26 -30 -26h-46l-16 -97q-5 -26 -30 -26h-91q-31 0 -26 30l15 93h-238q-31 0 -26 30l14 87q2 16 16 33l297 336q12 15 35 15h99q30 0 25 -30zM323 423h-2l-150 -170h125z" />
    <glyph glyph-name="five" unicode="5" horiz-adv-x="530" 
d="M185 624h319q31 0 26 -30l-12 -74q-5 -26 -30 -26h-228l-23 -103h2q40 18 91 18q78 0 126.5 -51.5t48.5 -136.5q0 -108 -68 -170.5t-186 -62.5q-138 0 -207 83q-16 21 3 39l57 56q20 20 40 -2q43 -46 111 -46q47 0 74.5 24.5t27.5 65.5q0 32 -21.5 51.5t-57.5 19.5
q-40 0 -73 -19q-19 -10 -37 -8l-59 9q-29 5 -23 32l68 306q6 25 31 25z" />
    <glyph glyph-name="six" unicode="6" horiz-adv-x="530" 
d="M216 377h2q46 39 118 39q71 0 113 -49.5t42 -131.5q0 -113 -67 -180t-180 -67q-96 0 -150.5 49.5t-54.5 134.5q0 22 4 45l32 200q17 106 82 162.5t168 56.5q107 0 174 -47q23 -15 6 -39l-47 -63q-15 -20 -39 -4q-36 23 -91 23q-90 0 -106 -95zM342 215q0 34 -17 52.5
t-47 18.5q-46 0 -68 -31.5t-22 -70.5q0 -31 18 -48.5t50 -17.5q39 0 62.5 26t23.5 71z" />
    <glyph glyph-name="seven" unicode="7" horiz-adv-x="530" 
d="M560 594l-14 -88q-2 -15 -12 -33l-279 -454q-12 -19 -34 -19h-109q-17 0 -22.5 10t3.5 24l293 460h-169l-13 -81q-5 -26 -30 -26h-78q-30 0 -25 30l29 181q5 26 30 26h404q31 0 26 -30z" />
    <glyph glyph-name="eight" unicode="8" horiz-adv-x="530" 
d="M423 313v-2q63 -46 63 -124q0 -95 -64 -147t-182 -52q-107 0 -165.5 45.5t-58.5 128.5q0 119 112 166v2q-51 42 -51 112q0 90 62 142t169 52q99 0 153 -44t54 -123q0 -109 -92 -156zM288 380q37 0 57.5 18.5t20.5 52.5q0 55 -64 55q-37 0 -57.5 -19t-20.5 -54
q0 -53 64 -53zM246 118q94 0 94 79q0 59 -80 59q-44 0 -70 -21.5t-26 -57.5q0 -59 82 -59z" />
    <glyph glyph-name="nine" unicode="9" horiz-adv-x="530" 
d="M322 636q96 0 149.5 -49t53.5 -134q0 -25 -4 -46l-32 -200q-17 -106 -82 -162.5t-168 -56.5q-106 0 -175 47q-22 16 -5 39l46 63q15 20 39 5q37 -24 92 -24q90 0 106 95l6 34h-2q-47 -39 -118 -39t-113 49t-42 131q0 115 66.5 181.5t182.5 66.5zM286 338q47 0 68.5 31.5
t21.5 70.5q0 31 -17.5 48.5t-49.5 17.5q-42 0 -64.5 -26t-22.5 -73q0 -33 17 -51t47 -18z" />
    <glyph glyph-name="colon" unicode=":" horiz-adv-x="266" 
d="M98 -12q-36 0 -57.5 22t-21.5 57q0 39 26 65t64 26q36 0 57.5 -22t21.5 -57q0 -39 -26 -65t-64 -26zM151 324q-36 0 -57.5 22t-21.5 57q0 39 26 65t64 26q36 0 57.5 -22t21.5 -57q0 -39 -26 -65t-64 -26z" />
    <glyph glyph-name="semicolon" unicode=";" horiz-adv-x="266" 
d="M125 158q35 0 56.5 -22.5t21.5 -61.5q0 -55 -36 -115.5t-98 -107.5q-16 -13 -29 2l-27 29q-16 16 2 30q45 41 63 93q-43 18 -43 66q0 40 25.5 63.5t64.5 23.5zM167 324q-36 0 -57.5 22t-21.5 57q0 39 26 65t64 26q36 0 57.5 -22t21.5 -57q0 -39 -26 -65t-64 -26z" />
    <glyph glyph-name="less" unicode="&#x3c;" horiz-adv-x="530" 
d="M434 46l-379 162q-23 10 -20 34l11 76q3 22 24 30l433 164q16 6 24.5 -1t6.5 -24l-13 -85q-3 -22 -24 -30l-273 -98v-2l238 -93q23 -9 19 -34l-13 -80q-5 -32 -34 -19z" />
    <glyph glyph-name="equal" unicode="=" horiz-adv-x="530" 
d="M488 328h-410q-30 0 -25 30l12 76q5 26 30 26h410q30 0 25 -30l-12 -76q-5 -26 -30 -26zM452 98h-410q-30 0 -25 30l11 76q5 26 30 26h410q30 0 25 -30l-11 -76q-5 -26 -30 -26z" />
    <glyph glyph-name="greater" unicode="&#x3e;" horiz-adv-x="530" 
d="M106 512l379 -162q23 -10 20 -34l-11 -76q-3 -22 -24 -30l-433 -164q-16 -6 -24.5 1t-6.5 24l13 85q3 22 24 30l273 98v2l-238 93q-23 9 -19 34l13 80q5 32 34 19z" />
    <glyph glyph-name="question" unicode="?" horiz-adv-x="466" 
d="M305 676q88 0 141.5 -47t53.5 -125q0 -68 -29.5 -111.5t-99.5 -73.5q-42 -18 -59.5 -34.5t-21.5 -39.5q-5 -24 -31 -24h-78q-31 0 -26 31q9 54 38 92t89 70q40 21 55.5 39t15.5 42q0 23 -17 37t-45 14q-56 0 -110 -58q-21 -24 -40 -2l-51 55q-19 19 2 42q91 93 213 93z
M191 -12q-36 0 -57.5 22t-21.5 57q0 39 26 65t64 26q36 0 57.5 -22t21.5 -57q0 -39 -26 -65t-64 -26z" />
    <glyph glyph-name="at" unicode="@" horiz-adv-x="738" 
d="M366 340h56q2 14 2 18q0 45 -51 45q-27 0 -55 -20q-22 -14 -31 8l-18 42q-7 19 10 31q45 28 110 28q67 0 103 -31t36 -89q0 -16 -3 -34l-13 -88q-2 -14 -2 -19q0 -34 30 -34q22 0 37.5 21.5t22.5 54.5t10 61.5t3 53.5q0 87 -42.5 142.5t-140.5 55.5q-68 0 -121 -25.5
t-83.5 -63.5t-50.5 -88t-26.5 -93t-6.5 -85q0 -102 55.5 -160t160.5 -58q92 0 163 47q21 14 30 -10l18 -46q7 -19 -11 -30q-84 -50 -206 -50q-151 0 -233.5 81t-82.5 223q0 55 10.5 111t39 118t72 109.5t115.5 78.5t163 31q144 0 212.5 -79.5t68.5 -205.5q0 -37 -5 -73.5
t-18.5 -75t-33.5 -68t-53 -48.5t-75 -19q-66 0 -89 45h-2q-38 -45 -110 -45q-52 0 -83 28t-31 78q0 127 149 127zM410 269h-37q-52 0 -52 -43q0 -29 34 -29q45 0 53 58z" />
    <glyph glyph-name="A" unicode="A" horiz-adv-x="602" 
d="M461 638l89 -608q5 -30 -26 -30h-101q-27 0 -30 26l-8 79h-196l-36 -84q-9 -21 -32 -21h-107q-16 0 -22 9t1 24l282 610q11 21 33 21h123q25 0 30 -26zM345 486h-2l-99 -251h127z" />
    <glyph glyph-name="B" unicode="B" horiz-adv-x="569" 
d="M456 335v-2q75 -35 75 -132q0 -107 -61 -154t-202 -47h-208q-30 0 -25 30l96 608q5 26 30 26h186q109 0 161.5 -38t52.5 -119q0 -131 -105 -172zM250 403h61q48 0 69.5 18t21.5 56q0 51 -71 51h-62zM208 136h77q47 0 68.5 19t21.5 60q0 54 -69 54h-77z" />
    <glyph glyph-name="C" unicode="C" horiz-adv-x="521" 
d="M272 124q56 0 97 54q18 24 40 7l64 -53q22 -17 5 -39q-82 -105 -216 -105q-105 0 -164 51.5t-59 144.5q0 26 4 49l33 208q37 235 271 235q143 0 201 -111q12 -24 -12 -38l-73 -44q-23 -14 -38 11q-32 46 -87 46q-91 0 -109 -116l-29 -184q-3 -18 -3 -34q0 -82 75 -82z
" />
    <glyph glyph-name="D" unicode="D" horiz-adv-x="593" 
d="M161 664h195q226 0 226 -184q0 -28 -4 -53l-32 -199q-19 -118 -86 -173t-193 -55h-207q-30 0 -25 30l96 608q5 26 30 26zM393 244l28 177q2 10 2 29q0 78 -89 78h-65l-61 -392h64q53 0 82.5 26t38.5 82z" />
    <glyph glyph-name="E" unicode="E" horiz-adv-x="540" 
d="M250 403h206q30 0 25 -30l-12 -78q-5 -26 -30 -26h-210l-21 -133h249q31 0 26 -30l-13 -80q-5 -26 -30 -26h-380q-30 0 -25 30l96 608q5 26 30 26h380q30 0 25 -30l-12 -80q-5 -26 -30 -26h-255z" />
    <glyph glyph-name="F" unicode="F" horiz-adv-x="512" 
d="M248 394h196q30 0 25 -30l-12 -80q-5 -26 -30 -26h-200l-37 -232q-5 -26 -30 -26h-100q-30 0 -25 30l96 608q5 26 30 26h370q30 0 25 -30l-12 -80q-5 -26 -30 -26h-245z" />
    <glyph glyph-name="G" unicode="G" horiz-adv-x="573" 
d="M553 354l-20 -124q-38 -242 -269 -242q-108 0 -166.5 51t-58.5 144q0 26 4 50l33 208q37 235 278 235q152 0 213 -111q12 -24 -12 -37l-76 -45q-23 -13 -38 10q-35 47 -99 47q-94 0 -113 -116l-29 -184q-3 -19 -3 -35q0 -81 78 -81q91 0 112 126h-70q-30 0 -25 30l12 78
q5 26 30 26h193q31 0 26 -30z" />
    <glyph glyph-name="H" unicode="H" horiz-adv-x="622" 
d="M620 634l-96 -608q-5 -26 -30 -26h-100q-30 0 -25 30l37 238h-178l-38 -242q-5 -26 -30 -26h-100q-30 0 -25 30l96 608q5 26 30 26h100q30 0 25 -30l-36 -230h178l37 234q5 26 30 26h100q30 0 25 -30z" />
    <glyph glyph-name="I" unicode="I" horiz-adv-x="288" 
d="M286 634l-96 -608q-5 -26 -30 -26h-100q-30 0 -25 30l96 608q5 26 30 26h100q30 0 25 -30z" />
    <glyph glyph-name="J" unicode="J" horiz-adv-x="525" 
d="M540 634l-66 -418q-36 -228 -252 -228q-146 0 -209 100q-13 22 9 38l71 52q21 15 39 -7q34 -47 90 -47q39 0 65 27.5t34 79.5l64 407q5 26 30 26h100q30 0 25 -30z" />
    <glyph glyph-name="K" unicode="K" horiz-adv-x="589" 
d="M474 664h124q18 0 22.5 -10t-6.5 -24l-239 -295l152 -302q8 -14 2 -23.5t-22 -9.5h-121q-23 0 -33 21l-119 265h-2l-42 -260q-5 -26 -30 -26h-100q-30 0 -25 30l96 608q5 26 30 26h100q30 0 25 -30l-38 -233h2l190 246q13 17 34 17z" />
    <glyph glyph-name="L" unicode="L" horiz-adv-x="505" 
d="M208 136h234q31 0 26 -30l-13 -80q-5 -26 -30 -26h-365q-30 0 -25 30l96 608q5 26 30 26h100q30 0 25 -30z" />
    <glyph glyph-name="M" unicode="M" horiz-adv-x="837" 
d="M634 664h176q30 0 25 -30l-96 -608q-5 -26 -30 -26h-99q-31 0 -26 30l68 428h-2l-199 -437q-10 -21 -33 -21h-69q-25 0 -30 26l-64 422h-2l-67 -422q-5 -26 -30 -26h-96q-30 0 -25 30l96 608q5 26 30 26h165q27 0 30 -26l59 -404h2l184 409q9 21 33 21z" />
    <glyph glyph-name="N" unicode="N" horiz-adv-x="622" 
d="M499 664h96q30 0 25 -30l-96 -608q-5 -26 -30 -26h-100q-25 0 -31 23l-116 385h-2l-59 -382q-5 -26 -30 -26h-96q-30 0 -25 30l96 608q5 26 30 26h112q25 0 31 -23l109 -361h2l54 358q5 26 30 26z" />
    <glyph glyph-name="O" unicode="O" horiz-adv-x="596" 
d="M43 233l33 208q37 235 273 235q109 0 170 -51.5t61 -143.5q0 -27 -4 -50l-33 -208q-37 -235 -273 -235q-110 0 -170.5 51.5t-60.5 144.5q0 26 4 49zM229 424l-29 -184q-3 -19 -3 -35q0 -81 80 -81q95 0 113 116l29 184q3 20 3 36q0 80 -79 80q-95 0 -114 -116z" />
    <glyph glyph-name="P" unicode="P" horiz-adv-x="558" 
d="M161 664h187q221 0 221 -190q0 -129 -68.5 -189.5t-214.5 -60.5h-65l-31 -198q-5 -26 -30 -26h-100q-30 0 -25 30l96 608q5 26 30 26zM411 461q0 67 -81 67h-60l-27 -168h60q56 0 82 24.5t26 76.5z" />
    <glyph glyph-name="Q" unicode="Q" horiz-adv-x="596" 
d="M349 676q109 0 170 -51.5t61 -143.5q0 -27 -4 -50l-33 -208q-27 -177 -172 -221q-3 -43 43 -43q19 0 39 11q29 14 36 -15l17 -61q6 -26 -15 -36q-47 -23 -102 -23q-81 0 -122 40t-39 115q-90 9 -139.5 59.5t-49.5 134.5q0 26 4 49l33 208q37 235 273 235zM390 240l29 184
q3 20 3 36q0 80 -79 80q-95 0 -114 -116l-29 -184q-3 -19 -3 -35q0 -81 80 -81q95 0 113 116z" />
    <glyph glyph-name="R" unicode="R" horiz-adv-x="570" 
d="M411 252l87 -220q6 -14 0 -23t-22 -9h-112q-25 0 -32 23l-70 215h-38l-34 -212q-5 -26 -30 -26h-100q-30 0 -25 30l96 608q5 26 30 26h185q219 0 219 -187q0 -182 -154 -225zM407 464q0 64 -78 64h-59l-25 -158h59q54 0 78.5 23t24.5 71z" />
    <glyph glyph-name="S" unicode="S" horiz-adv-x="524" 
d="M338 676q135 0 201 -72q18 -20 -4 -39l-69 -60q-19 -16 -40 3q-37 32 -96 32q-41 0 -65.5 -21t-24.5 -57q0 -24 20.5 -37t74.5 -22q95 -16 136.5 -57.5t41.5 -118.5q0 -111 -68.5 -175t-186.5 -64q-153 0 -229 88q-17 20 4 39l70 60q19 16 40 -3q48 -48 124 -48
q89 0 89 79q0 24 -20.5 36.5t-74.5 22.5q-96 17 -137 58.5t-41 117.5q0 109 69 173.5t186 64.5z" />
    <glyph glyph-name="T" unicode="T" horiz-adv-x="516" 
d="M383 528l-79 -502q-5 -26 -30 -26h-100q-30 0 -25 30l78 498h-131q-30 0 -25 30l12 80q5 26 30 26h424q30 0 25 -30l-12 -80q-5 -26 -30 -26h-137z" />
    <glyph glyph-name="U" unicode="U" horiz-adv-x="588" 
d="M590 634l-66 -418q-36 -228 -258 -228q-104 0 -161 49.5t-57 139.5q0 26 4 49l65 412q5 26 30 26h100q30 0 25 -30l-64 -405q-3 -18 -3 -33q0 -72 70 -72q83 0 99 105l65 409q5 26 30 26h96q30 0 25 -30z" />
    <glyph glyph-name="V" unicode="V" horiz-adv-x="584" 
d="M500 664h105q16 0 22 -9t-1 -24l-276 -610q-11 -21 -33 -21h-117q-27 0 -30 26l-83 608q-5 30 26 30h102q26 0 29 -26l46 -418h2l176 422q9 22 32 22z" />
    <glyph glyph-name="W" unicode="W" horiz-adv-x="860" 
d="M774 664h105q16 0 22 -9t0 -23l-248 -610q-9 -22 -33 -22h-107q-26 0 -29 27l-30 358h-2l-143 -363q-9 -22 -33 -22h-107q-26 0 -29 27l-55 608q-3 29 26 29h106q26 0 28 -27l18 -395h2l156 400q9 22 33 22h79q28 0 29 -27l30 -394h2l148 399q9 22 32 22z" />
    <glyph glyph-name="X" unicode="X" horiz-adv-x="594" 
d="M482 664h119q18 0 23 -10t-5 -24l-208 -291l120 -307q5 -14 -0.5 -23t-21.5 -9h-113q-23 0 -32 23l-65 191h-2l-130 -196q-11 -18 -34 -18h-117q-18 0 -23 10t5 24l221 311l-113 287q-5 14 0.5 23t21.5 9h114q25 0 32 -23l58 -169h2l114 174q12 18 34 18z" />
    <glyph glyph-name="Y" unicode="Y" horiz-adv-x="558" 
d="M478 664h120q17 0 22 -10t-5 -24l-251 -361l-39 -243q-5 -26 -30 -26h-100q-30 0 -25 30l39 250l-136 352q-5 14 1 23t22 9h114q25 0 32 -23l66 -203h2l134 208q12 18 34 18z" />
    <glyph glyph-name="Z" unicode="Z" horiz-adv-x="535" 
d="M213 136h240q30 0 25 -30l-12 -80q-5 -26 -30 -26h-405q-30 0 -25 30l14 92q3 19 15 33l315 373h-220q-30 0 -25 30l12 80q5 26 30 26h385q30 0 25 -30l-14 -92q-3 -19 -15 -33z" />
    <glyph glyph-name="bracketleft" unicode="[" horiz-adv-x="354" 
d="M185 22h70q27 0 22 -26l-10 -64q-3 -22 -25 -22h-191q-27 0 -22 26l112 706q3 22 25 22h191q25 0 22 -26l-10 -64q-4 -22 -26 -22h-75z" />
    <glyph glyph-name="backslash" unicode="\" horiz-adv-x="370" 
d="M107 664h78q22 0 26 -22l107 -616q5 -26 -22 -26h-78q-22 0 -26 22l-107 616q-5 26 22 26z" />
    <glyph glyph-name="bracketright" unicode="]" horiz-adv-x="354" 
d="M342 638l-112 -706q-3 -22 -25 -22h-191q-25 0 -22 26l10 64q4 22 26 22h75l83 530h-70q-27 0 -22 26l10 64q3 22 25 22h191q27 0 22 -26z" />
    <glyph glyph-name="asciicircum" unicode="^" horiz-adv-x="530" 
d="M309 471l-134 -195q-12 -18 -34 -18h-95q-17 0 -22.5 10t4.5 24l225 315q11 17 33 17h77q24 0 33 -22l123 -312q6 -14 0 -23t-22 -9h-84q-25 0 -32 22z" />
    <glyph glyph-name="underscore" unicode="_" horiz-adv-x="500" 
d="M453 -40l-13 -80h-500l13 80h500z" />
    <glyph glyph-name="grave" unicode="`" horiz-adv-x="500" 
d="M349 565h-79q-17 0 -26 16l-63 117q-7 13 -2 21t19 8h93q19 0 28 -19l48 -117q10 -26 -18 -26z" />
    <glyph glyph-name="a" unicode="a" horiz-adv-x="464" 
d="M245 512q91 0 141.5 -42.5t50.5 -122.5q0 -19 -3 -38l-21 -134q-30 -187 -223 -187q-86 0 -132 38t-46 111q0 167 203 167h76q2 9 2 26q0 60 -68 60q-39 0 -81 -27q-26 -18 -37 10l-26 60q-11 25 14 39q68 40 150 40zM200 110q61 0 73 78l3 21h-52q-33 0 -51 -15.5
t-18 -41.5q0 -42 45 -42z" />
    <glyph glyph-name="b" unicode="b" horiz-adv-x="490" 
d="M309 512q76 0 116 -39.5t40 -111.5q0 -23 -4 -46l-22 -140q-30 -187 -219 -187q-89 0 -138 41.5t-49 116.5q0 20 3 39l78 489q5 26 30 26h86q30 0 25 -30l-28 -181h2q32 23 80 23zM299 188l19 124q2 9 2 26q0 52 -49 52q-61 0 -73 -78l-19 -124q-2 -18 -2 -25
q0 -53 49 -53q61 0 73 78z" />
    <glyph glyph-name="c" unicode="c" horiz-adv-x="395" 
d="M323 124l29 -57q12 -25 -8 -39q-57 -40 -129 -40q-90 0 -140.5 43t-50.5 122q0 22 4 43l19 119q31 197 221 197q80 0 128 -35q22 -16 4 -39l-42 -52q-14 -18 -39 -6q-19 10 -47 10q-71 0 -85 -88l-17 -104q-2 -18 -2 -24q0 -64 64 -64q26 0 52 21q25 19 39 -7z" />
    <glyph glyph-name="d" unicode="d" horiz-adv-x="490" 
d="M396 700h86q30 0 25 -30l-78 -495q-30 -187 -219 -187q-89 0 -138 41.5t-49 116.5q0 20 3 39l22 140q15 92 65 139.5t132 47.5q58 0 88 -33h2l31 195q5 26 30 26zM289 188l19 124q2 11 2 24q0 54 -49 54q-61 0 -73 -78l-19 -124q-2 -11 -2 -25q0 -53 49 -53q61 0 73 78z
" />
    <glyph glyph-name="e" unicode="e" horiz-adv-x="463" 
d="M263 512q87 0 135 -41.5t48 -116.5q0 -18 -3 -39l-13 -80q-5 -26 -30 -26h-229q-3 -19 -3 -37q0 -34 16 -48t53 -14q39 0 79 28q25 18 38 -7l30 -57q13 -24 -8 -39q-67 -47 -149 -47q-99 0 -151 41.5t-52 121.5q0 24 4 45l20 129q30 187 215 187zM261 390q-63 0 -73 -77
l-1 -9h120q3 15 3 34q0 52 -49 52z" />
    <glyph glyph-name="f" unicode="f" horiz-adv-x="349" 
d="M330 590q-26 0 -44.5 -17.5t-22.5 -47.5l-4 -25h98q30 0 25 -30l-10 -66q-5 -26 -30 -26h-102l-56 -352q-5 -26 -30 -26h-86q-30 0 -25 30l55 348h-28q-30 0 -25 30l10 66q5 26 30 26h32l4 25q30 187 203 187q61 0 106 -17q26 -11 13 -37l-29 -60q-10 -21 -33 -15
q-22 7 -51 7z" />
    <glyph glyph-name="g" unicode="g" horiz-adv-x="490" 
d="M284 512q89 0 138 -41.5t49 -115.5q0 -19 -3 -40l-48 -304q-14 -89 -71 -136t-150 -47q-102 0 -167 50q-20 17 -3 39l40 55q15 21 39 5q39 -28 88 -28q72 0 83 69l2 12h-2q-30 -21 -76 -21q-76 0 -118 40t-42 112q0 24 4 45l19 119q29 187 218 187zM309 209l17 103
q2 18 2 24q0 54 -50 54q-60 0 -72 -78l-17 -103q-2 -18 -2 -24q0 -54 50 -54q60 0 72 78z" />
    <glyph glyph-name="h" unicode="h" horiz-adv-x="496" 
d="M320 512q71 0 108.5 -38t37.5 -107q0 -26 -4 -49l-46 -292q-5 -26 -30 -26h-86q-30 0 -25 30l45 286q2 18 2 25q0 49 -46 49q-56 0 -68 -74l-46 -290q-5 -26 -30 -26h-86q-30 0 -25 30l102 644q5 26 30 26h86q30 0 25 -30l-29 -181h2q34 23 83 23z" />
    <glyph glyph-name="i" unicode="i" horiz-adv-x="246" 
d="M184 566q-34 0 -54.5 20.5t-20.5 52.5q0 38 24 62.5t61 24.5q34 0 54.5 -20.5t20.5 -53.5q0 -38 -24.5 -62t-60.5 -24zM132 0h-86q-30 0 -25 30l70 444q5 26 30 26h86q30 0 25 -30l-70 -444q-5 -26 -30 -26z" />
    <glyph glyph-name="j" unicode="j" horiz-adv-x="246" 
d="M-36 -38q26 0 38 10.5t16 37.5l73 464q5 26 30 26h86q30 0 25 -30l-73 -465q-13 -84 -58 -124.5t-125 -40.5h-27q-30 0 -25 30l10 66q5 26 30 26zM184 566q-34 0 -54.5 20.5t-20.5 52.5q0 38 24 62.5t61 24.5q34 0 54.5 -20.5t20.5 -53.5q0 -38 -24.5 -62t-60.5 -24z" />
    <glyph glyph-name="k" unicode="k" horiz-adv-x="489" 
d="M378 500h104q18 0 22.5 -10t-6.5 -24l-173 -211l112 -222q8 -14 2 -23.5t-22 -9.5h-103q-23 0 -32 21l-88 197h-2l-30 -192q-5 -26 -30 -26h-86q-30 0 -25 30l102 644q5 26 30 26h86q30 0 25 -30l-58 -366h2l136 179q13 17 34 17z" />
    <glyph glyph-name="l" unicode="l" horiz-adv-x="246" 
d="M132 0h-86q-30 0 -25 30l102 644q5 26 30 26h86q30 0 25 -30l-102 -644q-5 -26 -30 -26z" />
    <glyph glyph-name="m" unicode="m" horiz-adv-x="742" 
d="M538 512q82 0 128 -40.5t46 -112.5q0 -21 -4 -42l-46 -291q-5 -26 -30 -26h-86q-30 0 -25 30l45 287q2 18 2 24q0 49 -45 49q-55 0 -67 -73l-46 -291q-5 -26 -30 -26h-86q-30 0 -25 30l45 287q2 18 2 24q0 49 -46 49q-54 0 -66 -73l-46 -291q-5 -26 -30 -26h-86
q-30 0 -25 30l47 297q29 185 203 185q89 0 132 -51h2q50 51 137 51z" />
    <glyph glyph-name="n" unicode="n" horiz-adv-x="492" 
d="M271 30l45 286q2 18 2 25q0 49 -46 49q-56 0 -68 -74l-46 -290q-5 -26 -30 -26h-86q-30 0 -25 30l47 298q29 184 214 184q87 0 135 -40.5t48 -113.5q0 -19 -3 -40l-46 -292q-5 -26 -30 -26h-86q-30 0 -25 30z" />
    <glyph glyph-name="o" unicode="o" horiz-adv-x="480" 
d="M267 512q89 0 138 -41.5t49 -116.5q0 -20 -3 -39l-22 -140q-30 -187 -219 -187q-89 0 -138 41.5t-49 116.5q0 20 3 39l22 140q30 187 219 187zM289 188l19 124q2 9 2 26q0 52 -49 52q-61 0 -73 -78l-19 -124q-2 -18 -2 -25q0 -53 49 -53q61 0 73 78z" />
    <glyph glyph-name="p" unicode="p" horiz-adv-x="490" 
d="M282 512q89 0 138 -41.5t49 -115.5q0 -19 -3 -40l-22 -140q-15 -92 -65 -139.5t-132 -47.5q-57 0 -87 33h-2l-25 -155q-5 -26 -30 -26h-86q-30 0 -25 30l72 455q29 187 218 187zM304 188l20 124q2 18 2 24q0 54 -50 54q-60 0 -72 -78l-20 -124q-2 -16 -2 -23
q0 -55 50 -55q60 0 72 78z" />
    <glyph glyph-name="q" unicode="q" horiz-adv-x="490" 
d="M267 512q89 0 138 -41.5t49 -115.5q0 -19 -3 -40l-71 -449q-5 -26 -30 -26h-86q-30 0 -25 30l22 142h-2q-31 -24 -81 -24q-76 0 -116 39.5t-40 111.5q0 25 4 46l23 140q30 187 218 187zM289 188l20 124q2 18 2 24q0 54 -50 54q-60 0 -72 -78l-20 -124q-2 -18 -2 -24
q0 -54 50 -54q60 0 72 78z" />
    <glyph glyph-name="r" unicode="r" horiz-adv-x="369" 
d="M17 30l46 290q30 192 201 192q69 0 116 -26q23 -14 8 -38l-36 -60q-14 -21 -39 -8q-20 10 -43 10q-54 0 -65 -67l-47 -297q-5 -26 -30 -26h-86q-30 0 -25 30z" />
    <glyph glyph-name="s" unicode="s" horiz-adv-x="417" 
d="M197 -12q-113 0 -176 49q-21 17 -4 39l43 57q15 21 39 5q44 -30 96 -30q67 0 67 42q0 16 -15 25t-54 16q-73 13 -105 45.5t-32 91.5q0 85 57 134.5t155 49.5q89 0 145 -36q22 -13 6 -38l-39 -56q-15 -20 -39 -8q-32 18 -72 18q-72 0 -72 -41q0 -16 14.5 -25t52.5 -15
q75 -11 107.5 -44.5t32.5 -94.5q0 -85 -55.5 -134.5t-151.5 -49.5z" />
    <glyph glyph-name="t" unicode="t" horiz-adv-x="363" 
d="M240 378l-33 -210q-1 -5 -1 -14q0 -44 50 -44q16 0 28 4q29 9 33 -18l9 -64q3 -27 -20 -34q-33 -10 -74 -10q-170 0 -170 144q0 23 4 44l32 202h-28q-30 0 -25 30l10 66q5 26 30 26h32l16 101q5 26 30 26h86q30 0 25 -30l-15 -97h98q30 0 25 -30l-10 -66q-5 -26 -30 -26
h-102z" />
    <glyph glyph-name="u" unicode="u" horiz-adv-x="486" 
d="M471 470l-47 -301q-29 -181 -211 -181q-86 0 -133.5 40t-47.5 113q0 19 3 38l47 295q5 26 30 26h86q30 0 25 -30l-46 -292q-2 -16 -2 -22q0 -46 46 -46q56 0 66 68l47 296q5 26 30 26h82q30 0 25 -30z" />
    <glyph glyph-name="v" unicode="v" horiz-adv-x="472" 
d="M386 500h88q16 0 22 -9t-1 -24l-207 -446q-11 -21 -33 -21h-105q-25 0 -30 26l-66 444q-5 30 26 30h87q27 0 30 -27l29 -305h2l126 310q9 22 32 22z" />
    <glyph glyph-name="w" unicode="w" horiz-adv-x="713" 
d="M626 500h86q16 0 22 -9t-1 -24l-186 -445q-9 -22 -32 -22h-97q-27 0 -30 26l-24 256h-2l-105 -260q-9 -22 -32 -22h-97q-27 0 -30 26l-45 445q-3 29 27 29h85q28 0 29 -27l18 -294h2l122 299q9 22 32 22h55q27 0 30 -26l29 -290h2l109 294q9 22 33 22z" />
    <glyph glyph-name="x" unicode="x" horiz-adv-x="485" 
d="M371 500h98q18 0 23 -10t-5 -24l-152 -210l91 -224q6 -14 0 -23t-22 -9h-97q-24 0 -31 23l-42 133h-2l-87 -138q-12 -18 -34 -18h-99q-18 0 -23 10t5 24l166 230l-83 204q-6 14 0 23t22 9h98q24 0 31 -23l35 -111h2l72 115q12 19 34 19z" />
    <glyph glyph-name="y" unicode="y" horiz-adv-x="496" 
d="M383 500h86q30 0 25 -30l-72 -459q-14 -89 -71 -136t-150 -47q-102 0 -167 50q-20 17 -3 39l40 55q15 21 39 5q39 -28 88 -28q73 0 83 69l2 14h-2q-33 -24 -83 -24q-71 0 -108.5 38.5t-37.5 108.5q0 24 4 47l43 272q5 26 30 26h86q30 0 25 -30l-42 -266q-2 -18 -2 -24
q0 -50 47 -50q55 0 67 74l43 270q5 26 30 26z" />
    <glyph glyph-name="z" unicode="z" horiz-adv-x="440" 
d="M188 122h172q30 0 25 -30l-10 -66q-5 -26 -30 -26h-318q-30 0 -25 30l12 79q3 18 16 33l224 236h-152q-30 0 -25 30l10 66q5 26 30 26h298q30 0 25 -30l-12 -79q-3 -18 -16 -33z" />
    <glyph glyph-name="braceleft" unicode="{" horiz-adv-x="364" 
d="M340 664h25q27 0 22 -26l-10 -64q-4 -22 -27 -22q-31 0 -46 -17.5t-22 -60.5l-10 -62q-16 -106 -113 -126v-2q77 -15 77 -90q0 -16 -3 -32l-10 -62q-3 -16 -3 -29q0 -49 46 -49q24 0 19 -26l-10 -64q-3 -22 -25 -22h-29q-147 0 -147 122q0 18 3 41l11 73q3 20 3 34
q0 25 -9.5 35.5t-29.5 15.5q-19 5 -16 28l10 65q3 19 25 20q27 2 41 22t21 62l11 73q13 89 58 126t138 37z" />
    <glyph glyph-name="bar" unicode="|" horiz-adv-x="265" 
d="M109 -160h-71q-26 0 -21 25l129 814q3 21 24 21h71q26 0 21 -25l-129 -814q-3 -21 -24 -21z" />
    <glyph glyph-name="braceright" unicode="}" horiz-adv-x="364" 
d="M329 343q19 -5 16 -28l-10 -65q-3 -19 -25 -20q-27 -2 -41 -22t-21 -62l-11 -73q-13 -89 -58 -126t-138 -37h-25q-27 0 -22 26l10 64q4 22 27 22q31 0 46 17.5t22 60.5l10 62q16 106 113 126v2q-77 15 -77 90q0 16 3 32l10 62q3 16 3 29q0 49 -46 49q-24 0 -19 26l10 64
q3 22 25 22h29q147 0 147 -122q0 -18 -3 -41l-11 -73q-3 -19 -3 -34q0 -25 9.5 -35.5t29.5 -15.5z" />
    <glyph glyph-name="asciitilde" unicode="~" horiz-adv-x="530" 
d="M202 244q-37 0 -71 -48q-17 -23 -39 -8l-57 36q-24 15 -8 39q76 113 172 113q55 0 114 -39q32 -23 54 -23q36 0 70 48q17 23 39 8l58 -36q24 -15 8 -39q-41 -60 -82 -86.5t-90 -26.5q-55 0 -114 39q-32 23 -54 23z" />
    <glyph glyph-name="uni00A0" unicode="&#xa0;" horiz-adv-x="215" 
 />
    <glyph glyph-name="exclamdown" unicode="&#xa1;" horiz-adv-x="268" 
d="M197 676q36 0 57.5 -22t21.5 -57q0 -39 -26 -65t-64 -26q-36 0 -57.5 22t-21.5 57q0 39 26 65t64 26zM73 284l47 142q6 17 24 17h43q21 0 21 -21l2 -137q0 -15 -3 -34l-34 -225q-5 -26 -30 -26h-86q-30 0 -25 30l33 221q3 17 8 33z" />
    <glyph glyph-name="cent" unicode="&#xa2;" horiz-adv-x="530" 
d="M410 151l32 -61q12 -25 -8 -39q-56 -39 -131 -43l-10 -68q-1 -10 -12 -10h-20q-11 0 -10 12l10 67q-87 5 -134.5 48.5t-47.5 120.5q0 26 4 47l15 94q31 205 241 205h4l9 62q1 10 12 10h20q12 0 10 -12l-10 -63q60 -7 99 -34q21 -16 3 -39l-45 -56q-14 -18 -38 -5
q-17 8 -39 9l-40 -260q24 4 47 22q25 19 39 -7zM243 305l-12 -78q-2 -10 -2 -26q0 -55 53 -64l40 259q-65 -9 -79 -91z" />
    <glyph glyph-name="sterling" unicode="&#xa3;" horiz-adv-x="530" 
d="M535 566q18 -20 -4 -39l-61 -52q-18 -15 -39 3q-29 28 -84 28q-39 0 -62 -22.5t-23 -60.5q0 -29 15 -81h132q27 0 22 -26l-8 -48q-3 -22 -25 -22h-117q-7 -62 -59 -114v-2h212q31 0 26 -30l-12 -74q-5 -26 -30 -26h-348q-30 0 -25 30l12 76q3 18 18 32q64 56 73 108h-60
q-27 0 -22 26l8 48q3 22 25 22h39q-21 52 -21 92q0 37 12.5 71t38 64t71.5 48.5t107 18.5q125 0 189 -70z" />
    <glyph glyph-name="currency" unicode="&#xa4;" horiz-adv-x="530" 
d="M472 321q0 -59 -28 -103l40 -43q17 -19 -1 -34l-58 -52q-19 -16 -34 2l-42 49q-36 -13 -71 -13q-51 0 -90 22l-65 -60q-19 -16 -34 2l-48 52q-16 19 2 34l72 62q-8 23 -8 55q0 61 27 106l-41 44q-16 19 2 34l58 52q19 16 34 -2l41 -47q36 13 72 13q52 0 91 -24l64 60
q18 18 34 -2l48 -52q16 -19 -2 -34l-72 -62q9 -27 9 -59zM216 304q0 -30 19 -49t50 -19q34 0 56.5 23t22.5 57q0 30 -19 49t-50 19q-34 0 -56.5 -23t-22.5 -57z" />
    <glyph glyph-name="yen" unicode="&#xa5;" horiz-adv-x="530" 
d="M435 624h109q18 0 23 -10t-6 -24l-199 -264h112q25 0 20 -24l-7 -42q-3 -20 -23 -20h-123l-8 -54h118q25 0 20 -24l-6 -42q-3 -20 -24 -20h-122l-12 -74q-5 -26 -30 -26h-92q-30 0 -25 30l11 70h-119q-25 0 -20 24l6 42q3 20 24 20h123l8 54h-119q-25 0 -20 24l7 42
q3 20 23 20h122l-118 265q-7 15 -1 24t22 9h104q25 0 32 -22l53 -144h2l101 148q11 18 34 18z" />
    <glyph glyph-name="brokenbar" unicode="&#xa6;" horiz-adv-x="265" 
d="M189 350h-71q-26 0 -21 25l49 304q3 21 24 21h71q26 0 21 -25l-49 -304q-3 -21 -24 -21zM109 -160h-71q-26 0 -21 25l48 304q3 21 24 21h71q26 0 21 -25l-48 -304q-3 -21 -24 -21z" />
    <glyph glyph-name="section" unicode="&#xa7;" horiz-adv-x="544" 
d="M538 648q20 -20 -3 -39l-55 -47q-17 -16 -39 1q-37 28 -100 28q-40 0 -66 -19t-26 -48q0 -21 22 -33t80 -22q98 -16 140.5 -51t42.5 -100q0 -119 -105 -171v-2q47 -38 47 -103q0 -97 -66 -155.5t-176 -58.5q-144 0 -216 78q-18 20 4 39l56 47q19 16 39 -2q45 -41 125 -41
q42 0 67 18t25 48q0 21 -22 33t-79 22q-100 16 -142 51t-42 101q0 117 97 172v2q-39 36 -39 98q0 101 65 159.5t177 58.5q127 0 189 -64zM272 347q-36 -10 -58.5 -34.5t-22.5 -54.5q0 -27 23.5 -41.5t86.5 -26.5q40 10 65.5 35t25.5 56q0 27 -26 41.5t-94 24.5z" />
    <glyph glyph-name="dieresis" unicode="&#xa8;" horiz-adv-x="500" 
d="M215 573q-32 0 -50.5 19t-18.5 49q0 35 21.5 57.5t55.5 22.5q31 0 50.5 -19.5t19.5 -50.5q0 -34 -22.5 -56t-55.5 -22zM399 573q-31 0 -50 19t-19 49q0 35 22 57.5t55 22.5q32 0 51 -19.5t19 -50.5q0 -34 -22 -56t-56 -22z" />
    <glyph glyph-name="copyright" unicode="&#xa9;" horiz-adv-x="752" 
d="M426 676q135 0 221.5 -84.5t86.5 -215.5q0 -160 -113 -274t-272 -114q-135 0 -221.5 84.5t-86.5 215.5q0 160 113 274t272 114zM355 63q118 0 206 91.5t88 214.5q0 103 -63 167.5t-166 64.5q-118 0 -206 -91.5t-88 -214.5q0 -103 63 -167.5t166 -64.5zM355 383l-16 -102
q-2 -14 -2 -18q0 -39 35 -39q23 0 47 24q15 16 31 3l30 -26q17 -15 2 -31q-46 -53 -117 -53q-59 0 -91.5 28.5t-32.5 80.5q0 7 2 27l19 116q20 130 152 130q74 0 108 -55q12 -18 -8 -30l-38 -24q-16 -11 -30 8q-16 18 -39 18q-43 0 -52 -57z" />
    <glyph glyph-name="ordfeminine" unicode="&#xaa;" horiz-adv-x="360" 
d="M215 636q72 0 112.5 -33.5t40.5 -95.5q0 -16 -3 -34l-15 -97q-23 -144 -172 -144q-69 0 -105.5 30t-36.5 87q0 129 156 129h53q1 5 1 14q0 40 -49 40q-25 0 -53 -16q-23 -14 -33 8l-22 51q-9 22 12 34q51 27 114 27zM185 336q37 0 45 51l2 11h-31q-44 0 -44 -35
q0 -27 28 -27z" />
    <glyph glyph-name="guillemotleft" unicode="&#xab;" horiz-adv-x="498" 
d="M154 244l74 -161q6 -13 1 -20.5t-19 -7.5h-75q-21 0 -29 18l-77 159q-8 18 4 33l128 166q11 14 29 14h81q15 0 19.5 -8.5t-4.5 -20.5zM366 244l74 -161q6 -13 1 -20.5t-19 -7.5h-75q-21 0 -29 18l-77 159q-8 18 4 33l128 166q11 14 29 14h81q15 0 19.5 -8.5t-4.5 -20.5z
" />
    <glyph glyph-name="logicalnot" unicode="&#xac;" horiz-adv-x="530" 
d="M530 365l-40 -253q-5 -26 -30 -26h-76q-30 0 -25 30l23 147h-324q-30 0 -25 30l12 76q5 26 30 26h430q30 0 25 -30z" />
    <glyph glyph-name="uni00AD" unicode="&#xad;" horiz-adv-x="340" 
d="M74 343h224q30 0 25 -30l-12 -80q-5 -26 -30 -26h-224q-30 0 -25 30l12 80q5 26 30 26z" />
    <glyph glyph-name="registered" unicode="&#xae;" horiz-adv-x="752" 
d="M314 516h106q123 0 123 -100q0 -105 -89 -131l47 -111q11 -26 -17 -26h-61q-19 0 -25 18l-44 134l-21 -132q-3 -20 -23 -20h-51q-25 0 -20 24l52 324q3 20 23 20zM364 358h33q48 0 48 43q0 32 -36 32h-33zM426 676q135 0 221.5 -84.5t86.5 -215.5q0 -160 -113 -274
t-272 -114q-135 0 -221.5 84.5t-86.5 215.5q0 160 113 274t272 114zM355 63q118 0 206 91.5t88 214.5q0 103 -63 167.5t-166 64.5q-118 0 -206 -91.5t-88 -214.5q0 -103 63 -167.5t166 -64.5z" />
    <glyph glyph-name="macron" unicode="&#xaf;" horiz-adv-x="500" 
d="M462 666l-10 -64q-4 -22 -26 -22h-239q-25 0 -22 26l10 64q4 22 26 22h239q27 0 22 -26z" />
    <glyph glyph-name="degree" unicode="&#xb0;" horiz-adv-x="368" 
d="M206 312q-66 0 -107.5 41.5t-41.5 106.5q0 75 50 125.5t123 50.5q66 0 107.5 -41.5t41.5 -106.5q0 -76 -49.5 -126t-123.5 -50zM211 407q29 0 49.5 21.5t20.5 52.5q0 26 -15.5 43t-40.5 17q-29 0 -49.5 -21.5t-20.5 -52.5q0 -26 15.5 -43t40.5 -17z" />
    <glyph glyph-name="plusminus" unicode="&#xb1;" horiz-adv-x="530" 
d="M316 132h142q30 0 25 -30l-12 -76q-5 -26 -30 -26h-420q-30 0 -25 30l12 76q5 26 30 26h146l20 131h-141q-30 0 -25 30l12 76q5 26 30 26h146l19 121q5 26 30 26h76q30 0 25 -30l-18 -117h142q30 0 25 -30l-12 -76q-5 -26 -30 -26h-147z" />
    <glyph glyph-name="twosuperior" unicode="&#xb2;" 
d="M213 453h96q26 0 21 -25l-7 -43q-3 -21 -24 -21h-212q-26 0 -21 25l7 44q3 17 14 27l152 131q29 26 29 47q0 29 -33 29q-26 0 -52 -29q-17 -18 -33 -1l-30 34q-16 16 0 32q53 53 125 53q56 0 89 -30.5t33 -83.5q0 -35 -14 -61.5t-52 -56.5l-88 -69v-2z" />
    <glyph glyph-name="threesuperior" unicode="&#xb3;" 
d="M311 557v-2q41 -25 41 -78q0 -58 -39 -89.5t-111 -31.5q-80 0 -124 49q-14 16 2 32l30 30q15 15 33 0q23 -22 59 -22q53 0 53 39q0 18 -13 25t-47 7q-24 0 -19 25l6 39q3 21 25 21q37 0 50 8t13 30q0 28 -35 28q-25 0 -57 -29q-18 -17 -32 3l-26 39q-12 19 4 32
q54 44 123 44q57 0 90 -29t33 -80q0 -69 -59 -90z" />
    <glyph glyph-name="acute" unicode="&#xb4;" horiz-adv-x="500" 
d="M474 698l-102 -121q-9 -12 -27 -12h-90q-14 0 -18 8.5t4 18.5l88 120q11 15 29 15h102q16 0 20 -9t-6 -20z" />
    <glyph glyph-name="uni00B5" unicode="&#xb5;" horiz-adv-x="496" 
d="M375 500h86q30 0 25 -30l-47 -298q-29 -184 -186 -184q-59 0 -89 33h-2l-25 -155q-5 -26 -30 -26h-86q-30 0 -25 30l95 604q5 26 30 26h86q30 0 25 -30l-45 -286q-2 -11 -2 -23q0 -51 46 -51q56 0 68 74l46 290q5 26 30 26z" />
    <glyph glyph-name="paragraph" unicode="&#xb6;" horiz-adv-x="582" 
d="M432 -160h-65q-26 0 -21 25l114 719h-70l-114 -723q-3 -21 -24 -21h-65q-26 0 -21 25l63 397q-175 18 -175 177q0 133 69 197t215 64h226q26 0 21 -25l-129 -814q-3 -21 -24 -21z" />
    <glyph glyph-name="periodcentered" unicode="&#xb7;" horiz-adv-x="266" 
d="M136 227q-36 0 -57.5 22t-21.5 57q0 39 26 65t64 26q36 0 57.5 -22t21.5 -57q0 -39 -26 -65t-64 -26z" />
    <glyph glyph-name="cedilla" unicode="&#xb8;" horiz-adv-x="500" 
d="M260 28l-22 -62q61 -11 61 -63q0 -75 -107 -75q-47 0 -79 15q-19 10 -10 33l9 23q8 21 33 10q24 -10 40 -10q33 0 33 21q0 19 -27 19q-12 0 -17.5 6.5t-1.5 18.5l21 64h67z" />
    <glyph glyph-name="onesuperior" unicode="&#xb9;" 
d="M351 724l-55 -340q-3 -21 -24 -21h-53q-26 0 -21 25l35 228l-36 -25q-20 -12 -32 7l-21 35q-11 19 7 32l111 75q13 9 29 9h39q26 0 21 -25z" />
    <glyph glyph-name="ordmasculine" unicode="&#xba;" horiz-adv-x="375" 
d="M235 636q70 0 109 -33t39 -91q0 -20 -2 -30l-16 -106q-23 -144 -170 -144q-70 0 -109 33t-39 92q0 19 2 29l17 106q23 144 169 144zM245 387l15 94q2 12 2 17q0 34 -32 34q-36 0 -45 -51l-15 -94q-1 -6 -1 -16q0 -35 30 -35q39 0 46 51z" />
    <glyph glyph-name="guillemotright" unicode="&#xbb;" horiz-adv-x="498" 
d="M262 235l-128 -166q-11 -14 -29 -14h-81q-15 0 -19.5 8.5t4.5 20.5l132 172l-74 161q-6 13 -1 20.5t19 7.5h75q21 0 29 -18l77 -159q8 -18 -4 -33zM474 235l-128 -166q-11 -14 -29 -14h-81q-15 0 -19.5 8.5t4.5 20.5l132 172l-74 161q-6 13 -1 20.5t19 7.5h75
q21 0 29 -18l77 -159q8 -18 -4 -33z" />
    <glyph glyph-name="onequarter" unicode="&#xbc;" horiz-adv-x="804" 
d="M743 163h18q26 0 21 -25l-7 -43q-3 -21 -24 -21h-22l-9 -53q-3 -21 -24 -21h-53q-26 0 -21 25l8 49h-130q-26 0 -21 25l9 53q3 15 12 27l168 194q12 13 28 13h58q26 0 21 -25zM659 255h-2l-79 -92h66zM332 599l-55 -340q-3 -21 -24 -21h-53q-26 0 -21 25l35 228l-36 -25
q-20 -12 -32 7l-21 35q-11 19 7 32l111 75q13 9 29 9h39q26 0 21 -25zM167 28l479 583q12 13 28 13h68q14 0 18 -8.5t-5 -19.5l-479 -583q-12 -13 -28 -13h-68q-14 0 -18 8.5t5 19.5z" />
    <glyph glyph-name="onehalf" unicode="&#xbd;" horiz-adv-x="804" 
d="M633 90h96q26 0 21 -25l-7 -43q-3 -21 -24 -21h-212q-26 0 -21 25l7 44q3 17 14 27l152 131q29 26 29 47q0 29 -33 29q-26 0 -52 -29q-17 -19 -33 -1l-30 34q-16 16 0 32q53 53 125 53q56 0 89 -30.5t33 -83.5q0 -35 -14 -61.5t-52 -56.5l-88 -69v-2zM329 599l-55 -340
q-3 -21 -24 -21h-53q-26 0 -21 25l35 228l-36 -25q-20 -12 -32 7l-21 35q-11 19 7 32l111 75q13 9 29 9h39q26 0 21 -25zM124 28l479 583q12 13 28 13h68q14 0 18 -8.5t-5 -19.5l-479 -583q-12 -13 -28 -13h-68q-14 0 -18 8.5t5 19.5z" />
    <glyph glyph-name="threequarters" unicode="&#xbe;" horiz-adv-x="804" 
d="M745 163h18q26 0 21 -25l-7 -43q-3 -21 -24 -21h-22l-9 -53q-3 -21 -24 -21h-53q-26 0 -21 25l8 49h-130q-26 0 -21 25l9 53q3 15 12 27l168 194q12 13 28 13h58q26 0 21 -25zM661 255h-2l-79 -92h66zM291 432v-2q41 -25 41 -78q0 -58 -39 -89.5t-111 -31.5
q-80 0 -124 49q-13 16 2 32l30 30q15 15 33 0q23 -22 59 -22q53 0 53 39q0 18 -13 25t-47 7q-24 0 -19 25l6 39q3 21 25 21q37 0 50 8t13 30q0 28 -35 28q-25 0 -57 -29q-18 -17 -32 3l-26 39q-12 19 4 32q54 44 123 44q57 0 90 -29t33 -80q0 -69 -59 -90zM164 28l479 583
q12 13 28 13h68q14 0 18 -8.5t-5 -19.5l-479 -583q-12 -13 -28 -13h-68q-14 0 -18 8.5t5 19.5z" />
    <glyph glyph-name="questiondown" unicode="&#xbf;" horiz-adv-x="466" 
d="M203 -12q-88 0 -141.5 47t-53.5 125q0 68 29.5 111.5t99.5 73.5q42 18 59.5 34.5t21.5 39.5q5 24 31 24h78q31 0 26 -31q-9 -54 -38 -92t-89 -70q-40 -21 -55.5 -39t-15.5 -42q0 -23 17 -37t45 -14q56 0 110 58q21 24 40 2l51 -55q19 -19 -2 -42q-91 -93 -213 -93z
M317 676q36 0 57.5 -22t21.5 -57q0 -39 -26 -65t-64 -26q-36 0 -57.5 22t-21.5 57q0 39 26 65t64 26z" />
    <glyph glyph-name="Agrave" unicode="&#xc0;" horiz-adv-x="602" 
d="M461 638l89 -608q5 -30 -26 -30h-101q-27 0 -30 26l-8 79h-196l-36 -84q-9 -21 -32 -21h-107q-16 0 -22 9t1 24l282 610q11 21 33 21h123q25 0 30 -26zM345 486h-2l-99 -251h127zM427 723h-79q-17 0 -26 16l-63 117q-7 13 -2 21t19 8h93q19 0 28 -19l48 -117
q10 -26 -18 -26z" />
    <glyph glyph-name="Aacute" unicode="&#xc1;" horiz-adv-x="602" 
d="M461 638l89 -608q5 -30 -26 -30h-101q-27 0 -30 26l-8 79h-196l-36 -84q-9 -21 -32 -21h-107q-16 0 -22 9t1 24l282 610q11 21 33 21h123q25 0 30 -26zM345 486h-2l-99 -251h127zM553 856l-102 -121q-9 -12 -27 -12h-90q-14 0 -18 8.5t4 18.5l88 120q11 15 29 15h102
q16 0 20 -9t-6 -20z" />
    <glyph glyph-name="Acircumflex" unicode="&#xc2;" horiz-adv-x="602" 
d="M461 638l89 -608q5 -30 -26 -30h-101q-27 0 -30 26l-8 79h-196l-36 -84q-9 -21 -32 -21h-107q-16 0 -22 9t1 24l282 610q11 21 33 21h123q25 0 30 -26zM345 486h-2l-99 -251h127zM398 788l-45 -53q-9 -12 -27 -12h-83q-14 0 -18 8t6 19l102 121q11 14 29 14h87
q19 0 28 -17l61 -119q6 -11 2 -18.5t-17 -7.5h-73q-19 0 -26 16z" />
    <glyph glyph-name="Atilde" unicode="&#xc3;" horiz-adv-x="602" 
d="M461 638l89 -608q5 -30 -26 -30h-101q-27 0 -30 26l-8 79h-196l-36 -84q-9 -21 -32 -21h-107q-16 0 -22 9t1 24l282 610q11 21 33 21h123q25 0 30 -26zM345 486h-2l-99 -251h127zM288 726h-45q-25 0 -19 25q28 126 121 126q39 0 70 -31q18 -18 32 -18q17 0 29 29
q8 17 25 17h45q26 0 20 -25q-29 -126 -121 -126q-39 0 -70 31q-18 18 -32 18q-18 0 -29 -28q-7 -18 -26 -18z" />
    <glyph glyph-name="Adieresis" unicode="&#xc4;" horiz-adv-x="602" 
d="M461 638l89 -608q5 -30 -26 -30h-101q-27 0 -30 26l-8 79h-196l-36 -84q-9 -21 -32 -21h-107q-16 0 -22 9t1 24l282 610q11 21 33 21h123q25 0 30 -26zM345 486h-2l-99 -251h127zM298 731q-32 0 -50.5 19t-18.5 49q0 35 21.5 57.5t55.5 22.5q31 0 50.5 -19.5t19.5 -50.5
q0 -34 -22.5 -56t-55.5 -22zM482 731q-31 0 -50 19t-19 49q0 35 22 57.5t55 22.5q32 0 51 -19.5t19 -50.5q0 -34 -22 -56t-56 -22z" />
    <glyph glyph-name="Aring" unicode="&#xc5;" horiz-adv-x="602" 
d="M461 638l89 -608q5 -30 -26 -30h-101q-27 0 -30 26l-8 79h-196l-36 -84q-9 -21 -32 -21h-107q-16 0 -22 9t1 24l282 610q11 21 33 21h123q25 0 30 -26zM345 486h-2l-99 -251h127zM388 711q-37 0 -61.5 24t-24.5 61q0 41 29.5 69t69.5 28q37 0 61.5 -24t24.5 -61
q0 -41 -29.5 -69t-69.5 -28zM391 770q14 0 24.5 10t10.5 24q0 13 -8 21.5t-21 8.5q-14 0 -24.5 -10t-10.5 -24q0 -13 8 -21.5t21 -8.5z" />
    <glyph glyph-name="AE" unicode="&#xc6;" horiz-adv-x="861" 
d="M408 664h455q30 0 25 -30l-12 -80q-5 -26 -30 -26h-255l-19 -125h206q30 0 25 -30l-12 -78q-5 -26 -30 -26h-210l-21 -133h249q31 0 26 -30l-13 -80q-5 -26 -30 -26h-379q-31 0 -26 30l12 75h-168l-53 -86q-12 -19 -33 -19h-119q-17 0 -22.5 10t4.5 24l396 612
q12 18 34 18zM429 484h-2l-146 -249h108z" />
    <glyph glyph-name="Ccedilla" unicode="&#xc7;" horiz-adv-x="521" 
d="M548 565q12 -24 -12 -38l-73 -44q-23 -14 -38 11q-32 46 -87 46q-91 0 -109 -116l-29 -184q-3 -18 -3 -34q0 -82 75 -82q56 0 97 54q18 24 40 7l64 -53q22 -17 5 -39q-79 -101 -205 -105l-8 -22q61 -11 61 -63q0 -75 -107 -75q-47 0 -79 15q-19 10 -10 33l9 23
q8 21 33 10q24 -10 40 -10q33 0 33 21q0 19 -27 19q-12 0 -17.5 6.5t-1.5 18.5l9 28q-81 13 -125 62.5t-44 129.5q0 26 4 49l33 208q37 235 271 235q143 0 201 -111z" />
    <glyph glyph-name="Egrave" unicode="&#xc8;" horiz-adv-x="540" 
d="M250 403h206q30 0 25 -30l-12 -78q-5 -26 -30 -26h-210l-21 -133h249q31 0 26 -30l-13 -80q-5 -26 -30 -26h-380q-30 0 -25 30l96 608q5 26 30 26h380q30 0 25 -30l-12 -80q-5 -26 -30 -26h-255zM408 723h-79q-17 0 -26 16l-63 117q-7 13 -2 21t19 8h93q19 0 28 -19
l48 -117q10 -26 -18 -26z" />
    <glyph glyph-name="Eacute" unicode="&#xc9;" horiz-adv-x="540" 
d="M250 403h206q30 0 25 -30l-12 -78q-5 -26 -30 -26h-210l-21 -133h249q31 0 26 -30l-13 -80q-5 -26 -30 -26h-380q-30 0 -25 30l96 608q5 26 30 26h380q30 0 25 -30l-12 -80q-5 -26 -30 -26h-255zM534 856l-102 -121q-9 -12 -27 -12h-90q-14 0 -18 8.5t4 18.5l88 120
q11 15 29 15h102q16 0 20 -9t-6 -20z" />
    <glyph glyph-name="Ecircumflex" unicode="&#xca;" horiz-adv-x="540" 
d="M250 403h206q30 0 25 -30l-12 -78q-5 -26 -30 -26h-210l-21 -133h249q31 0 26 -30l-13 -80q-5 -26 -30 -26h-380q-30 0 -25 30l96 608q5 26 30 26h380q30 0 25 -30l-12 -80q-5 -26 -30 -26h-255zM379 788l-45 -53q-9 -12 -27 -12h-83q-14 0 -18 8t6 19l102 121
q11 14 29 14h87q19 0 28 -17l61 -119q6 -11 2 -18.5t-17 -7.5h-73q-19 0 -26 16z" />
    <glyph glyph-name="Edieresis" unicode="&#xcb;" horiz-adv-x="540" 
d="M250 403h206q30 0 25 -30l-12 -78q-5 -26 -30 -26h-210l-21 -133h249q31 0 26 -30l-13 -80q-5 -26 -30 -26h-380q-30 0 -25 30l96 608q5 26 30 26h380q30 0 25 -30l-12 -80q-5 -26 -30 -26h-255zM279 731q-32 0 -50.5 19t-18.5 49q0 35 21.5 57.5t55.5 22.5
q31 0 50.5 -19.5t19.5 -50.5q0 -34 -22.5 -56t-55.5 -22zM463 731q-31 0 -50 19t-19 49q0 35 22 57.5t55 22.5q32 0 51 -19.5t19 -50.5q0 -34 -22 -56t-56 -22z" />
    <glyph glyph-name="Igrave" unicode="&#xcc;" horiz-adv-x="288" 
d="M286 634l-96 -608q-5 -26 -30 -26h-100q-30 0 -25 30l96 608q5 26 30 26h100q30 0 25 -30zM268 723h-79q-17 0 -26 16l-63 117q-7 13 -2 21t19 8h93q19 0 28 -19l48 -117q10 -26 -18 -26z" />
    <glyph glyph-name="Iacute" unicode="&#xcd;" horiz-adv-x="288" 
d="M286 634l-96 -608q-5 -26 -30 -26h-100q-30 0 -25 30l96 608q5 26 30 26h100q30 0 25 -30zM394 856l-102 -121q-9 -12 -27 -12h-90q-14 0 -18 8.5t4 18.5l88 120q11 15 29 15h102q16 0 20 -9t-6 -20z" />
    <glyph glyph-name="Icircumflex" unicode="&#xce;" horiz-adv-x="288" 
d="M286 634l-96 -608q-5 -26 -30 -26h-100q-30 0 -25 30l96 608q5 26 30 26h100q30 0 25 -30zM239 788l-45 -53q-9 -12 -27 -12h-83q-14 0 -18 8t6 19l102 121q11 14 29 14h87q19 0 28 -17l61 -119q6 -11 2 -18.5t-17 -7.5h-73q-19 0 -26 16z" />
    <glyph glyph-name="Idieresis" unicode="&#xcf;" horiz-adv-x="288" 
d="M286 634l-96 -608q-5 -26 -30 -26h-100q-30 0 -25 30l96 608q5 26 30 26h100q30 0 25 -30zM139 731q-32 0 -50.5 19t-18.5 49q0 35 21.5 57.5t55.5 22.5q31 0 50.5 -19.5t19.5 -50.5q0 -34 -22.5 -56t-55.5 -22zM323 731q-31 0 -50 19t-19 49q0 35 22 57.5t55 22.5
q32 0 51 -19.5t19 -50.5q0 -34 -22 -56t-56 -22z" />
    <glyph glyph-name="Eth" unicode="&#xd0;" horiz-adv-x="608" 
d="M174 664h195q226 0 226 -184q0 -28 -4 -53l-32 -199q-19 -118 -86 -173t-193 -55h-207q-30 0 -25 30l39 246h-31q-26 0 -23 27l11 72q3 23 27 23h35l38 240q5 26 30 26zM406 244l28 177q2 10 2 29q0 78 -89 78h-65l-20 -130h65q28 0 23 -27l-11 -72q-3 -23 -27 -23h-69
l-22 -140h64q53 0 82.5 26t38.5 82z" />
    <glyph glyph-name="Ntilde" unicode="&#xd1;" horiz-adv-x="622" 
d="M499 664h96q30 0 25 -30l-96 -608q-5 -26 -30 -26h-100q-25 0 -31 23l-116 385h-2l-59 -382q-5 -26 -30 -26h-96q-30 0 -25 30l96 608q5 26 30 26h112q25 0 31 -23l109 -361h2l54 358q5 26 30 26zM296 726h-45q-25 0 -19 25q28 126 121 126q39 0 70 -31q18 -18 32 -18
q17 0 29 29q8 17 25 17h45q26 0 20 -25q-29 -126 -121 -126q-39 0 -70 31q-18 18 -32 18q-18 0 -29 -28q-7 -18 -26 -18z" />
    <glyph glyph-name="Ograve" unicode="&#xd2;" horiz-adv-x="596" 
d="M43 233l33 208q37 235 273 235q109 0 170 -51.5t61 -143.5q0 -27 -4 -50l-33 -208q-37 -235 -273 -235q-110 0 -170.5 51.5t-60.5 144.5q0 26 4 49zM229 424l-29 -184q-3 -19 -3 -35q0 -81 80 -81q95 0 113 116l29 184q3 20 3 36q0 80 -79 80q-95 0 -114 -116zM417 723
h-79q-17 0 -26 16l-63 117q-7 13 -2 21t19 8h93q19 0 28 -19l48 -117q10 -26 -18 -26z" />
    <glyph glyph-name="Oacute" unicode="&#xd3;" horiz-adv-x="596" 
d="M43 233l33 208q37 235 273 235q109 0 170 -51.5t61 -143.5q0 -27 -4 -50l-33 -208q-37 -235 -273 -235q-110 0 -170.5 51.5t-60.5 144.5q0 26 4 49zM229 424l-29 -184q-3 -19 -3 -35q0 -81 80 -81q95 0 113 116l29 184q3 20 3 36q0 80 -79 80q-95 0 -114 -116zM543 856
l-102 -121q-9 -12 -27 -12h-90q-14 0 -18 8.5t4 18.5l88 120q11 15 29 15h102q16 0 20 -9t-6 -20z" />
    <glyph glyph-name="Ocircumflex" unicode="&#xd4;" horiz-adv-x="596" 
d="M43 233l33 208q37 235 273 235q109 0 170 -51.5t61 -143.5q0 -27 -4 -50l-33 -208q-37 -235 -273 -235q-110 0 -170.5 51.5t-60.5 144.5q0 26 4 49zM229 424l-29 -184q-3 -19 -3 -35q0 -81 80 -81q95 0 113 116l29 184q3 20 3 36q0 80 -79 80q-95 0 -114 -116zM388 788
l-45 -53q-9 -12 -27 -12h-83q-14 0 -18 8t6 19l102 121q11 14 29 14h87q19 0 28 -17l61 -119q6 -11 2 -18.5t-17 -7.5h-73q-19 0 -26 16z" />
    <glyph glyph-name="Otilde" unicode="&#xd5;" horiz-adv-x="596" 
d="M43 233l33 208q37 235 273 235q109 0 170 -51.5t61 -143.5q0 -27 -4 -50l-33 -208q-37 -235 -273 -235q-110 0 -170.5 51.5t-60.5 144.5q0 26 4 49zM229 424l-29 -184q-3 -19 -3 -35q0 -81 80 -81q95 0 113 116l29 184q3 20 3 36q0 80 -79 80q-95 0 -114 -116zM278 726
h-45q-25 0 -19 25q28 126 121 126q39 0 70 -31q18 -18 32 -18q17 0 29 29q8 17 25 17h45q26 0 20 -25q-29 -126 -121 -126q-39 0 -70 31q-18 18 -32 18q-18 0 -29 -28q-7 -18 -26 -18z" />
    <glyph glyph-name="Odieresis" unicode="&#xd6;" horiz-adv-x="596" 
d="M43 233l33 208q37 235 273 235q109 0 170 -51.5t61 -143.5q0 -27 -4 -50l-33 -208q-37 -235 -273 -235q-110 0 -170.5 51.5t-60.5 144.5q0 26 4 49zM229 424l-29 -184q-3 -19 -3 -35q0 -81 80 -81q95 0 113 116l29 184q3 20 3 36q0 80 -79 80q-95 0 -114 -116zM288 731
q-32 0 -50.5 19t-18.5 49q0 35 21.5 57.5t55.5 22.5q31 0 50.5 -19.5t19.5 -50.5q0 -34 -22.5 -56t-55.5 -22zM472 731q-31 0 -50 19t-19 49q0 35 22 57.5t55 22.5q32 0 51 -19.5t19 -50.5q0 -34 -22 -56t-56 -22z" />
    <glyph glyph-name="multiply" unicode="&#xd7;" horiz-adv-x="530" 
d="M385 275l114 -133q18 -21 -3 -39l-60 -54q-22 -19 -39 3l-115 134l-158 -138q-21 -18 -40 3l-48 53q-18 21 2 40l161 139l-113 133q-18 21 3 39l60 54q22 19 39 -3l115 -134l158 138q21 18 40 -3l47 -53q18 -21 -2 -39z" />
    <glyph glyph-name="Oslash" unicode="&#xd8;" horiz-adv-x="596" 
d="M565 668l49 -41q18 -15 3 -33l-34 -40q12 -33 12 -73q0 -27 -4 -50l-33 -208q-37 -235 -273 -235q-91 0 -147 35l-21 -25q-15 -17 -33 -2l-49 41q-18 15 -3 33l34 40q-12 33 -12 74q0 26 4 49l33 208q37 235 273 235q89 0 147 -35l21 25q15 18 33 2zM358 540
q-96 0 -114 -116l-19 -122h2l186 222q-19 16 -55 16zM422 362l-186 -222q19 -16 56 -16q95 0 113 116l19 122h-2z" />
    <glyph glyph-name="Ugrave" unicode="&#xd9;" horiz-adv-x="588" 
d="M590 634l-66 -418q-36 -228 -258 -228q-104 0 -161 49.5t-57 139.5q0 26 4 49l65 412q5 26 30 26h100q30 0 25 -30l-64 -405q-3 -18 -3 -33q0 -72 70 -72q83 0 99 105l65 409q5 26 30 26h96q30 0 25 -30zM413 723h-79q-17 0 -26 16l-63 117q-7 13 -2 21t19 8h93
q19 0 28 -19l48 -117q10 -26 -18 -26z" />
    <glyph glyph-name="Uacute" unicode="&#xda;" horiz-adv-x="588" 
d="M590 634l-66 -418q-36 -228 -258 -228q-104 0 -161 49.5t-57 139.5q0 26 4 49l65 412q5 26 30 26h100q30 0 25 -30l-64 -405q-3 -18 -3 -33q0 -72 70 -72q83 0 99 105l65 409q5 26 30 26h96q30 0 25 -30zM539 856l-102 -121q-9 -12 -27 -12h-90q-14 0 -18 8.5t4 18.5
l88 120q11 15 29 15h102q16 0 20 -9t-6 -20z" />
    <glyph glyph-name="Ucircumflex" unicode="&#xdb;" horiz-adv-x="588" 
d="M590 634l-66 -418q-36 -228 -258 -228q-104 0 -161 49.5t-57 139.5q0 26 4 49l65 412q5 26 30 26h100q30 0 25 -30l-64 -405q-3 -18 -3 -33q0 -72 70 -72q83 0 99 105l65 409q5 26 30 26h96q30 0 25 -30zM384 788l-45 -53q-9 -12 -27 -12h-83q-14 0 -18 8t6 19l102 121
q11 14 29 14h87q19 0 28 -17l61 -119q6 -11 2 -18.5t-17 -7.5h-73q-19 0 -26 16z" />
    <glyph glyph-name="Udieresis" unicode="&#xdc;" horiz-adv-x="588" 
d="M590 634l-66 -418q-36 -228 -258 -228q-104 0 -161 49.5t-57 139.5q0 26 4 49l65 412q5 26 30 26h100q30 0 25 -30l-64 -405q-3 -18 -3 -33q0 -72 70 -72q83 0 99 105l65 409q5 26 30 26h96q30 0 25 -30zM284 731q-32 0 -50.5 19t-18.5 49q0 35 21.5 57.5t55.5 22.5
q31 0 50.5 -19.5t19.5 -50.5q0 -34 -22.5 -56t-55.5 -22zM468 731q-31 0 -50 19t-19 49q0 35 22 57.5t55 22.5q32 0 51 -19.5t19 -50.5q0 -34 -22 -56t-56 -22z" />
    <glyph glyph-name="Yacute" unicode="&#xdd;" horiz-adv-x="558" 
d="M478 664h120q17 0 22 -10t-5 -24l-251 -361l-39 -243q-5 -26 -30 -26h-100q-30 0 -25 30l39 250l-136 352q-5 14 1 23t22 9h114q25 0 32 -23l66 -203h2l134 208q12 18 34 18zM529 856l-102 -121q-9 -12 -27 -12h-90q-14 0 -18 8.5t4 18.5l88 120q11 15 29 15h102
q16 0 20 -9t-6 -20z" />
    <glyph glyph-name="Thorn" unicode="&#xde;" horiz-adv-x="558" 
d="M275 562h57q221 0 221 -190q0 -129 -68.5 -189.5t-214.5 -60.5h-65l-15 -96q-5 -26 -30 -26h-100q-30 0 -25 30l96 608q5 26 30 26h100q30 0 25 -30zM395 357q0 69 -82 69h-60l-26 -168h60q56 0 82 23.5t26 75.5z" />
    <glyph glyph-name="germandbls" unicode="&#xdf;" horiz-adv-x="556" 
d="M21 30l78 495q14 88 74 137.5t153 49.5q90 0 141 -43t51 -119q0 -102 -101 -165q-27 -17 -36.5 -28t-9.5 -23t10 -20t37 -15q57 -15 82.5 -47t25.5 -86q0 -84 -53 -131t-147 -47q-76 0 -127 20q-26 11 -14 37l27 62q11 22 37 13q28 -12 71 -12q65 0 65 44
q0 16 -11.5 26.5t-43.5 22.5q-54 20 -76 48.5t-22 76.5q0 46 21.5 80.5t70.5 65.5q54 33 54 65q0 53 -60 53q-31 0 -51.5 -17t-25.5 -48l-79 -499q-5 -26 -30 -26h-86q-30 0 -25 30z" />
    <glyph glyph-name="agrave" unicode="&#xe0;" horiz-adv-x="464" 
d="M245 512q91 0 141.5 -42.5t50.5 -122.5q0 -19 -3 -38l-21 -134q-30 -187 -223 -187q-86 0 -132 38t-46 111q0 167 203 167h76q2 9 2 26q0 60 -68 60q-39 0 -81 -27q-26 -18 -37 10l-26 60q-11 25 14 39q68 40 150 40zM200 110q61 0 73 78l3 21h-52q-33 0 -51 -15.5
t-18 -41.5q0 -42 45 -42zM329 565h-79q-17 0 -26 16l-63 117q-7 13 -2 21t19 8h93q19 0 28 -19l48 -117q10 -26 -18 -26z" />
    <glyph glyph-name="aacute" unicode="&#xe1;" horiz-adv-x="464" 
d="M245 512q91 0 141.5 -42.5t50.5 -122.5q0 -19 -3 -38l-21 -134q-30 -187 -223 -187q-86 0 -132 38t-46 111q0 167 203 167h76q2 9 2 26q0 60 -68 60q-39 0 -81 -27q-26 -18 -37 10l-26 60q-11 25 14 39q68 40 150 40zM200 110q61 0 73 78l3 21h-52q-33 0 -51 -15.5
t-18 -41.5q0 -42 45 -42zM455 698l-102 -121q-9 -12 -27 -12h-90q-14 0 -18 8.5t4 18.5l88 120q11 15 29 15h102q16 0 20 -9t-6 -20z" />
    <glyph glyph-name="acircumflex" unicode="&#xe2;" horiz-adv-x="464" 
d="M245 512q91 0 141.5 -42.5t50.5 -122.5q0 -19 -3 -38l-21 -134q-30 -187 -223 -187q-86 0 -132 38t-46 111q0 167 203 167h76q2 9 2 26q0 60 -68 60q-39 0 -81 -27q-26 -18 -37 10l-26 60q-11 25 14 39q68 40 150 40zM200 110q61 0 73 78l3 21h-52q-33 0 -51 -15.5
t-18 -41.5q0 -42 45 -42zM300 630l-45 -53q-9 -12 -27 -12h-83q-14 0 -18 8t6 19l102 121q11 14 29 14h87q19 0 28 -17l61 -119q6 -11 2 -18.5t-17 -7.5h-73q-19 0 -26 16z" />
    <glyph glyph-name="atilde" unicode="&#xe3;" horiz-adv-x="464" 
d="M245 512q91 0 141.5 -42.5t50.5 -122.5q0 -19 -3 -38l-21 -134q-30 -187 -223 -187q-86 0 -132 38t-46 111q0 167 203 167h76q2 9 2 26q0 60 -68 60q-39 0 -81 -27q-26 -18 -37 10l-26 60q-11 25 14 39q68 40 150 40zM200 110q61 0 73 78l3 21h-52q-33 0 -51 -15.5
t-18 -41.5q0 -42 45 -42zM190 568h-45q-25 0 -19 25q28 126 121 126q39 0 70 -31q18 -18 32 -18q17 0 29 29q8 17 25 17h45q26 0 20 -25q-29 -126 -121 -126q-39 0 -70 31q-18 18 -32 18q-18 0 -29 -28q-7 -18 -26 -18z" />
    <glyph glyph-name="adieresis" unicode="&#xe4;" horiz-adv-x="464" 
d="M245 512q91 0 141.5 -42.5t50.5 -122.5q0 -19 -3 -38l-21 -134q-30 -187 -223 -187q-86 0 -132 38t-46 111q0 167 203 167h76q2 9 2 26q0 60 -68 60q-39 0 -81 -27q-26 -18 -37 10l-26 60q-11 25 14 39q68 40 150 40zM200 110q61 0 73 78l3 21h-52q-33 0 -51 -15.5
t-18 -41.5q0 -42 45 -42zM200 573q-32 0 -50.5 19t-18.5 49q0 35 21.5 57.5t55.5 22.5q31 0 50.5 -19.5t19.5 -50.5q0 -34 -22.5 -56t-55.5 -22zM384 573q-31 0 -50 19t-19 49q0 35 22 57.5t55 22.5q32 0 51 -19.5t19 -50.5q0 -34 -22 -56t-56 -22z" />
    <glyph glyph-name="aring" unicode="&#xe5;" horiz-adv-x="464" 
d="M245 512q91 0 141.5 -42.5t50.5 -122.5q0 -19 -3 -38l-21 -134q-30 -187 -223 -187q-86 0 -132 38t-46 111q0 167 203 167h76q2 9 2 26q0 60 -68 60q-39 0 -81 -27q-26 -18 -37 10l-26 60q-11 25 14 39q68 40 150 40zM200 110q61 0 73 78l3 21h-52q-33 0 -51 -15.5
t-18 -41.5q0 -42 45 -42zM290 553q-37 0 -61.5 24t-24.5 61q0 41 29.5 69t69.5 28q37 0 61.5 -24t24.5 -61q0 -41 -29.5 -69t-69.5 -28zM293 612q14 0 24.5 10t10.5 24q0 13 -8 21.5t-21 8.5q-14 0 -24.5 -10t-10.5 -24q0 -13 8 -21.5t21 -8.5z" />
    <glyph glyph-name="ae" unicode="&#xe6;" horiz-adv-x="709" 
d="M530 512q75 0 118.5 -42.5t43.5 -114.5q0 -19 -3 -40l-13 -80q-5 -26 -30 -26h-229q-3 -20 -3 -37q0 -34 16 -48t53 -14q39 0 79 28q25 18 38 -7l30 -57q13 -24 -8 -39q-66 -47 -144 -47q-108 0 -148 67h-2q-49 -67 -159 -67q-72 0 -114.5 40.5t-42.5 110.5
q0 165 203 165h76q2 9 2 26q0 60 -68 60q-39 0 -81 -27q-25 -17 -37 10l-26 60q-11 24 12 38q70 41 142 41q104 0 142 -66h2q49 66 151 66zM553 304q3 15 3 34q0 52 -49 52q-63 0 -73 -77l-1 -9h120zM276 209h-52q-33 0 -51 -15.5t-18 -41.5q0 -42 45 -42q61 0 73 78z" />
    <glyph glyph-name="ccedilla" unicode="&#xe7;" horiz-adv-x="395" 
d="M396 477q22 -16 4 -39l-42 -52q-14 -18 -39 -6q-19 10 -47 10q-71 0 -85 -88l-17 -104q-2 -18 -2 -24q0 -64 64 -64q26 0 52 21q25 19 39 -7l29 -57q12 -25 -8 -39q-57 -40 -129 -40h-4l-8 -22q61 -11 61 -63q0 -75 -107 -75q-47 0 -79 15q-19 10 -10 33l9 23q8 21 33 10
q24 -10 40 -10q33 0 33 21q0 19 -27 19q-12 0 -17.5 6.5t-1.5 18.5l10 31q-123 30 -123 158q0 22 4 43l19 119q31 197 221 197q80 0 128 -35z" />
    <glyph glyph-name="egrave" unicode="&#xe8;" horiz-adv-x="463" 
d="M263 512q87 0 135 -41.5t48 -116.5q0 -18 -3 -39l-13 -80q-5 -26 -30 -26h-229q-3 -19 -3 -37q0 -34 16 -48t53 -14q39 0 79 28q25 18 38 -7l30 -57q13 -24 -8 -39q-67 -47 -149 -47q-99 0 -151 41.5t-52 121.5q0 24 4 45l20 129q30 187 215 187zM261 390q-63 0 -73 -77
l-1 -9h120q3 15 3 34q0 52 -49 52zM332 565h-79q-17 0 -26 16l-63 117q-7 13 -2 21t19 8h93q19 0 28 -19l48 -117q10 -26 -18 -26z" />
    <glyph glyph-name="eacute" unicode="&#xe9;" horiz-adv-x="463" 
d="M263 512q87 0 135 -41.5t48 -116.5q0 -18 -3 -39l-13 -80q-5 -26 -30 -26h-229q-3 -19 -3 -37q0 -34 16 -48t53 -14q39 0 79 28q25 18 38 -7l30 -57q13 -24 -8 -39q-67 -47 -149 -47q-99 0 -151 41.5t-52 121.5q0 24 4 45l20 129q30 187 215 187zM261 390q-63 0 -73 -77
l-1 -9h120q3 15 3 34q0 52 -49 52zM458 698l-102 -121q-9 -12 -27 -12h-90q-14 0 -18 8.5t4 18.5l88 120q11 15 29 15h102q16 0 20 -9t-6 -20z" />
    <glyph glyph-name="ecircumflex" unicode="&#xea;" horiz-adv-x="463" 
d="M263 512q87 0 135 -41.5t48 -116.5q0 -18 -3 -39l-13 -80q-5 -26 -30 -26h-229q-3 -19 -3 -37q0 -34 16 -48t53 -14q39 0 79 28q25 18 38 -7l30 -57q13 -24 -8 -39q-67 -47 -149 -47q-99 0 -151 41.5t-52 121.5q0 24 4 45l20 129q30 187 215 187zM261 390q-63 0 -73 -77
l-1 -9h120q3 15 3 34q0 52 -49 52zM303 630l-45 -53q-9 -12 -27 -12h-83q-14 0 -18 8t6 19l102 121q11 14 29 14h87q20 0 28 -17l61 -119q6 -11 2 -18.5t-17 -7.5h-73q-19 0 -26 16z" />
    <glyph glyph-name="edieresis" unicode="&#xeb;" horiz-adv-x="463" 
d="M263 512q87 0 135 -41.5t48 -116.5q0 -18 -3 -39l-13 -80q-5 -26 -30 -26h-229q-3 -19 -3 -37q0 -34 16 -48t53 -14q39 0 79 28q25 18 38 -7l30 -57q13 -24 -8 -39q-67 -47 -149 -47q-99 0 -151 41.5t-52 121.5q0 24 4 45l20 129q30 187 215 187zM261 390q-63 0 -73 -77
l-1 -9h120q3 15 3 34q0 52 -49 52zM203 573q-32 0 -50.5 19t-18.5 49q0 35 21.5 57.5t55.5 22.5q31 0 50.5 -19.5t19.5 -50.5q0 -34 -22.5 -56t-55.5 -22zM387 573q-31 0 -50 19t-19 49q0 35 22 57.5t55 22.5q32 0 51 -19.5t19 -50.5q0 -34 -22 -56t-56 -22z" />
    <glyph glyph-name="igrave" unicode="&#xec;" horiz-adv-x="246" 
d="M132 0h-86q-30 0 -25 30l70 444q5 26 30 26h86q30 0 25 -30l-70 -444q-5 -26 -30 -26zM222 565h-79q-17 0 -26 16l-63 117q-7 13 -2 21t19 8h93q19 0 28 -19l48 -117q10 -26 -18 -26z" />
    <glyph glyph-name="iacute" unicode="&#xed;" horiz-adv-x="246" 
d="M132 0h-86q-30 0 -25 30l70 444q5 26 30 26h86q30 0 25 -30l-70 -444q-5 -26 -30 -26zM348 698l-102 -121q-9 -12 -27 -12h-90q-14 0 -18 8.5t4 18.5l88 120q11 15 29 15h102q16 0 20 -9t-6 -20z" />
    <glyph glyph-name="icircumflex" unicode="&#xee;" horiz-adv-x="246" 
d="M131 0h-86q-30 0 -25 30l70 444q5 26 30 26h86q30 0 25 -30l-70 -444q-5 -26 -30 -26zM192 630l-45 -53q-9 -12 -27 -12h-83q-14 0 -18 8t6 19l102 121q11 14 29 14h87q19 0 28 -17l61 -119q6 -11 2 -18.5t-17 -7.5h-73q-19 0 -26 16z" />
    <glyph glyph-name="idieresis" unicode="&#xef;" horiz-adv-x="246" 
d="M132 0h-86q-30 0 -25 30l70 444q5 26 30 26h86q30 0 25 -30l-70 -444q-5 -26 -30 -26zM93 573q-32 0 -50.5 19t-18.5 49q0 35 21.5 57.5t55.5 22.5q31 0 50.5 -19.5t19.5 -50.5q0 -34 -22.5 -56t-55.5 -22zM277 573q-31 0 -50 19t-19 49q0 35 22 57.5t55 22.5
q32 0 51 -19.5t19 -50.5q0 -34 -22 -56t-56 -22z" />
    <glyph glyph-name="eth" unicode="&#xf0;" horiz-adv-x="486" 
d="M411 659l-34 -25q82 -75 82 -221q0 -49 -9 -106l-21 -132q-30 -187 -219 -187q-89 0 -138 41.5t-49 116.5q0 20 3 39l19 120q30 187 192 187q44 0 74 -24h2q-14 54 -50 80l-61 -45q-13 -10 -23 3l-8 10q-10 12 4 23l43 32q-18 7 -52 14q-31 5 -21 34l21 70q8 25 33 21
q88 -16 140 -48l45 33q13 10 23 -3l8 -10q10 -12 -4 -23zM289 188l16 104q2 11 2 24q0 54 -49 54q-61 0 -73 -78l-16 -104q-2 -11 -2 -25q0 -53 49 -53q61 0 73 78z" />
    <glyph glyph-name="ntilde" unicode="&#xf1;" horiz-adv-x="492" 
d="M271 30l45 286q2 18 2 25q0 49 -46 49q-56 0 -68 -74l-46 -290q-5 -26 -30 -26h-86q-30 0 -25 30l47 298q29 184 214 184q87 0 135 -40.5t48 -113.5q0 -19 -3 -40l-46 -292q-5 -26 -30 -26h-86q-30 0 -25 30zM206 568h-45q-25 0 -19 25q28 126 121 126q39 0 70 -31
q18 -18 32 -18q17 0 29 29q8 17 25 17h45q26 0 20 -25q-29 -126 -121 -126q-39 0 -70 31q-18 18 -32 18q-18 0 -29 -28q-7 -18 -26 -18z" />
    <glyph glyph-name="ograve" unicode="&#xf2;" horiz-adv-x="480" 
d="M267 512q89 0 138 -41.5t49 -116.5q0 -20 -3 -39l-22 -140q-30 -187 -219 -187q-89 0 -138 41.5t-49 116.5q0 20 3 39l22 140q30 187 219 187zM289 188l19 124q2 9 2 26q0 52 -49 52q-61 0 -73 -78l-19 -124q-2 -18 -2 -25q0 -53 49 -53q61 0 73 78zM334 565h-79
q-17 0 -26 16l-63 117q-7 13 -2 21t19 8h93q19 0 28 -19l48 -117q10 -26 -18 -26z" />
    <glyph glyph-name="oacute" unicode="&#xf3;" horiz-adv-x="480" 
d="M267 512q89 0 138 -41.5t49 -116.5q0 -20 -3 -39l-22 -140q-30 -187 -219 -187q-89 0 -138 41.5t-49 116.5q0 20 3 39l22 140q30 187 219 187zM289 188l19 124q2 9 2 26q0 52 -49 52q-61 0 -73 -78l-19 -124q-2 -18 -2 -25q0 -53 49 -53q61 0 73 78zM460 698l-102 -121
q-9 -12 -27 -12h-90q-14 0 -18 8.5t4 18.5l88 120q11 15 29 15h102q16 0 20 -9t-6 -20z" />
    <glyph glyph-name="ocircumflex" unicode="&#xf4;" horiz-adv-x="480" 
d="M267 512q89 0 138 -41.5t49 -116.5q0 -20 -3 -39l-22 -140q-30 -187 -219 -187q-89 0 -138 41.5t-49 116.5q0 20 3 39l22 140q30 187 219 187zM289 188l19 124q2 9 2 26q0 52 -49 52q-61 0 -73 -78l-19 -124q-2 -18 -2 -25q0 -53 49 -53q61 0 73 78zM305 630l-45 -53
q-9 -12 -27 -12h-83q-14 0 -18 8t6 19l102 121q11 14 29 14h87q20 0 28 -17l61 -119q6 -11 2 -18.5t-17 -7.5h-73q-19 0 -26 16z" />
    <glyph glyph-name="otilde" unicode="&#xf5;" horiz-adv-x="480" 
d="M267 512q89 0 138 -41.5t49 -116.5q0 -20 -3 -39l-22 -140q-30 -187 -219 -187q-89 0 -138 41.5t-49 116.5q0 20 3 39l22 140q30 187 219 187zM289 188l19 124q2 9 2 26q0 52 -49 52q-61 0 -73 -78l-19 -124q-2 -18 -2 -25q0 -53 49 -53q61 0 73 78zM195 568h-45
q-25 0 -19 25q28 126 121 126q39 0 70 -31q18 -18 32 -18q17 0 29 29q8 17 25 17h45q26 0 20 -25q-29 -126 -121 -126q-39 0 -70 31q-18 18 -32 18q-18 0 -29 -28q-7 -18 -26 -18z" />
    <glyph glyph-name="odieresis" unicode="&#xf6;" horiz-adv-x="480" 
d="M267 512q89 0 138 -41.5t49 -116.5q0 -20 -3 -39l-22 -140q-30 -187 -219 -187q-89 0 -138 41.5t-49 116.5q0 20 3 39l22 140q30 187 219 187zM289 188l19 124q2 9 2 26q0 52 -49 52q-61 0 -73 -78l-19 -124q-2 -18 -2 -25q0 -53 49 -53q61 0 73 78zM205 573
q-32 0 -50.5 19t-18.5 49q0 35 21.5 57.5t55.5 22.5q31 0 50.5 -19.5t19.5 -50.5q0 -34 -22.5 -56t-55.5 -22zM389 573q-31 0 -50 19t-19 49q0 35 22 57.5t55 22.5q32 0 51 -19.5t19 -50.5q0 -34 -22 -56t-56 -22z" />
    <glyph glyph-name="divide" unicode="&#xf7;" horiz-adv-x="530" 
d="M300 396q-36 0 -57 21t-21 56q0 39 25 64t63 25q35 0 56.5 -21t21.5 -54q0 -40 -25 -65.5t-63 -25.5zM480 213h-430q-30 0 -25 30l12 76q5 26 30 26h430q30 0 25 -30l-12 -76q-5 -26 -30 -26zM236 -4q-35 0 -56 21t-21 56q0 39 25 64t63 25q35 0 56 -21t21 -56
q0 -39 -25 -64t-63 -25z" />
    <glyph glyph-name="oslash" unicode="&#xf8;" horiz-adv-x="480" 
d="M443 504l39 -36q17 -15 2 -32l-23 -26q8 -27 8 -56q0 -20 -3 -39l-22 -140q-30 -187 -219 -187q-69 0 -114 25l-15 -16q-15 -16 -32 -1l-39 36q-17 15 -2 32l23 26q-8 27 -8 56q0 20 3 39l22 140q30 187 219 187q69 0 114 -25l15 16q15 16 32 1zM276 390q-59 0 -73 -78
l-8 -52h2l107 122v2q-11 6 -28 6zM310 240l-107 -122v-2q10 -6 28 -6q61 0 73 78l8 52h-2z" />
    <glyph glyph-name="ugrave" unicode="&#xf9;" horiz-adv-x="486" 
d="M471 470l-47 -301q-29 -181 -211 -181q-86 0 -133.5 40t-47.5 113q0 19 3 38l47 295q5 26 30 26h86q30 0 25 -30l-46 -292q-2 -16 -2 -22q0 -46 46 -46q56 0 66 68l47 296q5 26 30 26h82q30 0 25 -30zM337 565h-79q-17 0 -26 16l-63 117q-7 13 -2 21t19 8h93q19 0 28 -19
l48 -117q10 -26 -18 -26z" />
    <glyph glyph-name="uacute" unicode="&#xfa;" horiz-adv-x="486" 
d="M471 470l-47 -301q-29 -181 -211 -181q-86 0 -133.5 40t-47.5 113q0 19 3 38l47 295q5 26 30 26h86q30 0 25 -30l-46 -292q-2 -16 -2 -22q0 -46 46 -46q56 0 66 68l47 296q5 26 30 26h82q30 0 25 -30zM463 698l-102 -121q-9 -12 -27 -12h-90q-14 0 -18 8.5t4 18.5l88 120
q11 15 29 15h102q16 0 20 -9t-6 -20z" />
    <glyph glyph-name="ucircumflex" unicode="&#xfb;" horiz-adv-x="486" 
d="M471 470l-47 -301q-29 -181 -211 -181q-86 0 -133.5 40t-47.5 113q0 19 3 38l47 295q5 26 30 26h86q30 0 25 -30l-46 -292q-2 -16 -2 -22q0 -46 46 -46q56 0 66 68l47 296q5 26 30 26h82q30 0 25 -30zM308 630l-45 -53q-9 -12 -27 -12h-83q-14 0 -18 8t6 19l102 121
q11 14 29 14h87q19 0 28 -17l61 -119q6 -11 2 -18.5t-17 -7.5h-73q-19 0 -26 16z" />
    <glyph glyph-name="udieresis" unicode="&#xfc;" horiz-adv-x="486" 
d="M471 470l-47 -301q-29 -181 -211 -181q-86 0 -133.5 40t-47.5 113q0 19 3 38l47 295q5 26 30 26h86q30 0 25 -30l-46 -292q-2 -16 -2 -22q0 -46 46 -46q56 0 66 68l47 296q5 26 30 26h82q30 0 25 -30zM208 573q-32 0 -50.5 19t-18.5 49q0 35 21.5 57.5t55.5 22.5
q31 0 50.5 -19.5t19.5 -50.5q0 -34 -22.5 -56t-55.5 -22zM392 573q-31 0 -50 19t-19 49q0 35 22 57.5t55 22.5q32 0 51 -19.5t19 -50.5q0 -34 -22 -56t-56 -22z" />
    <glyph glyph-name="yacute" unicode="&#xfd;" horiz-adv-x="496" 
d="M383 500h86q30 0 25 -30l-72 -459q-14 -89 -71 -136t-150 -47q-102 0 -167 50q-20 17 -3 39l40 55q15 21 39 5q39 -28 88 -28q73 0 83 69l2 14h-2q-33 -24 -83 -24q-71 0 -108.5 38.5t-37.5 108.5q0 24 4 47l43 272q5 26 30 26h86q30 0 25 -30l-42 -266q-2 -18 -2 -24
q0 -50 47 -50q55 0 67 74l43 270q5 26 30 26zM483 698l-102 -121q-9 -12 -27 -12h-90q-14 0 -18 8.5t4 18.5l88 120q11 15 29 15h102q16 0 20 -9t-6 -20z" />
    <glyph glyph-name="thorn" unicode="&#xfe;" horiz-adv-x="494" 
d="M318 512q75 0 115.5 -39t40.5 -111q0 -24 -4 -47l-22 -140q-15 -92 -65 -139.5t-132 -47.5q-57 0 -87 33h-2l-25 -155q-5 -26 -30 -26h-86q-30 0 -25 30l127 804q5 26 30 26h86q30 0 25 -30l-29 -182h2q33 24 81 24zM308 188l20 124q2 18 2 24q0 54 -50 54q-60 0 -72 -78
l-20 -124q-2 -16 -2 -23q0 -55 50 -55q60 0 72 78z" />
    <glyph glyph-name="ydieresis" unicode="&#xff;" horiz-adv-x="496" 
d="M383 500h86q30 0 25 -30l-72 -459q-14 -89 -71 -136t-150 -47q-102 0 -167 50q-20 17 -3 39l40 55q15 21 39 5q39 -28 88 -28q73 0 83 69l2 14h-2q-33 -24 -83 -24q-71 0 -108.5 38.5t-37.5 108.5q0 24 4 47l43 272q5 26 30 26h86q30 0 25 -30l-42 -266q-2 -18 -2 -24
q0 -50 47 -50q55 0 67 74l43 270q5 26 30 26zM228 573q-32 0 -50.5 19t-18.5 49q0 35 21.5 57.5t55.5 22.5q31 0 50.5 -19.5t19.5 -50.5q0 -34 -22.5 -56t-55.5 -22zM412 573q-31 0 -50 19t-19 49q0 35 22 57.5t55 22.5q32 0 51 -19.5t19 -50.5q0 -34 -22 -56t-56 -22z" />
    <glyph glyph-name="Amacron" unicode="&#x100;" horiz-adv-x="602" 
d="M461 638l89 -608q5 -30 -26 -30h-101q-27 0 -30 26l-8 79h-196l-36 -84q-9 -21 -32 -21h-107q-16 0 -22 9t1 24l282 610q11 21 33 21h123q25 0 30 -26zM345 486h-2l-99 -251h127zM541 824l-10 -64q-4 -22 -26 -22h-239q-25 0 -22 26l10 64q4 22 26 22h239q27 0 22 -26z
" />
    <glyph glyph-name="amacron" unicode="&#x101;" horiz-adv-x="464" 
d="M245 512q91 0 141.5 -42.5t50.5 -122.5q0 -19 -3 -38l-21 -134q-30 -187 -223 -187q-86 0 -132 38t-46 111q0 167 203 167h76q2 9 2 26q0 60 -68 60q-39 0 -81 -27q-26 -18 -37 10l-26 60q-11 25 14 39q68 40 150 40zM200 110q61 0 73 78l3 21h-52q-33 0 -51 -15.5
t-18 -41.5q0 -42 45 -42zM443 666l-10 -64q-4 -22 -26 -22h-239q-25 0 -22 26l10 64q4 22 26 22h239q27 0 22 -26z" />
    <glyph glyph-name="Abreve" unicode="&#x102;" horiz-adv-x="602" 
d="M461 638l89 -608q5 -30 -26 -30h-101q-27 0 -30 26l-8 79h-196l-36 -84q-9 -21 -32 -21h-107q-16 0 -22 9t1 24l282 610q11 21 33 21h123q25 0 30 -26zM345 486h-2l-99 -251h127zM483 879h57q25 0 20 -24q-25 -129 -163 -129q-70 0 -109 35t-39 95q0 23 23 23h56
q21 0 23 -16q5 -29 49 -29q41 0 57 28q11 17 26 17z" />
    <glyph glyph-name="abreve" unicode="&#x103;" horiz-adv-x="464" 
d="M245 512q91 0 141.5 -42.5t50.5 -122.5q0 -19 -3 -38l-21 -134q-30 -187 -223 -187q-86 0 -132 38t-46 111q0 167 203 167h76q2 9 2 26q0 60 -68 60q-39 0 -81 -27q-26 -18 -37 10l-26 60q-11 25 14 39q68 40 150 40zM200 110q61 0 73 78l3 21h-52q-33 0 -51 -15.5
t-18 -41.5q0 -42 45 -42zM385 721h57q25 0 20 -24q-25 -129 -163 -129q-70 0 -109 35t-39 95q0 23 23 23h56q21 0 23 -16q5 -29 49 -29q41 0 57 28q11 17 26 17z" />
    <glyph glyph-name="Aogonek" unicode="&#x104;" horiz-adv-x="602" 
d="M523 -81l20 -33q12 -20 -6 -33q-36 -25 -84 -25q-47 0 -73 21.5t-26 56.5q0 61 59 95q-19 5 -20 25l-8 79h-196l-36 -84q-9 -21 -32 -21h-107q-16 0 -22 9t1 24l282 610q11 21 33 21h123q25 0 30 -26l89 -608q5 -30 -26 -30h-10q-27 -9 -43 -25.5t-16 -34.5q0 -20 19 -20
q8 0 18 6q19 13 31 -7zM343 486l-99 -251h127l-26 251h-2z" />
    <glyph glyph-name="aogonek" unicode="&#x105;" horiz-adv-x="464" 
d="M245 512q91 0 141.5 -42.5t50.5 -122.5q0 -19 -3 -38l-21 -134q-21 -127 -119 -170q-25 -11 -40 -29t-15 -36q0 -20 18 -20q8 0 18 6q19 13 31 -8l19 -32q12 -20 -5 -33q-32 -25 -83 -25q-43 0 -69.5 21.5t-26.5 58.5q0 44 37 78v2q-81 3 -123.5 41t-42.5 108
q0 167 203 167h76q2 9 2 26q0 60 -68 60q-39 0 -81 -27q-25 -17 -37 10l-26 60q-11 25 14 39q68 40 150 40zM276 209h-52q-33 0 -51 -15.5t-18 -41.5q0 -42 45 -42q61 0 73 78z" />
    <glyph glyph-name="Cacute" unicode="&#x106;" horiz-adv-x="521" 
d="M272 124q56 0 97 54q18 24 40 7l64 -53q22 -17 5 -39q-82 -105 -216 -105q-105 0 -164 51.5t-59 144.5q0 26 4 49l33 208q37 235 271 235q143 0 201 -111q12 -24 -12 -38l-73 -44q-23 -14 -38 11q-32 46 -87 46q-91 0 -109 -116l-29 -184q-3 -18 -3 -34q0 -82 75 -82z
M528 856l-102 -121q-9 -12 -27 -12h-90q-14 0 -18 8.5t4 18.5l88 120q11 15 29 15h102q16 0 20 -9t-6 -20z" />
    <glyph glyph-name="cacute" unicode="&#x107;" horiz-adv-x="395" 
d="M323 124l29 -57q12 -25 -8 -39q-57 -40 -129 -40q-90 0 -140.5 43t-50.5 122q0 22 4 43l19 119q31 197 221 197q80 0 128 -35q22 -16 4 -39l-42 -52q-14 -18 -39 -6q-19 10 -47 10q-71 0 -85 -88l-17 -104q-2 -18 -2 -24q0 -64 64 -64q26 0 52 21q25 19 39 -7zM440 698
l-102 -121q-9 -12 -27 -12h-90q-14 0 -18 8.5t4 18.5l88 120q11 15 29 15h102q16 0 20 -9t-6 -20z" />
    <glyph glyph-name="Ccircumflex" unicode="&#x108;" horiz-adv-x="521" 
d="M272 124q56 0 97 54q18 24 40 7l64 -53q22 -17 5 -39q-82 -105 -216 -105q-105 0 -164 51.5t-59 144.5q0 26 4 49l33 208q37 235 271 235q143 0 201 -111q12 -24 -12 -38l-73 -44q-23 -14 -38 11q-32 46 -87 46q-91 0 -109 -116l-29 -184q-3 -18 -3 -34q0 -82 75 -82z
M373 788l-45 -53q-9 -12 -27 -12h-83q-14 0 -18 8t6 19l102 121q11 14 29 14h87q20 0 28 -17l61 -119q6 -11 2 -18.5t-17 -7.5h-73q-19 0 -26 16z" />
    <glyph glyph-name="ccircumflex" unicode="&#x109;" horiz-adv-x="395" 
d="M323 124l29 -57q12 -25 -8 -39q-57 -40 -129 -40q-90 0 -140.5 43t-50.5 122q0 22 4 43l19 119q31 197 221 197q80 0 128 -35q22 -16 4 -39l-42 -52q-14 -18 -39 -6q-19 10 -47 10q-71 0 -85 -88l-17 -104q-2 -18 -2 -24q0 -64 64 -64q26 0 52 21q25 19 39 -7zM285 630
l-45 -53q-9 -12 -27 -12h-83q-14 0 -18 8t6 19l102 121q11 14 29 14h87q20 0 28 -17l61 -119q6 -11 2 -18.5t-17 -7.5h-73q-19 0 -26 16z" />
    <glyph glyph-name="Cdotaccent" unicode="&#x10a;" horiz-adv-x="521" 
d="M272 124q56 0 97 54q18 24 40 7l64 -53q22 -17 5 -39q-82 -105 -216 -105q-105 0 -164 51.5t-59 144.5q0 26 4 49l33 208q37 235 271 235q143 0 201 -111q12 -24 -12 -38l-73 -44q-23 -14 -38 11q-32 46 -87 46q-91 0 -109 -116l-29 -184q-3 -18 -3 -34q0 -82 75 -82z
M364 724q-34 0 -54.5 20.5t-20.5 52.5q0 38 24 62.5t61 24.5q34 0 54.5 -20.5t20.5 -53.5q0 -38 -24.5 -62t-60.5 -24z" />
    <glyph glyph-name="cdotaccent" unicode="&#x10b;" horiz-adv-x="395" 
d="M323 124l29 -57q12 -25 -8 -39q-57 -40 -129 -40q-90 0 -140.5 43t-50.5 122q0 22 4 43l19 119q31 197 221 197q80 0 128 -35q22 -16 4 -39l-42 -52q-14 -18 -39 -6q-19 10 -47 10q-71 0 -85 -88l-17 -104q-2 -18 -2 -24q0 -64 64 -64q26 0 52 21q25 19 39 -7zM276 566
q-34 0 -54.5 20.5t-20.5 52.5q0 38 24 62.5t61 24.5q34 0 54.5 -20.5t20.5 -53.5q0 -38 -24.5 -62t-60.5 -24z" />
    <glyph glyph-name="Ccaron" unicode="&#x10c;" horiz-adv-x="521" 
d="M272 124q56 0 97 54q18 24 40 7l64 -53q22 -17 5 -39q-82 -105 -216 -105q-105 0 -164 51.5t-59 144.5q0 26 4 49l33 208q37 235 271 235q143 0 201 -111q12 -24 -12 -38l-73 -44q-23 -14 -38 11q-32 46 -87 46q-91 0 -109 -116l-29 -184q-3 -18 -3 -34q0 -82 75 -82z
M534 858l-102 -121q-11 -14 -29 -14h-87q-20 0 -28 17l-61 119q-6 11 -2 18.5t17 7.5h73q19 0 26 -16l26 -49l45 53q9 12 27 12h83q14 0 17.5 -8t-5.5 -19z" />
    <glyph glyph-name="ccaron" unicode="&#x10d;" horiz-adv-x="395" 
d="M323 124l29 -57q12 -25 -8 -39q-57 -40 -129 -40q-90 0 -140.5 43t-50.5 122q0 22 4 43l19 119q31 197 221 197q80 0 128 -35q22 -16 4 -39l-42 -52q-14 -18 -39 -6q-19 10 -47 10q-71 0 -85 -88l-17 -104q-2 -18 -2 -24q0 -64 64 -64q26 0 52 21q25 19 39 -7zM446 700
l-102 -121q-11 -14 -29 -14h-87q-20 0 -28 17l-61 119q-6 11 -2 18.5t17 7.5h73q19 0 26 -16l26 -49l45 53q9 12 27 12h83q14 0 17.5 -8t-5.5 -19z" />
    <glyph glyph-name="Dcaron" unicode="&#x10e;" horiz-adv-x="593" 
d="M161 664h195q226 0 226 -184q0 -28 -4 -53l-32 -199q-19 -118 -86 -173t-193 -55h-207q-30 0 -25 30l96 608q5 26 30 26zM393 244l28 177q2 10 2 29q0 78 -89 78h-65l-61 -392h64q53 0 82.5 26t38.5 82zM537 858l-102 -121q-11 -14 -29 -14h-87q-20 0 -28 17l-61 119
q-6 11 -2 18.5t17 7.5h73q19 0 26 -16l26 -49l45 53q9 12 27 12h83q14 0 17.5 -8t-5.5 -19z" />
    <glyph glyph-name="dcaron" unicode="&#x10f;" horiz-adv-x="584" 
d="M396 700h86q30 0 25 -30l-78 -495q-30 -187 -219 -187q-89 0 -138 41.5t-49 116.5q0 20 3 39l22 140q15 92 65 139.5t132 47.5q58 0 88 -33h2l31 195q5 26 30 26zM289 188l19 124q2 11 2 24q0 54 -49 54q-61 0 -73 -78l-19 -124q-2 -11 -2 -25q0 -53 49 -53q61 0 73 78z
M683 672l-58 -164q-6 -18 -25 -18h-57q-25 0 -19 24l38 165q4 21 27 21h75q29 0 19 -28z" />
    <glyph glyph-name="Dcroat" unicode="&#x110;" horiz-adv-x="608" 
d="M174 664h195q226 0 226 -184q0 -28 -4 -53l-32 -199q-19 -118 -86 -173t-193 -55h-207q-30 0 -25 30l39 246h-31q-26 0 -23 27l11 72q3 23 27 23h35l38 240q5 26 30 26zM406 244l28 177q2 10 2 29q0 78 -89 78h-65l-20 -130h65q28 0 23 -27l-11 -72q-3 -23 -27 -23h-69
l-22 -140h64q53 0 82.5 26t38.5 82z" />
    <glyph glyph-name="dcroat" unicode="&#x111;" horiz-adv-x="494" 
d="M503 643h22q25 0 22 -26l-9 -54q-3 -22 -25 -22h-26l-58 -366q-30 -187 -219 -187q-89 0 -138 41.5t-49 116.5q0 20 3 39l22 140q15 92 65 139.5t132 47.5q58 0 88 -33h2l10 62h-95q-27 0 -22 26l9 54q3 22 25 22h99l5 31q5 26 30 26h86q30 0 25 -30zM289 188l19 124
q2 11 2 24q0 54 -49 54q-61 0 -73 -78l-19 -124q-2 -11 -2 -25q0 -53 49 -53q61 0 73 78z" />
    <glyph glyph-name="Emacron" unicode="&#x112;" horiz-adv-x="540" 
d="M250 403h206q30 0 25 -30l-12 -78q-5 -26 -30 -26h-210l-21 -133h249q31 0 26 -30l-13 -80q-5 -26 -30 -26h-380q-30 0 -25 30l96 608q5 26 30 26h380q30 0 25 -30l-12 -80q-5 -26 -30 -26h-255zM522 824l-10 -64q-4 -22 -26 -22h-239q-25 0 -22 26l10 64q4 22 26 22h239
q27 0 22 -26z" />
    <glyph glyph-name="emacron" unicode="&#x113;" horiz-adv-x="463" 
d="M263 512q87 0 135 -41.5t48 -116.5q0 -18 -3 -39l-13 -80q-5 -26 -30 -26h-229q-3 -19 -3 -37q0 -34 16 -48t53 -14q39 0 79 28q25 18 38 -7l30 -57q13 -24 -8 -39q-67 -47 -149 -47q-99 0 -151 41.5t-52 121.5q0 24 4 45l20 129q30 187 215 187zM261 390q-63 0 -73 -77
l-1 -9h120q3 15 3 34q0 52 -49 52zM446 666l-10 -64q-4 -22 -26 -22h-239q-25 0 -22 26l10 64q4 22 26 22h239q27 0 22 -26z" />
    <glyph glyph-name="Ebreve" unicode="&#x114;" horiz-adv-x="540" 
d="M250 403h206q30 0 25 -30l-12 -78q-5 -26 -30 -26h-210l-21 -133h249q31 0 26 -30l-13 -80q-5 -26 -30 -26h-380q-30 0 -25 30l96 608q5 26 30 26h380q30 0 25 -30l-12 -80q-5 -26 -30 -26h-255zM464 879h57q25 0 20 -24q-25 -129 -163 -129q-70 0 -109 35t-39 95
q0 23 23 23h56q21 0 23 -16q5 -29 49 -29q41 0 57 28q11 17 26 17z" />
    <glyph glyph-name="ebreve" unicode="&#x115;" horiz-adv-x="463" 
d="M263 512q87 0 135 -41.5t48 -116.5q0 -18 -3 -39l-13 -80q-5 -26 -30 -26h-229q-3 -19 -3 -37q0 -34 16 -48t53 -14q39 0 79 28q25 18 38 -7l30 -57q13 -24 -8 -39q-67 -47 -149 -47q-99 0 -151 41.5t-52 121.5q0 24 4 45l20 129q30 187 215 187zM261 390q-63 0 -73 -77
l-1 -9h120q3 15 3 34q0 52 -49 52zM388 721h57q25 0 20 -24q-25 -129 -163 -129q-70 0 -109 35t-39 95q0 23 23 23h56q21 0 23 -16q5 -29 49 -29q41 0 57 28q11 17 26 17z" />
    <glyph glyph-name="Edotaccent" unicode="&#x116;" horiz-adv-x="540" 
d="M250 403h206q30 0 25 -30l-12 -78q-5 -26 -30 -26h-210l-21 -133h249q31 0 26 -30l-13 -80q-5 -26 -30 -26h-380q-30 0 -25 30l96 608q5 26 30 26h380q30 0 25 -30l-12 -80q-5 -26 -30 -26h-255zM370 724q-34 0 -54.5 20.5t-20.5 52.5q0 38 24 62.5t61 24.5
q34 0 54.5 -20.5t20.5 -53.5q0 -38 -24.5 -62t-60.5 -24z" />
    <glyph glyph-name="edotaccent" unicode="&#x117;" horiz-adv-x="463" 
d="M263 512q87 0 135 -41.5t48 -116.5q0 -18 -3 -39l-13 -80q-5 -26 -30 -26h-229q-3 -19 -3 -37q0 -34 16 -48t53 -14q39 0 79 28q25 18 38 -7l30 -57q13 -24 -8 -39q-67 -47 -149 -47q-99 0 -151 41.5t-52 121.5q0 24 4 45l20 129q30 187 215 187zM261 390q-63 0 -73 -77
l-1 -9h120q3 15 3 34q0 52 -49 52zM294 566q-34 0 -54.5 20.5t-20.5 52.5q0 38 24 62.5t61 24.5q34 0 54.5 -20.5t20.5 -53.5q0 -38 -24.5 -62t-60.5 -24z" />
    <glyph glyph-name="Eogonek" unicode="&#x118;" horiz-adv-x="540" 
d="M161 664h380q30 0 25 -30l-12 -80q-5 -26 -30 -26h-255l-19 -125h206q30 0 25 -30l-12 -78q-5 -26 -30 -26h-210l-21 -133h249q31 0 26 -30l-13 -80q-5 -26 -30 -26h-12q-32 -9 -51.5 -26t-19.5 -36q0 -18 19 -18q8 0 18 6q19 13 31 -8l19 -32q12 -20 -5 -33
q-36 -25 -86 -25q-44 0 -70 21.5t-26 55.5q0 56 58 93v2h-255q-30 0 -25 30l96 608q5 26 30 26z" />
    <glyph glyph-name="eogonek" unicode="&#x119;" horiz-adv-x="463" 
d="M263 512q87 0 135 -41.5t48 -116.5q0 -18 -3 -39l-13 -80q-5 -26 -30 -26h-229q-3 -19 -3 -37q0 -34 16 -48t53 -14q39 0 79 28q25 18 38 -7l30 -57q13 -24 -8 -39t-56 -31q-24 -11 -38.5 -29t-14.5 -35q0 -20 18 -20q8 0 18 6q19 13 31 -8l19 -32q12 -20 -5 -33
q-32 -25 -83 -25q-43 0 -69.5 21.5t-26.5 58.5q0 44 37 78v2q-89 5 -135.5 46t-46.5 117q0 24 4 45l20 129q30 187 215 187zM307 304l1 8q2 9 2 26q0 52 -49 52q-63 0 -73 -77l-1 -9h120z" />
    <glyph glyph-name="Ecaron" unicode="&#x11a;" horiz-adv-x="540" 
d="M250 403h206q30 0 25 -30l-12 -78q-5 -26 -30 -26h-210l-21 -133h249q31 0 26 -30l-13 -80q-5 -26 -30 -26h-380q-30 0 -25 30l96 608q5 26 30 26h380q30 0 25 -30l-12 -80q-5 -26 -30 -26h-255zM540 858l-102 -121q-11 -14 -29 -14h-87q-19 0 -28 17l-61 119
q-6 11 -2 18.5t17 7.5h73q19 0 26 -16l26 -49l45 53q9 12 27 12h83q14 0 17.5 -8t-5.5 -19z" />
    <glyph glyph-name="ecaron" unicode="&#x11b;" horiz-adv-x="463" 
d="M263 512q87 0 135 -41.5t48 -116.5q0 -18 -3 -39l-13 -80q-5 -26 -30 -26h-229q-3 -19 -3 -37q0 -34 16 -48t53 -14q39 0 79 28q25 18 38 -7l30 -57q13 -24 -8 -39q-67 -47 -149 -47q-99 0 -151 41.5t-52 121.5q0 24 4 45l20 129q30 187 215 187zM261 390q-63 0 -73 -77
l-1 -9h120q3 15 3 34q0 52 -49 52zM464 700l-102 -121q-11 -14 -29 -14h-87q-20 0 -28 17l-61 119q-6 11 -2 18.5t17 7.5h73q19 0 26 -16l26 -49l45 53q9 12 27 12h83q14 0 17.5 -8t-5.5 -19z" />
    <glyph glyph-name="Gcircumflex" unicode="&#x11c;" horiz-adv-x="573" 
d="M553 354l-20 -124q-38 -242 -269 -242q-108 0 -166.5 51t-58.5 144q0 26 4 50l33 208q37 235 278 235q152 0 213 -111q12 -24 -12 -37l-76 -45q-23 -13 -38 10q-35 47 -99 47q-94 0 -113 -116l-29 -184q-3 -19 -3 -35q0 -81 78 -81q91 0 112 126h-70q-30 0 -25 30l12 78
q5 26 30 26h193q31 0 26 -30zM381 788l-45 -53q-9 -12 -27 -12h-83q-14 0 -18 8t6 19l102 121q11 14 29 14h87q20 0 28 -17l61 -119q6 -11 2 -18.5t-17 -7.5h-73q-19 0 -26 16z" />
    <glyph glyph-name="gcircumflex" unicode="&#x11d;" horiz-adv-x="490" 
d="M284 512q89 0 138 -41.5t49 -115.5q0 -19 -3 -40l-48 -304q-14 -89 -71 -136t-150 -47q-102 0 -167 50q-20 17 -3 39l40 55q15 21 39 5q39 -28 88 -28q72 0 83 69l2 12h-2q-30 -21 -76 -21q-76 0 -118 40t-42 112q0 24 4 45l19 119q29 187 218 187zM309 209l17 103
q2 18 2 24q0 54 -50 54q-60 0 -72 -78l-17 -103q-2 -18 -2 -24q0 -54 50 -54q60 0 72 78zM322 630l-45 -53q-9 -12 -27 -12h-83q-14 0 -18 8t6 19l102 121q11 14 29 14h87q20 0 28 -17l61 -119q6 -11 2 -18.5t-17 -7.5h-73q-19 0 -26 16z" />
    <glyph glyph-name="Gbreve" unicode="&#x11e;" horiz-adv-x="573" 
d="M553 354l-20 -124q-38 -242 -269 -242q-108 0 -166.5 51t-58.5 144q0 26 4 50l33 208q37 235 278 235q152 0 213 -111q12 -24 -12 -37l-76 -45q-23 -13 -38 10q-35 47 -99 47q-94 0 -113 -116l-29 -184q-3 -19 -3 -35q0 -81 78 -81q91 0 112 126h-70q-30 0 -25 30l12 78
q5 26 30 26h193q31 0 26 -30zM466 879h57q25 0 20 -24q-25 -129 -163 -129q-70 0 -109 35t-39 95q0 23 23 23h56q21 0 23 -16q5 -29 49 -29q41 0 57 28q11 17 26 17z" />
    <glyph glyph-name="gbreve" unicode="&#x11f;" horiz-adv-x="490" 
d="M284 512q89 0 138 -41.5t49 -115.5q0 -19 -3 -40l-48 -304q-14 -89 -71 -136t-150 -47q-102 0 -167 50q-20 17 -3 39l40 55q15 21 39 5q39 -28 88 -28q72 0 83 69l2 12h-2q-30 -21 -76 -21q-76 0 -118 40t-42 112q0 24 4 45l19 119q29 187 218 187zM309 209l17 103
q2 18 2 24q0 54 -50 54q-60 0 -72 -78l-17 -103q-2 -18 -2 -24q0 -54 50 -54q60 0 72 78zM407 721h57q25 0 20 -24q-25 -129 -163 -129q-70 0 -109 35t-39 95q0 23 23 23h56q21 0 23 -16q5 -29 49 -29q41 0 57 28q11 17 26 17z" />
    <glyph glyph-name="Gdotaccent" unicode="&#x120;" horiz-adv-x="573" 
d="M553 354l-20 -124q-38 -242 -269 -242q-108 0 -166.5 51t-58.5 144q0 26 4 50l33 208q37 235 278 235q152 0 213 -111q12 -24 -12 -37l-76 -45q-23 -13 -38 10q-35 47 -99 47q-94 0 -113 -116l-29 -184q-3 -19 -3 -35q0 -81 78 -81q91 0 112 126h-70q-30 0 -25 30l12 78
q5 26 30 26h193q31 0 26 -30zM372 724q-34 0 -54.5 20.5t-20.5 52.5q0 38 24 62.5t61 24.5q34 0 54.5 -20.5t20.5 -53.5q0 -38 -24.5 -62t-60.5 -24z" />
    <glyph glyph-name="gdotaccent" unicode="&#x121;" horiz-adv-x="490" 
d="M284 512q89 0 138 -41.5t49 -115.5q0 -19 -3 -40l-48 -304q-14 -89 -71 -136t-150 -47q-102 0 -167 50q-20 17 -3 39l40 55q15 21 39 5q39 -28 88 -28q72 0 83 69l2 12h-2q-30 -21 -76 -21q-76 0 -118 40t-42 112q0 24 4 45l19 119q29 187 218 187zM309 209l17 103
q2 18 2 24q0 54 -50 54q-60 0 -72 -78l-17 -103q-2 -18 -2 -24q0 -54 50 -54q60 0 72 78zM313 566q-34 0 -54.5 20.5t-20.5 52.5q0 38 24 62.5t61 24.5q34 0 54.5 -20.5t20.5 -53.5q0 -38 -24.5 -62t-60.5 -24z" />
    <glyph glyph-name="uni0122" unicode="&#x122;" horiz-adv-x="573" 
d="M553 354l-20 -124q-38 -242 -269 -242q-108 0 -166.5 51t-58.5 144q0 26 4 50l33 208q37 235 278 235q152 0 213 -111q12 -24 -12 -37l-76 -45q-23 -13 -38 10q-35 47 -99 47q-94 0 -113 -116l-29 -184q-3 -19 -3 -35q0 -81 78 -81q91 0 112 126h-70q-30 0 -25 30l12 78
q5 26 30 26h193q31 0 26 -30zM238 -40q31 0 50 -19.5t19 -52.5q0 -48 -29.5 -89.5t-75.5 -59.5q-16 -6 -24 9l-15 28q-9 15 8 24t30 27q-40 16 -40 61q0 33 22 52.5t55 19.5z" />
    <glyph glyph-name="uni0123" unicode="&#x123;" horiz-adv-x="490" 
d="M349 690q39 -15 39 -59q0 -34 -21 -54t-55 -20q-31 0 -50 20t-19 53q0 48 30 89t75 59q16 6 24 -9l15 -28q8 -14 -8 -24q-18 -11 -30 -27zM284 512q89 0 138 -41.5t49 -115.5q0 -19 -3 -40l-48 -304q-14 -89 -71 -136t-150 -47q-102 0 -167 50q-20 17 -3 39l40 55
q15 21 39 5q39 -28 88 -28q72 0 83 69l2 12h-2q-30 -21 -76 -21q-76 0 -118 40t-42 112q0 24 4 45l19 119q29 187 218 187zM309 209l17 103q2 18 2 24q0 54 -50 54q-60 0 -72 -78l-17 -103q-2 -18 -2 -24q0 -54 50 -54q60 0 72 78z" />
    <glyph glyph-name="Hcircumflex" unicode="&#x124;" horiz-adv-x="622" 
d="M620 634l-96 -608q-5 -26 -30 -26h-100q-30 0 -25 30l37 238h-178l-38 -242q-5 -26 -30 -26h-100q-30 0 -25 30l96 608q5 26 30 26h100q30 0 25 -30l-36 -230h178l37 234q5 26 30 26h100q30 0 25 -30zM406 788l-45 -53q-9 -12 -27 -12h-83q-14 0 -18 8t6 19l102 121
q11 14 29 14h87q20 0 28 -17l61 -119q6 -11 2 -18.5t-17 -7.5h-73q-19 0 -26 16z" />
    <glyph glyph-name="hcircumflex" unicode="&#x125;" horiz-adv-x="496" 
d="M320 512q71 0 108.5 -38t37.5 -107q0 -26 -4 -49l-46 -292q-5 -26 -30 -26h-86q-30 0 -25 30l45 286q2 18 2 25q0 49 -46 49q-56 0 -68 -74l-46 -290q-5 -26 -30 -26h-86q-30 0 -25 30l102 644q5 26 30 26h86q30 0 25 -30l-29 -181h2q34 23 83 23zM223 819l-45 -53
q-9 -12 -27 -12h-83q-14 0 -18 8t6 19l102 121q11 14 29 14h87q19 0 28 -17l61 -119q6 -11 2 -18.5t-17 -7.5h-73q-19 0 -26 16z" />
    <glyph glyph-name="Hbar" unicode="&#x126;" horiz-adv-x="636" 
d="M619 582h28q28 0 23 -27l-10 -64q-3 -23 -27 -23h-32l-70 -442q-5 -26 -30 -26h-100q-30 0 -25 30l37 238h-178l-38 -242q-5 -26 -30 -26h-100q-30 0 -25 30l69 438h-28q-28 0 -23 27l10 64q3 23 27 23h32l9 56q5 26 30 26h100q30 0 25 -30l-8 -52h178l9 56q5 26 30 26
h100q30 0 25 -30zM257 404h178l10 64h-178z" />
    <glyph glyph-name="hbar" unicode="&#x127;" horiz-adv-x="500" 
d="M324 512q71 0 108.5 -38t37.5 -107q0 -26 -4 -49l-46 -292q-5 -26 -30 -26h-86q-30 0 -25 30l45 286q2 18 2 25q0 49 -46 49q-56 0 -68 -74l-46 -290q-5 -26 -30 -26h-86q-30 0 -25 30l81 511h-26q-27 0 -22 26l9 54q3 22 25 22h30l5 31q5 26 30 26h86q30 0 25 -30
l-4 -27h81q25 0 22 -26l-9 -54q-3 -22 -25 -22h-86l-8 -52h2q34 23 83 23z" />
    <glyph glyph-name="Itilde" unicode="&#x128;" horiz-adv-x="288" 
d="M129 726h-45q-25 0 -19 25q28 126 121 126q39 0 70 -31q18 -18 32 -18q17 0 29 29q8 17 25 17h45q26 0 20 -25q-29 -126 -121 -126q-39 0 -70 31q-18 18 -32 18q-18 0 -29 -28q-7 -18 -26 -18zM286 634l-96 -608q-5 -26 -30 -26h-100q-30 0 -25 30l96 608q5 26 30 26h100
q30 0 25 -30z" />
    <glyph glyph-name="itilde" unicode="&#x129;" horiz-adv-x="246" 
d="M84 568h-45q-25 0 -19 25q28 126 121 126q39 0 70 -31q18 -18 32 -18q17 0 29 29q8 17 25 17h45q26 0 20 -25q-29 -126 -121 -126q-39 0 -70 31q-18 18 -32 18q-18 0 -29 -28q-7 -18 -26 -18zM133 0h-86q-30 0 -25 30l70 444q5 26 30 26h86q30 0 25 -30l-70 -444
q-5 -26 -30 -26z" />
    <glyph glyph-name="Imacron" unicode="&#x12a;" horiz-adv-x="288" 
d="M286 634l-96 -608q-5 -26 -30 -26h-100q-30 0 -25 30l96 608q5 26 30 26h100q30 0 25 -30zM382 824l-10 -64q-4 -22 -26 -22h-239q-25 0 -22 26l10 64q4 22 26 22h239q27 0 22 -26z" />
    <glyph glyph-name="imacron" unicode="&#x12b;" horiz-adv-x="246" 
d="M132 0h-86q-30 0 -25 30l70 444q5 26 30 26h86q30 0 25 -30l-70 -444q-5 -26 -30 -26zM336 666l-10 -64q-4 -22 -26 -22h-239q-25 0 -22 26l10 64q4 22 26 22h239q27 0 22 -26z" />
    <glyph glyph-name="Ibreve" unicode="&#x12c;" horiz-adv-x="288" 
d="M286 634l-96 -608q-5 -26 -30 -26h-100q-30 0 -25 30l96 608q5 26 30 26h100q30 0 25 -30zM324 879h57q25 0 20 -24q-25 -129 -163 -129q-70 0 -109 35t-39 95q0 23 23 23h56q21 0 23 -16q5 -29 49 -29q41 0 57 28q11 17 26 17z" />
    <glyph glyph-name="ibreve" unicode="&#x12d;" horiz-adv-x="246" 
d="M132 0h-86q-30 0 -25 30l70 444q5 26 30 26h86q30 0 25 -30l-70 -444q-5 -26 -30 -26zM278 721h57q25 0 20 -24q-25 -129 -163 -129q-70 0 -109 35t-39 95q0 23 23 23h56q21 0 23 -16q5 -29 49 -29q41 0 57 28q11 17 26 17z" />
    <glyph glyph-name="Iogonek" unicode="&#x12e;" horiz-adv-x="288" 
d="M156 664h100q30 0 25 -30l-96 -608q-5 -26 -30 -26h-13q-28 -9 -44 -25t-16 -35q0 -20 19 -20q8 0 18 6q19 13 31 -7l20 -33q12 -20 -6 -33q-36 -25 -84 -25q-47 0 -73 21.5t-26 56.5q0 61 59 95v2q-13 7 -10 27l96 608q5 26 30 26z" />
    <glyph glyph-name="iogonek" unicode="&#x12f;" horiz-adv-x="246" 
d="M116 500h86q30 0 25 -30l-70 -444q-5 -26 -30 -26h-5q-27 -9 -43.5 -25.5t-16.5 -34.5q0 -20 19 -20q8 0 18 6q19 13 31 -7l20 -33q11 -20 -6 -33q-36 -25 -84 -25q-47 0 -73 21.5t-26 56.5q0 62 62 97v2q-10 8 -7 25l70 444q5 26 30 26zM179 566q-34 0 -54.5 20.5
t-20.5 52.5q0 38 24 62.5t61 24.5q34 0 54.5 -20.5t20.5 -53.5q0 -38 -24.5 -62t-60.5 -24z" />
    <glyph glyph-name="Idotaccent" unicode="&#x130;" horiz-adv-x="288" 
d="M286 634l-96 -608q-5 -26 -30 -26h-100q-30 0 -25 30l96 608q5 26 30 26h100q30 0 25 -30zM230 724q-34 0 -54.5 20.5t-20.5 52.5q0 38 24 62.5t61 24.5q34 0 54.5 -20.5t20.5 -53.5q0 -38 -24.5 -62t-60.5 -24z" />
    <glyph glyph-name="dotlessi" unicode="&#x131;" horiz-adv-x="246" 
d="M132 0h-86q-30 0 -25 30l70 444q5 26 30 26h86q30 0 25 -30l-70 -444q-5 -26 -30 -26z" />
    <glyph glyph-name="IJ" unicode="&#x132;" horiz-adv-x="807" 
d="M814 634l-66 -418q-36 -228 -252 -228q-146 0 -209 100q-13 22 9 38l71 52q21 15 39 -7q34 -47 90 -47q39 0 65 27.5t34 79.5l64 407q5 26 30 26h100q30 0 25 -30zM286 634l-96 -608q-5 -26 -30 -26h-100q-30 0 -25 30l96 608q5 26 30 26h100q30 0 25 -30z" />
    <glyph glyph-name="ij" unicode="&#x133;" horiz-adv-x="492" 
d="M184 566q-34 0 -54.5 20.5t-20.5 52.5q0 38 24 62.5t61 24.5q34 0 54.5 -20.5t20.5 -53.5q0 -38 -24.5 -62t-60.5 -24zM132 0h-86q-30 0 -25 30l70 444q5 26 30 26h86q30 0 25 -30l-70 -444q-5 -26 -30 -26zM430 566q-34 0 -54.5 20.5t-20.5 52.5q0 38 24 62.5t61 24.5
q34 0 54.5 -20.5t20.5 -53.5q0 -38 -24.5 -62t-60.5 -24zM210 -38q26 0 38 10.5t16 37.5l73 464q5 26 30 26h86q30 0 25 -30l-73 -465q-13 -84 -58 -124.5t-125 -40.5h-27q-30 0 -25 30l10 66q5 26 30 26z" />
    <glyph glyph-name="Jcircumflex" unicode="&#x134;" horiz-adv-x="525" 
d="M540 634l-66 -418q-36 -228 -252 -228q-146 0 -209 100q-13 22 9 38l71 52q21 15 39 -7q34 -47 90 -47q39 0 65 27.5t34 79.5l64 407q5 26 30 26h100q30 0 25 -30zM493 788l-45 -53q-9 -12 -27 -12h-83q-14 0 -18 8t6 19l102 121q11 14 29 14h87q19 0 28 -17l61 -119
q6 -11 2 -18.5t-17 -7.5h-73q-19 0 -26 16z" />
    <glyph glyph-name="jcircumflex" unicode="&#x135;" horiz-adv-x="246" 
d="M-36 -38q26 0 38 10.5t16 37.5l73 464q5 26 30 26h86q30 0 25 -30l-73 -465q-13 -84 -58 -124.5t-125 -40.5h-27q-30 0 -25 30l10 66q5 26 30 26zM193 630l-45 -53q-9 -12 -27 -12h-83q-14 0 -18 8t6 19l102 121q11 14 29 14h87q19 0 28 -17l61 -119q6 -11 2 -18.5
t-17 -7.5h-73q-19 0 -26 16z" />
    <glyph glyph-name="uni0136" unicode="&#x136;" horiz-adv-x="589" 
d="M474 664h124q18 0 22.5 -10t-6.5 -24l-239 -295l152 -302q8 -14 2 -23.5t-22 -9.5h-121q-23 0 -33 21l-119 265h-2l-42 -260q-5 -26 -30 -26h-100q-30 0 -25 30l96 608q5 26 30 26h100q30 0 25 -30l-38 -233h2l190 246q13 17 34 17zM253 -40q31 0 50 -19.5t19 -52.5
q0 -48 -29.5 -89.5t-75.5 -59.5q-16 -6 -24 9l-15 28q-9 15 8 24t30 27q-40 16 -40 61q0 33 22 52.5t55 19.5z" />
    <glyph glyph-name="uni0137" unicode="&#x137;" horiz-adv-x="489" 
d="M378 500h104q18 0 22.5 -10t-6.5 -24l-173 -211l112 -222q8 -14 2 -23.5t-22 -9.5h-103q-23 0 -32 21l-88 197h-2l-30 -192q-5 -26 -30 -26h-86q-30 0 -25 30l102 644q5 26 30 26h86q30 0 25 -30l-58 -366h2l136 179q13 17 34 17zM207 -40q31 0 50 -19.5t19 -52.5
q0 -48 -29.5 -89.5t-75.5 -59.5q-16 -6 -24 9l-15 28q-9 15 8 24t30 27q-40 16 -40 61q0 33 22 52.5t55 19.5z" />
    <glyph glyph-name="kgreenlandic" unicode="&#x138;" horiz-adv-x="489" 
d="M378 500h104q18 0 22.5 -10t-6.5 -24l-173 -211l112 -222q8 -14 2 -23.5t-22 -9.5h-103q-23 0 -32 21l-88 197h-2l-30 -192q-5 -26 -30 -26h-86q-30 0 -25 30l70 444q5 26 30 26h86q30 0 25 -30l-26 -166h2l136 179q13 17 34 17z" />
    <glyph glyph-name="Lacute" unicode="&#x139;" horiz-adv-x="505" 
d="M208 136h234q31 0 26 -30l-13 -80q-5 -26 -30 -26h-365q-30 0 -25 30l96 608q5 26 30 26h100q30 0 25 -30zM394 856l-102 -121q-9 -12 -27 -12h-90q-14 0 -18 8.5t4 18.5l88 120q11 15 29 15h102q16 0 20 -9t-6 -20z" />
    <glyph glyph-name="lacute" unicode="&#x13a;" horiz-adv-x="246" 
d="M132 0h-86q-30 0 -25 30l102 644q5 26 30 26h86q30 0 25 -30l-102 -644q-5 -26 -30 -26zM378 887l-102 -121q-9 -12 -27 -12h-90q-14 0 -18 8t4 19l88 120q11 15 29 15h102q16 0 20 -9t-6 -20z" />
    <glyph glyph-name="uni013B" unicode="&#x13b;" horiz-adv-x="505" 
d="M208 136h234q31 0 26 -30l-13 -80q-5 -26 -30 -26h-365q-30 0 -25 30l96 608q5 26 30 26h100q30 0 25 -30zM229 -40q31 0 50 -19.5t19 -52.5q0 -48 -29.5 -89.5t-75.5 -59.5q-16 -6 -24 9l-15 28q-9 15 8 24t30 27q-40 16 -40 61q0 33 22 52.5t55 19.5z" />
    <glyph glyph-name="uni013C" unicode="&#x13c;" horiz-adv-x="246" 
d="M134 0h-86q-30 0 -25 30l102 644q5 26 30 26h86q30 0 25 -30l-102 -644q-5 -26 -30 -26zM75 -40q31 0 50 -19.5t19 -52.5q0 -48 -29.5 -89.5t-75.5 -59.5q-16 -6 -24 9l-15 28q-9 15 8 24t30 27q-40 16 -40 61q0 33 22 52.5t55 19.5z" />
    <glyph glyph-name="Lcaron" unicode="&#x13d;" horiz-adv-x="505" 
d="M208 136h234q31 0 26 -30l-13 -80q-5 -26 -30 -26h-365q-30 0 -25 30l96 608q5 26 30 26h100q30 0 25 -30zM491 672l-58 -164q-6 -18 -25 -18h-57q-25 0 -19 24l38 165q5 21 27 21h75q29 0 19 -28z" />
    <glyph glyph-name="lcaron" unicode="&#x13e;" horiz-adv-x="336" 
d="M132 0h-86q-30 0 -25 30l102 644q5 26 30 26h86q30 0 25 -30l-102 -644q-5 -26 -30 -26zM440 672l-58 -164q-6 -18 -25 -18h-57q-25 0 -19 24l38 165q4 21 27 21h75q29 0 19 -28z" />
    <glyph glyph-name="Ldot" unicode="&#x13f;" horiz-adv-x="505" 
d="M208 136h234q31 0 26 -30l-13 -80q-5 -26 -30 -26h-365q-30 0 -25 30l96 608q5 26 30 26h100q30 0 25 -30zM406 247q-34 0 -54.5 20.5t-20.5 52.5q0 38 24 62.5t61 24.5q34 0 54.5 -20.5t20.5 -53.5q0 -38 -24.5 -62t-60.5 -24z" />
    <glyph glyph-name="ldot" unicode="&#x140;" horiz-adv-x="356" 
d="M132 0h-86q-30 0 -25 30l102 644q5 26 30 26h86q30 0 25 -30l-102 -644q-5 -26 -30 -26zM311 247q-34 0 -54.5 20.5t-20.5 52.5q0 38 24 62.5t61 24.5q34 0 54.5 -20.5t20.5 -53.5q0 -38 -24.5 -62t-60.5 -24z" />
    <glyph glyph-name="Lslash" unicode="&#x141;" horiz-adv-x="520" 
d="M220 136h234q31 0 26 -30l-13 -80q-5 -26 -30 -26h-365q-30 0 -25 30l19 123l-29 -17q-13 -8 -21.5 -2.5t-6.5 21.5l15 95q3 19 19 28l47 27l53 333q5 26 30 26h100q30 0 25 -30l-36 -230l156 90q13 8 21.5 2.5t6.5 -21.5l-15 -95q-3 -19 -19 -28l-174 -100z" />
    <glyph glyph-name="lslash" unicode="&#x142;" horiz-adv-x="262" 
d="M236 460l30 19q13 8 21 3t6 -20l-13 -84q-3 -19 -18 -27l-48 -30l-47 -295q-5 -26 -30 -26h-86q-30 0 -25 30l31 193l-29 -18q-14 -8 -21.5 -3t-5.5 21l13 83q3 19 18 27l47 29l49 312q5 26 30 26h86q30 0 25 -30z" />
    <glyph glyph-name="Nacute" unicode="&#x143;" horiz-adv-x="622" 
d="M499 664h96q30 0 25 -30l-96 -608q-5 -26 -30 -26h-100q-25 0 -31 23l-116 385h-2l-59 -382q-5 -26 -30 -26h-96q-30 0 -25 30l96 608q5 26 30 26h112q25 0 31 -23l109 -361h2l54 358q5 26 30 26zM561 856l-102 -121q-9 -12 -27 -12h-90q-14 0 -18 8.5t4 18.5l88 120
q11 15 29 15h102q16 0 20 -9t-6 -20z" />
    <glyph glyph-name="nacute" unicode="&#x144;" horiz-adv-x="492" 
d="M271 30l45 286q2 18 2 25q0 49 -46 49q-56 0 -68 -74l-46 -290q-5 -26 -30 -26h-86q-30 0 -25 30l47 298q29 184 214 184q87 0 135 -40.5t48 -113.5q0 -19 -3 -40l-46 -292q-5 -26 -30 -26h-86q-30 0 -25 30zM471 698l-102 -121q-9 -12 -27 -12h-90q-14 0 -18 8.5t4 18.5
l88 120q11 15 29 15h102q16 0 20 -9t-6 -20z" />
    <glyph glyph-name="uni0145" unicode="&#x145;" horiz-adv-x="622" 
d="M499 664h96q30 0 25 -30l-96 -608q-5 -26 -30 -26h-100q-25 0 -31 23l-116 385h-2l-59 -382q-5 -26 -30 -26h-96q-30 0 -25 30l96 608q5 26 30 26h112q25 0 31 -23l109 -361h2l54 358q5 26 30 26zM261 -40q31 0 50 -19.5t19 -52.5q0 -48 -29.5 -89.5t-75.5 -59.5
q-16 -6 -24 9l-15 28q-9 15 8 24t30 27q-40 16 -40 61q0 33 22 52.5t55 19.5z" />
    <glyph glyph-name="uni0146" unicode="&#x146;" horiz-adv-x="492" 
d="M271 30l45 286q2 18 2 25q0 49 -46 49q-56 0 -68 -74l-46 -290q-5 -26 -30 -26h-86q-30 0 -25 30l47 298q29 184 214 184q87 0 135 -40.5t48 -113.5q0 -19 -3 -40l-46 -292q-5 -26 -30 -26h-86q-30 0 -25 30zM196 -40q31 0 50 -19.5t19 -52.5q0 -48 -29.5 -89.5
t-75.5 -59.5q-16 -6 -24 9l-15 28q-9 15 8 24t30 27q-40 16 -40 61q0 33 22 52.5t55 19.5z" />
    <glyph glyph-name="Ncaron" unicode="&#x147;" horiz-adv-x="622" 
d="M499 664h96q30 0 25 -30l-96 -608q-5 -26 -30 -26h-100q-25 0 -31 23l-116 385h-2l-59 -382q-5 -26 -30 -26h-96q-30 0 -25 30l96 608q5 26 30 26h112q25 0 31 -23l109 -361h2l54 358q5 26 30 26zM567 858l-102 -121q-11 -14 -29 -14h-87q-20 0 -28 17l-61 119
q-6 11 -2 18.5t17 7.5h73q19 0 26 -16l26 -49l45 53q9 12 27 12h83q14 0 17.5 -8t-5.5 -19z" />
    <glyph glyph-name="ncaron" unicode="&#x148;" horiz-adv-x="492" 
d="M271 30l45 286q2 18 2 25q0 49 -46 49q-56 0 -68 -74l-46 -290q-5 -26 -30 -26h-86q-30 0 -25 30l47 298q29 184 214 184q87 0 135 -40.5t48 -113.5q0 -19 -3 -40l-46 -292q-5 -26 -30 -26h-86q-30 0 -25 30zM477 700l-102 -121q-11 -14 -29 -14h-87q-20 0 -28 17
l-61 119q-6 11 -2 18.5t17 7.5h73q19 0 26 -16l26 -49l45 53q9 12 27 12h83q14 0 17.5 -8t-5.5 -19z" />
    <glyph glyph-name="napostrophe" unicode="&#x149;" horiz-adv-x="492" 
d="M271 30l45 286q2 18 2 25q0 49 -46 49q-56 0 -68 -74l-46 -290q-5 -26 -30 -26h-86q-30 0 -25 30l47 298q29 184 214 184q87 0 135 -40.5t48 -113.5q0 -19 -3 -40l-46 -292q-5 -26 -30 -26h-86q-30 0 -25 30zM204 761q29 0 47 -19t18 -51q0 -46 -30.5 -96.5t-81.5 -89.5
q-13 -11 -24 2l-22 24q-14 12 1 25q37 33 53 77q-36 15 -36 55q0 33 21 53t54 20z" />
    <glyph glyph-name="Eng" unicode="&#x14a;" horiz-adv-x="622" 
d="M499 664h96q30 0 25 -30l-99 -629q-26 -165 -183 -165h-57q-30 0 -25 30l10 66q5 26 30 26h20q28 0 39.5 12.5t15.5 48.5l-123 389h-2l-60 -386q-5 -26 -30 -26h-96q-30 0 -25 30l96 608q5 26 30 26h112q24 0 31 -23l111 -346h2l52 343q5 26 30 26z" />
    <glyph glyph-name="eng" unicode="&#x14b;" horiz-adv-x="492" 
d="M268 10l48 306q2 18 2 25q0 49 -46 49q-56 0 -68 -74l-46 -290q-5 -26 -30 -26h-86q-30 0 -25 30l47 298q29 184 214 184q87 0 135 -40.5t48 -113.5q0 -19 -3 -40l-49 -313q-13 -84 -58 -124.5t-125 -40.5h-27q-30 0 -25 30l10 66q5 26 30 26q26 0 38 10.5t16 37.5z" />
    <glyph glyph-name="Omacron" unicode="&#x14c;" horiz-adv-x="596" 
d="M43 233l33 208q37 235 273 235q109 0 170 -51.5t61 -143.5q0 -27 -4 -50l-33 -208q-37 -235 -273 -235q-110 0 -170.5 51.5t-60.5 144.5q0 26 4 49zM229 424l-29 -184q-3 -19 -3 -35q0 -81 80 -81q95 0 113 116l29 184q3 20 3 36q0 80 -79 80q-95 0 -114 -116zM531 824
l-10 -64q-4 -22 -26 -22h-239q-25 0 -22 26l10 64q4 22 26 22h239q27 0 22 -26z" />
    <glyph glyph-name="omacron" unicode="&#x14d;" horiz-adv-x="480" 
d="M267 512q89 0 138 -41.5t49 -116.5q0 -20 -3 -39l-22 -140q-30 -187 -219 -187q-89 0 -138 41.5t-49 116.5q0 20 3 39l22 140q30 187 219 187zM289 188l19 124q2 9 2 26q0 52 -49 52q-61 0 -73 -78l-19 -124q-2 -18 -2 -25q0 -53 49 -53q61 0 73 78zM448 666l-10 -64
q-4 -22 -26 -22h-239q-25 0 -22 26l10 64q4 22 26 22h239q27 0 22 -26z" />
    <glyph glyph-name="Obreve" unicode="&#x14e;" horiz-adv-x="596" 
d="M43 233l33 208q37 235 273 235q109 0 170 -51.5t61 -143.5q0 -27 -4 -50l-33 -208q-37 -235 -273 -235q-110 0 -170.5 51.5t-60.5 144.5q0 26 4 49zM229 424l-29 -184q-3 -19 -3 -35q0 -81 80 -81q95 0 113 116l29 184q3 20 3 36q0 80 -79 80q-95 0 -114 -116zM473 879
h57q25 0 20 -24q-25 -129 -163 -129q-70 0 -109 35t-39 95q0 23 23 23h56q21 0 23 -16q5 -29 49 -29q41 0 57 28q11 17 26 17z" />
    <glyph glyph-name="obreve" unicode="&#x14f;" horiz-adv-x="480" 
d="M267 512q89 0 138 -41.5t49 -116.5q0 -20 -3 -39l-22 -140q-30 -187 -219 -187q-89 0 -138 41.5t-49 116.5q0 20 3 39l22 140q30 187 219 187zM289 188l19 124q2 9 2 26q0 52 -49 52q-61 0 -73 -78l-19 -124q-2 -18 -2 -25q0 -53 49 -53q61 0 73 78zM390 721h57
q25 0 20 -24q-25 -129 -163 -129q-70 0 -109 35t-39 95q0 23 23 23h56q21 0 23 -16q5 -29 49 -29q41 0 57 28q11 17 26 17z" />
    <glyph glyph-name="Ohungarumlaut" unicode="&#x150;" horiz-adv-x="596" 
d="M43 233l33 208q37 235 273 235q109 0 170 -51.5t61 -143.5q0 -27 -4 -50l-33 -208q-37 -235 -273 -235q-110 0 -170.5 51.5t-60.5 144.5q0 26 4 49zM229 424l-29 -184q-3 -19 -3 -35q0 -81 80 -81q95 0 113 116l29 184q3 20 3 36q0 80 -79 80q-95 0 -114 -116zM439 856
l-99 -120q-10 -13 -26 -13h-70q-14 0 -18 8t4 19l83 120q10 15 29 15h83q15 0 19.5 -9t-5.5 -20zM612 856l-99 -120q-10 -13 -26 -13h-70q-14 0 -18 8t4 19l83 120q10 15 29 15h83q15 0 19.5 -9t-5.5 -20z" />
    <glyph glyph-name="ohungarumlaut" unicode="&#x151;" horiz-adv-x="480" 
d="M267 512q89 0 138 -41.5t49 -116.5q0 -20 -3 -39l-22 -140q-30 -187 -219 -187q-89 0 -138 41.5t-49 116.5q0 20 3 39l22 140q30 187 219 187zM289 188l19 124q2 9 2 26q0 52 -49 52q-61 0 -73 -78l-19 -124q-2 -18 -2 -25q0 -53 49 -53q61 0 73 78zM356 698l-99 -120
q-10 -13 -26 -13h-70q-14 0 -18 8t4 19l83 120q10 15 29 15h83q15 0 19.5 -9t-5.5 -20zM529 698l-99 -120q-10 -13 -26 -13h-70q-14 0 -18 8t4 19l83 120q10 15 29 15h83q15 0 19.5 -9t-5.5 -20z" />
    <glyph glyph-name="OE" unicode="&#x152;" horiz-adv-x="845" 
d="M569 528l-19 -125h206q30 0 25 -30l-12 -78q-5 -26 -30 -26h-210l-21 -133h249q31 0 26 -30l-13 -80q-5 -26 -30 -26h-475q-226 0 -226 184q0 28 4 53l32 199q19 118 86 173t193 55h487q30 0 25 -30l-12 -80q-5 -26 -30 -26h-255zM413 528h-64q-53 0 -82.5 -26t-38.5 -82
l-28 -177q-2 -10 -2 -29q0 -78 89 -78h65z" />
    <glyph glyph-name="oe" unicode="&#x153;" horiz-adv-x="725" 
d="M545 512q75 0 119 -43t44 -115q0 -18 -3 -39l-13 -80q-5 -26 -30 -26h-229q-3 -21 -3 -39q0 -35 16 -47.5t53 -12.5q39 0 79 28q25 18 38 -7l30 -57q12 -25 -8 -39q-65 -47 -139 -47q-111 0 -151 68h-2q-49 -68 -151 -68q-81 0 -126.5 41.5t-45.5 115.5q0 19 3 40l22 140
q31 187 204 187q104 0 142 -64h2q49 64 149 64zM289 188l19 124q2 9 2 26q0 52 -49 52q-61 0 -73 -78l-19 -124q-2 -18 -2 -25q0 -53 49 -53q61 0 73 78zM569 304q3 15 3 34q0 52 -49 52q-63 0 -73 -77l-1 -9h120z" />
    <glyph glyph-name="Racute" unicode="&#x154;" horiz-adv-x="570" 
d="M411 252l87 -220q6 -14 0 -23t-22 -9h-112q-25 0 -32 23l-70 215h-38l-34 -212q-5 -26 -30 -26h-100q-30 0 -25 30l96 608q5 26 30 26h185q219 0 219 -187q0 -182 -154 -225zM407 464q0 64 -78 64h-59l-25 -158h59q54 0 78.5 23t24.5 71zM527 856l-102 -121
q-9 -12 -27 -12h-90q-14 0 -18 8.5t4 18.5l88 120q11 15 29 15h102q16 0 20 -9t-6 -20z" />
    <glyph glyph-name="racute" unicode="&#x155;" horiz-adv-x="369" 
d="M17 30l46 290q30 192 201 192q69 0 116 -26q23 -14 8 -38l-36 -60q-14 -21 -39 -8q-20 10 -43 10q-54 0 -65 -67l-47 -297q-5 -26 -30 -26h-86q-30 0 -25 30zM433 698l-102 -121q-9 -12 -27 -12h-90q-14 0 -18 8.5t4 18.5l88 120q11 15 29 15h102q16 0 20 -9t-6 -20z" />
    <glyph glyph-name="uni0156" unicode="&#x156;" horiz-adv-x="570" 
d="M411 252l87 -220q6 -14 0 -23t-22 -9h-112q-25 0 -32 23l-70 215h-38l-34 -212q-5 -26 -30 -26h-100q-30 0 -25 30l96 608q5 26 30 26h185q219 0 219 -187q0 -182 -154 -225zM407 464q0 64 -78 64h-59l-25 -158h59q54 0 78.5 23t24.5 71zM245 -40q31 0 50 -19.5t19 -52.5
q0 -48 -29.5 -89.5t-75.5 -59.5q-16 -6 -24 9l-15 28q-9 15 8 24t30 27q-40 16 -40 61q0 33 22 52.5t55 19.5z" />
    <glyph glyph-name="uni0157" unicode="&#x157;" horiz-adv-x="369" 
d="M19 30l46 290q30 192 201 192q69 0 116 -26q23 -14 8 -38l-36 -60q-14 -21 -39 -8q-20 10 -43 10q-54 0 -65 -67l-47 -297q-5 -26 -30 -26h-86q-30 0 -25 30zM71 -40q31 0 50 -19.5t19 -52.5q0 -48 -29.5 -89.5t-75.5 -59.5q-16 -6 -24 9l-15 28q-9 15 8 24t30 27
q-40 16 -40 61q0 33 22 52.5t55 19.5z" />
    <glyph glyph-name="Rcaron" unicode="&#x158;" horiz-adv-x="570" 
d="M411 252l87 -220q6 -14 0 -23t-22 -9h-112q-25 0 -32 23l-70 215h-38l-34 -212q-5 -26 -30 -26h-100q-30 0 -25 30l96 608q5 26 30 26h185q219 0 219 -187q0 -182 -154 -225zM407 464q0 64 -78 64h-59l-25 -158h59q54 0 78.5 23t24.5 71zM533 858l-102 -121
q-11 -14 -29 -14h-87q-20 0 -28 17l-61 119q-6 11 -2 18.5t17 7.5h73q19 0 26 -16l26 -49l45 53q9 12 27 12h83q14 0 17.5 -8t-5.5 -19z" />
    <glyph glyph-name="rcaron" unicode="&#x159;" horiz-adv-x="369" 
d="M17 30l46 290q30 192 201 192q69 0 116 -26q23 -14 8 -38l-36 -60q-14 -21 -39 -8q-20 10 -43 10q-54 0 -65 -67l-47 -297q-5 -26 -30 -26h-86q-30 0 -25 30zM439 700l-102 -121q-11 -14 -29 -14h-87q-20 0 -28 17l-61 119q-6 11 -2 18.5t17 7.5h73q19 0 26 -16l26 -49
l45 53q9 12 27 12h83q14 0 17.5 -8t-5.5 -19z" />
    <glyph glyph-name="Sacute" unicode="&#x15a;" horiz-adv-x="524" 
d="M338 676q135 0 201 -72q18 -20 -4 -39l-69 -60q-19 -16 -40 3q-37 32 -96 32q-41 0 -65.5 -21t-24.5 -57q0 -24 20.5 -37t74.5 -22q95 -16 136.5 -57.5t41.5 -118.5q0 -111 -68.5 -175t-186.5 -64q-153 0 -229 88q-17 20 4 39l70 60q19 16 40 -3q48 -48 124 -48
q89 0 89 79q0 24 -20.5 36.5t-74.5 22.5q-96 17 -137 58.5t-41 117.5q0 109 69 173.5t186 64.5zM522 856l-102 -121q-9 -12 -27 -12h-90q-14 0 -18 8.5t4 18.5l88 120q11 15 29 15h102q16 0 20 -9t-6 -20z" />
    <glyph glyph-name="sacute" unicode="&#x15b;" horiz-adv-x="417" 
d="M197 -12q-113 0 -176 49q-21 17 -4 39l43 57q15 21 39 5q44 -30 96 -30q67 0 67 42q0 16 -15 25t-54 16q-73 13 -105 45.5t-32 91.5q0 85 57 134.5t155 49.5q89 0 145 -36q22 -13 6 -38l-39 -56q-15 -20 -39 -8q-32 18 -72 18q-72 0 -72 -41q0 -16 14.5 -25t52.5 -15
q75 -11 107.5 -44.5t32.5 -94.5q0 -85 -55.5 -134.5t-151.5 -49.5zM446 698l-102 -121q-9 -12 -27 -12h-90q-14 0 -18 8.5t4 18.5l88 120q11 15 29 15h102q16 0 20 -9t-6 -20z" />
    <glyph glyph-name="Scircumflex" unicode="&#x15c;" horiz-adv-x="524" 
d="M338 676q135 0 201 -72q18 -20 -4 -39l-69 -60q-19 -16 -40 3q-37 32 -96 32q-41 0 -65.5 -21t-24.5 -57q0 -24 20.5 -37t74.5 -22q95 -16 136.5 -57.5t41.5 -118.5q0 -111 -68.5 -175t-186.5 -64q-153 0 -229 88q-17 20 4 39l70 60q19 16 40 -3q48 -48 124 -48
q89 0 89 79q0 24 -20.5 36.5t-74.5 22.5q-96 17 -137 58.5t-41 117.5q0 109 69 173.5t186 64.5zM367 788l-45 -53q-9 -12 -27 -12h-83q-14 0 -18 8t6 19l102 121q11 14 29 14h87q19 0 28 -17l61 -119q6 -11 2 -18.5t-17 -7.5h-73q-19 0 -26 16z" />
    <glyph glyph-name="scircumflex" unicode="&#x15d;" horiz-adv-x="417" 
d="M197 -12q-113 0 -176 49q-21 17 -4 39l43 57q15 21 39 5q44 -30 96 -30q67 0 67 42q0 16 -15 25t-54 16q-73 13 -105 45.5t-32 91.5q0 85 57 134.5t155 49.5q89 0 145 -36q22 -13 6 -38l-39 -56q-15 -20 -39 -8q-32 18 -72 18q-72 0 -72 -41q0 -16 14.5 -25t52.5 -15
q75 -11 107.5 -44.5t32.5 -94.5q0 -85 -55.5 -134.5t-151.5 -49.5zM291 630l-45 -53q-9 -12 -27 -12h-83q-14 0 -18 8t6 19l102 121q11 14 29 14h87q19 0 28 -17l61 -119q6 -11 2 -18.5t-17 -7.5h-73q-19 0 -26 16z" />
    <glyph glyph-name="Scedilla" unicode="&#x15e;" horiz-adv-x="524" 
d="M29 76q-17 20 4 39l70 60q19 16 40 -3q48 -48 124 -48q89 0 89 79q0 24 -20.5 36.5t-74.5 22.5q-96 17 -137 58.5t-41 117.5q0 109 69 173.5t186 64.5q135 0 201 -72q18 -20 -4 -39l-69 -60q-19 -16 -40 3q-37 32 -96 32q-41 0 -65.5 -21t-24.5 -57q0 -24 20.5 -37
t74.5 -22q95 -16 136.5 -57.5t41.5 -118.5q0 -108 -65 -171.5t-178 -67.5l-8 -22q61 -11 61 -63q0 -75 -107 -75q-47 0 -79 15q-19 10 -10 33l9 23q8 21 33 10q24 -10 40 -10q33 0 33 21q0 19 -27 19q-12 0 -17.5 6.5t-1.5 18.5l9 27q-115 13 -176 85z" />
    <glyph glyph-name="scedilla" unicode="&#x15f;" horiz-adv-x="417" 
d="M21 37q-21 17 -4 39l43 57q15 21 39 5q44 -30 96 -30q67 0 67 42q0 16 -15 25t-54 16q-73 13 -105 45.5t-32 91.5q0 85 57 134.5t155 49.5q89 0 145 -36q22 -13 6 -38l-39 -56q-15 -20 -39 -8q-32 18 -72 18q-72 0 -72 -41q0 -16 14.5 -25t52.5 -15q75 -11 107.5 -44.5
t32.5 -94.5q0 -83 -51.5 -131.5t-141.5 -52.5l-8 -22q61 -11 61 -63q0 -75 -107 -75q-47 0 -79 15q-19 10 -10 33l9 23q8 21 33 10q24 -10 40 -10q33 0 33 21q0 19 -27 19q-12 0 -17.5 6.5t-1.5 18.5l9 27q-75 7 -125 46z" />
    <glyph glyph-name="Scaron" unicode="&#x160;" horiz-adv-x="524" 
d="M338 676q135 0 201 -72q18 -20 -4 -39l-69 -60q-19 -16 -40 3q-37 32 -96 32q-41 0 -65.5 -21t-24.5 -57q0 -24 20.5 -37t74.5 -22q95 -16 136.5 -57.5t41.5 -118.5q0 -111 -68.5 -175t-186.5 -64q-153 0 -229 88q-17 20 4 39l70 60q19 16 40 -3q48 -48 124 -48
q89 0 89 79q0 24 -20.5 36.5t-74.5 22.5q-96 17 -137 58.5t-41 117.5q0 109 69 173.5t186 64.5zM528 858l-102 -121q-11 -14 -29 -14h-87q-19 0 -28 17l-61 119q-6 11 -2 18.5t17 7.5h73q19 0 26 -16l26 -49l45 53q9 12 27 12h83q14 0 17.5 -8t-5.5 -19z" />
    <glyph glyph-name="scaron" unicode="&#x161;" horiz-adv-x="417" 
d="M197 -12q-113 0 -176 49q-21 17 -4 39l43 57q15 21 39 5q44 -30 96 -30q67 0 67 42q0 16 -15 25t-54 16q-73 13 -105 45.5t-32 91.5q0 85 57 134.5t155 49.5q89 0 145 -36q22 -13 6 -38l-39 -56q-15 -20 -39 -8q-32 18 -72 18q-72 0 -72 -41q0 -16 14.5 -25t52.5 -15
q75 -11 107.5 -44.5t32.5 -94.5q0 -85 -55.5 -134.5t-151.5 -49.5zM452 700l-102 -121q-11 -14 -29 -14h-87q-19 0 -28 17l-61 119q-6 11 -2 18.5t17 7.5h73q19 0 26 -16l26 -49l45 53q9 12 27 12h83q14 0 17.5 -8t-5.5 -19z" />
    <glyph glyph-name="uni0162" unicode="&#x162;" horiz-adv-x="516" 
d="M113 664h424q30 0 25 -30l-12 -80q-5 -26 -30 -26h-137l-79 -502q-5 -26 -30 -26h-20l-12 -34q61 -11 61 -63q0 -75 -107 -75q-47 0 -79 15q-19 10 -10 33l9 23q8 21 33 10q24 -10 40 -10q33 0 33 21q0 19 -27 19q-12 0 -17.5 6.5t-1.5 18.5l12 36h-14q-30 0 -25 30
l78 498h-131q-30 0 -25 30l12 80q5 26 30 26z" />
    <glyph glyph-name="uni0163" unicode="&#x163;" horiz-adv-x="363" 
d="M259 500h98q30 0 25 -30l-10 -66q-5 -26 -30 -26h-102l-33 -210q-1 -5 -1 -14q0 -44 50 -44q16 0 28 4q29 9 33 -18l9 -64q3 -27 -20 -34q-33 -10 -74 -10q-14 0 -36 2l-8 -24q61 -11 61 -63q0 -75 -107 -75q-47 0 -79 15q-19 10 -10 33l9 23q8 21 33 10q24 -10 40 -10
q33 0 33 21q0 19 -27 19q-12 0 -17.5 6.5t-1.5 18.5l14 42q-74 32 -74 126q0 23 4 44l32 202h-28q-30 0 -25 30l10 66q5 26 30 26h32l16 101q5 26 30 26h86q30 0 25 -30z" />
    <glyph glyph-name="Tcaron" unicode="&#x164;" horiz-adv-x="516" 
d="M383 528l-79 -502q-5 -26 -30 -26h-100q-30 0 -25 30l78 498h-131q-30 0 -25 30l12 80q5 26 30 26h424q30 0 25 -30l-12 -80q-5 -26 -30 -26h-137zM514 858l-102 -121q-11 -14 -29 -14h-87q-19 0 -28 17l-61 119q-6 11 -2 18.5t17 7.5h73q19 0 26 -16l26 -49l45 53
q9 12 27 12h83q14 0 17.5 -8t-5.5 -19z" />
    <glyph glyph-name="tcaron" unicode="&#x165;" horiz-adv-x="363" 
d="M240 378l-33 -210q-1 -5 -1 -14q0 -44 50 -44q16 0 28 4q29 9 33 -18l9 -64q3 -27 -20 -34q-33 -10 -74 -10q-170 0 -170 144q0 23 4 44l32 202h-28q-30 0 -25 30l10 66q5 26 30 26h32l16 101q5 26 30 26h86q30 0 25 -30l-15 -97h98q30 0 25 -30l-10 -66q-5 -26 -30 -26
h-102zM471 713l-58 -164q-6 -18 -25 -18h-57q-25 0 -19 24l38 165q5 21 27 21h75q29 0 19 -28z" />
    <glyph glyph-name="Tbar" unicode="&#x166;" horiz-adv-x="516" 
d="M113 664h424q30 0 25 -30l-12 -80q-5 -26 -30 -26h-137l-20 -125h74q28 0 23 -27l-10 -62q-3 -23 -27 -23h-77l-42 -265q-5 -26 -30 -26h-100q-30 0 -25 30l41 261h-74q-28 0 -23 27l10 62q3 23 27 23h77l20 125h-131q-30 0 -25 30l12 80q5 26 30 26z" />
    <glyph glyph-name="tbar" unicode="&#x167;" horiz-adv-x="373" 
d="M262 500h98q30 0 25 -30l-10 -66q-5 -26 -30 -26h-102l-10 -63h82q27 0 22 -26l-9 -54q-3 -22 -25 -22h-86l-7 -45q-1 -5 -1 -14q0 -44 50 -44q16 0 28 4q29 9 33 -18l9 -64q3 -27 -20 -34q-33 -10 -74 -10q-170 0 -170 144q0 23 4 44l6 37h-22q-25 0 -22 26l9 54
q3 22 25 22h26l10 63h-28q-30 0 -25 30l10 66q5 26 30 26h32l16 101q5 26 30 26h86q30 0 25 -30z" />
    <glyph glyph-name="Utilde" unicode="&#x168;" horiz-adv-x="588" 
d="M590 634l-66 -418q-36 -228 -258 -228q-104 0 -161 49.5t-57 139.5q0 26 4 49l65 412q5 26 30 26h100q30 0 25 -30l-64 -405q-3 -18 -3 -33q0 -72 70 -72q83 0 99 105l65 409q5 26 30 26h96q30 0 25 -30zM274 726h-45q-25 0 -19 25q28 126 121 126q39 0 70 -31
q18 -18 32 -18q17 0 29 29q8 17 25 17h45q26 0 20 -25q-29 -126 -121 -126q-39 0 -70 31q-18 18 -32 18q-18 0 -29 -28q-7 -18 -26 -18z" />
    <glyph glyph-name="utilde" unicode="&#x169;" horiz-adv-x="486" 
d="M471 470l-47 -301q-29 -181 -211 -181q-86 0 -133.5 40t-47.5 113q0 19 3 38l47 295q5 26 30 26h86q30 0 25 -30l-46 -292q-2 -16 -2 -22q0 -46 46 -46q56 0 66 68l47 296q5 26 30 26h82q30 0 25 -30zM198 568h-45q-25 0 -19 25q28 126 121 126q39 0 70 -31
q18 -18 32 -18q17 0 29 29q8 17 25 17h45q26 0 20 -25q-29 -126 -121 -126q-39 0 -70 31q-18 18 -32 18q-18 0 -29 -28q-7 -18 -26 -18z" />
    <glyph glyph-name="Umacron" unicode="&#x16a;" horiz-adv-x="588" 
d="M590 634l-66 -418q-36 -228 -258 -228q-104 0 -161 49.5t-57 139.5q0 26 4 49l65 412q5 26 30 26h100q30 0 25 -30l-64 -405q-3 -18 -3 -33q0 -72 70 -72q83 0 99 105l65 409q5 26 30 26h96q30 0 25 -30zM527 824l-10 -64q-4 -22 -26 -22h-239q-25 0 -22 26l10 64
q4 22 26 22h239q27 0 22 -26z" />
    <glyph glyph-name="umacron" unicode="&#x16b;" horiz-adv-x="486" 
d="M471 470l-47 -301q-29 -181 -211 -181q-86 0 -133.5 40t-47.5 113q0 19 3 38l47 295q5 26 30 26h86q30 0 25 -30l-46 -292q-2 -16 -2 -22q0 -46 46 -46q56 0 66 68l47 296q5 26 30 26h82q30 0 25 -30zM451 666l-10 -64q-4 -22 -26 -22h-239q-25 0 -22 26l10 64
q4 22 26 22h239q27 0 22 -26z" />
    <glyph glyph-name="Ubreve" unicode="&#x16c;" horiz-adv-x="588" 
d="M590 634l-66 -418q-36 -228 -258 -228q-104 0 -161 49.5t-57 139.5q0 26 4 49l65 412q5 26 30 26h100q30 0 25 -30l-64 -405q-3 -18 -3 -33q0 -72 70 -72q83 0 99 105l65 409q5 26 30 26h96q30 0 25 -30zM469 879h57q25 0 20 -24q-25 -129 -163 -129q-70 0 -109 35
t-39 95q0 23 23 23h56q21 0 23 -16q5 -29 49 -29q41 0 57 28q11 17 26 17z" />
    <glyph glyph-name="ubreve" unicode="&#x16d;" horiz-adv-x="486" 
d="M471 470l-47 -301q-29 -181 -211 -181q-86 0 -133.5 40t-47.5 113q0 19 3 38l47 295q5 26 30 26h86q30 0 25 -30l-46 -292q-2 -16 -2 -22q0 -46 46 -46q56 0 66 68l47 296q5 26 30 26h82q30 0 25 -30zM393 721h57q25 0 20 -24q-25 -129 -163 -129q-70 0 -109 35t-39 95
q0 23 23 23h56q21 0 23 -16q5 -29 49 -29q41 0 57 28q11 17 26 17z" />
    <glyph glyph-name="Uring" unicode="&#x16e;" horiz-adv-x="588" 
d="M590 634l-66 -418q-36 -228 -258 -228q-104 0 -161 49.5t-57 139.5q0 26 4 49l65 412q5 26 30 26h100q30 0 25 -30l-64 -405q-3 -18 -3 -33q0 -72 70 -72q83 0 99 105l65 409q5 26 30 26h96q30 0 25 -30zM374 711q-37 0 -61.5 24t-24.5 61q0 41 29.5 69t69.5 28
q37 0 61.5 -24t24.5 -61q0 -41 -29.5 -69t-69.5 -28zM377 770q14 0 24.5 10t10.5 24q0 13 -8 21.5t-21 8.5q-14 0 -24.5 -10t-10.5 -24q0 -13 8 -21.5t21 -8.5z" />
    <glyph glyph-name="uring" unicode="&#x16f;" horiz-adv-x="486" 
d="M471 470l-47 -301q-29 -181 -211 -181q-86 0 -133.5 40t-47.5 113q0 19 3 38l47 295q5 26 30 26h86q30 0 25 -30l-46 -292q-2 -16 -2 -22q0 -46 46 -46q56 0 66 68l47 296q5 26 30 26h82q30 0 25 -30zM298 553q-37 0 -61.5 24t-24.5 61q0 41 29.5 69t69.5 28
q37 0 61.5 -24t24.5 -61q0 -41 -29.5 -69t-69.5 -28zM301 612q14 0 24.5 10t10.5 24q0 13 -8 21.5t-21 8.5q-14 0 -24.5 -10t-10.5 -24q0 -13 8 -21.5t21 -8.5z" />
    <glyph glyph-name="Uhungarumlaut" unicode="&#x170;" horiz-adv-x="588" 
d="M590 634l-66 -418q-36 -228 -258 -228q-104 0 -161 49.5t-57 139.5q0 26 4 49l65 412q5 26 30 26h100q30 0 25 -30l-64 -405q-3 -18 -3 -33q0 -72 70 -72q83 0 99 105l65 409q5 26 30 26h96q30 0 25 -30zM435 856l-99 -120q-10 -13 -26 -13h-70q-14 0 -18 8t4 19l83 120
q10 15 29 15h83q15 0 19.5 -9t-5.5 -20zM608 856l-99 -120q-10 -13 -26 -13h-70q-14 0 -18 8t4 19l83 120q10 15 29 15h83q15 0 19.5 -9t-5.5 -20z" />
    <glyph glyph-name="uhungarumlaut" unicode="&#x171;" horiz-adv-x="486" 
d="M471 470l-47 -301q-29 -181 -211 -181q-86 0 -133.5 40t-47.5 113q0 19 3 38l47 295q5 26 30 26h86q30 0 25 -30l-46 -292q-2 -16 -2 -22q0 -46 46 -46q56 0 66 68l47 296q5 26 30 26h82q30 0 25 -30zM359 698l-99 -120q-10 -13 -26 -13h-70q-14 0 -18 8t4 19l83 120
q10 15 29 15h83q15 0 19.5 -9t-5.5 -20zM532 698l-99 -120q-10 -13 -26 -13h-70q-14 0 -18 8t4 19l83 120q10 15 29 15h83q15 0 19.5 -9t-5.5 -20z" />
    <glyph glyph-name="Uogonek" unicode="&#x172;" horiz-adv-x="588" 
d="M469 664h96q30 0 25 -30l-66 -418q-26 -162 -153 -213q-23 -10 -37.5 -27.5t-14.5 -35.5q0 -20 18 -20q8 0 18 6q19 13 31 -8l19 -32q12 -20 -5 -33q-32 -25 -83 -25q-43 0 -69.5 21.5t-26.5 58.5q0 44 37 78v2q-100 2 -155 51.5t-55 137.5q0 26 4 49l65 412q5 26 30 26
h100q30 0 25 -30l-64 -405q-3 -18 -3 -33q0 -72 70 -72q83 0 99 105l65 409q5 26 30 26z" />
    <glyph glyph-name="uogonek" unicode="&#x173;" horiz-adv-x="486" 
d="M364 500h82q30 0 25 -30l-47 -301q-20 -126 -120 -168q-22 -10 -35.5 -27t-13.5 -34q0 -20 18 -20q8 0 18 6q19 13 31 -8l19 -32q12 -20 -5 -33q-32 -25 -83 -25q-43 0 -69.5 21.5t-26.5 58.5q0 44 37 78v2q-77 5 -119.5 45t-42.5 108q0 19 3 38l47 295q5 26 30 26h86
q30 0 25 -30l-46 -292q-2 -16 -2 -22q0 -46 46 -46q56 0 66 68l47 296q5 26 30 26z" />
    <glyph glyph-name="Wcircumflex" unicode="&#x174;" horiz-adv-x="860" 
d="M774 664h105q16 0 22 -9t0 -23l-248 -610q-9 -22 -33 -22h-107q-26 0 -29 27l-30 358h-2l-143 -363q-9 -22 -33 -22h-107q-26 0 -29 27l-55 608q-3 29 26 29h106q26 0 28 -27l18 -395h2l156 400q9 22 33 22h79q28 0 29 -27l30 -394h2l148 399q9 22 32 22zM523 788
l-45 -53q-9 -12 -27 -12h-83q-14 0 -18 8t6 19l102 121q11 14 29 14h87q19 0 28 -17l61 -119q6 -11 2 -18.5t-17 -7.5h-73q-19 0 -26 16z" />
    <glyph glyph-name="wcircumflex" unicode="&#x175;" horiz-adv-x="713" 
d="M626 500h86q16 0 22 -9t-1 -24l-186 -445q-9 -22 -32 -22h-97q-27 0 -30 26l-24 256h-2l-105 -260q-9 -22 -32 -22h-97q-27 0 -30 26l-45 445q-3 29 27 29h85q28 0 29 -27l18 -294h2l122 299q9 22 32 22h55q27 0 30 -26l29 -290h2l109 294q9 22 33 22zM425 630l-45 -53
q-9 -12 -27 -12h-83q-14 0 -18 8t6 19l102 121q11 14 29 14h87q19 0 28 -17l61 -119q6 -11 2 -18.5t-17 -7.5h-73q-19 0 -26 16z" />
    <glyph glyph-name="Ycircumflex" unicode="&#x176;" horiz-adv-x="558" 
d="M478 664h120q17 0 22 -10t-5 -24l-251 -361l-39 -243q-5 -26 -30 -26h-100q-30 0 -25 30l39 250l-136 352q-5 14 1 23t22 9h114q25 0 32 -23l66 -203h2l134 208q12 18 34 18zM374 788l-45 -53q-9 -12 -27 -12h-83q-14 0 -18 8t6 19l102 121q11 14 29 14h87q20 0 28 -17
l61 -119q6 -11 2 -18.5t-17 -7.5h-73q-19 0 -26 16z" />
    <glyph glyph-name="ycircumflex" unicode="&#x177;" horiz-adv-x="496" 
d="M383 500h86q30 0 25 -30l-72 -459q-14 -89 -71 -136t-150 -47q-102 0 -167 50q-20 17 -3 39l40 55q15 21 39 5q39 -28 88 -28q73 0 83 69l2 14h-2q-33 -24 -83 -24q-71 0 -108.5 38.5t-37.5 108.5q0 24 4 47l43 272q5 26 30 26h86q30 0 25 -30l-42 -266q-2 -18 -2 -24
q0 -50 47 -50q55 0 67 74l43 270q5 26 30 26zM328 630l-45 -53q-9 -12 -27 -12h-83q-14 0 -18 8t6 19l102 121q11 14 29 14h87q20 0 28 -17l61 -119q6 -11 2 -18.5t-17 -7.5h-73q-19 0 -26 16z" />
    <glyph glyph-name="Ydieresis" unicode="&#x178;" horiz-adv-x="558" 
d="M478 664h120q17 0 22 -10t-5 -24l-251 -361l-39 -243q-5 -26 -30 -26h-100q-30 0 -25 30l39 250l-136 352q-5 14 1 23t22 9h114q25 0 32 -23l66 -203h2l134 208q12 18 34 18zM274 731q-32 0 -50.5 19t-18.5 49q0 35 21.5 57.5t55.5 22.5q31 0 50.5 -19.5t19.5 -50.5
q0 -34 -22.5 -56t-55.5 -22zM458 731q-31 0 -50 19t-19 49q0 35 22 57.5t55 22.5q32 0 51 -19.5t19 -50.5q0 -34 -22 -56t-56 -22z" />
    <glyph glyph-name="Zacute" unicode="&#x179;" horiz-adv-x="535" 
d="M213 136h240q30 0 25 -30l-12 -80q-5 -26 -30 -26h-405q-30 0 -25 30l14 92q3 19 15 33l315 373h-220q-30 0 -25 30l12 80q5 26 30 26h385q30 0 25 -30l-14 -92q-3 -19 -15 -33zM520 856l-102 -121q-9 -12 -27 -12h-90q-14 0 -18 8.5t4 18.5l88 120q11 15 29 15h102
q16 0 20 -9t-6 -20z" />
    <glyph glyph-name="zacute" unicode="&#x17a;" horiz-adv-x="440" 
d="M188 122h172q30 0 25 -30l-10 -66q-5 -26 -30 -26h-318q-30 0 -25 30l12 79q3 18 16 33l224 236h-152q-30 0 -25 30l10 66q5 26 30 26h298q30 0 25 -30l-12 -79q-3 -18 -16 -33zM448 698l-102 -121q-9 -12 -27 -12h-90q-14 0 -18 8.5t4 18.5l88 120q11 15 29 15h102
q16 0 20 -9t-6 -20z" />
    <glyph glyph-name="Zdotaccent" unicode="&#x17b;" horiz-adv-x="535" 
d="M213 136h240q30 0 25 -30l-12 -80q-5 -26 -30 -26h-405q-30 0 -25 30l14 92q3 19 15 33l315 373h-220q-30 0 -25 30l12 80q5 26 30 26h385q30 0 25 -30l-14 -92q-3 -19 -15 -33zM356 724q-34 0 -54.5 20.5t-20.5 52.5q0 38 24 62.5t61 24.5q34 0 54.5 -20.5t20.5 -53.5
q0 -38 -24.5 -62t-60.5 -24z" />
    <glyph glyph-name="zdotaccent" unicode="&#x17c;" horiz-adv-x="440" 
d="M188 122h172q30 0 25 -30l-10 -66q-5 -26 -30 -26h-318q-30 0 -25 30l12 79q3 18 16 33l224 236h-152q-30 0 -25 30l10 66q5 26 30 26h298q30 0 25 -30l-12 -79q-3 -18 -16 -33zM284 566q-34 0 -54.5 20.5t-20.5 52.5q0 38 24 62.5t61 24.5q34 0 54.5 -20.5t20.5 -53.5
q0 -38 -24.5 -62t-60.5 -24z" />
    <glyph glyph-name="Zcaron" unicode="&#x17d;" horiz-adv-x="535" 
d="M213 136h240q30 0 25 -30l-12 -80q-5 -26 -30 -26h-405q-30 0 -25 30l14 92q3 19 15 33l315 373h-220q-30 0 -25 30l12 80q5 26 30 26h385q30 0 25 -30l-14 -92q-3 -19 -15 -33zM526 858l-102 -121q-11 -14 -29 -14h-87q-19 0 -28 17l-61 119q-6 11 -2 18.5t17 7.5h73
q19 0 26 -16l26 -49l45 53q9 12 27 12h83q14 0 17.5 -8t-5.5 -19z" />
    <glyph glyph-name="zcaron" unicode="&#x17e;" horiz-adv-x="440" 
d="M188 122h172q30 0 25 -30l-10 -66q-5 -26 -30 -26h-318q-30 0 -25 30l12 79q3 18 16 33l224 236h-152q-30 0 -25 30l10 66q5 26 30 26h298q30 0 25 -30l-12 -79q-3 -18 -16 -33zM454 700l-102 -121q-11 -14 -29 -14h-87q-19 0 -28 17l-61 119q-6 11 -2 18.5t17 7.5h73
q19 0 26 -16l26 -49l45 53q9 12 27 12h83q14 0 17.5 -8t-5.5 -19z" />
    <glyph glyph-name="florin" unicode="&#x192;" horiz-adv-x="530" 
d="M440 514q-60 0 -81 -65l-10 -35h106q31 0 26 -30l-11 -66q-5 -26 -30 -26h-127l-100 -339q-8 -23 -31 -23h-87q-15 0 -21.5 8.5t-2.5 23.5l98 330h-60q-31 0 -26 30l11 66q5 26 30 26h82l10 35q56 187 218 187q61 0 106 -17q26 -11 13 -37l-29 -60q-10 -21 -33 -15
q-22 7 -51 7z" />
    <glyph glyph-name="AEacute" unicode="&#x1fc;" horiz-adv-x="861" 
d="M408 664h455q30 0 25 -30l-12 -80q-5 -26 -30 -26h-255l-19 -125h206q30 0 25 -30l-12 -78q-5 -26 -30 -26h-210l-21 -133h249q31 0 26 -30l-13 -80q-5 -26 -30 -26h-379q-31 0 -26 30l12 75h-168l-53 -86q-12 -19 -33 -19h-119q-17 0 -22.5 10t4.5 24l396 612
q12 18 34 18zM429 484h-2l-146 -249h108zM684 856l-102 -121q-9 -12 -27 -12h-90q-14 0 -18 8.5t4 18.5l88 120q11 15 29 15h102q16 0 20 -9t-6 -20z" />
    <glyph glyph-name="aeacute" unicode="&#x1fd;" horiz-adv-x="709" 
d="M530 512q75 0 118.5 -42.5t43.5 -114.5q0 -19 -3 -40l-13 -80q-5 -26 -30 -26h-229q-3 -20 -3 -37q0 -34 16 -48t53 -14q39 0 79 28q25 18 38 -7l30 -57q13 -24 -8 -39q-66 -47 -144 -47q-108 0 -148 67h-2q-49 -67 -159 -67q-72 0 -114.5 40.5t-42.5 110.5
q0 165 203 165h76q2 9 2 26q0 60 -68 60q-39 0 -81 -27q-25 -17 -37 10l-26 60q-11 24 12 38q70 41 142 41q104 0 142 -66h2q49 66 151 66zM553 304q3 15 3 34q0 52 -49 52q-63 0 -73 -77l-1 -9h120zM276 209h-52q-33 0 -51 -15.5t-18 -41.5q0 -42 45 -42q61 0 73 78z
M576 698l-102 -121q-9 -12 -27 -12h-90q-14 0 -18 8.5t4 18.5l88 120q11 15 29 15h102q16 0 20 -9t-6 -20z" />
    <glyph glyph-name="Oslashacute" unicode="&#x1fe;" horiz-adv-x="596" 
d="M565 668l49 -41q18 -15 3 -33l-34 -40q12 -33 12 -73q0 -27 -4 -50l-33 -208q-37 -235 -273 -235q-91 0 -147 35l-21 -25q-15 -17 -33 -2l-49 41q-18 15 -3 33l34 40q-12 33 -12 74q0 26 4 49l33 208q37 235 273 235q89 0 147 -35l21 25q15 18 33 2zM358 540
q-96 0 -114 -116l-19 -122h2l186 222q-19 16 -55 16zM422 362l-186 -222q19 -16 56 -16q95 0 113 116l19 122h-2zM558 856l-102 -121q-9 -12 -27 -12h-90q-14 0 -18 8.5t4 18.5l88 120q11 15 29 15h102q16 0 20 -9t-6 -20z" />
    <glyph glyph-name="oslashacute" unicode="&#x1ff;" horiz-adv-x="480" 
d="M443 504l39 -36q17 -15 2 -32l-23 -26q8 -27 8 -56q0 -20 -3 -39l-22 -140q-30 -187 -219 -187q-69 0 -114 25l-15 -16q-15 -16 -32 -1l-39 36q-17 15 -2 32l23 26q-8 27 -8 56q0 20 3 39l22 140q30 187 219 187q69 0 114 -25l15 16q15 16 32 1zM276 390q-59 0 -73 -78
l-8 -52h2l107 122v2q-11 6 -28 6zM310 240l-107 -122v-2q10 -6 28 -6q61 0 73 78l8 52h-2zM475 698l-102 -121q-9 -12 -27 -12h-90q-14 0 -18 8.5t4 18.5l88 120q11 15 29 15h102q16 0 20 -9t-6 -20z" />
    <glyph glyph-name="uni0218" unicode="&#x218;" horiz-adv-x="524" 
d="M338 676q135 0 201 -72q18 -20 -4 -39l-69 -60q-19 -16 -40 3q-37 32 -96 32q-41 0 -65.5 -21t-24.5 -57q0 -24 20.5 -37t74.5 -22q95 -16 136.5 -57.5t41.5 -118.5q0 -111 -68.5 -175t-186.5 -64q-153 0 -229 88q-17 20 4 39l70 60q19 16 40 -3q48 -48 124 -48
q89 0 89 79q0 24 -20.5 36.5t-74.5 22.5q-96 17 -137 58.5t-41 117.5q0 109 69 173.5t186 64.5zM228 -40q31 0 50 -19.5t19 -52.5q0 -48 -29.5 -89.5t-75.5 -59.5q-16 -6 -24 9l-15 28q-9 15 8 24t30 27q-40 16 -40 61q0 33 22 52.5t55 19.5z" />
    <glyph glyph-name="uni0219" unicode="&#x219;" horiz-adv-x="417" 
d="M197 -12q-113 0 -176 49q-21 17 -4 39l43 57q15 21 39 5q44 -30 96 -30q67 0 67 42q0 16 -15 25t-54 16q-73 13 -105 45.5t-32 91.5q0 85 57 134.5t155 49.5q89 0 145 -36q22 -13 6 -38l-39 -56q-15 -20 -39 -8q-32 18 -72 18q-72 0 -72 -41q0 -16 14.5 -25t52.5 -15
q75 -11 107.5 -44.5t32.5 -94.5q0 -85 -55.5 -134.5t-151.5 -49.5zM169 -40q31 0 50 -19.5t19 -52.5q0 -48 -29.5 -89.5t-75.5 -59.5q-16 -6 -24 9l-15 28q-9 15 8 24t30 27q-40 16 -40 61q0 33 22 52.5t55 19.5z" />
    <glyph glyph-name="uni021A" unicode="&#x21a;" horiz-adv-x="516" 
d="M383 528l-79 -502q-5 -26 -30 -26h-100q-30 0 -25 30l78 498h-131q-30 0 -25 30l12 80q5 26 30 26h424q30 0 25 -30l-12 -80q-5 -26 -30 -26h-137zM208 -40q31 0 50 -19.5t19 -52.5q0 -48 -29.5 -89.5t-75.5 -59.5q-16 -6 -24 9l-15 28q-9 15 8 24t30 27q-40 16 -40 61
q0 33 22 52.5t55 19.5z" />
    <glyph glyph-name="uni021B" unicode="&#x21b;" horiz-adv-x="363" 
d="M240 378l-33 -210q-1 -5 -1 -14q0 -44 50 -44q16 0 28 4q29 9 33 -18l9 -64q3 -27 -20 -34q-33 -10 -74 -10q-170 0 -170 144q0 23 4 44l32 202h-28q-30 0 -25 30l10 66q5 26 30 26h32l16 101q5 26 30 26h86q30 0 25 -30l-15 -97h98q30 0 25 -30l-10 -66q-5 -26 -30 -26
h-102zM154 -40q31 0 50 -19.5t19 -52.5q0 -48 -29.5 -89.5t-75.5 -59.5q-16 -6 -24 9l-15 28q-9 15 8 24t30 27q-40 16 -40 61q0 33 22 52.5t55 19.5z" />
    <glyph glyph-name="uni0237" unicode="&#x237;" horiz-adv-x="246" 
d="M-36 -38q26 0 38 10.5t16 37.5l73 464q5 26 30 26h86q30 0 25 -30l-73 -465q-13 -84 -58 -124.5t-125 -40.5h-27q-30 0 -25 30l10 66q5 26 30 26z" />
    <glyph glyph-name="circumflex" unicode="&#x2c6;" horiz-adv-x="500" 
d="M319 630l-45 -53q-9 -12 -27 -12h-83q-14 0 -18 8t6 19l102 121q11 14 29 14h87q20 0 28 -17l61 -119q6 -11 2 -18.5t-17 -7.5h-73q-19 0 -26 16z" />
    <glyph glyph-name="caron" unicode="&#x2c7;" horiz-adv-x="500" 
d="M480 700l-102 -121q-11 -14 -29 -14h-87q-20 0 -28 17l-61 119q-6 11 -2 18.5t17 7.5h73q19 0 26 -16l26 -49l45 53q9 12 27 12h83q14 0 17.5 -8t-5.5 -19z" />
    <glyph glyph-name="breve" unicode="&#x2d8;" horiz-adv-x="500" 
d="M400 721h57q25 0 20 -24q-25 -129 -163 -129q-70 0 -109 35t-39 95q0 23 23 23h56q21 0 23 -16q5 -29 49 -29q41 0 57 28q11 17 26 17z" />
    <glyph glyph-name="dotaccent" unicode="&#x2d9;" horiz-adv-x="500" 
d="M306 566q-34 0 -54.5 20.5t-20.5 52.5q0 38 24 62.5t61 24.5q34 0 54.5 -20.5t20.5 -53.5q0 -38 -24.5 -62t-60.5 -24z" />
    <glyph glyph-name="ring" unicode="&#x2da;" horiz-adv-x="500" 
d="M305 553q-37 0 -61.5 24t-24.5 61q0 41 29.5 69t69.5 28q37 0 61.5 -24t24.5 -61q0 -41 -29.5 -69t-69.5 -28zM308 612q14 0 24.5 10t10.5 24q0 13 -8 21.5t-21 8.5q-14 0 -24.5 -10t-10.5 -24q0 -13 8 -21.5t21 -8.5z" />
    <glyph glyph-name="ogonek" unicode="&#x2db;" horiz-adv-x="500" 
d="M278 -82l19 -32q12 -20 -5 -33q-32 -25 -83 -25q-43 0 -69.5 21.5t-26.5 58.5q0 41 35 76t100 55l26 -29q-29 -13 -46 -31.5t-17 -38.5t18 -20q8 0 18 6q19 13 31 -8z" />
    <glyph glyph-name="tilde" unicode="&#x2dc;" horiz-adv-x="500" 
d="M211 568h-45q-25 0 -19 25q28 126 121 126q39 0 70 -31q18 -18 32 -18q17 0 29 29q8 17 25 17h45q26 0 20 -25q-29 -126 -121 -126q-39 0 -70 31q-18 18 -32 18q-18 0 -29 -28q-7 -18 -26 -18z" />
    <glyph glyph-name="hungarumlaut" unicode="&#x2dd;" horiz-adv-x="500" 
d="M371 698l-99 -120q-10 -13 -26 -13h-70q-14 0 -18 8t4 19l83 120q10 15 29 15h83q15 0 19.5 -9t-5.5 -20zM544 698l-99 -120q-10 -13 -26 -13h-70q-14 0 -18 8t4 19l83 120q10 15 29 15h83q15 0 19.5 -9t-5.5 -20z" />
    <glyph glyph-name="uni0394" unicode="&#x394;" horiz-adv-x="602" 
d="M462 638l88 -608q5 -30 -26 -30h-510q-16 0 -22 9t1 24l281 610q10 21 33 21h125q27 0 30 -26zM346 471h-2l-142 -335h179z" />
    <glyph glyph-name="uni03A9" unicode="&#x3a9;" horiz-adv-x="596" 
d="M355 676q110 0 170 -51t60 -144q0 -26 -4 -50l-22 -138q-18 -109 -94 -155v-2h39q30 0 25 -30l-12 -80q-5 -26 -30 -26h-160q-30 0 -25 30l14 90q2 18 21 32q50 36 63 118l24 154q3 20 3 36q0 80 -79 80q-95 0 -114 -116l-24 -154q-4 -28 -4 -40q0 -49 26 -75
q16 -18 14 -36l-15 -93q-5 -26 -30 -26h-160q-30 0 -25 30l12 80q5 26 30 26h55v2q-57 40 -57 124q0 20 3 41l22 138q37 235 274 235z" />
    <glyph glyph-name="uni03BC" unicode="&#x3bc;" horiz-adv-x="496" 
d="M375 500h86q30 0 25 -30l-47 -298q-29 -184 -186 -184q-59 0 -89 33h-2l-25 -155q-5 -26 -30 -26h-86q-30 0 -25 30l95 604q5 26 30 26h86q30 0 25 -30l-45 -286q-2 -11 -2 -23q0 -51 46 -51q56 0 68 74l46 290q5 26 30 26z" />
    <glyph glyph-name="pi" unicode="&#x3c0;" horiz-adv-x="540" 
d="M347 381h-106l-57 -355q-5 -26 -30 -26h-86q-30 0 -25 30l56 351h-29q-30 0 -25 30l10 63q5 26 30 26h452q30 0 25 -30l-10 -63q-5 -26 -30 -26h-33l-57 -355q-5 -26 -30 -26h-86q-30 0 -25 30z" />
    <glyph glyph-name="uni1E02" unicode="&#x1e02;" horiz-adv-x="569" 
d="M456 335v-2q75 -35 75 -132q0 -107 -61 -154t-202 -47h-208q-30 0 -25 30l96 608q5 26 30 26h186q109 0 161.5 -38t52.5 -119q0 -131 -105 -172zM250 403h61q48 0 69.5 18t21.5 56q0 51 -71 51h-62zM208 136h77q47 0 68.5 19t21.5 60q0 54 -69 54h-77zM361 724
q-34 0 -54.5 20.5t-20.5 52.5q0 38 24 62.5t61 24.5q34 0 54.5 -20.5t20.5 -53.5q0 -38 -24.5 -62t-60.5 -24z" />
    <glyph glyph-name="uni1E03" unicode="&#x1e03;" horiz-adv-x="490" 
d="M309 512q76 0 116 -39.5t40 -111.5q0 -23 -4 -46l-22 -140q-30 -187 -219 -187q-89 0 -138 41.5t-49 116.5q0 20 3 39l78 489q5 26 30 26h86q30 0 25 -30l-28 -181h2q32 23 80 23zM299 188l19 124q2 9 2 26q0 52 -49 52q-61 0 -73 -78l-19 -124q-2 -18 -2 -25
q0 -53 49 -53q61 0 73 78zM205 755q-34 0 -54.5 20.5t-20.5 52.5q0 38 24 62.5t61 24.5q34 0 54.5 -20.5t20.5 -53.5q0 -38 -24.5 -62t-60.5 -24z" />
    <glyph glyph-name="uni1E0A" unicode="&#x1e0a;" horiz-adv-x="593" 
d="M161 664h195q226 0 226 -184q0 -28 -4 -53l-32 -199q-19 -118 -86 -173t-193 -55h-207q-30 0 -25 30l96 608q5 26 30 26zM393 244l28 177q2 10 2 29q0 78 -89 78h-65l-61 -392h64q53 0 82.5 26t38.5 82zM367 724q-34 0 -54.5 20.5t-20.5 52.5q0 38 24 62.5t61 24.5
q34 0 54.5 -20.5t20.5 -53.5q0 -38 -24.5 -62t-60.5 -24z" />
    <glyph glyph-name="uni1E0B" unicode="&#x1e0b;" horiz-adv-x="490" 
d="M396 700h86q30 0 25 -30l-78 -495q-30 -187 -219 -187q-89 0 -138 41.5t-49 116.5q0 20 3 39l22 140q15 92 65 139.5t132 47.5q58 0 88 -33h2l31 195q5 26 30 26zM289 188l19 124q2 11 2 24q0 54 -49 54q-61 0 -73 -78l-19 -124q-2 -11 -2 -25q0 -53 49 -53q61 0 73 78z
M457 755q-34 0 -54.5 20.5t-20.5 52.5q0 38 24 62.5t61 24.5q34 0 54.5 -20.5t20.5 -53.5q0 -38 -24.5 -62t-60.5 -24z" />
    <glyph glyph-name="uni1E1E" unicode="&#x1e1e;" horiz-adv-x="512" 
d="M248 394h196q30 0 25 -30l-12 -80q-5 -26 -30 -26h-200l-37 -232q-5 -26 -30 -26h-100q-30 0 -25 30l96 608q5 26 30 26h370q30 0 25 -30l-12 -80q-5 -26 -30 -26h-245zM358 724q-34 0 -54.5 20.5t-20.5 52.5q0 38 24 62.5t61 24.5q34 0 54.5 -20.5t20.5 -53.5
q0 -38 -24.5 -62t-60.5 -24z" />
    <glyph glyph-name="uni1E1F" unicode="&#x1e1f;" horiz-adv-x="349" 
d="M330 590q-26 0 -44.5 -17.5t-22.5 -47.5l-4 -25h98q30 0 25 -30l-10 -66q-5 -26 -30 -26h-102l-56 -352q-5 -26 -30 -26h-86q-30 0 -25 30l55 348h-28q-30 0 -25 30l10 66q5 26 30 26h32l4 25q30 187 203 187q61 0 106 -17q26 -11 13 -37l-29 -60q-10 -21 -33 -15
q-22 7 -51 7zM305 755q-34 0 -54.5 20.5t-20.5 52.5q0 38 24 62.5t61 24.5q34 0 54.5 -20.5t20.5 -53.5q0 -38 -24.5 -62t-60.5 -24z" />
    <glyph glyph-name="uni1E40" unicode="&#x1e40;" horiz-adv-x="837" 
d="M634 664h176q30 0 25 -30l-96 -608q-5 -26 -30 -26h-99q-31 0 -26 30l68 428h-2l-199 -437q-10 -21 -33 -21h-69q-25 0 -30 26l-64 422h-2l-67 -422q-5 -26 -30 -26h-96q-30 0 -25 30l96 608q5 26 30 26h165q27 0 30 -26l59 -404h2l184 409q9 21 33 21zM502 724
q-34 0 -54.5 20.5t-20.5 52.5q0 38 24 62.5t61 24.5q34 0 54.5 -20.5t20.5 -53.5q0 -38 -24.5 -62t-60.5 -24z" />
    <glyph glyph-name="uni1E41" unicode="&#x1e41;" horiz-adv-x="742" 
d="M538 512q82 0 128 -40.5t46 -112.5q0 -21 -4 -42l-46 -291q-5 -26 -30 -26h-86q-30 0 -25 30l45 287q2 18 2 24q0 49 -45 49q-55 0 -67 -73l-46 -291q-5 -26 -30 -26h-86q-30 0 -25 30l45 287q2 18 2 24q0 49 -46 49q-54 0 -66 -73l-46 -291q-5 -26 -30 -26h-86
q-30 0 -25 30l47 297q29 185 203 185q89 0 132 -51h2q50 51 137 51zM432 566q-34 0 -54.5 20.5t-20.5 52.5q0 38 24 62.5t61 24.5q34 0 54.5 -20.5t20.5 -53.5q0 -38 -24.5 -62t-60.5 -24z" />
    <glyph glyph-name="uni1E56" unicode="&#x1e56;" horiz-adv-x="558" 
d="M161 664h187q221 0 221 -190q0 -129 -68.5 -189.5t-214.5 -60.5h-65l-31 -198q-5 -26 -30 -26h-100q-30 0 -25 30l96 608q5 26 30 26zM411 461q0 67 -81 67h-60l-27 -168h60q56 0 82 24.5t26 76.5zM365 724q-34 0 -54.5 20.5t-20.5 52.5q0 38 24 62.5t61 24.5
q34 0 54.5 -20.5t20.5 -53.5q0 -38 -24.5 -62t-60.5 -24z" />
    <glyph glyph-name="uni1E57" unicode="&#x1e57;" horiz-adv-x="490" 
d="M282 512q89 0 138 -41.5t49 -115.5q0 -19 -3 -40l-22 -140q-15 -92 -65 -139.5t-132 -47.5q-57 0 -87 33h-2l-25 -155q-5 -26 -30 -26h-86q-30 0 -25 30l72 455q29 187 218 187zM304 188l20 124q2 18 2 24q0 54 -50 54q-60 0 -72 -78l-20 -124q-2 -16 -2 -23
q0 -55 50 -55q60 0 72 78zM311 566q-34 0 -54.5 20.5t-20.5 52.5q0 38 24 62.5t61 24.5q34 0 54.5 -20.5t20.5 -53.5q0 -38 -24.5 -62t-60.5 -24z" />
    <glyph glyph-name="uni1E60" unicode="&#x1e60;" horiz-adv-x="524" 
d="M338 676q135 0 201 -72q18 -20 -4 -39l-69 -60q-19 -16 -40 3q-37 32 -96 32q-41 0 -65.5 -21t-24.5 -57q0 -24 20.5 -37t74.5 -22q95 -16 136.5 -57.5t41.5 -118.5q0 -111 -68.5 -175t-186.5 -64q-153 0 -229 88q-17 20 4 39l70 60q19 16 40 -3q48 -48 124 -48
q89 0 89 79q0 24 -20.5 36.5t-74.5 22.5q-96 17 -137 58.5t-41 117.5q0 109 69 173.5t186 64.5zM358 724q-34 0 -54.5 20.5t-20.5 52.5q0 38 24 62.5t61 24.5q34 0 54.5 -20.5t20.5 -53.5q0 -38 -24.5 -62t-60.5 -24z" />
    <glyph glyph-name="uni1E61" unicode="&#x1e61;" horiz-adv-x="417" 
d="M197 -12q-113 0 -176 49q-21 17 -4 39l43 57q15 21 39 5q44 -30 96 -30q67 0 67 42q0 16 -15 25t-54 16q-73 13 -105 45.5t-32 91.5q0 85 57 134.5t155 49.5q89 0 145 -36q22 -13 6 -38l-39 -56q-15 -20 -39 -8q-32 18 -72 18q-72 0 -72 -41q0 -16 14.5 -25t52.5 -15
q75 -11 107.5 -44.5t32.5 -94.5q0 -85 -55.5 -134.5t-151.5 -49.5zM282 566q-34 0 -54.5 20.5t-20.5 52.5q0 38 24 62.5t61 24.5q34 0 54.5 -20.5t20.5 -53.5q0 -38 -24.5 -62t-60.5 -24z" />
    <glyph glyph-name="uni1E6A" unicode="&#x1e6a;" horiz-adv-x="516" 
d="M383 528l-79 -502q-5 -26 -30 -26h-100q-30 0 -25 30l78 498h-131q-30 0 -25 30l12 80q5 26 30 26h424q30 0 25 -30l-12 -80q-5 -26 -30 -26h-137zM344 724q-34 0 -54.5 20.5t-20.5 52.5q0 38 24 62.5t61 24.5q34 0 54.5 -20.5t20.5 -53.5q0 -38 -24.5 -62t-60.5 -24z
" />
    <glyph glyph-name="uni1E6B" unicode="&#x1e6b;" horiz-adv-x="363" 
d="M240 378l-33 -210q-1 -5 -1 -14q0 -44 50 -44q16 0 28 4q29 9 33 -18l9 -64q3 -27 -20 -34q-33 -10 -74 -10q-170 0 -170 144q0 23 4 44l32 202h-28q-30 0 -25 30l10 66q5 26 30 26h32l16 101q5 26 30 26h86q30 0 25 -30l-15 -97h98q30 0 25 -30l-10 -66q-5 -26 -30 -26
h-102zM225 687q-34 0 -54.5 20.5t-20.5 52.5q0 38 24 62.5t61 24.5q34 0 54.5 -20.5t20.5 -53.5q0 -38 -24.5 -62t-60.5 -24z" />
    <glyph glyph-name="Wgrave" unicode="&#x1e80;" horiz-adv-x="860" 
d="M774 664h105q16 0 22 -9t0 -23l-248 -610q-9 -22 -33 -22h-107q-26 0 -29 27l-30 358h-2l-143 -363q-9 -22 -33 -22h-107q-26 0 -29 27l-55 608q-3 29 26 29h106q26 0 28 -27l18 -395h2l156 400q9 22 33 22h79q28 0 29 -27l30 -394h2l148 399q9 22 32 22zM552 723h-79
q-17 0 -26 16l-63 117q-7 13 -2 21t19 8h93q19 0 28 -19l48 -117q10 -26 -18 -26z" />
    <glyph glyph-name="wgrave" unicode="&#x1e81;" horiz-adv-x="713" 
d="M626 500h86q16 0 22 -9t-1 -24l-186 -445q-9 -22 -32 -22h-97q-27 0 -30 26l-24 256h-2l-105 -260q-9 -22 -32 -22h-97q-27 0 -30 26l-45 445q-3 29 27 29h85q28 0 29 -27l18 -294h2l122 299q9 22 32 22h55q27 0 30 -26l29 -290h2l109 294q9 22 33 22zM454 565h-79
q-17 0 -26 16l-63 117q-7 13 -2 21t19 8h93q19 0 28 -19l48 -117q10 -26 -18 -26z" />
    <glyph glyph-name="Wacute" unicode="&#x1e82;" horiz-adv-x="860" 
d="M774 664h105q16 0 22 -9t0 -23l-248 -610q-9 -22 -33 -22h-107q-26 0 -29 27l-30 358h-2l-143 -363q-9 -22 -33 -22h-107q-26 0 -29 27l-55 608q-3 29 26 29h106q26 0 28 -27l18 -395h2l156 400q9 22 33 22h79q28 0 29 -27l30 -394h2l148 399q9 22 32 22zM678 856
l-102 -121q-9 -12 -27 -12h-90q-14 0 -18 8.5t4 18.5l88 120q11 15 29 15h102q16 0 20 -9t-6 -20z" />
    <glyph glyph-name="wacute" unicode="&#x1e83;" horiz-adv-x="713" 
d="M626 500h86q16 0 22 -9t-1 -24l-186 -445q-9 -22 -32 -22h-97q-27 0 -30 26l-24 256h-2l-105 -260q-9 -22 -32 -22h-97q-27 0 -30 26l-45 445q-3 29 27 29h85q28 0 29 -27l18 -294h2l122 299q9 22 32 22h55q27 0 30 -26l29 -290h2l109 294q9 22 33 22zM580 698l-102 -121
q-9 -12 -27 -12h-90q-14 0 -18 8.5t4 18.5l88 120q11 15 29 15h102q16 0 20 -9t-6 -20z" />
    <glyph glyph-name="Wdieresis" unicode="&#x1e84;" horiz-adv-x="860" 
d="M774 664h105q16 0 22 -9t0 -23l-248 -610q-9 -22 -33 -22h-107q-26 0 -29 27l-30 358h-2l-143 -363q-9 -22 -33 -22h-107q-26 0 -29 27l-55 608q-3 29 26 29h106q26 0 28 -27l18 -395h2l156 400q9 22 33 22h79q28 0 29 -27l30 -394h2l148 399q9 22 32 22zM423 731
q-32 0 -50.5 19t-18.5 49q0 35 21.5 57.5t55.5 22.5q31 0 50.5 -19.5t19.5 -50.5q0 -34 -22.5 -56t-55.5 -22zM607 731q-31 0 -50 19t-19 49q0 35 22 57.5t55 22.5q32 0 51 -19.5t19 -50.5q0 -34 -22 -56t-56 -22z" />
    <glyph glyph-name="wdieresis" unicode="&#x1e85;" horiz-adv-x="713" 
d="M626 500h86q16 0 22 -9t-1 -24l-186 -445q-9 -22 -32 -22h-97q-27 0 -30 26l-24 256h-2l-105 -260q-9 -22 -32 -22h-97q-27 0 -30 26l-45 445q-3 29 27 29h85q28 0 29 -27l18 -294h2l122 299q9 22 32 22h55q27 0 30 -26l29 -290h2l109 294q9 22 33 22zM325 573
q-32 0 -50.5 19t-18.5 49q0 35 21.5 57.5t55.5 22.5q31 0 50.5 -19.5t19.5 -50.5q0 -34 -22.5 -56t-55.5 -22zM509 573q-31 0 -50 19t-19 49q0 35 22 57.5t55 22.5q32 0 51 -19.5t19 -50.5q0 -34 -22 -56t-56 -22z" />
    <glyph glyph-name="Ygrave" unicode="&#x1ef2;" horiz-adv-x="558" 
d="M478 664h120q17 0 22 -10t-5 -24l-251 -361l-39 -243q-5 -26 -30 -26h-100q-30 0 -25 30l39 250l-136 352q-5 14 1 23t22 9h114q25 0 32 -23l66 -203h2l134 208q12 18 34 18zM403 723h-79q-17 0 -26 16l-63 117q-7 13 -2 21t19 8h93q19 0 28 -19l48 -117q10 -26 -18 -26z
" />
    <glyph glyph-name="ygrave" unicode="&#x1ef3;" horiz-adv-x="496" 
d="M383 500h86q30 0 25 -30l-72 -459q-14 -89 -71 -136t-150 -47q-102 0 -167 50q-20 17 -3 39l40 55q15 21 39 5q39 -28 88 -28q73 0 83 69l2 14h-2q-33 -24 -83 -24q-71 0 -108.5 38.5t-37.5 108.5q0 24 4 47l43 272q5 26 30 26h86q30 0 25 -30l-42 -266q-2 -18 -2 -24
q0 -50 47 -50q55 0 67 74l43 270q5 26 30 26zM357 565h-79q-17 0 -26 16l-63 117q-7 13 -2 21t19 8h93q19 0 28 -19l48 -117q10 -26 -18 -26z" />
    <glyph glyph-name="uni2007" unicode="&#x2007;" horiz-adv-x="530" 
 />
    <glyph glyph-name="figuredash" unicode="&#x2012;" horiz-adv-x="530" 
d="M74 369h422q27 0 22 -26l-11 -66q-3 -22 -25 -22h-422q-27 0 -22 26l11 66q3 22 25 22z" />
    <glyph glyph-name="endash" unicode="&#x2013;" horiz-adv-x="500" 
d="M69 332h392q27 0 22 -26l-11 -66q-3 -22 -25 -22h-392q-27 0 -22 26l11 66q3 22 25 22z" />
    <glyph glyph-name="emdash" unicode="&#x2014;" horiz-adv-x="900" 
d="M69 332h792q27 0 22 -26l-11 -66q-3 -22 -25 -22h-792q-27 0 -22 26l11 66q3 22 25 22z" />
    <glyph glyph-name="quoteleft" unicode="&#x2018;" horiz-adv-x="266" 
d="M158 364q-35 0 -56.5 22.5t-21.5 61.5q0 55 36 115.5t98 107.5q16 13 29 -2l27 -29q16 -16 -2 -30q-45 -41 -63 -93q43 -18 43 -66q0 -40 -25.5 -63.5t-64.5 -23.5z" />
    <glyph glyph-name="quoteright" unicode="&#x2019;" horiz-adv-x="266" 
d="M207 676q35 0 56.5 -22.5t21.5 -61.5q0 -55 -36 -115.5t-98 -107.5q-16 -13 -29 2l-27 29q-16 16 2 30q45 41 63 93q-43 18 -43 66q0 40 25.5 63.5t64.5 23.5z" />
    <glyph glyph-name="quotesinglbase" unicode="&#x201a;" horiz-adv-x="266" 
d="M125 158q35 0 56.5 -22.5t21.5 -61.5q0 -55 -36 -115.5t-98 -107.5q-16 -13 -29 2l-27 29q-16 16 2 30q45 41 63 93q-43 18 -43 66q0 40 25.5 63.5t64.5 23.5z" />
    <glyph glyph-name="quotedblleft" unicode="&#x201c;" horiz-adv-x="471" 
d="M363 364q-35 0 -56.5 22.5t-21.5 61.5q0 55 36 115.5t98 107.5q16 13 29 -2l27 -29q16 -16 -2 -30q-45 -41 -63 -93q43 -18 43 -66q0 -40 -25.5 -63.5t-64.5 -23.5zM158 364q-35 0 -56.5 22.5t-21.5 61.5q0 55 36 115.5t98 107.5q16 13 29 -2l27 -29q16 -16 -2 -30
q-45 -41 -63 -93q43 -18 43 -66q0 -40 -25.5 -63.5t-64.5 -23.5z" />
    <glyph glyph-name="quotedblright" unicode="&#x201d;" horiz-adv-x="471" 
d="M207 676q35 0 56.5 -22.5t21.5 -61.5q0 -55 -36 -115.5t-98 -107.5q-16 -13 -29 2l-27 29q-16 16 2 30q45 41 63 93q-43 18 -43 66q0 40 25.5 63.5t64.5 23.5zM412 676q35 0 56.5 -22.5t21.5 -61.5q0 -55 -36 -115.5t-98 -107.5q-16 -13 -29 2l-27 29q-16 16 2 30
q45 41 63 93q-43 18 -43 66q0 40 25.5 63.5t64.5 23.5z" />
    <glyph glyph-name="quotedblbase" unicode="&#x201e;" horiz-adv-x="471" 
d="M330 158q35 0 56.5 -22.5t21.5 -61.5q0 -55 -36 -115.5t-98 -107.5q-16 -13 -29 2l-27 29q-16 16 2 30q45 41 63 93q-43 18 -43 66q0 40 25.5 63.5t64.5 23.5zM125 158q35 0 56.5 -22.5t21.5 -61.5q0 -55 -36 -115.5t-98 -107.5q-16 -13 -29 2l-27 29q-16 16 2 30
q45 41 63 93q-43 18 -43 66q0 40 25.5 63.5t64.5 23.5z" />
    <glyph glyph-name="dagger" unicode="&#x2020;" horiz-adv-x="446" 
d="M314 455l-57 -359q-3 -21 -24 -21h-64q-26 0 -21 25l56 355h-111q-26 0 -21 25l10 58q3 21 24 21h115l19 120q3 21 24 21h64q26 0 21 -25l-18 -116h111q26 0 21 -25l-10 -58q-3 -21 -24 -21h-115z" />
    <glyph glyph-name="daggerdbl" unicode="&#x2021;" horiz-adv-x="446" 
d="M293 320h111q26 0 21 -25l-10 -58q-3 -21 -24 -21h-115l-19 -120q-3 -21 -24 -21h-64q-26 0 -21 25l18 116h-111q-26 0 -21 25l10 58q3 21 24 21h115l21 135h-111q-26 0 -21 25l10 58q3 21 24 21h115l19 120q3 21 24 21h64q26 0 21 -25l-18 -116h111q26 0 21 -25l-10 -58
q-3 -21 -24 -21h-115z" />
    <glyph glyph-name="bullet" unicode="&#x2022;" horiz-adv-x="500" 
d="M248 143q-62 0 -103 41.5t-41 103.5q0 65 47.5 111.5t112.5 46.5q62 0 102 -40.5t40 -101.5q0 -67 -46.5 -114t-111.5 -47z" />
    <glyph glyph-name="ellipsis" unicode="&#x2026;" horiz-adv-x="900" 
d="M707 -12q-36 0 -57.5 22t-21.5 57q0 39 26 65t64 26q36 0 57.5 -22t21.5 -57q0 -39 -26 -65t-64 -26zM415 -12q-36 0 -57.5 22t-21.5 57q0 39 26 65t64 26q36 0 57.5 -22t21.5 -57q0 -39 -26 -65t-64 -26zM123 -12q-36 0 -57.5 22t-21.5 57q0 39 26 65t64 26
q36 0 57.5 -22t21.5 -57q0 -39 -26 -65t-64 -26z" />
    <glyph glyph-name="perthousand" unicode="&#x2030;" horiz-adv-x="947" 
d="M639 119l13 82q9 59 45.5 90t96.5 31q56 0 87.5 -28t31.5 -77q0 -17 -2 -26l-13 -82q-20 -121 -141 -121q-57 0 -88.5 27.5t-31.5 76.5q0 18 2 27zM745 197l-13 -84q-1 -5 -1 -9q0 -31 32 -31q36 0 42 40l13 84q1 6 1 10q0 30 -30 30q-17 0 -29 -10.5t-15 -29.5zM57 433
l13 82q18 121 138 121q57 0 90 -29t33 -78q0 -8 -2 -24l-13 -82q-20 -121 -137 -121q-58 0 -91 28.5t-33 77.5q0 7 2 25zM163 511l-13 -84q-1 -6 -1 -10q0 -30 31 -30q17 0 28.5 10.5t14.5 29.5l13 84q1 5 1 9q0 31 -31 31q-37 0 -43 -40zM348 119l13 82q18 121 138 121
q57 0 90 -28.5t33 -77.5q0 -7 -2 -25l-13 -82q-20 -121 -137 -121q-58 0 -91 28.5t-33 77.5q0 7 2 25zM454 197l-13 -84q-1 -5 -1 -9q0 -31 32 -31q36 0 42 40l13 84q1 6 1 10q0 30 -30 30q-17 0 -29 -10.5t-15 -29.5zM46 28l477 583q12 13 28 13h67q14 0 18 -8.5t-5 -19.5
l-477 -583q-12 -13 -28 -13h-67q-14 0 -18 8.5t5 19.5z" />
    <glyph glyph-name="guilsinglleft" unicode="&#x2039;" horiz-adv-x="286" 
d="M154 244l74 -161q6 -13 1 -20.5t-19 -7.5h-75q-21 0 -29 18l-77 159q-8 18 4 33l128 166q11 14 29 14h81q15 0 19.5 -8.5t-4.5 -20.5z" />
    <glyph glyph-name="guilsinglright" unicode="&#x203a;" horiz-adv-x="286" 
d="M262 235l-128 -166q-11 -14 -29 -14h-81q-15 0 -19.5 8.5t4.5 20.5l132 172l-74 161q-6 13 -1 20.5t19 7.5h75q21 0 29 -18l77 -159q8 -18 -4 -33z" />
    <glyph glyph-name="fraction" unicode="&#x2044;" horiz-adv-x="144" 
d="M-210 28l479 583q12 13 28 13h68q14 0 18 -8.5t-5 -19.5l-479 -583q-12 -13 -28 -13h-68q-14 0 -18 8.5t5 19.5z" />
    <glyph glyph-name="zerosuperior" unicode="&#x2070;" 
d="M65 493l22 136q20 127 146 127q60 0 94 -30t34 -81q0 -16 -2 -26l-22 -136q-21 -127 -146 -127q-60 0 -94 30t-34 81q0 16 2 26zM185 625l-22 -138q-1 -5 -1 -10q0 -32 32 -32q18 0 30 11t15 31l22 138q1 5 1 10q0 32 -32 32q-18 0 -30 -11t-15 -31z" />
    <glyph glyph-name="foursuperior" unicode="&#x2074;" 
d="M320 526h18q26 0 21 -25l-7 -43q-3 -21 -24 -21h-22l-9 -53q-3 -21 -24 -21h-53q-26 0 -21 25l8 49h-130q-26 0 -21 25l9 53q3 15 12 27l168 194q12 13 28 13h58q26 0 21 -25zM236 618h-2l-79 -92h66z" />
    <glyph glyph-name="fivesuperior" unicode="&#x2075;" 
d="M173 749h182q26 0 21 -25l-7 -43q-3 -21 -24 -21h-128l-11 -50h2q25 7 45 7q50 0 79.5 -31t29.5 -85q0 -67 -43 -106t-115 -39q-77 0 -123 44q-16 15 1 32l30 31q14 15 32 0q25 -18 60 -18q27 0 42.5 12.5t15.5 34.5q0 37 -41 37q-15 0 -33 -8q-17 -8 -30 -6l-33 5
q-23 3 -18 27l40 182q5 20 26 20z" />
    <glyph glyph-name="sixsuperior" unicode="&#x2076;" 
d="M246 667q-48 0 -56 -51l-2 -13h2q21 20 60 20q43 0 69 -31t26 -82q0 -73 -39 -113.5t-108 -40.5q-60 0 -94.5 30t-34.5 82q0 8 2 26l20 127q21 135 148 135q60 0 105 -25q19 -12 6 -32l-25 -36q-11 -14 -31 -5q-18 9 -48 9zM245 498q0 36 -30 36q-20 0 -33.5 -14.5
t-13.5 -39.5q0 -35 32 -35q45 0 45 53z" />
    <glyph glyph-name="sevensuperior" unicode="&#x2077;" 
d="M389 724l-9 -53q-2 -15 -9 -27l-159 -265q-9 -16 -27 -16h-64q-14 0 -18 8t3 20l166 270h-85l-8 -46q-3 -21 -24 -21h-43q-26 0 -21 25l18 109q3 21 24 21h235q24 0 21 -25z" />
    <glyph glyph-name="eightsuperior" unicode="&#x2078;" 
d="M301 555v-2q41 -27 41 -76q0 -58 -39 -89.5t-109 -31.5q-67 0 -103.5 29t-36.5 81q0 75 72 100v2q-34 26 -34 70q0 56 37 87t101 31q61 0 95.5 -29t34.5 -80q0 -68 -59 -92zM221 601q40 0 40 39q0 27 -32 27q-40 0 -40 -39q0 -27 32 -27zM195 445q49 0 49 40q0 31 -41 31
q-49 0 -49 -42q0 -29 41 -29z" />
    <glyph glyph-name="ninesuperior" unicode="&#x2079;" 
d="M239 756q60 0 94.5 -30t34.5 -82q0 -8 -2 -26l-20 -127q-21 -135 -148 -135q-63 0 -105 25q-19 12 -6 32l25 36q11 14 31 5q18 -9 48 -9q48 0 56 51l2 13h-2q-21 -20 -60 -20q-43 0 -69 31t-26 82q0 73 39 113.5t108 40.5zM222 578q20 0 33.5 14.5t13.5 39.5q0 35 -32 35
q-45 0 -45 -53q0 -36 30 -36z" />
    <glyph glyph-name="zeroinferior" unicode="&#x2080;" 
d="M-18 -30l22 136q20 127 146 127q60 0 94 -30t34 -81q0 -16 -2 -26l-22 -136q-21 -127 -146 -127q-60 0 -94 30t-34 81q0 16 2 26zM102 102l-22 -138q-1 -5 -1 -10q0 -32 32 -32q18 0 30 11t15 31l22 138q1 5 1 10q0 32 -32 32q-18 0 -30 -11t-15 -31z" />
    <glyph glyph-name="oneinferior" unicode="&#x2081;" 
d="M268 201l-55 -340q-3 -21 -24 -21h-53q-26 0 -21 25l35 228l-36 -25q-20 -12 -32 7l-21 35q-11 19 7 32l111 75q14 9 29 9h39q26 0 21 -25z" />
    <glyph glyph-name="twoinferior" unicode="&#x2082;" 
d="M130 -70h96q26 0 21 -25l-7 -43q-3 -21 -24 -21h-212q-26 0 -21 25l7 44q3 17 14 27l152 131q29 26 29 47q0 29 -33 29q-26 0 -52 -29q-17 -19 -33 -1l-30 34q-16 16 0 32q53 53 125 53q56 0 89 -30.5t33 -83.5q0 -35 -14 -61.5t-52 -56.5l-88 -69v-2z" />
    <glyph glyph-name="threeinferior" unicode="&#x2083;" 
d="M227 34v-2q41 -25 41 -78q0 -58 -39 -89.5t-111 -31.5q-80 0 -124 49q-13 16 2 32l30 30q15 15 33 0q23 -22 59 -22q53 0 53 39q0 18 -13 25t-47 7q-24 0 -19 25l6 39q3 21 25 21q37 0 50 8t13 30q0 28 -35 28q-25 0 -57 -29q-18 -17 -32 3l-26 39q-12 19 4 32
q54 44 123 44q57 0 90 -29t33 -80q0 -69 -59 -90z" />
    <glyph glyph-name="fourinferior" unicode="&#x2084;" 
d="M237 3h18q26 0 21 -25l-7 -43q-3 -21 -24 -21h-22l-9 -53q-3 -21 -24 -21h-53q-26 0 -21 25l8 49h-130q-26 0 -21 25l9 53q3 15 12 27l168 194q12 13 28 13h58q26 0 21 -25zM153 95h-2l-79 -92h66z" />
    <glyph glyph-name="fiveinferior" unicode="&#x2085;" 
d="M90 226h182q26 0 21 -25l-7 -43q-3 -21 -24 -21h-128l-11 -50h2q25 7 45 7q50 0 79.5 -31t29.5 -85q0 -67 -43 -106t-115 -39q-77 0 -123 44q-16 15 1 32l30 31q14 15 32 0q25 -18 60 -18q27 0 42.5 12.5t15.5 34.5q0 37 -41 37q-15 0 -33 -8q-17 -8 -30 -6l-33 5
q-23 3 -18 27l40 182q5 20 26 20z" />
    <glyph glyph-name="sixinferior" unicode="&#x2086;" 
d="M163 144q-48 0 -56 -51l-2 -13h2q21 20 60 20q43 0 69 -31t26 -82q0 -73 -39 -113.5t-108 -40.5q-60 0 -94.5 30t-34.5 82q0 8 2 26l20 127q21 135 148 135q60 0 105 -25q19 -12 6 -32l-25 -36q-11 -14 -31 -5q-18 9 -48 9zM162 -25q0 36 -30 36q-20 0 -33.5 -14.5
t-13.5 -39.5q0 -35 32 -35q45 0 45 53z" />
    <glyph glyph-name="seveninferior" unicode="&#x2087;" 
d="M306 201l-9 -53q-2 -15 -9 -27l-159 -265q-9 -16 -27 -16h-64q-14 0 -18 8t3 20l166 270h-85l-8 -46q-3 -21 -24 -21h-43q-26 0 -21 25l18 109q3 21 24 21h235q24 0 21 -25z" />
    <glyph glyph-name="eightinferior" unicode="&#x2088;" 
d="M218 32v-2q41 -27 41 -76q0 -58 -39 -89.5t-109 -31.5q-67 0 -103.5 29t-36.5 81q0 75 72 100v2q-34 26 -34 70q0 56 37 87t101 31q61 0 95.5 -29t34.5 -80q0 -68 -59 -92zM138 78q40 0 40 39q0 27 -32 27q-40 0 -40 -39q0 -27 32 -27zM112 -78q49 0 49 40q0 31 -41 31
q-49 0 -49 -42q0 -29 41 -29z" />
    <glyph glyph-name="nineinferior" unicode="&#x2089;" 
d="M156 233q60 0 94.5 -30t34.5 -82q0 -8 -2 -26l-20 -127q-21 -135 -148 -135q-63 0 -105 25q-19 12 -6 32l25 36q11 14 31 5q18 -9 48 -9q48 0 56 51l2 13h-2q-21 -20 -60 -20q-43 0 -69 31t-26 82q0 73 39 113.5t108 40.5zM139 55q20 0 33.5 14.5t13.5 39.5q0 35 -32 35
q-45 0 -45 -53q0 -36 30 -36z" />
    <glyph glyph-name="Euro" unicode="&#x20ac;" horiz-adv-x="530" 
d="M290 118q51 0 85 37q21 21 40 4l57 -49q22 -19 5 -40q-69 -82 -205 -82q-93 0 -147 47t-54 130q0 17 3 37h-23q-25 0 -20 24l7 42q3 20 23 20h27l8 49h-24q-25 0 -20 24l7 41q3 20 23 20h27l1 6q16 101 79 154.5t166 53.5q134 0 191 -88q14 -23 -11 -38l-70 -41
q-20 -12 -38 8q-26 29 -80 29q-76 0 -90 -84h127q12 0 16.5 -7t0.5 -18l-16 -42q-6 -18 -25 -18h-117l-7 -49h99q26 0 18 -25l-16 -44q-6 -17 -26 -17h-89q-2 -14 -2 -20q0 -64 70 -64z" />
    <glyph glyph-name="uni20B9" unicode="&#x20b9;" horiz-adv-x="530" 
d="M146 624h412q26 0 18 -25l-14 -39q-6 -17 -26 -17h-89v-2q25 -30 30 -79h55q26 0 18 -25l-14 -39q-6 -17 -26 -17h-38q-15 -73 -67.5 -110.5t-158.5 -45.5v-2l162 -189q11 -14 6.5 -24t-22.5 -10h-124q-21 0 -34 16l-180 223q-12 15 -5 34l16 44q7 20 28 20h98
q95 0 124 42v2h-227q-26 0 -18 25l14 39q6 17 26 17h214v2q-19 42 -106 42h-106q-31 0 -20 29l26 69q7 20 28 20z" />
    <glyph glyph-name="uni2113" unicode="&#x2113;" horiz-adv-x="480" 
d="M394 130l25 -64q9 -24 -11 -38q-60 -40 -135 -40q-77 0 -122.5 32t-56.5 91l-8 -4q-26 -12 -37 15l-27 66q-10 25 14 37l69 37l33 205q13 80 66.5 124.5t134.5 44.5q73 0 114 -38t41 -104q0 -85 -57.5 -154.5t-194.5 -148.5q-1 -6 -1 -17q0 -56 53 -56q30 0 62 22
q27 19 38 -10zM329 517q-32 0 -44 -57l-25 -116h2q45 34 69.5 72.5t24.5 69.5t-27 31z" />
    <glyph glyph-name="uni2117" unicode="&#x2117;" horiz-adv-x="752" 
d="M328 516h100q124 0 124 -103q0 -74 -39 -109.5t-121 -35.5h-29l-16 -100q-3 -20 -23 -20h-51q-25 0 -20 24l52 324q3 20 23 20zM454 400q0 33 -38 33h-26l-13 -82h26q51 0 51 49zM426 676q135 0 221.5 -84.5t86.5 -215.5q0 -160 -113 -274t-272 -114q-135 0 -221.5 84.5
t-86.5 215.5q0 160 113 274t272 114zM355 63q118 0 206 91.5t88 214.5q0 103 -63 167.5t-166 64.5q-118 0 -206 -91.5t-88 -214.5q0 -103 63 -167.5t166 -64.5z" />
    <glyph glyph-name="trademark" unicode="&#x2122;" horiz-adv-x="785" 
d="M101 664h228q22 0 19 -23l-6 -41q-3 -19 -23 -19h-68l-40 -252q-3 -19 -22 -19h-54q-22 0 -19 23l39 248h-64q-22 0 -19 23l6 41q3 19 23 19zM685 664h100q22 0 19 -23l-49 -312q-3 -19 -22 -19h-54q-22 0 -19 23l35 217h-1l-106 -224q-7 -16 -24 -16h-27q-19 0 -22 19
l-34 212h-2l-36 -212q-3 -19 -22 -19h-50q-22 0 -19 23l49 312q3 19 22 19h95q19 0 22 -19l29 -189h2l90 192q7 16 24 16z" />
    <glyph glyph-name="uni2126" unicode="&#x2126;" horiz-adv-x="590" 
d="M352 676q110 0 170 -51t60 -144q0 -26 -4 -50l-22 -138q-18 -109 -94 -155v-2h39q30 0 25 -30l-12 -80q-5 -26 -30 -26h-160q-30 0 -25 30l14 90q2 18 21 32q50 36 63 118l24 154q3 20 3 36q0 80 -79 80q-95 0 -114 -116l-24 -154q-4 -28 -4 -40q0 -49 26 -75
q16 -18 14 -36l-15 -93q-5 -26 -30 -26h-160q-30 0 -25 30l12 80q5 26 30 26h55v2q-57 40 -57 124q0 20 3 41l22 138q37 235 274 235z" />
    <glyph glyph-name="estimated" unicode="&#x212e;" horiz-adv-x="820" 
d="M200 112q89 -103 223 -103q139 0 233 115h54q-52 -63 -127.5 -99t-161.5 -36q-150 0 -256 100.5t-106 243.5t106 243.5t256 100.5t256 -100.5t106 -243.5v-8h-587q-4 0 -4 -4v-189q0 -8 8 -20zM196 343h450q6 0 6 6v189q0 12 -10 22q-92 97 -219 97q-130 0 -223 -101
q-8 -12 -8 -22v-185q0 -6 4 -6z" />
    <glyph glyph-name="onethird" unicode="&#x2153;" horiz-adv-x="804" 
d="M722 194v-2q41 -25 41 -78q0 -58 -39 -89.5t-111 -31.5q-80 0 -124 49q-13 16 2 32l30 30q15 15 33 0q23 -22 59 -22q53 0 53 39q0 18 -13 25t-47 7q-24 0 -19 25l6 39q3 21 25 21q37 0 50 8t13 30q0 28 -35 28q-25 0 -57 -29q-18 -17 -32 3l-26 39q-12 19 4 32
q54 44 123 44q57 0 90 -29t33 -80q0 -69 -59 -90zM329 599l-55 -340q-3 -21 -24 -21h-53q-26 0 -21 25l35 228l-36 -25q-20 -12 -32 7l-21 35q-11 19 7 32l111 75q13 9 29 9h39q26 0 21 -25zM124 28l479 583q12 13 28 13h68q14 0 18 -8.5t-5 -19.5l-479 -583
q-12 -13 -28 -13h-68q-14 0 -18 8.5t5 19.5z" />
    <glyph glyph-name="twothirds" unicode="&#x2154;" horiz-adv-x="804" 
d="M719 194v-2q41 -25 41 -78q0 -58 -39 -89.5t-111 -31.5q-80 0 -124 49q-13 16 2 32l30 30q15 15 33 0q23 -22 59 -22q53 0 53 39q0 18 -13 25t-47 7q-24 0 -19 25l6 39q3 21 25 21q37 0 50 8t13 30q0 28 -35 28q-25 0 -57 -29q-18 -17 -32 3l-26 39q-12 19 4 32
q54 44 123 44q57 0 90 -29t33 -80q0 -69 -59 -90zM194 328h96q26 0 21 -25l-7 -43q-3 -21 -24 -21h-212q-26 0 -21 25l7 44q3 17 14 27l152 131q29 26 29 47q0 29 -33 29q-26 0 -52 -29q-17 -19 -33 -1l-30 34q-16 16 0 32q53 53 125 53q56 0 89 -30.5t33 -83.5
q0 -35 -14 -61.5t-52 -56.5l-88 -69v-2zM131 28l479 583q12 13 28 13h68q14 0 18 -8.5t-5 -19.5l-479 -583q-12 -13 -28 -13h-68q-14 0 -18 8.5t5 19.5z" />
    <glyph glyph-name="oneeighth" unicode="&#x215b;" horiz-adv-x="804" 
d="M726 192v-2q41 -27 41 -76q0 -58 -39 -89.5t-109 -31.5q-67 0 -103.5 29t-36.5 81q0 75 72 100v2q-34 26 -34 70q0 56 37 87t101 31q61 0 95.5 -29t34.5 -80q0 -68 -59 -92zM646 238q40 0 40 39q0 27 -32 27q-40 0 -40 -39q0 -27 32 -27zM620 82q49 0 49 40q0 31 -41 31
q-49 0 -49 -42q0 -29 41 -29zM329 599l-55 -340q-3 -21 -24 -21h-53q-26 0 -21 25l35 228l-36 -25q-20 -12 -32 7l-21 35q-11 19 7 32l111 75q13 9 29 9h39q26 0 21 -25zM124 28l479 583q12 13 28 13h68q14 0 18 -8.5t-5 -19.5l-479 -583q-12 -13 -28 -13h-68q-14 0 -18 8.5
t5 19.5z" />
    <glyph glyph-name="threeeighths" unicode="&#x215c;" horiz-adv-x="804" 
d="M731 192v-2q41 -27 41 -76q0 -58 -39 -89.5t-109 -31.5q-67 0 -103.5 29t-36.5 81q0 75 72 100v2q-34 26 -34 70q0 56 37 87t101 31q61 0 95.5 -29t34.5 -80q0 -68 -59 -92zM651 238q40 0 40 39q0 27 -32 27q-40 0 -40 -39q0 -27 32 -27zM625 82q49 0 49 40q0 31 -41 31
q-49 0 -49 -42q0 -29 41 -29zM291 432v-2q41 -25 41 -78q0 -58 -39 -89.5t-111 -31.5q-80 0 -124 49q-13 16 2 32l30 30q15 15 33 0q23 -22 59 -22q53 0 53 39q0 18 -13 25t-47 7q-24 0 -19 25l6 39q3 21 25 21q37 0 50 8t13 30q0 28 -35 28q-25 0 -57 -29q-18 -17 -32 3
l-26 39q-12 19 4 32q54 44 123 44q57 0 90 -29t33 -80q0 -69 -59 -90zM134 28l479 583q12 13 28 13h68q14 0 18 -8.5t-5 -19.5l-479 -583q-12 -13 -28 -13h-68q-14 0 -18 8.5t5 19.5z" />
    <glyph glyph-name="fiveeighths" unicode="&#x215d;" horiz-adv-x="804" 
d="M734 192v-2q41 -27 41 -76q0 -58 -39 -89.5t-109 -31.5q-67 0 -103.5 29t-36.5 81q0 75 72 100v2q-34 26 -34 70q0 56 37 87t101 31q61 0 95.5 -29t34.5 -80q0 -68 -59 -92zM654 238q40 0 40 39q0 27 -32 27q-40 0 -40 -39q0 -27 32 -27zM628 82q49 0 49 40q0 31 -41 31
q-49 0 -49 -42q0 -29 41 -29zM154 624h182q26 0 21 -25l-7 -43q-3 -21 -24 -21h-128l-11 -50h2q25 7 45 7q50 0 79.5 -31t29.5 -85q0 -67 -43 -106t-115 -39q-77 0 -123 44q-16 15 1 32l30 31q14 15 32 0q25 -18 60 -18q27 0 42.5 12.5t15.5 34.5q0 37 -41 37q-15 0 -33 -8
q-17 -8 -30 -6l-33 5q-23 3 -18 27l40 182q5 20 26 20zM137 28l479 583q12 13 28 13h68q14 0 18 -8.5t-5 -19.5l-479 -583q-12 -13 -28 -13h-68q-14 0 -18 8.5t5 19.5z" />
    <glyph glyph-name="seveneighths" unicode="&#x215e;" horiz-adv-x="804" 
d="M723 192v-2q41 -27 41 -76q0 -58 -39 -89.5t-109 -31.5q-67 0 -103.5 29t-36.5 81q0 75 72 100v2q-34 26 -34 70q0 56 37 87t101 31q61 0 95.5 -29t34.5 -80q0 -68 -59 -92zM643 238q40 0 40 39q0 27 -32 27q-40 0 -40 -39q0 -27 32 -27zM617 82q49 0 49 40q0 31 -41 31
q-49 0 -49 -42q0 -29 41 -29zM370 599l-9 -53q-2 -15 -9 -27l-159 -265q-9 -16 -27 -16h-64q-14 0 -18 8t3 20l166 270h-85l-8 -46q-3 -21 -24 -21h-43q-26 0 -21 25l18 109q3 21 24 21h235q24 0 21 -25zM91 28l479 583q12 13 28 13h68q14 0 18 -8.5t-5 -19.5l-479 -583
q-12 -13 -28 -13h-68q-14 0 -18 8.5t5 19.5z" />
    <glyph glyph-name="partialdiff" unicode="&#x2202;" horiz-adv-x="540" 
d="M324 676q97 0 149 -66t52 -182q0 -47 -9 -101.5t-32 -115.5t-57 -110t-89 -81t-122 -32q-89 0 -139.5 50.5t-50.5 137.5q0 111 65.5 190.5t157.5 79.5q83 0 124 -57h2q2 26 2 37q0 120 -80 120q-37 0 -72 -20q-26 -14 -38 12l-28 68q-11 26 13 37q69 33 152 33zM223 118
q35 0 67.5 36.5t55.5 100.5q-12 61 -61 61q-46 0 -79.5 -40.5t-33.5 -95.5q0 -62 51 -62z" />
    <glyph glyph-name="uni2206" unicode="&#x2206;" horiz-adv-x="596" 
d="M459 638l88 -608q5 -30 -26 -30h-510q-16 0 -22 9t1 24l281 610q11 21 33 21h125q27 0 30 -26zM343 471h-2l-142 -335h179z" />
    <glyph glyph-name="product" unicode="&#x220f;" horiz-adv-x="606" 
d="M622 634l-109 -688q-5 -26 -30 -26h-100q-30 0 -25 30l91 578h-198l-92 -582q-5 -26 -30 -26h-100q-30 0 -25 30l109 688q5 26 30 26h454q30 0 25 -30z" />
    <glyph glyph-name="summation" unicode="&#x2211;" horiz-adv-x="501" 
d="M243 528l143 -223q13 -20 -4 -39l-195 -210h246q31 0 26 -30l-13 -80q-5 -26 -30 -26h-414q-31 0 -26 30l15 92q3 18 16 33l204 217l-134 214q-10 17 -7 37l15 95q5 26 30 26h415q30 0 25 -30l-12 -80q-5 -26 -30 -26h-270z" />
    <glyph glyph-name="minus" unicode="&#x2212;" horiz-adv-x="530" 
d="M522 315l-12 -76q-5 -26 -30 -26h-430q-30 0 -25 30l12 76q5 26 30 26h430q30 0 25 -30z" />
    <glyph glyph-name="uni2219" unicode="&#x2219;" horiz-adv-x="266" 
d="M136 227q-36 0 -57.5 22t-21.5 57q0 39 26 65t64 26q36 0 57.5 -22t21.5 -57q0 -39 -26 -65t-64 -26z" />
    <glyph glyph-name="radical" unicode="&#x221a;" horiz-adv-x="536" 
d="M495 664h82q16 0 22 -9t0 -23l-276 -690q-9 -22 -33 -22h-103q-26 0 -30 25l-41 202l-38 -10q-28 -8 -34 20l-12 50q-6 27 21 34l138 38q29 8 34 -21l24 -161h2l211 545q9 22 33 22z" />
    <glyph glyph-name="infinity" unicode="&#x221e;" horiz-adv-x="611" 
d="M453 470q65 0 101 -37t36 -105q0 -82 -42 -128t-116 -46q-90 0 -135 73q-54 -73 -123 -73q-65 0 -100.5 36.5t-35.5 103.5q0 83 41.5 129.5t115.5 46.5q87 0 135 -73q54 73 123 73zM185 252q41 0 79 48q-17 40 -33 56t-39 16q-24 0 -38.5 -19.5t-14.5 -51.5q0 -49 46 -49
zM488 323q0 49 -45 49q-41 0 -77 -46q18 -41 33.5 -57.5t36.5 -16.5q24 0 38 19t14 52z" />
    <glyph glyph-name="integral" unicode="&#x222b;" horiz-adv-x="346" 
d="M127 500q31 197 229 211q14 1 21.5 -7t5.5 -22l-7 -67q-3 -22 -27 -28q-69 -17 -82 -102q-12 -75 -19 -208q-7 -140 -22 -237q-29 -197 -228 -211q-14 -1 -21.5 7t-5.5 22l6 67q3 22 27 28q32 8 54 34t29 68q13 82 18 208q5 124 22 237z" />
    <glyph glyph-name="approxequal" unicode="&#x2248;" horiz-adv-x="530" 
d="M220 359q-37 0 -71 -48q-17 -23 -39 -8l-57 36q-24 15 -8 39q76 113 172 113q55 0 114 -39q32 -23 54 -23q36 0 70 48q17 23 39 8l58 -36q24 -15 8 -39q-41 -60 -82 -86.5t-90 -26.5q-55 0 -114 39q-32 23 -54 23zM183 129q-37 0 -71 -48q-17 -23 -39 -8l-57 36
q-24 15 -8 39q76 113 172 113q55 0 114 -39q32 -23 54 -23q36 0 70 48q17 23 39 8l58 -36q24 -15 8 -39q-41 -60 -82 -86.5t-90 -26.5q-55 0 -114 39q-32 23 -54 23z" />
    <glyph glyph-name="notequal" unicode="&#x2260;" horiz-adv-x="530" 
d="M470 460h35q30 0 25 -30l-12 -76q-5 -26 -30 -26h-111l-68 -98h159q30 0 25 -30l-11 -76q-5 -26 -30 -26h-236l-56 -80q-12 -18 -34 -18h-77q-17 0 -22 10t5 24l44 64h-34q-30 0 -25 30l11 76q5 26 30 26h111l68 98h-159q-30 0 -25 30l12 76q5 26 30 26h235l56 80
q12 18 34 18h77q17 0 22 -10t-5 -24z" />
    <glyph glyph-name="lessequal" unicode="&#x2264;" horiz-adv-x="530" 
d="M45 132h405q30 0 25 -30l-12 -76q-5 -26 -30 -26h-405q-30 0 -25 30l12 76q5 26 30 26zM456 173l-384 127q-26 8 -21 34l11 73q4 23 26 30l427 128q16 4 24 -3t6 -23l-13 -87q-4 -23 -27 -29l-224 -58v-2l201 -57q25 -8 21 -33l-13 -80q-5 -30 -34 -20z" />
    <glyph glyph-name="greaterequal" unicode="&#x2265;" horiz-adv-x="530" 
d="M118 565l384 -127q26 -8 21 -34l-11 -73q-4 -23 -26 -30l-427 -128q-16 -4 -24 3t-6 23l13 87q4 23 27 29l224 58v2l-201 57q-25 8 -21 33l13 80q5 30 34 20zM45 132h405q30 0 25 -30l-12 -76q-5 -26 -30 -26h-405q-30 0 -25 30l12 76q5 26 30 26z" />
    <glyph glyph-name="lozenge" unicode="&#x25ca;" horiz-adv-x="514" 
d="M394 652l112 -300q8 -21 -4 -38l-209 -306q-12 -18 -34 -18h-70q-23 0 -32 22l-112 300q-7 20 5 38l208 306q12 18 34 18h70q23 0 32 -22zM310 507h-2l-118 -183l52 -168h2l118 184z" />
    <glyph glyph-name="uniE069" unicode="&#xe069;" horiz-adv-x="246" 
d="M184 566q-34 0 -54.5 20.5t-20.5 52.5q0 38 24 62.5t61 24.5q34 0 54.5 -20.5t20.5 -53.5q0 -38 -24.5 -62t-60.5 -24zM132 0h-86q-30 0 -25 30l70 444q5 26 30 26h86q30 0 25 -30l-70 -444q-5 -26 -30 -26z" />
    <glyph glyph-name="uniEF01" unicode="&#xef01;" horiz-adv-x="500" 
d="M202 -40q31 0 50 -19.5t19 -52.5q0 -48 -29.5 -89.5t-75.5 -59.5q-16 -6 -24 9l-15 28q-9 15 8 24t30 27q-40 16 -40 61q0 33 22 52.5t55 19.5z" />
    <glyph glyph-name="uniEF02" unicode="&#xef02;" horiz-adv-x="500" 
d="M388 672l-58 -164q-6 -18 -25 -18h-57q-25 0 -19 24l38 165q5 21 27 21h75q29 0 19 -28z" />
    <glyph glyph-name="uniF8FF" unicode="&#xf8ff;" horiz-adv-x="1000" 
d="M439 210v52h-1l-17 -78h-23l28 126h27v-66h1l28 66h31l-28 -126h-24l17 78h-1l-22 -52h-16zM140 285l-17 -77q-7 -24 -25 -24h-46l28 126h43q18 0 18 -15q0 -4 -1 -10zM293 184h-24l6 26h-17l-7 -26h-24l23 103q5 23 26 23h22q18 0 18 -15q0 -4 -1 -10zM570 184h-24l6 26
h-17l-7 -26h-24l23 103q5 23 26 23h22q18 0 18 -15q0 -4 -1 -10zM401 285l-11 -52q-4 -17 -13 -20l6 -29h-23l-4 26h-13l-6 -26h-24l28 126h43q18 0 18 -15q0 -4 -1 -10zM845 285l-12 -53q-4 -22 -24 -22h-22l-6 -26h-24l28 126h43q18 0 18 -15q0 -4 -1 -10zM233 310
l-28 -126h-24l6 26h-18l-6 -26h-24l28 126h24l-18 -81h18l18 81h24zM703 310h24l-17 -75q-1 -6 4 -6h7q5 0 6 4l17 77h24l-17 -78q-4 -22 -24 -22l-14 -26h-24l14 26q-18 0 -18 15q0 5 1 10zM901 242l-4 -19h-26l-4 -20h33l-5 -19h-56l28 126h57l-5 -19h-32l-11 -49h25z
M671 291l-24 -107h-24l24 107h-19l4 19h61l-4 -19h-18zM100 291l-20 -88h13q4 0 6 5l17 77q1 6 -3 6h-13zM810 233l11 52q1 6 -4 6h-12l-14 -62h13q5 0 6 4zM366 233l11 52q1 6 -4 6h-12l-14 -62h13q5 0 6 4zM564 291h-7q-5 0 -6 -5l-13 -57h18l12 56q1 6 -4 6zM287 291h-7
q-5 0 -6 -5l-13 -57h18l12 56q1 6 -4 6zM987 333v-30h-6v25h-1l-7 -20h-4l-7 20h-1v-25h-5v30h10l5 -16h1l5 16h10zM952 333v-5h-9v-25h-6v25h-8v5h23z" />
    <glyph glyph-name="zero.numr" 
d="M46 368l22 136q20 127 146 127q60 0 94 -30t34 -81q0 -16 -2 -26l-22 -136q-21 -127 -146 -127q-60 0 -94 30t-34 81q0 16 2 26zM166 500l-22 -138q-1 -5 -1 -10q0 -32 32 -32q18 0 30 11t15 31l22 138q1 5 1 10q0 32 -32 32q-18 0 -30 -11t-15 -31z" />
    <glyph glyph-name="one.numr" 
d="M332 599l-55 -340q-3 -21 -24 -21h-53q-26 0 -21 25l35 228l-36 -25q-20 -12 -32 7l-21 35q-11 19 7 32l111 75q13 9 29 9h39q26 0 21 -25z" />
    <glyph glyph-name="two.numr" 
d="M194 328h96q26 0 21 -25l-7 -43q-3 -21 -24 -21h-212q-26 0 -21 25l7 44q3 17 14 27l152 131q29 26 29 47q0 29 -33 29q-26 0 -52 -29q-17 -19 -33 -1l-30 34q-16 16 0 32q53 53 125 53q56 0 89 -30.5t33 -83.5q0 -35 -14 -61.5t-52 -56.5l-88 -69v-2z" />
    <glyph glyph-name="three.numr" 
d="M291 432v-2q41 -25 41 -78q0 -58 -39 -89.5t-111 -31.5q-80 0 -124 49q-13 16 2 32l30 30q15 15 33 0q23 -22 59 -22q53 0 53 39q0 18 -13 25t-47 7q-24 0 -19 25l6 39q3 21 25 21q37 0 50 8t13 30q0 28 -35 28q-25 0 -57 -29q-18 -17 -32 3l-26 39q-12 19 4 32
q54 44 123 44q57 0 90 -29t33 -80q0 -69 -59 -90z" />
    <glyph glyph-name="four.numr" 
d="M301 401h18q26 0 21 -25l-7 -43q-3 -21 -24 -21h-22l-9 -53q-3 -21 -24 -21h-53q-26 0 -21 25l8 49h-130q-26 0 -21 25l9 53q3 15 12 27l168 194q12 13 28 13h58q26 0 21 -25zM217 493h-2l-79 -92h66z" />
    <glyph glyph-name="five.numr" 
d="M154 624h182q26 0 21 -25l-7 -43q-3 -21 -24 -21h-128l-11 -50h2q25 7 45 7q50 0 79.5 -31t29.5 -85q0 -67 -43 -106t-115 -39q-77 0 -123 44q-16 15 1 32l30 31q14 15 32 0q25 -18 60 -18q27 0 42.5 12.5t15.5 34.5q0 37 -41 37q-15 0 -33 -8q-17 -8 -30 -6l-33 5
q-23 3 -18 27l40 182q5 20 26 20z" />
    <glyph glyph-name="six.numr" 
d="M227 542q-48 0 -56 -51l-2 -13h2q21 20 60 20q43 0 69 -31t26 -82q0 -73 -39 -113.5t-108 -40.5q-60 0 -94.5 30t-34.5 82q0 8 2 26l20 127q21 135 148 135q60 0 105 -25q19 -12 6 -32l-25 -36q-11 -14 -31 -5q-18 9 -48 9zM226 373q0 36 -30 36q-20 0 -33.5 -14.5
t-13.5 -39.5q0 -35 32 -35q45 0 45 53z" />
    <glyph glyph-name="seven.numr" 
d="M370 599l-9 -53q-2 -15 -9 -27l-159 -265q-9 -16 -27 -16h-64q-14 0 -18 8t3 20l166 270h-85l-8 -46q-3 -21 -24 -21h-43q-26 0 -21 25l18 109q3 21 24 21h235q24 0 21 -25z" />
    <glyph glyph-name="eight.numr" 
d="M282 430v-2q41 -27 41 -76q0 -58 -39 -89.5t-109 -31.5q-67 0 -103.5 29t-36.5 81q0 75 72 100v2q-34 26 -34 70q0 56 37 87t101 31q61 0 95.5 -29t34.5 -80q0 -68 -59 -92zM202 476q40 0 40 39q0 27 -32 27q-40 0 -40 -39q0 -27 32 -27zM176 320q49 0 49 40q0 31 -41 31
q-49 0 -49 -42q0 -29 41 -29z" />
    <glyph glyph-name="nine.numr" 
d="M220 631q60 0 94.5 -30t34.5 -82q0 -8 -2 -26l-20 -127q-21 -135 -148 -135q-63 0 -105 25q-19 12 -6 32l25 36q11 14 31 5q18 -9 48 -9q48 0 56 51l2 13h-2q-21 -20 -60 -20q-43 0 -69 31t-26 82q0 73 39 113.5t108 40.5zM203 453q20 0 33.5 14.5t13.5 39.5q0 35 -32 35
q-45 0 -45 -53q0 -36 30 -36z" />
    <glyph glyph-name="zero.dnom" 
d="M8 130l22 136q20 127 146 127q60 0 94 -30t34 -81q0 -16 -2 -26l-22 -136q-21 -127 -146 -127q-60 0 -94 30t-34 81q0 16 2 26zM128 262l-22 -138q-1 -5 -1 -10q0 -32 32 -32q18 0 30 11t15 31l22 138q1 5 1 10q0 32 -32 32q-18 0 -30 -11t-15 -31z" />
    <glyph glyph-name="one.dnom" 
d="M294 361l-55 -340q-3 -21 -24 -21h-53q-26 0 -21 25l35 228l-36 -25q-20 -12 -32 7l-21 35q-11 19 7 32l111 75q13 9 29 9h39q26 0 21 -25z" />
    <glyph glyph-name="two.dnom" 
d="M156 90h96q26 0 21 -25l-7 -43q-3 -21 -24 -21h-212q-26 0 -21 25l7 44q3 17 14 27l152 131q29 26 29 47q0 29 -33 29q-26 0 -52 -29q-17 -19 -33 -1l-30 34q-16 16 0 32q53 53 125 53q56 0 89 -30.5t33 -83.5q0 -35 -14 -61.5t-52 -56.5l-88 -69v-2z" />
    <glyph glyph-name="three.dnom" 
d="M253 194v-2q41 -25 41 -78q0 -58 -39 -89.5t-111 -31.5q-80 0 -124 49q-13 16 2 32l30 30q15 15 33 0q23 -22 59 -22q53 0 53 39q0 18 -13 25t-47 7q-24 0 -19 25l6 39q3 21 25 21q37 0 50 8t13 30q0 28 -35 28q-25 0 -57 -29q-18 -17 -32 3l-26 39q-12 19 4 32
q54 44 123 44q57 0 90 -29t33 -80q0 -69 -59 -90z" />
    <glyph glyph-name="four.dnom" 
d="M263 163h18q26 0 21 -25l-7 -43q-3 -21 -24 -21h-22l-9 -53q-3 -21 -24 -21h-53q-26 0 -21 25l8 49h-130q-26 0 -21 25l9 53q3 15 12 27l168 194q12 13 28 13h58q26 0 21 -25zM179 255h-2l-79 -92h66z" />
    <glyph glyph-name="five.dnom" 
d="M116 386h182q26 0 21 -25l-7 -43q-3 -21 -24 -21h-128l-11 -50h2q24 7 45 7q50 0 79.5 -31t29.5 -85q0 -67 -43 -106t-115 -39q-77 0 -123 44q-16 15 1 32l30 31q14 15 32 0q25 -18 60 -18q27 0 42.5 12.5t15.5 34.5q0 37 -41 37q-15 0 -33 -8q-17 -8 -30 -6l-33 5
q-23 3 -18 27l40 182q5 20 26 20z" />
    <glyph glyph-name="six.dnom" 
d="M189 304q-48 0 -56 -51l-2 -13h2q21 20 60 20q43 0 69 -31t26 -82q0 -73 -39 -113.5t-108 -40.5q-60 0 -94.5 30t-34.5 82q0 8 2 26l20 127q21 135 148 135q60 0 105 -25q19 -12 6 -32l-25 -36q-11 -14 -31 -5q-18 9 -48 9zM188 135q0 36 -30 36q-20 0 -33.5 -14.5
t-13.5 -39.5q0 -35 32 -35q45 0 45 53z" />
    <glyph glyph-name="seven.dnom" 
d="M332 361l-9 -53q-2 -15 -9 -27l-159 -265q-9 -16 -27 -16h-64q-14 0 -18 8t3 20l166 270h-85l-8 -46q-3 -21 -24 -21h-43q-26 0 -21 25l18 109q3 21 24 21h235q24 0 21 -25z" />
    <glyph glyph-name="eight.dnom" 
d="M244 192v-2q41 -27 41 -76q0 -58 -39 -89.5t-109 -31.5q-67 0 -103.5 29t-36.5 81q0 75 72 100v2q-34 26 -34 70q0 56 37 87t101 31q61 0 95.5 -29t34.5 -80q0 -68 -59 -92zM164 238q40 0 40 39q0 27 -32 27q-40 0 -40 -39q0 -27 32 -27zM138 82q49 0 49 40q0 31 -41 31
q-49 0 -49 -42q0 -29 41 -29z" />
    <glyph glyph-name="nine.dnom" 
d="M182 393q60 0 94.5 -30t34.5 -82q0 -8 -2 -26l-20 -127q-21 -135 -148 -135q-63 0 -105 25q-19 12 -6 32l25 36q11 14 31 5q18 -9 48 -9q48 0 56 51l2 13h-2q-21 -20 -60 -20q-43 0 -69 31t-26 82q0 73 39 113.5t108 40.5zM165 215q20 0 33.5 14.5t13.5 39.5q0 35 -32 35
q-45 0 -45 -53q0 -36 30 -36z" />
    </font>
</defs>
</svg>
