<?xml version="1.0" standalone="no"?>
<!DOCTYPE svg PUBLIC "-//W3C//DTD SVG 1.1//EN" "http://www.w3.org/Graphics/SVG/1.1/DTD/svg11.dtd" >
<svg>
<metadata>
Created by FontForge 20110222 at Mon Aug 11 05:44:10 2014
 By Orthosie Webhosting
Copyright (c) 2014 by Ryoichi Tsunekawa. All rights reserved.
</metadata>
<defs>
<font id="Kiro-Italic" horiz-adv-x="330" >
  <font-face 
    font-family="Kiro-Italic"
    font-weight="400"
    font-style="italic"
    font-stretch="normal"
    units-per-em="1000"
    panose-1="2 15 6 6 2 2 3 11 2 4"
    ascent="805"
    descent="-195"
    x-height="495"
    cap-height="664"
    bbox="-201.235 -203.562 1056.04 912"
    underline-thickness="45"
    underline-position="-36"
    slope="-9"
    unicode-range="U+0020-FB04"
  />
<missing-glyph horiz-adv-x="600" 
d="M83 0v664h462v-664h-462zM158 623l156 -248l156 248h-312zM128 585v-506l159 253zM500 79v506l-159 -253zM314 289l-156 -248h312z" />
    <glyph glyph-name="ff" unicode="ff" horiz-adv-x="612" 
d="M700 691q16 -7 7 -25l-16 -32q-9 -16 -24 -8q-27 14 -65 14q-84 0 -100 -104l-7 -41h135q21 0 18 -20l-5 -35q-3 -17 -21 -17h-138l-64 -406q-3 -17 -21 -17h-44q-21 0 -18 20l64 403h-199l-64 -406q-3 -17 -21 -17h-44q-21 0 -18 20l64 403h-49q-21 0 -18 20l5 35
q3 17 21 17h53l5 32q13 84 63.5 129.5t134.5 45.5t136 -42q47 52 130 52q59 0 100 -21zM413 495l7 47q5 27 12 51q-39 37 -99 37q-46 0 -76.5 -29t-38.5 -80l-4 -26h199z" />
    <glyph glyph-name="fi" unicode="fi" horiz-adv-x="518" 
d="M213 495h260q21 0 18 -20l-73 -458q-3 -17 -21 -17h-44q-21 0 -18 20l64 403h-197l-64 -406q-3 -17 -21 -17h-44q-21 0 -18 20l64 403h-49q-21 0 -18 20l5 35q3 17 21 17h53l7 47q28 170 193 170q78 0 127 -35q13 -10 4 -26l-21 -30q-10 -15 -26 -4q-34 23 -85 23
q-94 0 -110 -104z" />
    <glyph glyph-name="fl" unicode="fl" horiz-adv-x="528" 
d="M472 700h44q21 0 18 -20l-105 -663q-3 -17 -21 -17h-44q-21 0 -18 20l92 578q-39 42 -105 42q-46 0 -76 -29t-38 -80l-6 -36h120q21 0 18 -20l-5 -35q-3 -17 -21 -17h-123l-64 -406q-3 -17 -21 -17h-44q-21 0 -18 20l64 403h-49q-21 0 -18 20l5 35q3 17 21 17h52l7 42
q14 85 64 130t133 45q68 0 117 -28q3 16 21 16z" />
    <glyph glyph-name="ffi" unicode="ffi" horiz-adv-x="800" 
d="M495 495h260q21 0 18 -20l-73 -458q-3 -17 -21 -17h-44q-21 0 -18 20l64 403h-197l-64 -406q-3 -17 -21 -17h-44q-21 0 -18 20l64 403h-199l-64 -406q-3 -17 -21 -17h-44q-21 0 -18 20l64 403h-49q-21 0 -18 20l5 35q3 17 21 17h53l5 32q13 84 63.5 129.5t134.5 45.5
t138 -44q48 54 141 54q78 0 127 -35q13 -10 4 -26l-21 -30q-10 -15 -26 -4q-34 23 -85 23q-94 0 -110 -104zM413 495l7 47q5 30 13 50q-40 38 -100 38q-46 0 -76.5 -29t-38.5 -80l-4 -26h199z" />
    <glyph glyph-name="ffl" unicode="ffl" horiz-adv-x="810" 
d="M754 700h44q21 0 18 -20l-105 -663q-3 -17 -21 -17h-44q-21 0 -18 20l92 578q-39 42 -105 42q-46 0 -76 -29t-38 -80l-6 -36h120q21 0 18 -20l-5 -35q-3 -17 -21 -17h-123l-64 -406q-3 -17 -21 -17h-44q-21 0 -18 20l64 403h-199l-64 -406q-3 -17 -21 -17h-44
q-21 0 -18 20l64 403h-49q-21 0 -18 20l5 35q3 17 21 17h53l5 32q13 84 63.5 129.5t134.5 45.5q86 0 138 -44q51 54 144 54q68 0 117 -28q3 16 21 16zM412 495l7 42q4 27 14 55q-40 38 -100 38q-46 0 -76.5 -29t-38.5 -80l-4 -26h198z" />
    <glyph glyph-name="f_b" unicode="fb" horiz-adv-x="805" 
d="M534 680l-35 -219h2q43 46 117 46q76 0 115.5 -37.5t39.5 -108.5q0 -22 -4 -45l-22 -142q-30 -186 -209 -186q-82 0 -126 39t-44 111q0 20 3 42l67 418q-39 42 -105 42q-46 0 -76 -29t-38 -80l-6 -36h120q21 0 18 -20l-5 -35q-3 -17 -21 -17h-123l-64 -406
q-3 -17 -21 -17h-44q-21 0 -18 20l64 403h-49q-21 0 -18 20l5 35q3 17 21 17h52l7 42q14 85 64 130t133 45q68 0 117 -28q3 16 21 16h44q21 0 18 -20zM665 186l20 124q3 21 3 38q0 87 -90 87q-105 0 -124 -126l-19 -124q-3 -21 -3 -38q0 -87 90 -87q54 0 83.5 30.5
t39.5 95.5z" />
    <glyph glyph-name="f_f_b" unicode="ffb" horiz-adv-x="1087" 
d="M733 684q3 16 21 16h44q21 0 18 -20l-35 -219h2q43 46 117 46q76 0 115.5 -37.5t39.5 -108.5q0 -22 -4 -45l-22 -142q-30 -186 -209 -186q-82 0 -126 39t-44 111q0 20 3 42l67 418q-39 42 -105 42q-46 0 -76 -29t-38 -80l-6 -36h120q21 0 18 -20l-5 -35q-3 -17 -21 -17
h-123l-64 -406q-3 -17 -21 -17h-44q-21 0 -18 20l64 403h-199l-64 -406q-3 -17 -21 -17h-44q-21 0 -18 20l64 403h-49q-21 0 -18 20l5 35q3 17 21 17h53l5 32q13 84 63.5 129.5t134.5 45.5q86 0 138 -44q51 54 144 54q68 0 117 -28zM412 495l7 42q4 27 14 55q-40 38 -100 38
q-46 0 -76.5 -29t-38.5 -80l-4 -26h198zM947 186l20 124q3 21 3 38q0 87 -90 87q-105 0 -124 -126l-19 -124q-3 -21 -3 -38q0 -87 90 -87q54 0 83.5 30.5t39.5 95.5z" />
    <glyph glyph-name="f_h" unicode="fh" horiz-adv-x="811" 
d="M534 680l-35 -218h2q42 45 116 45q73 0 111.5 -37t38.5 -106q0 -24 -4 -45l-48 -302q-3 -17 -21 -17h-44q-21 0 -18 20l47 294q3 21 3 37q0 84 -87 84q-99 0 -119 -122l-47 -296q-3 -17 -21 -17h-44q-21 0 -18 20l92 578q-39 42 -105 42q-46 0 -76 -29t-38 -80l-6 -36
h120q21 0 18 -20l-5 -35q-3 -17 -21 -17h-123l-64 -406q-3 -17 -21 -17h-44q-21 0 -18 20l64 403h-49q-21 0 -18 20l5 35q3 17 21 17h52l7 42q14 85 64 130t133 45q68 0 117 -28q3 16 21 16h44q21 0 18 -20z" />
    <glyph glyph-name="f_f_h" unicode="ffh" horiz-adv-x="1093" 
d="M733 684q3 16 21 16h44q21 0 18 -20l-35 -218h2q42 45 116 45q73 0 111.5 -37t38.5 -106q0 -24 -4 -45l-48 -302q-3 -17 -21 -17h-44q-21 0 -18 20l47 294q3 21 3 37q0 84 -87 84q-99 0 -119 -122l-47 -296q-3 -17 -21 -17h-44q-21 0 -18 20l92 578q-39 42 -105 42
q-46 0 -76 -29t-38 -80l-6 -36h120q21 0 18 -20l-5 -35q-3 -17 -21 -17h-123l-64 -406q-3 -17 -21 -17h-44q-21 0 -18 20l64 403h-199l-64 -406q-3 -17 -21 -17h-44q-21 0 -18 20l64 403h-49q-21 0 -18 20l5 35q3 17 21 17h53l5 32q13 84 63.5 129.5t134.5 45.5
q86 0 138 -44q51 54 144 54q68 0 117 -28zM412 495l7 42q4 27 14 55q-40 38 -100 38q-46 0 -76.5 -29t-38.5 -80l-4 -26h198z" />
    <glyph glyph-name="f_j" unicode="fj" horiz-adv-x="518" 
d="M213 495h260q21 0 18 -20l-78 -491q-24 -144 -159 -144h-13q-21 0 -18 20l5 35q3 17 21 17q69 0 81 75l69 436h-197l-64 -406q-3 -17 -21 -17h-44q-21 0 -18 20l64 403h-49q-21 0 -18 20l5 35q3 17 21 17h53l7 47q28 170 193 170q78 0 127 -35q13 -10 4 -26l-21 -30
q-10 -15 -26 -4q-34 23 -85 23q-94 0 -110 -104z" />
    <glyph glyph-name="f_f_j" unicode="ffj" horiz-adv-x="800" 
d="M495 495h260q21 0 18 -20l-78 -491q-24 -144 -159 -144h-13q-21 0 -18 20l5 35q3 17 21 17q69 0 81 75l69 436h-197l-64 -406q-3 -17 -21 -17h-44q-21 0 -18 20l64 403h-199l-64 -406q-3 -17 -21 -17h-44q-21 0 -18 20l64 403h-49q-21 0 -18 20l5 35q3 17 21 17h53l5 32
q13 84 63.5 129.5t134.5 45.5t138 -44q48 54 141 54q78 0 127 -35q13 -10 4 -26l-21 -30q-10 -15 -26 -4q-34 23 -85 23q-94 0 -110 -104zM413 495l7 47q5 30 13 50q-40 38 -100 38q-46 0 -76.5 -29t-38.5 -80l-4 -26h199z" />
    <glyph glyph-name="f_k" unicode="fk" horiz-adv-x="762" 
d="M438 598q-39 42 -105 42q-46 0 -76 -29t-38 -80l-6 -36h120q21 0 18 -20l-5 -35q-3 -17 -21 -17h-123l-64 -406q-3 -17 -21 -17h-44q-21 0 -18 20l64 403h-49q-21 0 -18 20l5 35q3 17 21 17h52l7 42q14 85 64 130t133 45q68 0 117 -28q3 16 21 16h44q21 0 18 -20
l-63 -396h2l202 201q10 10 24 10h59q13 0 15.5 -7t-6.5 -16l-225 -220l163 -229q7 -10 3.5 -16.5t-15.5 -6.5h-54q-14 0 -23 12l-153 221l-34 -216q-3 -17 -21 -17h-44q-21 0 -18 20z" />
    <glyph glyph-name="f_f_k" unicode="ffk" horiz-adv-x="1044" 
d="M733 684q3 16 21 16h44q21 0 18 -20l-63 -396h2l202 201q10 10 24 10h59q13 0 15.5 -7t-6.5 -16l-225 -220l163 -229q7 -10 3.5 -16.5t-15.5 -6.5h-54q-14 0 -23 12l-153 221l-34 -216q-3 -17 -21 -17h-44q-21 0 -18 20l92 578q-39 42 -105 42q-46 0 -76 -29t-38 -80
l-6 -36h120q21 0 18 -20l-5 -35q-3 -17 -21 -17h-123l-64 -406q-3 -17 -21 -17h-44q-21 0 -18 20l64 403h-199l-64 -406q-3 -17 -21 -17h-44q-21 0 -18 20l64 403h-49q-21 0 -18 20l5 35q3 17 21 17h53l5 32q13 84 63.5 129.5t134.5 45.5q86 0 138 -44q51 54 144 54
q68 0 117 -28zM412 495l7 42q4 27 14 55q-40 38 -100 38q-46 0 -76.5 -29t-38.5 -80l-4 -26h198z" />
    <glyph glyph-name="f_t" unicode="ft" horiz-adv-x="637" 
d="M484 423l-43 -274q-2 -16 -2 -23q0 -66 67 -66q22 0 48 12q19 10 25 -9l11 -32q5 -17 -10 -25q-36 -18 -83 -18q-68 0 -105 32t-37 93q0 17 3 36l43 274h-199l-64 -406q-3 -17 -21 -17h-44q-21 0 -18 20l64 403h-49q-21 0 -18 20l5 35q3 17 21 17h53l7 47q28 170 186 170
q68 0 114 -28q15 -11 5 -27l-19 -30q-10 -15 -27 -4q-27 17 -71 17q-90 0 -106 -104l-7 -41h199l11 75q3 17 21 17h44q21 0 18 -20l-11 -72h135q21 0 18 -20l-6 -35q-3 -17 -20 -17h-138z" />
    <glyph glyph-name="f_f_t" unicode="fft" horiz-adv-x="919" 
d="M777 495h135q21 0 18 -20l-6 -35q-3 -17 -20 -17h-138l-43 -274q-2 -16 -2 -23q0 -66 67 -66q22 0 48 12q19 10 25 -9l11 -32q5 -17 -10 -25q-36 -18 -83 -18q-68 0 -105 32t-37 93q0 17 3 36l43 274h-199l-64 -406q-3 -17 -21 -17h-44q-21 0 -18 20l64 403h-199
l-64 -406q-3 -17 -21 -17h-44q-21 0 -18 20l64 403h-49q-21 0 -18 20l5 35q3 17 21 17h53l5 32q13 84 63.5 129.5t134.5 45.5t137 -43q48 53 135 53q68 0 114 -28q15 -11 5 -27l-19 -30q-10 -15 -27 -4q-27 17 -71 17q-90 0 -106 -104l-7 -41h199l11 75q3 17 21 17h44
q21 0 18 -20zM413 495l7 47q5 30 13 50q-40 38 -100 38q-46 0 -76.5 -29t-38.5 -80l-4 -26h199z" />
    <glyph glyph-name=".notdef" horiz-adv-x="600" 
d="M83 0v664h462v-664h-462zM158 623l156 -248l156 248h-312zM128 585v-506l159 253zM500 79v506l-159 -253zM314 289l-156 -248h312z" />
    <glyph glyph-name=".null" horiz-adv-x="0" 
 />
    <glyph glyph-name="nonmarkingreturn" horiz-adv-x="333" 
 />
    <glyph glyph-name="space" unicode=" " horiz-adv-x="215" 
 />
    <glyph glyph-name="exclam" unicode="!" horiz-adv-x="235" 
d="M160 664h43q21 0 18 -20l-42 -268l-45 -182q-3 -12 -15 -12h-21q-16 0 -14 14l13 180l42 271q3 17 21 17zM80 -12q-22 0 -36.5 14t-14.5 37q0 25 17.5 42.5t42.5 17.5q23 0 37 -14.5t14 -36.5q0 -26 -17.5 -43t-42.5 -17z" />
    <glyph glyph-name="quotedbl" unicode="&#x22;" horiz-adv-x="377" 
d="M210 643l-42 -195q-3 -14 -17 -14h-27q-17 0 -15 17l20 195q1 18 20 18h44q20 0 17 -21zM377 643l-42 -195q-3 -14 -17 -14h-27q-17 0 -15 17l20 195q2 18 20 18h44q20 0 17 -21z" />
    <glyph glyph-name="numbersign" unicode="#" horiz-adv-x="529" 
d="M385 252h75q19 0 14 -19l-11 -33q-4 -14 -20 -14h-80l-57 -172q-6 -14 -20 -14h-35q-19 0 -14 19l56 167h-115l-57 -172q-6 -14 -20 -14h-35q-19 0 -14 19l56 167h-74q-19 0 -14 19l11 33q4 14 20 14h79l47 140h-75q-19 0 -14 19l11 33q4 14 20 14h80l51 152q6 14 20 14
h34q9 0 13 -5.5t1 -13.5l-49 -147h115l51 152q6 14 20 14h34q9 0 13 -5.5t1 -13.5l-49 -147h74q19 0 14 -19l-11 -33q-4 -14 -20 -14h-79zM247 392l-47 -140h115l47 140h-115z" />
    <glyph glyph-name="dollar" unicode="$" horiz-adv-x="529" 
d="M352 538l-30 -192q85 -10 122 -43t37 -96q0 -86 -57.5 -139.5t-155.5 -58.5l-10 -65q-2 -14 -16 -14h-26q-16 0 -13 16l10 63q-117 9 -173 91q-9 15 5 26l35 26q15 12 26 -5q40 -55 119 -62l30 191q-86 10 -123 43.5t-37 97.5q0 86 58 140t156 59l9 58q2 14 16 14h26
q16 0 13 -16l-9 -58q99 -11 144 -76q11 -15 -5 -26l-34 -26q-15 -12 -27 5q-30 40 -90 47zM180 432q0 -31 20.5 -49.5t66.5 -27.5l29 184q-53 -6 -84.5 -35t-31.5 -72zM396 193q0 31 -20.5 48.5t-66.5 26.5l-28 -183q53 7 84 36t31 72z" />
    <glyph glyph-name="percent" unicode="%" horiz-adv-x="633" 
d="M63 437l12 79q18 120 133 120q52 0 81 -26t29 -73q0 -17 -2 -27l-12 -79q-18 -121 -132 -121q-53 0 -82 26t-29 74q0 17 2 27zM137 509l-12 -75q-2 -16 -2 -21q0 -46 51 -46q30 0 46 17t22 53l12 76q2 14 2 19q0 47 -50 47q-32 0 -47.5 -16.5t-21.5 -53.5zM340 115l12 79
q18 120 133 120q52 0 81 -26t29 -73q0 -17 -2 -27l-12 -79q-18 -121 -132 -121q-53 0 -82 26t-29 74q0 17 2 27zM414 187l-12 -75q-2 -16 -2 -21q0 -46 51 -46q30 0 46 17t22 53l12 76q2 14 2 19q0 47 -50 47q-32 0 -47.5 -16.5t-21.5 -53.5zM50 18l487 597q7 9 18 9h43
q10 0 12.5 -5t-3.5 -13l-487 -597q-8 -9 -18 -9h-43q-10 0 -12.5 5t3.5 13z" />
    <glyph glyph-name="ampersand" unicode="&#x26;" horiz-adv-x="591" 
d="M514 331l37 -15q18 -6 10 -25q-47 -104 -98 -170l73 -98q7 -10 3.5 -16.5t-15.5 -6.5h-61q-15 0 -23 12l-35 47q-83 -71 -193 -71q-87 0 -138.5 46.5t-51.5 124.5q0 72 35.5 126t110.5 98q-32 55 -32 110q0 84 54 133.5t146 49.5q83 0 136 -44q14 -11 2 -26l-23 -31
q-12 -15 -27 -3q-37 29 -86 29q-55 0 -86.5 -28.5t-31.5 -79.5q0 -44 42 -101l153 -206q42 58 75 134q8 18 24 11zM225 64q71 0 134 57l-149 200q-102 -61 -102 -155q0 -45 31.5 -73.5t85.5 -28.5z" />
    <glyph glyph-name="quotesingle" unicode="'" horiz-adv-x="210" 
d="M210 643l-42 -195q-3 -14 -17 -14h-27q-17 0 -15 17l20 195q1 18 20 18h44q20 0 17 -21z" />
    <glyph glyph-name="parenleft" unicode="(" horiz-adv-x="329" 
d="M160 185q0 -143 63 -255q10 -20 -12 -20h-41q-14 0 -21 12q-72 126 -72 272q0 112 46 235.5t143 225.5q8 9 21 9h41q11 0 11 -9t-10 -21q-87 -106 -128 -223t-41 -226z" />
    <glyph glyph-name="parenright" unicode=")" horiz-adv-x="329" 
d="M181 389q0 143 -63 255q-10 20 12 20h41q13 0 21 -12q72 -126 72 -272q0 -112 -46 -235.5t-143 -225.5q-8 -9 -21 -9h-41q-11 0 -11 9t10 21q87 106 128 223t41 226z" />
    <glyph glyph-name="asterisk" unicode="*" horiz-adv-x="479" 
d="M417 322l-31 -21q-16 -11 -25 6l-79 141l-93 -143q-9 -15 -25 -4l-29 21q-16 11 -3 25l116 127l-160 38q-18 3 -12 22l13 36q6 17 23 11l152 -66l-5 167q0 18 18 18h38q19 0 16 -19l-23 -164l155 64q18 7 23 -11l10 -36q4 -18 -13 -22l-166 -39l103 -125q12 -15 -3 -26z
" />
    <glyph glyph-name="plus" unicode="+" horiz-adv-x="529" 
d="M304 240l-29 -187q-3 -17 -21 -17h-38q-21 0 -18 20l29 184h-183q-21 0 -18 20l6 40q3 17 21 17h187l29 188q3 17 21 17h38q21 0 18 -20l-29 -185h183q21 0 18 -20l-6 -40q-3 -17 -21 -17h-187z" />
    <glyph glyph-name="comma" unicode="," horiz-adv-x="233" 
d="M96 99q23 0 36.5 -14.5t13.5 -39.5q0 -41 -26 -84t-70 -76q-10 -8 -18 3l-13 17q-8 10 2 18q40 33 50 74q-34 10 -34 44q0 27 16.5 42.5t42.5 15.5z" />
    <glyph glyph-name="hyphen" unicode="-" horiz-adv-x="332" 
d="M285 233h-233q-21 0 -18 20l6 42q3 17 21 17h233q21 0 18 -20l-6 -42q-3 -17 -21 -17z" />
    <glyph glyph-name="period" unicode="." horiz-adv-x="233" 
d="M79 -12q-23 0 -37 14t-14 37q0 25 17.5 42.5t42.5 17.5q23 0 37 -14.5t14 -36.5q0 -26 -17.5 -43t-42.5 -17z" />
    <glyph glyph-name="slash" unicode="/" horiz-adv-x="356" 
d="M0 20l327 632q6 12 20 12h42q23 0 13 -20l-327 -632q-6 -12 -20 -12h-42q-23 0 -13 20z" />
    <glyph glyph-name="zero" unicode="0" horiz-adv-x="529" 
d="M45 206l34 218q33 212 237 212q92 0 142 -44t50 -125q0 -26 -4 -49l-34 -217q-33 -213 -237 -213q-92 0 -142 44t-50 125q0 26 4 49zM164 415l-33 -207q-3 -21 -3 -39q0 -105 110 -105q125 0 147 145l33 207q3 21 3 39q0 105 -110 105q-125 0 -147 -145z" />
    <glyph glyph-name="one" unicode="1" horiz-adv-x="529" 
d="M448 604l-93 -587q-3 -17 -21 -17h-47q-21 0 -18 20l78 487l-143 -93q-15 -11 -26 6l-19 32q-9 17 6 26l208 139q11 7 24 7h33q21 0 18 -20z" />
    <glyph glyph-name="two" unicode="2" horiz-adv-x="529" 
d="M510 475q0 -61 -26.5 -105.5t-93.5 -101.5l-227 -190v-2h265q21 0 18 -20l-6 -39q-3 -17 -21 -17h-369q-20 0 -17 20l5 39q1 13 12 22l283 241q52 44 71.5 76t19.5 72q0 42 -28 66t-76 24q-85 0 -147 -80q-12 -15 -27 -3l-29 26q-13 13 -2 27q84 106 216 106
q82 0 130.5 -43.5t48.5 -117.5z" />
    <glyph glyph-name="three" unicode="3" horiz-adv-x="529" 
d="M404 323v-2q83 -36 83 -133q0 -94 -64.5 -147t-179.5 -53q-139 0 -201 88q-9 15 4 26l32 27q14 12 26 -4q45 -61 142 -61q74 0 114.5 34.5t40.5 95.5q0 92 -136 92h-39q-21 0 -18 20l6 39q3 17 21 17h36q83 0 121.5 26.5t38.5 84.5q0 42 -29 64.5t-82 22.5
q-85 0 -149 -67q-15 -15 -27 1l-25 30q-11 14 2 27q86 85 211 85q86 0 135.5 -41.5t49.5 -113.5q0 -121 -113 -158z" />
    <glyph glyph-name="four" unicode="4" horiz-adv-x="529" 
d="M428 217h56q22 0 17 -21l-6 -38q-3 -17 -21 -17h-58l-19 -124q-3 -17 -21 -17h-47q-21 0 -18 20l19 121h-288q-21 0 -18 20l8 46q1 13 11 23l355 384q9 10 23 10h51q21 0 18 -20zM385 493l-249 -276h206l45 276h-2z" />
    <glyph glyph-name="five" unicode="5" horiz-adv-x="529" 
d="M182 624h321q21 0 18 -20l-6 -39q-3 -17 -21 -17h-266l-40 -180h2q53 33 125 33q78 0 127.5 -50t49.5 -131q0 -106 -66.5 -169t-181.5 -63q-138 0 -200 88q-11 15 3 27l31 27q14 12 26 -4q46 -62 143 -62q73 0 115.5 40t42.5 108q0 52 -31.5 82.5t-84.5 30.5
q-75 0 -129 -43q-11 -8 -25 -7l-28 5q-18 3 -15 22l69 305q4 17 21 17z" />
    <glyph glyph-name="six" unicode="6" horiz-adv-x="529" 
d="M163 350h2q56 54 146 54q77 0 123.5 -49t46.5 -131q0 -107 -65.5 -171.5t-173.5 -64.5q-89 0 -140.5 47.5t-51.5 128.5q0 19 3 40l36 221q16 101 78.5 156t161.5 55q109 0 172 -63q11 -13 -1 -27l-32 -30q-13 -13 -27 1q-40 43 -112 43q-132 0 -155 -144zM287 328
q-58 0 -98 -36t-50 -97q-2 -9 -2 -27q0 -49 29.5 -76.5t82.5 -27.5q67 0 106 41.5t39 111.5q0 52 -28.5 81.5t-78.5 29.5z" />
    <glyph glyph-name="seven" unicode="7" horiz-adv-x="529" 
d="M542 534l-342 -522q-9 -12 -23 -12h-57q-12 0 -15.5 6.5t2.5 16.5l349 525h-274l-14 -92q-3 -17 -21 -17h-41q-21 0 -18 20l23 148q3 17 21 17h408q21 0 18 -20l-7 -48q-1 -11 -9 -22z" />
    <glyph glyph-name="eight" unicode="8" horiz-adv-x="529" 
d="M396 321v-2q82 -39 82 -131q0 -93 -64.5 -146.5t-176.5 -53.5q-100 0 -155.5 43.5t-55.5 122.5q0 65 34 110t97 65v2q-68 39 -68 118q0 88 60 137.5t164 49.5q93 0 144 -41t51 -114q0 -118 -112 -160zM310 560q-62 0 -99 -30.5t-37 -82.5q0 -41 29.5 -63t83.5 -22
q63 0 99.5 29.5t36.5 82.5q0 86 -113 86zM240 64q71 0 111.5 33.5t40.5 93.5q0 46 -33 70.5t-94 24.5q-71 0 -112 -33.5t-41 -92.5q0 -47 33 -71.5t95 -24.5z" />
    <glyph glyph-name="nine" unicode="9" horiz-adv-x="529" 
d="M320 636q89 0 140 -47t51 -128q0 -20 -3 -41l-36 -221q-16 -101 -78.5 -156t-161.5 -55q-111 0 -172 63q-12 13 0 27l29 31q13 13 27 -1q43 -44 116 -44q132 0 155 144l11 67h-2q-55 -55 -146 -55q-77 0 -123.5 49t-46.5 131q0 107 65.5 171.5t174.5 64.5zM422 429
q2 18 2 27q0 49 -30 76.5t-81 27.5q-69 0 -107.5 -41t-38.5 -112q0 -52 28.5 -81.5t78.5 -29.5q58 0 98 36t50 97z" />
    <glyph glyph-name="colon" unicode=":" horiz-adv-x="233" 
d="M79 -12q-23 0 -37 14t-14 37q0 25 17.5 42.5t42.5 17.5q23 0 37 -14.5t14 -36.5q0 -26 -17.5 -43t-42.5 -17zM139 363q-23 0 -37 14.5t-14 36.5q0 25 17.5 42.5t42.5 17.5q23 0 37 -14.5t14 -36.5q0 -26 -17.5 -43t-42.5 -17z" />
    <glyph glyph-name="semicolon" unicode=";" horiz-adv-x="233" 
d="M96 99q23 0 36.5 -14.5t13.5 -39.5q0 -41 -26 -84t-70 -76q-10 -8 -18 3l-13 17q-8 10 2 18q40 33 50 74q-34 10 -34 44q0 27 16.5 42.5t42.5 15.5zM147 363q-23 0 -37 14.5t-14 36.5q0 25 17.5 42.5t42.5 17.5q23 0 37 -14.5t14 -36.5q0 -26 -17.5 -43t-42.5 -17z" />
    <glyph glyph-name="less" unicode="&#x3c;" horiz-adv-x="529" 
d="M64 320l443 187q11 4 17 -0.5t4 -15.5l-6 -44q-2 -15 -16 -21l-362 -150v-2l311 -147q16 -8 13 -23l-6 -41q-3 -22 -24 -12l-383 186q-14 7 -13 23l6 39q2 15 16 21z" />
    <glyph glyph-name="equal" unicode="=" horiz-adv-x="529" 
d="M494 353h-417q-21 0 -18 20l6 40q3 17 21 17h417q21 0 18 -20l-6 -40q-3 -17 -21 -17zM459 128h-417q-21 0 -18 20l6 40q3 17 21 17h417q20 0 17 -20l-6 -39q-2 -18 -20 -18z" />
    <glyph glyph-name="greater" unicode="&#x3e;" horiz-adv-x="529" 
d="M102 507l383 -186q14 -7 13 -23l-6 -39q-2 -15 -16 -21l-443 -187q-11 -4 -17 0.5t-4 15.5l6 44q2 15 16 21l362 150v2l-311 147q-16 8 -13 23l6 41q3 22 24 12z" />
    <glyph glyph-name="question" unicode="?" horiz-adv-x="454" 
d="M303 676q83 0 132 -44t49 -117q0 -66 -30 -110t-103 -82q-54 -28 -76 -52.5t-28 -59.5l-2 -12q-3 -17 -21 -17h-39q-21 0 -18 20l3 19q8 51 37 87.5t91 71.5q57 32 78.5 61t21.5 71q0 41 -27.5 64.5t-74.5 23.5q-87 0 -152 -82q-13 -17 -28 -2l-27 27q-13 11 0 27
q86 106 214 106zM177 -12q-22 0 -36.5 14t-14.5 37q0 25 17.5 42.5t42.5 17.5q23 0 37 -14.5t14 -36.5q0 -26 -17.5 -43t-42.5 -17z" />
    <glyph glyph-name="at" unicode="@" horiz-adv-x="731" 
d="M368 337h83q3 20 3 35q0 36 -17.5 51t-53.5 15q-37 0 -76 -28q-14 -11 -23 3l-12 20q-7 13 4 22q50 39 116 39q127 0 127 -114q0 -17 -3 -35l-18 -114q-2 -16 -2 -22q0 -48 42 -48q29 0 51 26t32.5 66.5t15 76t4.5 66.5q0 102 -51 163t-154 61q-63 0 -115 -19.5
t-86.5 -52.5t-60 -73.5t-39 -86.5t-20 -87t-6.5 -79q0 -116 63 -179.5t180 -63.5q100 0 171 48q14 9 22 -6l12 -24q6 -15 -7 -22q-85 -51 -202 -51q-144 0 -223 78t-79 218q0 56 11 114t39.5 121t71.5 111t113.5 79t158.5 31q131 0 197.5 -76.5t66.5 -203.5q0 -47 -8 -93
t-25.5 -93t-53.5 -76t-84 -29q-67 0 -82 55h-2q-42 -55 -118 -55q-53 0 -83 27t-30 74q0 62 38 96.5t112 34.5zM442 282h-71q-88 0 -88 -74q0 -47 61 -47q36 0 61.5 23.5t32.5 69.5z" />
    <glyph glyph-name="A" unicode="A" horiz-adv-x="587" 
d="M419 647l113 -626q3 -21 -17 -21h-52q-18 0 -21 17l-19 115h-272l-56 -118q-7 -14 -23 -14h-55q-24 0 -14 22l311 628q7 14 22 14h63q17 0 20 -17zM355 557h-2l-164 -346h222z" />
    <glyph glyph-name="B" unicode="B" horiz-adv-x="564" 
d="M428 338v-2q90 -33 90 -134q0 -106 -60.5 -154t-192.5 -48h-201q-21 0 -18 20l99 627q3 17 21 17h181q203 0 203 -150q0 -141 -122 -176zM192 376h112q79 0 117 30t38 93q0 45 -29.5 65.5t-90.5 20.5h-113zM145 79h129q79 0 116.5 31.5t37.5 97.5q0 89 -118 89h-130z" />
    <glyph glyph-name="C" unicode="C" horiz-adv-x="527" 
d="M261 67q94 0 149 81q11 16 26 5l35 -23q16 -10 5 -26q-79 -116 -221 -116q-99 0 -152.5 49t-53.5 140q0 29 4 54l33 208q38 237 263 237q151 0 197 -120q6 -17 -10 -25l-40 -18q-17 -7 -25 11q-32 73 -127 73q-144 0 -171 -173l-29 -187q-4 -24 -4 -50q0 -120 121 -120z
" />
    <glyph glyph-name="D" unicode="D" horiz-adv-x="591" 
d="M166 664h195q211 0 211 -177q0 -22 -5 -54l-33 -207q-18 -114 -84 -170t-185 -56h-201q-21 0 -18 20l99 627q3 17 21 17zM446 240l30 185q4 23 4 46q0 114 -130 114h-124l-81 -506h123q78 0 121 39.5t57 121.5z" />
    <glyph glyph-name="E" unicode="E" horiz-adv-x="538" 
d="M192 375h261q21 0 18 -20l-7 -42q-3 -17 -21 -17h-263l-35 -217h305q21 0 18 -20l-7 -42q-3 -17 -21 -17h-376q-21 0 -18 20l99 627q3 17 21 17h377q20 0 17 -20l-6 -41q-1 -18 -20 -18h-308z" />
    <glyph glyph-name="F" unicode="F" horiz-adv-x="505" 
d="M191 369h251q21 0 18 -20l-7 -42q-3 -17 -21 -17h-253l-43 -273q-3 -17 -21 -17h-51q-21 0 -18 20l99 627q3 17 21 17h367q20 0 17 -20l-6 -41q-1 -18 -20 -18h-298z" />
    <glyph glyph-name="G" unicode="G" horiz-adv-x="569" 
d="M539 337l-18 -109q-40 -240 -261 -240q-101 0 -156.5 49t-55.5 140q0 23 5 55l33 208q38 236 267 236q156 0 205 -120q7 -18 -10 -25l-41 -18q-16 -7 -25 10q-37 74 -135 74q-147 0 -174 -174l-29 -185q-4 -24 -4 -49q0 -122 126 -122q74 0 115.5 43t56.5 132l6 36h-123
q-21 0 -18 20l6 42q3 17 21 17h191q21 0 18 -20z" />
    <glyph glyph-name="H" unicode="H" horiz-adv-x="623" 
d="M609 644l-99 -627q-3 -17 -21 -17h-51q-21 0 -18 20l44 277h-284l-44 -280q-3 -17 -21 -17h-51q-21 0 -18 20l99 627q3 17 21 17h51q21 0 18 -20l-43 -268h284l43 271q3 17 21 17h51q21 0 18 -20z" />
    <glyph glyph-name="I" unicode="I" horiz-adv-x="249" 
d="M115 0h-51q-21 0 -18 20l99 627q3 17 21 17h51q21 0 18 -20l-99 -627q-3 -17 -21 -17z" />
    <glyph glyph-name="J" unicode="J" horiz-adv-x="520" 
d="M521 644l-67 -427q-36 -229 -246 -229q-144 0 -198 108q-7 16 7 25l38 24q16 10 26 -7q40 -71 128 -71q132 0 157 163l66 417q3 17 21 17h50q21 0 18 -20z" />
    <glyph glyph-name="K" unicode="K" horiz-adv-x="561" 
d="M479 0h-65q-15 0 -23 12l-209 301l-46 -296q-3 -17 -21 -17h-51q-21 0 -18 20l99 627q3 17 21 17h51q21 0 18 -20l-43 -272h2l282 282q10 10 24 10h70q13 0 15.5 -7t-6.5 -16l-312 -305l223 -312q7 -10 3.5 -17t-14.5 -7z" />
    <glyph glyph-name="L" unicode="L" horiz-adv-x="499" 
d="M425 0h-361q-21 0 -18 20l99 627q3 17 21 17h51q21 0 18 -20l-90 -565h290q21 0 18 -20l-7 -42q-3 -17 -21 -17z" />
    <glyph glyph-name="M" unicode="M" horiz-adv-x="820" 
d="M686 0h-51q-21 0 -18 20l81 515h-2l-275 -522q-7 -13 -22 -13h-48q-18 0 -21 17l-112 522h-2l-82 -522q-3 -17 -21 -17h-49q-21 0 -18 20l99 627q3 17 21 17h94q18 0 21 -17l110 -516h2l269 519q7 14 22 14h104q21 0 18 -20l-99 -627q-3 -17 -21 -17z" />
    <glyph glyph-name="N" unicode="N" horiz-adv-x="623" 
d="M489 0h-56q-16 0 -22 15l-196 505h-2l-79 -503q-3 -17 -21 -17h-49q-21 0 -18 20l99 627q3 17 21 17h64q16 0 22 -15l190 -492h2l77 490q3 17 21 17h49q21 0 18 -20l-99 -627q-3 -17 -21 -17z" />
    <glyph glyph-name="O" unicode="O" horiz-adv-x="588" 
d="M53 231l33 208q38 237 264 237q103 0 159.5 -49t56.5 -140q0 -22 -5 -54l-33 -208q-38 -237 -264 -237q-104 0 -159.5 49.5t-55.5 141.5q0 28 4 52zM173 424l-29 -187q-4 -23 -4 -48q0 -122 128 -122q75 0 116.5 41.5t55.5 129.5l30 189q4 24 4 50q0 120 -127 120
q-75 0 -117.5 -42.5t-56.5 -130.5z" />
    <glyph glyph-name="P" unicode="P" horiz-adv-x="546" 
d="M166 664h184q207 0 207 -173q0 -121 -65 -178t-202 -57h-117l-37 -239q-3 -17 -21 -17h-51q-21 0 -18 20l99 627q3 17 21 17zM466 483q0 53 -31 77.5t-95 24.5h-114l-40 -250h113q86 0 126.5 36t40.5 112z" />
    <glyph glyph-name="Q" unicode="Q" horiz-adv-x="588" 
d="M350 676q103 0 159.5 -49t56.5 -140q0 -22 -5 -54l-33 -208q-32 -200 -198 -231q-1 -5 -1 -13q0 -63 64 -63q32 0 63 19q19 11 26 -8l14 -34q6 -17 -8 -26q-46 -28 -104 -28q-145 0 -145 130q0 12 1 18q-92 5 -141.5 54t-49.5 135q0 28 4 53l33 208q38 237 264 237z
M440 238l30 189q4 24 4 50q0 120 -127 120q-147 0 -174 -173l-29 -187q-4 -23 -4 -48q0 -122 128 -122q75 0 116.5 41.5t55.5 129.5z" />
    <glyph glyph-name="R" unicode="R" horiz-adv-x="568" 
d="M376 269l111 -247q4 -10 0.5 -16t-14.5 -6h-60q-16 0 -22 15l-104 247h-113l-38 -245q-3 -17 -21 -17h-51q-21 0 -18 20l99 627q3 17 21 17h179q208 0 208 -172q0 -192 -177 -223zM461 485q0 100 -125 100h-110l-39 -244h108q86 0 126 35t40 109z" />
    <glyph glyph-name="S" unicode="S" horiz-adv-x="512" 
d="M331 676q133 0 191 -82q10 -15 -4 -26l-37 -29q-15 -12 -27 5q-40 53 -127 53q-68 0 -109 -35t-41 -93q0 -40 29 -62t103 -36q98 -19 138 -56.5t40 -106.5q0 -101 -66 -160.5t-178 -59.5q-152 0 -219 97q-9 15 5 26l36 29q15 12 27 -4q51 -69 156 -69q68 0 108.5 34.5
t40.5 93.5q0 39 -29 60.5t-102 35.5q-98 19 -138.5 57t-40.5 108q0 101 66 160.5t178 59.5z" />
    <glyph glyph-name="T" unicode="T" horiz-adv-x="493" 
d="M348 585l-90 -568q-3 -17 -21 -17h-51q-21 0 -18 20l90 565h-162q-21 0 -18 20l7 42q3 17 21 17h415q21 0 18 -20l-6 -42q-3 -17 -21 -17h-164z" />
    <glyph glyph-name="U" unicode="U" horiz-adv-x="588" 
d="M582 644l-67 -427q-36 -229 -251 -229q-98 0 -151 47.5t-53 135.5q0 28 4 52l67 424q3 17 21 17h51q21 0 18 -20l-66 -416q-4 -23 -4 -46q0 -115 118 -115q70 0 108.5 39.5t51.5 123.5l66 417q3 17 21 17h48q21 0 18 -20z" />
    <glyph glyph-name="V" unicode="V" horiz-adv-x="569" 
d="M539 664h53q11 0 15 -6t-1 -16l-302 -628q-7 -14 -23 -14h-63q-18 0 -21 17l-104 627q-3 20 18 20h52q18 0 21 -17l82 -520h2l248 523q7 14 23 14z" />
    <glyph glyph-name="W" unicode="W" horiz-adv-x="853" 
d="M817 664h57q23 0 15 -22l-267 -627q-6 -15 -22 -15h-65q-19 0 -20 18l-48 469h-2l-199 -472q-6 -15 -22 -15h-64q-18 0 -20 18l-67 626q-2 20 18 20h56q19 0 20 -18l45 -500h2l212 503q6 15 22 15h46q18 0 20 -18l53 -500h2l206 503q6 15 22 15z" />
    <glyph glyph-name="X" unicode="X" horiz-adv-x="567" 
d="M356 339l139 -317q4 -10 0.5 -16t-14.5 -6h-59q-16 0 -22 15l-107 258l-190 -261q-9 -12 -24 -12h-61q-12 0 -15.5 7t4.5 17l241 318l-132 300q-4 10 -0.5 16t14.5 6h59q16 0 22 -15l99 -240l177 243q9 12 24 12h62q12 0 15 -6.5t-4 -16.5z" />
    <glyph glyph-name="Y" unicode="Y" horiz-adv-x="530" 
d="M255 0h-51q-21 0 -18 20l43 275l-150 347q-4 10 -0.5 16t14.5 6h59q16 0 22 -15l113 -273l198 276q9 12 24 12h62q12 0 15.5 -6.5t-3.5 -16.5l-264 -351l-43 -273q-3 -17 -21 -17z" />
    <glyph glyph-name="Z" unicode="Z" horiz-adv-x="522" 
d="M125 79h313q21 0 18 -20l-6 -42q-3 -17 -21 -17h-405q-21 0 -18 20l7 49q1 13 10 23l401 493h-293q-21 0 -18 20l7 42q3 17 21 17h385q21 0 18 -20l-8 -50q-1 -12 -10 -22z" />
    <glyph glyph-name="bracketleft" unicode="[" horiz-adv-x="329" 
d="M131 -23h98q18 0 15 -18l-5 -33q-1 -16 -18 -16h-165q-18 0 -15 18l114 720q1 16 18 16h164q19 0 16 -18l-5 -33q-3 -16 -19 -16h-101z" />
    <glyph glyph-name="backslash" unicode="\" horiz-adv-x="356" 
d="M110 664h40q15 0 18 -15l129 -630q5 -19 -15 -19h-40q-15 0 -18 15l-129 630q-5 19 15 19z" />
    <glyph glyph-name="bracketright" unicode="]" horiz-adv-x="329" 
d="M307 646l-114 -720q-1 -16 -18 -16h-165q-18 0 -15 18l5 33q1 16 18 16h101l97 620h-97q-18 0 -15 18l5 33q1 16 18 16h165q18 0 15 -18z" />
    <glyph glyph-name="asciicircum" unicode="^" horiz-adv-x="529" 
d="M95 258h-50q-12 0 -15.5 6.5t3.5 16.5l249 331q8 12 23 12h40q16 0 22 -14l143 -330q4 -10 0.5 -16t-14.5 -6h-43q-16 0 -22 15l-114 266l-199 -269q-8 -12 -23 -12z" />
    <glyph glyph-name="underscore" unicode="_" horiz-adv-x="500" 
d="M444 -105h-500l8 50h500z" />
    <glyph glyph-name="grave" unicode="`" horiz-adv-x="500" 
d="M337 566h-39q-14 0 -19 11l-65 121q-10 20 12 20h48q14 0 20 -13l55 -120q9 -19 -12 -19z" />
    <glyph glyph-name="a" unicode="a" horiz-adv-x="456" 
d="M249 507q83 0 127.5 -39t44.5 -114q0 -21 -4 -44l-22 -136q-29 -186 -212 -186q-78 0 -120.5 36.5t-42.5 102.5q0 80 51 123t148 43h112l2 12q3 21 3 38q0 92 -98 92q-55 0 -102 -37q-17 -14 -28 4l-17 28q-9 15 6 27q68 50 152 50zM189 60q54 0 84 30.5t41 95.5l6 38
h-98q-57 0 -88 -24t-31 -70q0 -70 86 -70z" />
    <glyph glyph-name="b" unicode="b" horiz-adv-x="488" 
d="M298 507q76 0 115.5 -37.5t39.5 -108.5q0 -22 -4 -45l-22 -142q-30 -186 -209 -186q-82 0 -126 39t-44 111q0 20 3 42l80 503q3 17 21 17h44q21 0 18 -20l-35 -219h2q43 46 117 46zM345 186l20 124q3 21 3 38q0 87 -90 87q-104 0 -124 -126l-19 -124q-3 -21 -3 -38
q0 -87 90 -87q54 0 83.5 30.5t39.5 95.5z" />
    <glyph glyph-name="c" unicode="c" horiz-adv-x="405" 
d="M334 91l17 -25q11 -15 -3 -27q-60 -51 -140 -51q-83 0 -128 39.5t-45 114.5q0 13 4 43l21 132q30 190 209 190q83 0 133 -45q13 -13 0 -27l-24 -26q-11 -13 -26 0q-29 26 -83 26q-108 0 -128 -131l-18 -114q-3 -20 -3 -37q0 -93 98 -93q45 0 89 34q15 14 27 -3z" />
    <glyph glyph-name="d" unicode="d" horiz-adv-x="488" 
d="M432 700h44q21 0 18 -20l-81 -506q-30 -186 -208 -186q-82 0 -126 39t-44 111q0 20 3 42l22 141q30 186 199 186q84 0 113 -55h2l37 231q3 17 21 17zM332 186l20 124q3 20 3 36q0 89 -89 89q-54 0 -84 -30.5t-41 -95.5l-19 -124q-3 -21 -3 -38q0 -87 90 -87
q54 0 83.5 30.5t39.5 95.5z" />
    <glyph glyph-name="e" unicode="e" horiz-adv-x="458" 
d="M266 507q80 0 123 -38.5t43 -110.5q0 -20 -3 -42l-12 -80q-3 -17 -21 -17h-269l-5 -29q-3 -21 -3 -37q0 -48 26 -70.5t80 -22.5q53 0 104 43q15 14 26 -3l18 -27q11 -15 -3 -27q-65 -58 -152 -58q-89 0 -136 38.5t-47 113.5q0 24 4 45l21 136q30 186 206 186zM347 288
l3 22q3 21 3 38q0 87 -89 87q-54 0 -83 -30.5t-40 -95.5l-3 -21h209z" />
    <glyph glyph-name="f" unicode="f" 
d="M320 640q-84 0 -100 -104l-7 -41h135q21 0 18 -20l-5 -35q-3 -17 -21 -17h-138l-64 -406q-3 -17 -21 -17h-44q-21 0 -18 20l64 403h-49q-21 0 -18 20l5 35q3 17 21 17h53l7 47q28 170 180 170q59 0 100 -21q16 -7 7 -25l-16 -32q-9 -16 -24 -8q-27 14 -65 14z" />
    <glyph glyph-name="g" unicode="g" horiz-adv-x="488" 
d="M280 507q82 0 126.5 -38.5t44.5 -110.5q0 -22 -4 -43l-50 -313q-13 -83 -66.5 -128.5t-139.5 -45.5q-102 0 -161 56q-12 12 -1 27l22 28q12 15 27 2q44 -41 113 -41q107 0 124 112l6 37h-2q-42 -45 -114 -45q-76 0 -116.5 38t-40.5 108q0 25 4 46l20 125q29 186 208 186z
M345 202l18 108q3 21 3 37q0 88 -90 88q-53 0 -82.5 -31t-40.5 -95l-17 -108q-3 -21 -3 -37q0 -88 90 -88q102 0 122 126z" />
    <glyph glyph-name="h" unicode="h" horiz-adv-x="499" 
d="M305 507q73 0 111.5 -37t38.5 -106q0 -24 -4 -45l-48 -302q-3 -17 -21 -17h-44q-21 0 -18 20l47 294q3 21 3 37q0 84 -87 84q-99 0 -119 -122l-47 -296q-3 -17 -21 -17h-44q-21 0 -18 20l105 663q3 17 21 17h44q21 0 18 -20l-35 -218h2q42 45 116 45z" />
    <glyph glyph-name="i" unicode="i" horiz-adv-x="217" 
d="M169 587q-21 0 -34.5 13.5t-13.5 33.5q0 26 15.5 42t40.5 16q22 0 35.5 -13.5t13.5 -34.5q0 -25 -16.5 -41t-40.5 -16zM95 0h-44q-21 0 -18 20l73 458q3 17 21 17h44q21 0 18 -20l-73 -458q-3 -17 -21 -17z" />
    <glyph glyph-name="j" unicode="j" horiz-adv-x="217" 
d="M169 587q-21 0 -34.5 13.5t-13.5 33.5q0 26 15.5 42t40.5 16q22 0 35.5 -13.5t13.5 -34.5q0 -25 -16.5 -41t-40.5 -16zM-53 -88q69 0 81 75l78 491q3 17 21 17h44q21 0 18 -20l-78 -491q-24 -144 -159 -144h-13q-21 0 -18 20l5 35q3 17 21 17z" />
    <glyph glyph-name="k" unicode="k" horiz-adv-x="450" 
d="M387 495h59q13 0 15.5 -7t-6.5 -16l-225 -220l163 -229q7 -10 3.5 -16.5t-15.5 -6.5h-54q-14 0 -23 12l-153 221l-34 -216q-3 -17 -21 -17h-44q-21 0 -18 20l105 663q3 17 21 17h44q21 0 18 -20l-63 -396h2l202 201q10 10 24 10z" />
    <glyph glyph-name="l" unicode="l" horiz-adv-x="218" 
d="M96 0h-44q-21 0 -18 20l105 663q3 17 21 17h44q21 0 18 -20l-105 -663q-3 -17 -21 -17z" />
    <glyph glyph-name="m" unicode="m" horiz-adv-x="754" 
d="M552 507q76 0 117 -37t41 -107q0 -13 -4 -43l-48 -303q-3 -17 -21 -17h-44q-21 0 -18 20l47 295q3 21 3 37q0 83 -81 83q-49 0 -76 -29.5t-37 -91.5l-46 -297q-3 -17 -21 -17h-44q-21 0 -18 20l47 295q3 21 3 38q0 82 -82 82q-48 0 -75 -28.5t-36 -87.5l-47 -302
q-3 -17 -21 -17h-44q-21 0 -18 20l48 305q29 182 192 182q102 0 136 -67h2q46 67 145 67z" />
    <glyph glyph-name="n" unicode="n" horiz-adv-x="494" 
d="M315 20l47 293q3 19 3 37q0 85 -87 85q-52 0 -81 -30t-39 -93l-46 -295q-3 -17 -21 -17h-44q-21 0 -18 20l48 305q29 182 205 182q80 0 123.5 -38t43.5 -109q0 -20 -3 -41l-48 -302q-3 -17 -21 -17h-44q-21 0 -18 20z" />
    <glyph glyph-name="o" unicode="o" horiz-adv-x="475" 
d="M269 507q82 0 126 -39t44 -111q0 -19 -3 -41l-22 -143q-29 -185 -209 -185q-82 0 -126.5 39t-44.5 111q0 20 3 41l23 142q30 186 209 186zM209 60q54 0 83.5 30.5t39.5 95.5l20 124q3 21 3 38q0 87 -90 87q-53 0 -82.5 -30.5t-40.5 -95.5l-20 -124q-3 -21 -3 -38
q0 -87 90 -87z" />
    <glyph glyph-name="p" unicode="p" horiz-adv-x="488" 
d="M285 507q82 0 126.5 -38.5t44.5 -110.5q0 -20 -4 -43l-22 -141q-30 -186 -198 -186q-85 0 -114 56h-2l-30 -187q-3 -17 -21 -17h-43q-21 0 -18 20l73 461q29 186 208 186zM349 186l19 124q3 21 3 37q0 88 -90 88q-104 0 -123 -126l-19 -124q-3 -19 -3 -35q0 -90 91 -90
q53 0 82 31t40 95z" />
    <glyph glyph-name="q" unicode="q" horiz-adv-x="488" 
d="M269 507q82 0 126.5 -38.5t44.5 -110.5q0 -22 -4 -43l-72 -458q-3 -17 -21 -17h-44q-21 0 -18 20l28 174h-2q-43 -46 -117 -46q-76 0 -116 38t-40 109q0 22 4 45l22 141q29 186 209 186zM332 186l20 124q3 21 3 37q0 88 -90 88q-105 0 -124 -126l-19 -124q-3 -21 -3 -37
q0 -88 91 -88q102 0 122 126z" />
    <glyph glyph-name="r" unicode="r" horiz-adv-x="364" 
d="M29 20l49 309q29 178 186 178q64 0 112 -32q14 -10 3 -26l-20 -29q-10 -15 -26 -4q-28 19 -67 19q-46 0 -71.5 -27.5t-34.5 -84.5l-48 -306q-3 -17 -21 -17h-44q-21 0 -18 20z" />
    <glyph glyph-name="s" unicode="s" horiz-adv-x="413" 
d="M191 -12q-113 0 -170 58q-13 13 0 26l24 28q12 15 26 1q44 -41 120 -41q52 0 81.5 23t29.5 63q0 29 -21.5 44.5t-78.5 25.5q-75 13 -106 41t-31 82q0 78 54 123t147 45q87 0 139 -43q14 -11 2 -26l-23 -29q-11 -14 -26 -2q-36 28 -93 28q-55 0 -86 -22.5t-31 -62.5
q0 -27 21.5 -41.5t74.5 -22.5q78 -12 110 -41.5t32 -86.5q0 -79 -52 -124.5t-143 -45.5z" />
    <glyph glyph-name="t" unicode="t" horiz-adv-x="355" 
d="M202 423l-43 -276q-2 -16 -2 -22q0 -65 67 -65q22 0 48 12q19 10 25 -9l11 -32q5 -17 -10 -25q-36 -18 -83 -18q-68 0 -105 32t-37 92q0 18 3 37l43 274h-49q-21 0 -18 20l5 35q3 17 21 17h52l18 115q3 17 21 17h44q21 0 18 -20l-18 -112h135q21 0 18 -20l-5 -35
q-3 -17 -21 -17h-138z" />
    <glyph glyph-name="u" unicode="u" horiz-adv-x="488" 
d="M462 475l-49 -308q-29 -179 -201 -179q-80 0 -122.5 37t-42.5 107q0 20 3 41l48 305q3 17 21 17h44q21 0 18 -20l-47 -297q-3 -20 -3 -34q0 -84 86 -84q51 0 79 28.5t38 88.5l47 301q3 17 21 17h42q21 0 18 -20z" />
    <glyph glyph-name="v" unicode="v" horiz-adv-x="454" 
d="M410 495h48q24 0 14 -22l-229 -459q-7 -14 -22 -14h-58q-17 0 -20 17l-83 457q-3 21 17 21h48q18 0 21 -17l58 -377h2l181 380q7 14 23 14z" />
    <glyph glyph-name="w" unicode="w" horiz-adv-x="691" 
d="M646 495h48q11 0 14.5 -6t-0.5 -16l-209 -459q-6 -14 -22 -14h-50q-17 0 -20 18l-42 320h-2l-147 -324q-6 -14 -22 -14h-50q-17 0 -20 18l-63 457q-3 20 17 20h48q19 0 20 -18l40 -353h2l159 357q6 14 22 14h34q17 0 20 -18l46 -350h2l153 354q6 14 22 14z" />
    <glyph glyph-name="x" unicode="x" horiz-adv-x="463" 
d="M287 254l110 -232q5 -10 0.5 -16t-15.5 -6h-51q-16 0 -22 14l-81 184l-140 -186q-8 -12 -23 -12h-53q-12 0 -15.5 7t4.5 16l185 235l-101 215q-5 10 -0.5 16t15.5 6h51q16 0 22 -15l72 -167l127 170q8 12 23 12h52q13 0 16.5 -7t-4.5 -16z" />
    <glyph glyph-name="y" unicode="y" horiz-adv-x="499" 
d="M417 495h44q21 0 18 -20l-76 -473q-13 -83 -66.5 -128.5t-139.5 -45.5q-102 0 -161 56q-12 12 -1 27l22 28q12 15 27 2q44 -41 113 -41q108 0 125 112l6 37h-2q-43 -45 -117 -45q-72 0 -110.5 36.5t-38.5 105.5q0 25 4 46l45 286q3 17 21 17h44q21 0 18 -20l-44 -278
q-3 -19 -3 -36q0 -85 87 -85q100 0 120 122l44 280q3 17 21 17z" />
    <glyph glyph-name="z" unicode="z" horiz-adv-x="427" 
d="M110 72h234q21 0 18 -20l-5 -35q-3 -17 -21 -17h-315q-21 0 -18 20l6 43q1 13 10 23l298 337h-214q-21 0 -18 20l5 35q3 17 21 17h296q21 0 18 -20l-7 -43q-1 -13 -10 -23z" />
    <glyph glyph-name="braceleft" unicode="{" horiz-adv-x="339" 
d="M336 664h11q19 0 16 -18l-5 -33q-3 -16 -22 -16q-42 0 -63.5 -20.5t-28.5 -68.5l-17 -105q-15 -99 -92 -116v-2q59 -17 59 -82q0 -15 -3 -31l-17 -105q-3 -17 -3 -30q0 -32 16.5 -46t51.5 -14q18 0 15 -18l-5 -33q-3 -16 -18 -16h-15q-130 0 -130 106q0 16 3 36l18 113
q3 18 3 31q0 58 -50 58q-15 0 -12 18l5 32q3 16 18 16q60 0 74 88l18 113q12 78 52 110.5t121 32.5z" />
    <glyph glyph-name="bar" unicode="|" horiz-adv-x="264" 
d="M90 -160h-37q-17 0 -14 17l131 828q1 15 17 15h37q17 0 14 -17l-131 -828q-2 -15 -17 -15z" />
    <glyph glyph-name="braceright" unicode="}" horiz-adv-x="339" 
d="M298 320q15 0 12 -18l-5 -32q-3 -16 -18 -16q-60 0 -74 -88l-18 -113q-12 -78 -52 -110.5t-121 -32.5h-11q-19 0 -16 18l5 33q3 16 22 16q42 0 63.5 20.5t28.5 68.5l17 105q15 99 92 116v2q-59 17 -59 82q0 15 3 31l17 105q3 17 3 30q0 32 -16.5 46t-51.5 14
q-18 0 -15 18l5 33q3 16 18 16h15q130 0 130 -106q0 -16 -3 -36l-18 -113q-3 -18 -3 -31q0 -58 50 -58z" />
    <glyph glyph-name="asciitilde" unicode="~" horiz-adv-x="529" 
d="M184 275q-49 0 -97 -62q-12 -16 -27 -5l-27 20q-15 10 -4 27q67 97 156 97q52 0 113 -40q47 -31 79 -31q48 0 96 63q12 16 27 4l27 -20q15 -10 4 -27q-67 -97 -155 -97q-57 0 -114 41q-43 30 -78 30z" />
    <glyph glyph-name="uni00A0" unicode="&#xa0;" horiz-adv-x="215" 
 />
    <glyph glyph-name="exclamdown" unicode="&#xa1;" horiz-adv-x="235" 
d="M183 676q23 0 37.5 -14t14.5 -37q0 -25 -17.5 -42.5t-42.5 -17.5q-23 0 -37 14.5t-14 36.5q0 26 17.5 43t41.5 17zM145 482h22q14 0 12 -13l-12 -181l-42 -271q-3 -17 -21 -17h-43q-21 0 -18 20l42 268l45 183q3 11 15 11z" />
    <glyph glyph-name="cent" unicode="&#xa2;" horiz-adv-x="529" 
d="M480 450l-25 -27q-11 -13 -26 0q-22 19 -62 25l-58 -364q39 5 77 37q15 14 26 -3l20 -29q10 -15 -3 -27q-58 -47 -132 -53l-10 -65q-2 -14 -16 -14h-27q-16 0 -14 16l10 63q-77 7 -117.5 47.5t-40.5 112.5q0 24 4 45l18 112q32 194 218 198l9 58q2 14 16 14h27
q16 0 13 -16l-9 -59q67 -10 103 -45q13 -13 -1 -26zM186 312l-15 -94q-3 -19 -3 -37q0 -85 84 -97l58 365q-54 -5 -83.5 -38t-40.5 -99z" />
    <glyph glyph-name="sterling" unicode="&#xa3;" horiz-adv-x="529" 
d="M527 557q11 -15 -5 -26l-33 -24q-15 -12 -27 4q-36 49 -119 49q-62 0 -99 -36.5t-37 -99.5q0 -31 13 -74q3 -12 6 -25h176q18 0 15 -18l-5 -36q-1 -16 -18 -16h-160q0 -103 -80 -177v-2h271q21 0 18 -20l-6 -39q-3 -17 -21 -17h-351q-21 0 -18 20l5 37q2 13 13 24
q47 43 67 83t20 91h-66q-18 0 -15 18l5 36q1 16 18 16h47q-2 7 -6 19q-15 45 -15 84q0 95 60.5 151.5t163.5 56.5q127 0 183 -79z" />
    <glyph glyph-name="currency" unicode="&#xa4;" horiz-adv-x="529" 
d="M465 326q0 -71 -43 -124l51 -58q10 -12 -2 -24l-28 -26q-12 -12 -24 2l-52 59q-45 -24 -96 -24q-60 0 -104 33l-79 -70q-12 -10 -24 2l-23 25q-12 13 1 24l82 72q-17 34 -17 75q0 71 43 125l-51 58q-10 12 2 24l28 26q12 12 24 -2l52 -59q44 25 96 25q60 0 104 -34l79 70
q12 10 24 -2l23 -25q12 -13 -1 -24l-82 -72q17 -34 17 -76zM172 297q0 -45 28.5 -73t74.5 -28q53 0 89.5 36t36.5 90q0 45 -28.5 73.5t-74.5 28.5q-53 0 -89.5 -36.5t-36.5 -90.5z" />
    <glyph glyph-name="yen" unicode="&#xa5;" horiz-adv-x="529" 
d="M480 302l-6 -36q-3 -15 -19 -15h-144l-11 -71h141q19 0 16 -18l-6 -36q-3 -15 -19 -15h-143l-15 -94q-3 -17 -21 -17h-47q-21 0 -18 20l15 91h-144q-19 0 -16 18l6 36q3 15 19 15h146l11 71h-143q-19 0 -16 18l6 36q3 15 19 15h142l-135 282q-10 22 14 22h54q16 0 22 -14
l100 -226l172 228q8 12 23 12h57q13 0 16.5 -7t-4.5 -16l-223 -281h135q19 0 16 -18z" />
    <glyph glyph-name="brokenbar" unicode="&#xa6;" horiz-adv-x="264" 
d="M170 350h-37q-17 0 -14 17l51 318q3 15 17 15h37q17 0 14 -17l-51 -318q-2 -15 -17 -15zM90 -160h-37q-17 0 -14 17l50 318q2 15 17 15h37q17 0 14 -17l-50 -318q-2 -15 -17 -15z" />
    <glyph glyph-name="section" unicode="&#xa7;" horiz-adv-x="553" 
d="M533 639q11 -15 -5 -26l-30 -23q-15 -10 -26 4q-38 47 -126 47q-64 0 -105 -32t-41 -82q0 -35 29.5 -53t106.5 -28q100 -13 141.5 -45t41.5 -93q0 -130 -121 -176v-2q62 -30 62 -103q0 -91 -63 -145t-168 -54q-147 0 -209 86q-10 15 4 26l29 23q15 11 26 -3
q46 -61 154 -61q66 0 106.5 31.5t40.5 81.5q0 34 -29.5 52t-105.5 28q-101 13 -143.5 46t-42.5 95q0 122 117 174v2q-57 32 -57 102q0 92 63 146.5t169 54.5q128 0 182 -73zM274 381q-59 -9 -96 -44.5t-37 -84.5q0 -42 34 -63t122 -32q63 8 102 44t39 88q0 40 -33 59
t-131 33z" />
    <glyph glyph-name="dieresis" unicode="&#xa8;" horiz-adv-x="500" 
d="M225 590q-21 0 -33.5 12.5t-12.5 32.5q0 23 15 38.5t38 15.5q20 0 33 -13t13 -33q0 -23 -15.5 -38t-37.5 -15zM392 590q-20 0 -33 13t-13 33q0 23 15 38t37 15q21 0 34 -13t13 -33q0 -23 -15 -38t-38 -15z" />
    <glyph glyph-name="copyright" unicode="&#xa9;" horiz-adv-x="766" 
d="M436 676q135 0 221 -84.5t86 -215.5q0 -159 -114 -273.5t-273 -114.5q-135 0 -221 84.5t-86 215.5q0 159 114 273.5t273 114.5zM359 40q133 0 229.5 99t96.5 235q0 110 -70.5 180t-182.5 70q-133 0 -229 -99t-96 -235q0 -110 70 -180t182 -70zM333 383l-17 -103
q-2 -18 -2 -25q0 -62 62 -62q42 0 72 39q9 13 21 4l19 -14q12 -9 3 -21q-44 -60 -119 -60q-56 0 -87 27.5t-31 77.5q0 14 3 30l18 116q21 131 147 131q80 0 110 -63q6 -13 -8 -19l-21 -11q-12 -7 -20 7q-19 34 -65 34q-72 0 -85 -88z" />
    <glyph glyph-name="ordfeminine" unicode="&#xaa;" horiz-adv-x="351" 
d="M218 636q65 0 100.5 -31t35.5 -89q0 -19 -2 -30l-17 -107q-23 -143 -163 -143q-61 0 -95 28.5t-34 79.5q0 63 38.5 97t114.5 34h82l1 6q2 12 2 26q0 66 -73 66q-38 0 -74 -28q-15 -11 -24 6l-14 25q-7 13 7 24q53 36 115 36zM176 299q75 0 88 90l4 25h-67q-85 0 -85 -66
q0 -49 60 -49z" />
    <glyph glyph-name="guillemotleft" unicode="&#xab;" horiz-adv-x="437" 
d="M107 243l79 -165q10 -20 -12 -20h-38q-14 0 -20 12l-81 165q-6 11 3 23l132 169q9 10 21 10h42q11 0 14 -6t-4 -15zM293 243l79 -165q10 -20 -12 -20h-38q-14 0 -20 12l-81 165q-6 11 3 23l132 169q9 10 21 10h42q11 0 14 -6t-4 -15z" />
    <glyph glyph-name="logicalnot" unicode="&#xac;" horiz-adv-x="529" 
d="M528 357l-38 -244q-3 -17 -21 -17h-38q-21 0 -18 20l29 184h-388q-21 0 -18 20l6 40q3 17 21 17h447q21 0 18 -20z" />
    <glyph glyph-name="uni00AD" unicode="&#xad;" horiz-adv-x="332" 
d="M285 233h-233q-21 0 -18 20l6 42q3 17 21 17h233q21 0 18 -20l-6 -42q-3 -17 -21 -17z" />
    <glyph glyph-name="registered" unicode="&#xae;" horiz-adv-x="766" 
d="M326 516h101q117 0 117 -93q0 -109 -97 -129l58 -128q8 -18 -11 -18h-36q-12 0 -18 12l-50 129h-55l-21 -127q-2 -14 -16 -14h-29q-16 0 -13 16l54 338q2 14 16 14zM484 415q0 49 -63 49h-58l-20 -123h57q84 0 84 74zM436 676q135 0 221 -84.5t86 -215.5
q0 -159 -114 -273.5t-273 -114.5q-135 0 -221 84.5t-86 215.5q0 159 114 273.5t273 114.5zM359 40q133 0 229.5 99t96.5 235q0 110 -70.5 180t-182.5 70q-133 0 -229 -99t-96 -235q0 -110 70 -180t182 -70z" />
    <glyph glyph-name="macron" unicode="&#xaf;" horiz-adv-x="500" 
d="M448 647l-5 -33q-3 -15 -19 -15h-229q-18 0 -15 18l5 32q1 16 18 16h230q18 0 15 -18z" />
    <glyph glyph-name="degree" unicode="&#xb0;" horiz-adv-x="357" 
d="M201 336q-60 0 -97.5 38t-37.5 97q0 70 48 117.5t117 47.5q60 0 97.5 -38t37.5 -96q0 -71 -48 -118.5t-117 -47.5zM205 401q38 0 66 28t28 70q0 32 -20 52t-52 20q-39 0 -66.5 -28t-27.5 -70q0 -33 20 -52.5t52 -19.5z" />
    <glyph glyph-name="plusminus" unicode="&#xb1;" horiz-adv-x="529" 
d="M518 341l-6 -40q-3 -17 -21 -17h-180l-25 -158q-3 -17 -21 -17h-38q-21 0 -18 20l25 155h-175q-21 0 -18 20l6 40q3 17 21 17h179l24 159q3 17 21 17h38q21 0 18 -20l-24 -156h176q21 0 18 -20zM22 77h432q21 0 18 -20l-6 -40q-3 -17 -21 -17h-432q-20 0 -17 20l6 39
q3 18 20 18z" />
    <glyph glyph-name="twosuperior" unicode="&#xb2;" 
d="M157 418h148q16 0 13 -16l-4 -25q-2 -14 -16 -14h-217q-16 0 -14 16l4 26q1 12 9 18l167 145q28 25 39 43t11 40q0 23 -14.5 36.5t-41.5 13.5q-44 0 -80 -44q-9 -12 -21 -2l-19 18q-10 10 -2 21q50 62 128 62q52 0 82 -28.5t30 -75.5q0 -36 -16 -62.5t-58 -62.5
l-128 -107v-2z" />
    <glyph glyph-name="threesuperior" unicode="&#xb3;" 
d="M297 562v-2q51 -22 51 -81t-38.5 -91t-107.5 -32q-82 0 -123 53q-9 10 2 21l18 17q12 10 21 -2q28 -34 83 -34q39 0 61 18.5t22 52.5q0 54 -77 54h-17q-16 0 -14 16l4 23q2 14 16 14h15q91 0 91 64q0 48 -60 48q-44 0 -81 -37q-12 -12 -21 1l-17 20q-9 11 1 21
q53 50 126 50q53 0 83.5 -26t30.5 -72q0 -76 -69 -96z" />
    <glyph glyph-name="acute" unicode="&#xb4;" horiz-adv-x="500" 
d="M447 697l-105 -122q-9 -9 -20 -9h-45q-10 0 -13 6t3 14l96 122q9 10 21 10h53q11 0 14 -6.5t-4 -14.5z" />
    <glyph glyph-name="uni00B5" unicode="&#xb5;" horiz-adv-x="499" 
d="M414 495h44q21 0 18 -20l-49 -305q-29 -182 -190 -182q-82 0 -114 53h-2l-29 -184q-3 -17 -21 -17h-44q-21 0 -18 20l97 618q3 17 21 17h44q21 0 18 -20l-47 -294q-3 -18 -3 -34q0 -87 88 -87q52 0 81 29.5t39 92.5l46 296q3 17 21 17z" />
    <glyph glyph-name="paragraph" unicode="&#xb6;" horiz-adv-x="570" 
d="M562 683l-131 -828q-1 -15 -17 -15h-35q-17 0 -14 17l122 774h-118l-123 -776q-2 -15 -17 -15h-35q-17 0 -14 17l69 435q-189 7 -189 164q0 124 65.5 184t202.5 60h220q17 0 14 -17z" />
    <glyph glyph-name="periodcentered" unicode="&#xb7;" horiz-adv-x="233" 
d="M122 257q-22 0 -36.5 14.5t-14.5 36.5q0 25 17.5 42.5t42.5 17.5q23 0 37 -14.5t14 -36.5q0 -26 -17.5 -43t-42.5 -17z" />
    <glyph glyph-name="cedilla" unicode="&#xb8;" horiz-adv-x="500" 
d="M244 13l-21 -59q63 -6 63 -56q0 -70 -99 -70q-44 0 -75 17q-11 6 -5 20l9 20q6 13 20 5q26 -12 50 -12q41 0 41 23q0 21 -46 21q-17 0 -11 16l28 75h46z" />
    <glyph glyph-name="onesuperior" unicode="&#xb9;" 
d="M262 363h-31q-16 0 -13 16l45 285l-73 -49q-13 -8 -21 5l-13 21q-8 13 4 20l122 82q9 6 18 6h22q16 0 13 -16l-57 -356q-2 -14 -16 -14z" />
    <glyph glyph-name="ordmasculine" unicode="&#xba;" horiz-adv-x="368" 
d="M237 636q65 0 100 -30.5t35 -86.5q0 -15 -3 -32l-17 -108q-23 -143 -162 -143q-64 0 -99 30.5t-35 86.5q0 15 3 32l17 108q23 143 161 143zM193 299q75 0 88 90l15 95q2 10 2 27q0 62 -64 62q-73 0 -88 -90l-15 -95q-2 -18 -2 -26q0 -63 64 -63z" />
    <glyph glyph-name="guillemotright" unicode="&#xbb;" horiz-adv-x="437" 
d="M222 236l-132 -168q-9 -10 -21 -10h-42q-11 0 -14 6t4 15l136 173l-79 165q-10 20 12 20h38q14 0 20 -12l81 -166q6 -11 -3 -23zM408 236l-132 -168q-9 -10 -21 -10h-42q-11 0 -14 6t4 15l136 173l-79 165q-10 20 12 20h38q14 0 20 -12l81 -166q6 -11 -3 -23z" />
    <glyph glyph-name="onequarter" unicode="&#xbc;" horiz-adv-x="796" 
d="M724 140h30q16 0 14 -16l-4 -25q-2 -14 -16 -14h-32l-12 -71q-2 -14 -16 -14h-31q-16 0 -13 16l11 69h-164q-17 0 -14 16l5 32q1 9 9 18l205 227q7 8 18 8h34q16 0 13 -16zM688 291h-2l-134 -151h111zM243 238h-31q-16 0 -13 16l45 285l-73 -49q-13 -8 -21 5l-13 21
q-8 13 4 20l122 82q9 6 18 6h22q16 0 13 -16l-57 -356q-2 -14 -16 -14zM178 18l488 597q8 9 18 9h40q10 0 12.5 -5t-3.5 -13l-488 -597q-7 -9 -18 -9h-40q-10 0 -12.5 5t3.5 13z" />
    <glyph glyph-name="onehalf" unicode="&#xbd;" horiz-adv-x="796" 
d="M569 55h148q16 0 13 -16l-4 -25q-2 -14 -16 -14h-217q-16 0 -14 16l4 26q1 12 9 18l167 145q28 25 39 43t11 40q0 23 -14.5 36.5t-41.5 13.5q-44 0 -80 -44q-9 -12 -21 -2l-19 18q-10 10 -2 21q50 62 128 62q52 0 82 -28.5t30 -75.5q0 -36 -16 -62.5t-58 -62.5l-128 -107
v-2zM240 238h-31q-16 0 -13 16l45 285l-73 -49q-13 -8 -21 5l-13 21q-8 13 4 20l122 82q9 6 18 6h22q16 0 13 -16l-57 -356q-2 -14 -16 -14zM135 18l488 597q8 9 18 9h40q10 0 12.5 -5t-3.5 -13l-488 -597q-7 -9 -18 -9h-40q-10 0 -12.5 5t3.5 13z" />
    <glyph glyph-name="threequarters" unicode="&#xbe;" horiz-adv-x="796" 
d="M182 18l488 597q7 9 18 9h40q10 0 12.5 -5t-3.5 -13l-488 -597q-8 -9 -18 -9h-40q-10 0 -12.5 5t3.5 13zM725 140h30q16 0 14 -16l-4 -25q-2 -14 -16 -14h-32l-12 -71q-2 -14 -16 -14h-31q-16 0 -13 16l11 69h-164q-17 0 -14 16l5 32q1 9 9 18l205 227q7 8 18 8h34
q16 0 13 -16zM689 291h-2l-134 -151h111zM278 437v-2q51 -22 51 -81t-38.5 -91t-107.5 -32q-82 0 -123 53q-9 10 2 21l18 17q12 10 21 -2q28 -34 83 -34q39 0 61 18.5t22 52.5q0 54 -77 54h-17q-16 0 -14 16l4 23q2 14 16 14h15q91 0 91 64q0 48 -60 48q-44 0 -81 -37
q-12 -12 -21 1l-17 20q-9 11 1 21q53 50 126 50q53 0 83.5 -26t30.5 -72q0 -77 -69 -96z" />
    <glyph glyph-name="questiondown" unicode="&#xbf;" horiz-adv-x="454" 
d="M190 -12q-83 0 -132 44t-49 117q0 66 30 110t103 82q54 28 76 52.5t28 59.5l2 12q3 17 21 17h39q21 0 18 -20l-3 -19q-8 -51 -37 -87.5t-91 -71.5q-57 -32 -78.5 -61t-21.5 -71q0 -41 27.5 -64.5t74.5 -23.5q87 0 152 82q13 17 28 2l27 -27q13 -11 0 -27
q-86 -106 -214 -106zM316 676q22 0 36.5 -14t14.5 -37q0 -25 -17.5 -42.5t-42.5 -17.5q-23 0 -37 14.5t-14 36.5q0 26 17.5 43t42.5 17z" />
    <glyph glyph-name="Agrave" unicode="&#xc0;" horiz-adv-x="587" 
d="M419 647l113 -626q3 -21 -17 -21h-52q-18 0 -21 17l-19 115h-272l-56 -118q-7 -14 -23 -14h-55q-24 0 -14 22l311 628q7 14 22 14h63q17 0 20 -17zM355 557h-2l-164 -346h222zM406 729h-39q-13 0 -19 11l-65 121q-10 20 12 20h48q14 0 20 -13l55 -120q9 -19 -12 -19z" />
    <glyph glyph-name="Aacute" unicode="&#xc1;" horiz-adv-x="587" 
d="M419 647l113 -626q3 -21 -17 -21h-52q-18 0 -21 17l-19 115h-272l-56 -118q-7 -14 -23 -14h-55q-24 0 -14 22l311 628q7 14 22 14h63q17 0 20 -17zM355 557h-2l-164 -346h222zM523 860l-105 -122q-9 -9 -20 -9h-45q-10 0 -13 6t3 14l96 122q9 10 21 10h53q11 0 14 -6.5
t-4 -14.5z" />
    <glyph glyph-name="Acircumflex" unicode="&#xc2;" horiz-adv-x="587" 
d="M419 647l113 -626q3 -21 -17 -21h-52q-18 0 -21 17l-19 115h-272l-56 -118q-7 -14 -23 -14h-55q-24 0 -14 22l311 628q7 14 22 14h63q17 0 20 -17zM355 557h-2l-164 -346h222zM398 823l-73 -85q-9 -9 -20 -9h-41q-10 0 -13 6t4 14l104 122q9 10 21 10h45q14 0 20 -12
l64 -121q4 -8 1 -13.5t-12 -5.5h-37q-13 0 -19 11z" />
    <glyph glyph-name="Atilde" unicode="&#xc3;" horiz-adv-x="587" 
d="M419 647l113 -626q3 -21 -17 -21h-52q-18 0 -21 17l-19 115h-272l-56 -118q-7 -14 -23 -14h-55q-24 0 -14 22l311 628q7 14 22 14h63q17 0 20 -17zM355 557h-2l-164 -346h222zM276 739h-24q-18 0 -13 18q27 102 101 102q31 0 66 -31q25 -22 39 -22q28 0 42 41q4 13 17 13
h25q18 0 13 -18q-29 -102 -101 -102q-33 0 -67 31q-25 22 -39 22q-28 0 -42 -41q-4 -13 -17 -13z" />
    <glyph glyph-name="Adieresis" unicode="&#xc4;" horiz-adv-x="587" 
d="M419 647l113 -626q3 -21 -17 -21h-52q-18 0 -21 17l-19 115h-272l-56 -118q-7 -14 -23 -14h-55q-24 0 -14 22l311 628q7 14 22 14h63q17 0 20 -17zM355 557h-2l-164 -346h222zM304 753q-21 0 -33.5 12.5t-12.5 32.5q0 23 15 38.5t38 15.5q20 0 33 -13t13 -33
q0 -23 -15.5 -38t-37.5 -15zM471 753q-20 0 -33 13t-13 33q0 23 15 38t37 15q21 0 34 -13t13 -33q0 -23 -15 -38t-38 -15z" />
    <glyph glyph-name="Aring" unicode="&#xc5;" horiz-adv-x="587" 
d="M419 647l113 -626q3 -21 -17 -21h-52q-18 0 -21 17l-19 115h-272l-56 -118q-7 -14 -23 -14h-55q-24 0 -14 22l311 628q7 14 22 14h63q17 0 20 -17zM355 557h-2l-164 -346h222zM385 723q-34 0 -55.5 21t-21.5 53q0 38 26.5 64t63.5 26q33 0 54.5 -21t21.5 -53
q0 -38 -26 -64t-63 -26zM387 767q17 0 29.5 12.5t12.5 30.5q0 15 -9.5 24t-24.5 9q-17 0 -29.5 -12.5t-12.5 -30.5q0 -33 34 -33z" />
    <glyph glyph-name="AE" unicode="&#xc6;" horiz-adv-x="875" 
d="M529 375h262q21 0 18 -20l-7 -42q-3 -17 -21 -17h-264l-35 -217h306q21 0 18 -20l-7 -42q-3 -17 -21 -17h-377q-21 0 -18 20l18 112h-237l-86 -120q-8 -12 -23 -12h-61q-12 0 -15.5 6.5t3.5 16.5l458 629q8 12 24 12h416q21 0 18 -20l-6 -42q-3 -17 -21 -17h-308z
M413 211l56 348h-2l-246 -348h192z" />
    <glyph glyph-name="Ccedilla" unicode="&#xc7;" horiz-adv-x="527" 
d="M546 556q6 -17 -10 -25l-40 -18q-17 -7 -25 11q-32 73 -127 73q-144 0 -171 -173l-29 -187q-4 -24 -4 -50q0 -120 121 -120q94 0 149 81q11 16 26 5l35 -23q16 -10 5 -26q-76 -112 -211 -116l-12 -34q63 -6 63 -56q0 -70 -99 -70q-44 0 -75 17q-11 6 -5 20l9 20
q6 13 20 5q26 -12 50 -12q41 0 41 23q0 21 -46 21q-17 0 -11 16l19 52q-82 8 -126 56t-44 131q0 29 4 54l33 208q38 237 263 237q151 0 197 -120z" />
    <glyph glyph-name="Egrave" unicode="&#xc8;" horiz-adv-x="538" 
d="M192 375h261q21 0 18 -20l-7 -42q-3 -17 -21 -17h-263l-35 -217h305q21 0 18 -20l-7 -42q-3 -17 -21 -17h-376q-21 0 -18 20l99 627q3 17 21 17h377q20 0 17 -20l-6 -41q-1 -18 -20 -18h-308zM393 729h-39q-13 0 -19 11l-65 121q-10 20 12 20h48q14 0 20 -13l55 -120
q9 -19 -12 -19z" />
    <glyph glyph-name="Eacute" unicode="&#xc9;" horiz-adv-x="538" 
d="M192 375h261q21 0 18 -20l-7 -42q-3 -17 -21 -17h-263l-35 -217h305q21 0 18 -20l-7 -42q-3 -17 -21 -17h-376q-21 0 -18 20l99 627q3 17 21 17h377q20 0 17 -20l-6 -41q-1 -18 -20 -18h-308zM510 860l-105 -122q-9 -9 -20 -9h-45q-10 0 -13 6t3 14l96 122q9 10 21 10h53
q11 0 14 -6.5t-4 -14.5z" />
    <glyph glyph-name="Ecircumflex" unicode="&#xca;" horiz-adv-x="538" 
d="M192 375h261q21 0 18 -20l-7 -42q-3 -17 -21 -17h-263l-35 -217h305q21 0 18 -20l-7 -42q-3 -17 -21 -17h-376q-21 0 -18 20l99 627q3 17 21 17h377q20 0 17 -20l-6 -41q-1 -18 -20 -18h-308zM385 823l-73 -85q-9 -9 -20 -9h-41q-10 0 -13 6t4 14l104 122q9 10 21 10h45
q14 0 20 -12l64 -121q4 -8 1 -13.5t-12 -5.5h-37q-13 0 -19 11z" />
    <glyph glyph-name="Edieresis" unicode="&#xcb;" horiz-adv-x="538" 
d="M192 375h261q21 0 18 -20l-7 -42q-3 -17 -21 -17h-263l-35 -217h305q21 0 18 -20l-7 -42q-3 -17 -21 -17h-376q-21 0 -18 20l99 627q3 17 21 17h377q20 0 17 -20l-6 -41q-1 -18 -20 -18h-308zM291 753q-21 0 -33.5 12.5t-12.5 32.5q0 23 15 38.5t38 15.5q20 0 33 -13
t13 -33q0 -23 -15.5 -38t-37.5 -15zM458 753q-20 0 -33 13t-13 33q0 23 15 38t37 15q21 0 34 -13t13 -33q0 -23 -15 -38t-38 -15z" />
    <glyph glyph-name="Igrave" unicode="&#xcc;" horiz-adv-x="249" 
d="M115 0h-51q-21 0 -18 20l99 627q3 17 21 17h51q21 0 18 -20l-99 -627q-3 -17 -21 -17zM229 729h-39q-13 0 -19 11l-65 121q-10 20 12 20h48q14 0 20 -13l55 -120q9 -19 -12 -19z" />
    <glyph glyph-name="Iacute" unicode="&#xcd;" horiz-adv-x="249" 
d="M346 860l-105 -122q-9 -9 -20 -9h-45q-10 0 -13 6t3 14l96 122q9 10 21 10h53q11 0 14 -6.5t-4 -14.5zM115 0h-51q-21 0 -18 20l99 627q3 17 21 17h51q21 0 18 -20l-99 -627q-3 -17 -21 -17z" />
    <glyph glyph-name="Icircumflex" unicode="&#xce;" horiz-adv-x="249" 
d="M221 823l-73 -85q-9 -9 -20 -9h-41q-10 0 -13 6t4 14l104 122q9 10 21 10h45q14 0 20 -12l64 -121q4 -8 1 -13.5t-12 -5.5h-37q-13 0 -19 11zM115 0h-51q-21 0 -18 20l99 627q3 17 21 17h51q21 0 18 -20l-99 -627q-3 -17 -21 -17z" />
    <glyph glyph-name="Idieresis" unicode="&#xcf;" horiz-adv-x="249" 
d="M115 0h-51q-21 0 -18 20l99 627q3 17 21 17h51q21 0 18 -20l-99 -627q-3 -17 -21 -17zM127 753q-21 0 -33.5 12.5t-12.5 32.5q0 23 15 38.5t38 15.5q20 0 33 -13t13 -33q0 -23 -15.5 -38t-37.5 -15zM294 753q-20 0 -33 13t-13 33q0 23 15 38t37 15q21 0 34 -13t13 -33
q0 -23 -15 -38t-38 -15z" />
    <glyph glyph-name="Eth" unicode="&#xd0;" horiz-adv-x="602" 
d="M177 664h195q211 0 211 -177q0 -22 -5 -54l-33 -207q-18 -114 -84 -170t-185 -56h-201q-21 0 -18 20l44 277h-46q-21 0 -18 20l6 42q3 17 21 17h49l43 271q3 17 21 17zM457 240l30 185q4 23 4 46q0 114 -130 114h-124l-33 -209h115q21 0 18 -20l-7 -42q-3 -17 -21 -17
h-118l-35 -218h123q78 0 121 39.5t57 121.5z" />
    <glyph glyph-name="Ntilde" unicode="&#xd1;" horiz-adv-x="623" 
d="M489 0h-56q-16 0 -22 15l-196 505h-2l-79 -503q-3 -17 -21 -17h-49q-21 0 -18 20l99 627q3 17 21 17h64q16 0 22 -15l190 -492h2l77 490q3 17 21 17h49q21 0 18 -20l-99 -627q-3 -17 -21 -17zM287 739h-24q-18 0 -13 18q27 102 101 102q31 0 66 -31q25 -22 39 -22
q28 0 42 41q4 13 17 13h25q18 0 13 -18q-29 -102 -101 -102q-33 0 -67 31q-25 22 -39 22q-28 0 -42 -41q-4 -13 -17 -13z" />
    <glyph glyph-name="Ograve" unicode="&#xd2;" horiz-adv-x="588" 
d="M53 231l33 208q38 237 264 237q103 0 159.5 -49t56.5 -140q0 -22 -5 -54l-33 -208q-38 -237 -264 -237q-104 0 -159.5 49.5t-55.5 141.5q0 28 4 52zM173 424l-29 -187q-4 -23 -4 -48q0 -122 128 -122q75 0 116.5 41.5t55.5 129.5l30 189q4 24 4 50q0 120 -127 120
q-75 0 -117.5 -42.5t-56.5 -130.5zM396 729h-39q-13 0 -19 11l-65 121q-10 20 12 20h48q14 0 20 -13l55 -120q9 -19 -12 -19z" />
    <glyph glyph-name="Oacute" unicode="&#xd3;" horiz-adv-x="588" 
d="M53 231l33 208q38 237 264 237q103 0 159.5 -49t56.5 -140q0 -22 -5 -54l-33 -208q-38 -237 -264 -237q-104 0 -159.5 49.5t-55.5 141.5q0 28 4 52zM173 424l-29 -187q-4 -23 -4 -48q0 -122 128 -122q75 0 116.5 41.5t55.5 129.5l30 189q4 24 4 50q0 120 -127 120
q-75 0 -117.5 -42.5t-56.5 -130.5zM513 860l-105 -122q-9 -9 -20 -9h-45q-10 0 -13 6t3 14l96 122q9 10 21 10h53q11 0 14 -6.5t-4 -14.5z" />
    <glyph glyph-name="Ocircumflex" unicode="&#xd4;" horiz-adv-x="588" 
d="M53 231l33 208q38 237 264 237q103 0 159.5 -49t56.5 -140q0 -22 -5 -54l-33 -208q-38 -237 -264 -237q-104 0 -159.5 49.5t-55.5 141.5q0 28 4 52zM173 424l-29 -187q-4 -23 -4 -48q0 -122 128 -122q75 0 116.5 41.5t55.5 129.5l30 189q4 24 4 50q0 120 -127 120
q-75 0 -117.5 -42.5t-56.5 -130.5zM388 823l-73 -85q-9 -9 -20 -9h-41q-10 0 -13 6t4 14l104 122q9 10 21 10h45q14 0 20 -12l64 -121q4 -8 1 -13.5t-12 -5.5h-37q-13 0 -19 11z" />
    <glyph glyph-name="Otilde" unicode="&#xd5;" horiz-adv-x="588" 
d="M53 231l33 208q38 237 264 237q103 0 159.5 -49t56.5 -140q0 -22 -5 -54l-33 -208q-38 -237 -264 -237q-104 0 -159.5 49.5t-55.5 141.5q0 28 4 52zM173 424l-29 -187q-4 -23 -4 -48q0 -122 128 -122q75 0 116.5 41.5t55.5 129.5l30 189q4 24 4 50q0 120 -127 120
q-75 0 -117.5 -42.5t-56.5 -130.5zM266 739h-24q-18 0 -13 18q27 102 101 102q31 0 66 -31q25 -22 39 -22q28 0 42 41q4 13 17 13h25q18 0 13 -18q-29 -102 -101 -102q-33 0 -67 31q-25 22 -39 22q-28 0 -42 -41q-4 -13 -17 -13z" />
    <glyph glyph-name="Odieresis" unicode="&#xd6;" horiz-adv-x="588" 
d="M53 231l33 208q38 237 264 237q103 0 159.5 -49t56.5 -140q0 -22 -5 -54l-33 -208q-38 -237 -264 -237q-104 0 -159.5 49.5t-55.5 141.5q0 28 4 52zM173 424l-29 -187q-4 -23 -4 -48q0 -122 128 -122q75 0 116.5 41.5t55.5 129.5l30 189q4 24 4 50q0 120 -127 120
q-75 0 -117.5 -42.5t-56.5 -130.5zM294 753q-21 0 -33.5 12.5t-12.5 32.5q0 23 15 38.5t38 15.5q20 0 33 -13t13 -33q0 -23 -15.5 -38t-37.5 -15zM461 753q-20 0 -33 13t-13 33q0 23 15 38t37 15q21 0 34 -13t13 -33q0 -23 -15 -38t-38 -15z" />
    <glyph glyph-name="multiply" unicode="&#xd7;" horiz-adv-x="529" 
d="M338 277l139 -165q12 -14 -2 -26l-31 -27q-14 -13 -26 2l-140 164l-192 -167q-13 -12 -27 2l-24 27q-12 14 2 27l193 167l-139 165q-12 14 2 26l32 27q15 12 26 -2l139 -164l193 167q15 13 27 -2l23 -27q12 -15 -1 -26z" />
    <glyph glyph-name="Oslash" unicode="&#xd8;" horiz-adv-x="588" 
d="M572 667l24 -21q12 -12 2 -26l-39 -47q17 -39 17 -86q0 -22 -5 -54l-33 -208q-38 -237 -264 -237q-101 0 -156 47l-30 -36q-12 -14 -26 -2l-24 21q-12 12 -2 26l39 48q-16 40 -16 87q0 28 4 52l33 208q38 237 264 237q101 0 157 -47l29 36q12 14 26 2zM183 424l-29 -187
q-4 -23 -4 -48v-4h2l308 375q-31 37 -103 37q-75 0 -117.5 -42.5t-56.5 -130.5zM482 479l-307 -374q31 -38 103 -38q75 0 116.5 41.5t55.5 129.5l30 189q4 24 4 50v2h-2z" />
    <glyph glyph-name="Ugrave" unicode="&#xd9;" horiz-adv-x="588" 
d="M582 644l-67 -427q-36 -229 -251 -229q-98 0 -151 47.5t-53 135.5q0 28 4 52l67 424q3 17 21 17h51q21 0 18 -20l-66 -416q-4 -23 -4 -46q0 -115 118 -115q70 0 108.5 39.5t51.5 123.5l66 417q3 17 21 17h48q21 0 18 -20zM397 729h-39q-14 0 -19 11l-65 121q-10 20 12 20
h48q14 0 20 -13l55 -120q9 -19 -12 -19z" />
    <glyph glyph-name="Uacute" unicode="&#xda;" horiz-adv-x="588" 
d="M582 644l-67 -427q-36 -229 -251 -229q-98 0 -151 47.5t-53 135.5q0 28 4 52l67 424q3 17 21 17h51q21 0 18 -20l-66 -416q-4 -23 -4 -46q0 -115 118 -115q70 0 108.5 39.5t51.5 123.5l66 417q3 17 21 17h48q21 0 18 -20zM514 860l-105 -122q-9 -9 -20 -9h-45
q-10 0 -13 6t3 14l96 122q9 10 21 10h53q11 0 14 -6.5t-4 -14.5z" />
    <glyph glyph-name="Ucircumflex" unicode="&#xdb;" horiz-adv-x="588" 
d="M582 644l-67 -427q-36 -229 -251 -229q-98 0 -151 47.5t-53 135.5q0 28 4 52l67 424q3 17 21 17h51q21 0 18 -20l-66 -416q-4 -23 -4 -46q0 -115 118 -115q70 0 108.5 39.5t51.5 123.5l66 417q3 17 21 17h48q21 0 18 -20zM389 823l-73 -85q-9 -9 -20 -9h-41q-10 0 -13 6
t4 14l104 122q9 10 21 10h45q14 0 20 -12l64 -121q4 -8 1 -13.5t-12 -5.5h-37q-13 0 -19 11z" />
    <glyph glyph-name="Udieresis" unicode="&#xdc;" horiz-adv-x="588" 
d="M582 644l-67 -427q-36 -229 -251 -229q-98 0 -151 47.5t-53 135.5q0 28 4 52l67 424q3 17 21 17h51q21 0 18 -20l-66 -416q-4 -23 -4 -46q0 -115 118 -115q70 0 108.5 39.5t51.5 123.5l66 417q3 17 21 17h48q21 0 18 -20zM295 753q-21 0 -33.5 12.5t-12.5 32.5
q0 23 15 38.5t38 15.5q20 0 33 -13t13 -33q0 -23 -15.5 -38t-37.5 -15zM462 753q-20 0 -33 13t-13 33q0 23 15 38t37 15q21 0 34 -13t13 -33q0 -23 -15 -38t-38 -15z" />
    <glyph glyph-name="Yacute" unicode="&#xdd;" horiz-adv-x="530" 
d="M255 0h-51q-21 0 -18 20l43 275l-150 347q-4 10 -0.5 16t14.5 6h59q16 0 22 -15l113 -273l198 276q9 12 24 12h62q12 0 15.5 -6.5t-3.5 -16.5l-264 -351l-43 -273q-3 -17 -21 -17zM487 860l-105 -122q-9 -9 -20 -9h-45q-10 0 -13 6t3 14l96 122q9 10 21 10h53
q11 0 14 -6.5t-4 -14.5z" />
    <glyph glyph-name="Thorn" unicode="&#xde;" horiz-adv-x="546" 
d="M219 546h112q208 0 208 -175q0 -120 -65 -176.5t-203 -56.5h-116l-19 -121q-3 -17 -21 -17h-51q-21 0 -18 20l99 627q3 17 21 17h51q21 0 18 -20zM448 365q0 102 -127 102h-114l-40 -250h113q86 0 127 36t41 112z" />
    <glyph glyph-name="germandbls" unicode="&#xdf;" horiz-adv-x="552" 
d="M34 20l82 517q13 83 70 129t147 46q81 0 127.5 -38.5t46.5 -105.5q0 -51 -23 -85.5t-78 -66.5q-38 -22 -52.5 -39.5t-14.5 -40.5q0 -19 13 -30t50 -22q59 -17 83.5 -46t24.5 -81q0 -79 -50.5 -124t-139.5 -45q-95 0 -148 42q-14 13 -3 27l21 29q11 14 27 2
q35 -28 101 -28q50 0 79.5 23.5t29.5 63.5q0 26 -16.5 42.5t-58.5 29.5q-53 17 -75 42t-22 69q0 46 21.5 77.5t75.5 63.5q42 25 57.5 44.5t15.5 47.5q0 37 -25.5 57t-71.5 20q-54 0 -87.5 -27.5t-41.5 -79.5l-82 -516q-3 -17 -21 -17h-44q-21 0 -18 20z" />
    <glyph glyph-name="agrave" unicode="&#xe0;" horiz-adv-x="456" 
d="M249 507q83 0 127.5 -39t44.5 -114q0 -21 -4 -44l-22 -136q-29 -186 -212 -186q-78 0 -120.5 36.5t-42.5 102.5q0 80 51 123t148 43h112l2 12q3 21 3 38q0 92 -98 92q-55 0 -102 -37q-17 -14 -28 4l-17 28q-9 15 6 27q68 50 152 50zM189 60q54 0 84 30.5t41 95.5l6 38
h-98q-57 0 -88 -24t-31 -70q0 -70 86 -70zM309 566h-39q-14 0 -19 11l-65 121q-10 20 12 20h48q14 0 20 -13l55 -120q9 -19 -12 -19z" />
    <glyph glyph-name="aacute" unicode="&#xe1;" horiz-adv-x="456" 
d="M249 507q83 0 127.5 -39t44.5 -114q0 -21 -4 -44l-22 -136q-29 -186 -212 -186q-78 0 -120.5 36.5t-42.5 102.5q0 80 51 123t148 43h112l2 12q3 21 3 38q0 92 -98 92q-55 0 -102 -37q-17 -14 -28 4l-17 28q-9 15 6 27q68 50 152 50zM189 60q54 0 84 30.5t41 95.5l6 38
h-98q-57 0 -88 -24t-31 -70q0 -70 86 -70zM426 697l-105 -122q-9 -9 -20 -9h-45q-10 0 -13 6t3 14l96 122q9 10 21 10h53q11 0 14 -6.5t-4 -14.5z" />
    <glyph glyph-name="acircumflex" unicode="&#xe2;" horiz-adv-x="456" 
d="M249 507q83 0 127.5 -39t44.5 -114q0 -21 -4 -44l-22 -136q-29 -186 -212 -186q-78 0 -120.5 36.5t-42.5 102.5q0 80 51 123t148 43h112l2 12q3 21 3 38q0 92 -98 92q-55 0 -102 -37q-17 -14 -28 4l-17 28q-9 15 6 27q68 50 152 50zM189 60q54 0 84 30.5t41 95.5l6 38
h-98q-57 0 -88 -24t-31 -70q0 -70 86 -70zM301 660l-73 -85q-9 -9 -20 -9h-41q-10 0 -13 6t4 14l104 122q9 10 21 10h45q14 0 20 -12l64 -121q4 -8 1 -13.5t-12 -5.5h-37q-13 0 -19 11z" />
    <glyph glyph-name="atilde" unicode="&#xe3;" horiz-adv-x="456" 
d="M249 507q83 0 127.5 -39t44.5 -114q0 -21 -4 -44l-22 -136q-29 -186 -212 -186q-78 0 -120.5 36.5t-42.5 102.5q0 80 51 123t148 43h112l2 12q3 21 3 38q0 92 -98 92q-55 0 -102 -37q-17 -14 -28 4l-17 28q-9 15 6 27q68 50 152 50zM189 60q54 0 84 30.5t41 95.5l6 38
h-98q-57 0 -88 -24t-31 -70q0 -70 86 -70zM179 576h-24q-18 0 -13 18q27 102 101 102q31 0 66 -31q25 -22 39 -22q28 0 42 41q4 13 17 13h25q18 0 13 -18q-29 -102 -101 -102q-33 0 -67 31q-25 22 -39 22q-28 0 -42 -41q-4 -13 -17 -13z" />
    <glyph glyph-name="adieresis" unicode="&#xe4;" horiz-adv-x="456" 
d="M249 507q83 0 127.5 -39t44.5 -114q0 -21 -4 -44l-22 -136q-29 -186 -212 -186q-78 0 -120.5 36.5t-42.5 102.5q0 80 51 123t148 43h112l2 12q3 21 3 38q0 92 -98 92q-55 0 -102 -37q-17 -14 -28 4l-17 28q-9 15 6 27q68 50 152 50zM189 60q54 0 84 30.5t41 95.5l6 38
h-98q-57 0 -88 -24t-31 -70q0 -70 86 -70zM207 590q-21 0 -33.5 12.5t-12.5 32.5q0 23 15 38.5t38 15.5q20 0 33 -13t13 -33q0 -23 -15.5 -38t-37.5 -15zM374 590q-20 0 -33 13t-13 33q0 23 15 38t37 15q21 0 34 -13t13 -33q0 -23 -15 -38t-38 -15z" />
    <glyph glyph-name="aring" unicode="&#xe5;" horiz-adv-x="456" 
d="M249 507q83 0 127.5 -39t44.5 -114q0 -21 -4 -44l-22 -136q-29 -186 -212 -186q-78 0 -120.5 36.5t-42.5 102.5q0 80 51 123t148 43h112l2 12q3 21 3 38q0 92 -98 92q-55 0 -102 -37q-17 -14 -28 4l-17 28q-9 15 6 27q68 50 152 50zM189 60q54 0 84 30.5t41 95.5l6 38
h-98q-57 0 -88 -24t-31 -70q0 -70 86 -70zM288 560q-34 0 -55.5 21t-21.5 53q0 38 26.5 64t63.5 26q33 0 54.5 -21t21.5 -53q0 -38 -26 -64t-63 -26zM290 604q18 0 30 12t12 31q0 15 -9.5 24t-24.5 9q-18 0 -30 -12t-12 -31q0 -33 34 -33z" />
    <glyph glyph-name="ae" unicode="&#xe6;" horiz-adv-x="734" 
d="M553 507q74 0 114.5 -38.5t40.5 -108.5q0 -14 -4 -44l-12 -77q-3 -17 -21 -17h-269l-5 -32q-3 -21 -3 -38q0 -48 26 -70t80 -22q53 0 104 43q15 14 26 -3l18 -27q10 -15 -3 -27q-64 -58 -150 -58q-123 0 -153 84h-2q-50 -84 -168 -84q-71 0 -111.5 36.5t-40.5 101.5
q0 80 50.5 122.5t147.5 42.5h113l2 14q3 21 3 39q0 47 -23.5 69t-73.5 22q-58 0 -106 -38q-15 -12 -26 5l-17 28q-9 15 5 26q68 51 150 51q115 0 144 -83h2q49 83 162 83zM621 291l3 19q4 21 4 40q0 85 -87 85q-105 0 -126 -126l-3 -18h209zM320 222h-100q-117 0 -117 -93
q0 -69 85 -69q55 0 85 30.5t41 95.5z" />
    <glyph glyph-name="ccedilla" unicode="&#xe7;" horiz-adv-x="405" 
d="M402 462q13 -13 0 -27l-24 -26q-11 -13 -26 0q-29 26 -83 26q-108 0 -128 -131l-18 -114q-3 -20 -3 -37q0 -93 98 -93q45 0 89 34q15 14 27 -3l17 -25q11 -15 -3 -27q-60 -51 -140 -51l-12 -34q63 -6 63 -56q0 -70 -99 -70q-44 0 -75 17q-11 6 -5 20l9 20q6 13 20 5
q26 -12 50 -12q41 0 41 23q0 21 -46 21q-17 0 -11 16l20 53q-62 11 -95 49t-33 102q0 13 4 43l21 132q30 190 209 190q83 0 133 -45z" />
    <glyph glyph-name="egrave" unicode="&#xe8;" horiz-adv-x="458" 
d="M266 507q80 0 123 -38.5t43 -110.5q0 -20 -3 -42l-12 -80q-3 -17 -21 -17h-269l-5 -29q-3 -21 -3 -37q0 -48 26 -70.5t80 -22.5q53 0 104 43q15 14 26 -3l18 -27q11 -15 -3 -27q-65 -58 -152 -58q-89 0 -136 38.5t-47 113.5q0 24 4 45l21 136q30 186 206 186zM347 288
l3 22q3 21 3 38q0 87 -89 87q-54 0 -83 -30.5t-40 -95.5l-3 -21h209zM313 566h-39q-14 0 -19 11l-65 121q-10 20 12 20h48q14 0 20 -13l55 -120q9 -19 -12 -19z" />
    <glyph glyph-name="eacute" unicode="&#xe9;" horiz-adv-x="458" 
d="M266 507q80 0 123 -38.5t43 -110.5q0 -20 -3 -42l-12 -80q-3 -17 -21 -17h-269l-5 -29q-3 -21 -3 -37q0 -48 26 -70.5t80 -22.5q53 0 104 43q15 14 26 -3l18 -27q11 -15 -3 -27q-65 -58 -152 -58q-89 0 -136 38.5t-47 113.5q0 24 4 45l21 136q30 186 206 186zM347 288
l3 22q3 21 3 38q0 87 -89 87q-54 0 -83 -30.5t-40 -95.5l-3 -21h209zM430 697l-105 -122q-9 -9 -20 -9h-45q-10 0 -13 6t3 14l96 122q9 10 21 10h53q11 0 14 -6.5t-4 -14.5z" />
    <glyph glyph-name="ecircumflex" unicode="&#xea;" horiz-adv-x="458" 
d="M266 507q80 0 123 -38.5t43 -110.5q0 -20 -3 -42l-12 -80q-3 -17 -21 -17h-269l-5 -29q-3 -21 -3 -37q0 -48 26 -70.5t80 -22.5q53 0 104 43q15 14 26 -3l18 -27q11 -15 -3 -27q-65 -58 -152 -58q-89 0 -136 38.5t-47 113.5q0 24 4 45l21 136q30 186 206 186zM347 288
l3 22q3 21 3 38q0 87 -89 87q-54 0 -83 -30.5t-40 -95.5l-3 -21h209zM305 660l-73 -85q-9 -9 -20 -9h-41q-10 0 -13 6t4 14l104 122q9 10 21 10h45q14 0 20 -12l64 -121q4 -8 1 -13.5t-12 -5.5h-37q-13 0 -19 11z" />
    <glyph glyph-name="edieresis" unicode="&#xeb;" horiz-adv-x="458" 
d="M266 507q80 0 123 -38.5t43 -110.5q0 -20 -3 -42l-12 -80q-3 -17 -21 -17h-269l-5 -29q-3 -21 -3 -37q0 -48 26 -70.5t80 -22.5q53 0 104 43q15 14 26 -3l18 -27q11 -15 -3 -27q-65 -58 -152 -58q-89 0 -136 38.5t-47 113.5q0 24 4 45l21 136q30 186 206 186zM347 288
l3 22q3 21 3 38q0 87 -89 87q-54 0 -83 -30.5t-40 -95.5l-3 -21h209zM211 590q-21 0 -33.5 12.5t-12.5 32.5q0 23 15 38.5t38 15.5q20 0 33 -13t13 -33q0 -23 -15.5 -38t-37.5 -15zM378 590q-20 0 -33 13t-13 33q0 23 15 38t37 15q21 0 34 -13t13 -33q0 -23 -15 -38t-38 -15
z" />
    <glyph glyph-name="igrave" unicode="&#xec;" horiz-adv-x="217" 
d="M127 495h44q21 0 18 -20l-73 -458q-3 -17 -21 -17h-44q-21 0 -18 20l73 458q3 17 21 17zM188 566h-39q-14 0 -19 11l-65 121q-10 20 12 20h48q14 0 20 -13l55 -120q9 -19 -12 -19z" />
    <glyph glyph-name="iacute" unicode="&#xed;" horiz-adv-x="217" 
d="M305 697l-105 -122q-9 -9 -20 -9h-45q-10 0 -13 6t3 14l96 122q9 10 21 10h53q11 0 14 -6.5t-4 -14.5zM127 495h44q21 0 18 -20l-73 -458q-3 -17 -21 -17h-44q-21 0 -18 20l73 458q3 17 21 17z" />
    <glyph glyph-name="icircumflex" unicode="&#xee;" horiz-adv-x="217" 
d="M180 660l-73 -85q-9 -9 -20 -9h-41q-10 0 -13 6t4 14l104 122q9 10 21 10h45q14 0 20 -12l64 -121q4 -8 1 -13.5t-12 -5.5h-37q-13 0 -19 11zM127 495h44q21 0 18 -20l-73 -458q-3 -17 -21 -17h-44q-21 0 -18 20l73 458q3 17 21 17z" />
    <glyph glyph-name="idieresis" unicode="&#xef;" horiz-adv-x="217" 
d="M127 495h44q21 0 18 -20l-73 -458q-3 -17 -21 -17h-44q-21 0 -18 20l73 458q3 17 21 17zM86 590q-21 0 -33.5 12.5t-12.5 32.5q0 23 15 38.5t38 15.5q20 0 33 -13t13 -33q0 -23 -15.5 -38t-37.5 -15zM253 590q-20 0 -33 13t-13 33q0 23 15 38t37 15q21 0 34 -13t13 -33
q0 -23 -15 -38t-38 -15z" />
    <glyph glyph-name="eth" unicode="&#xf0;" horiz-adv-x="483" 
d="M422 650l-34 -24q59 -66 59 -192q0 -56 -10 -117l-23 -143q-30 -186 -209 -186q-82 0 -126 39t-44 111q0 20 3 42l21 132q30 185 196 185q73 0 107 -48h2q-3 86 -44 130l-68 -47q-15 -10 -24 4l-17 25q-9 13 5 24l45 32v2q-33 11 -80 19q-21 2 -16 23l9 36q5 17 22 14
q85 -10 140 -43l50 35q14 11 24 -4l17 -25q9 -13 -5 -24zM332 186l18 114q3 19 3 35q0 90 -89 90q-54 0 -83.5 -30.5t-40.5 -95.5l-18 -114q-3 -21 -3 -38q0 -87 90 -87q54 0 83.5 30.5t39.5 95.5z" />
    <glyph glyph-name="ntilde" unicode="&#xf1;" horiz-adv-x="494" 
d="M315 20l47 293q3 19 3 37q0 85 -87 85q-52 0 -81 -30t-39 -93l-46 -295q-3 -17 -21 -17h-44q-21 0 -18 20l48 305q29 182 205 182q80 0 123.5 -38t43.5 -109q0 -20 -3 -41l-48 -302q-3 -17 -21 -17h-44q-21 0 -18 20zM197 576h-24q-18 0 -13 18q27 102 101 102
q31 0 66 -31q25 -22 39 -22q28 0 42 41q4 13 17 13h25q18 0 13 -18q-29 -102 -101 -102q-33 0 -67 31q-25 22 -39 22q-28 0 -42 -41q-4 -13 -17 -13z" />
    <glyph glyph-name="ograve" unicode="&#xf2;" horiz-adv-x="475" 
d="M269 507q82 0 126 -39t44 -111q0 -19 -3 -41l-22 -143q-29 -185 -209 -185q-82 0 -126.5 39t-44.5 111q0 20 3 41l23 142q30 186 209 186zM209 60q54 0 83.5 30.5t39.5 95.5l20 124q3 21 3 38q0 87 -90 87q-53 0 -82.5 -30.5t-40.5 -95.5l-20 -124q-3 -21 -3 -38
q0 -87 90 -87zM314 566h-39q-13 0 -19 11l-65 121q-10 20 12 20h48q14 0 20 -13l55 -120q9 -19 -12 -19z" />
    <glyph glyph-name="oacute" unicode="&#xf3;" horiz-adv-x="475" 
d="M269 507q82 0 126 -39t44 -111q0 -19 -3 -41l-22 -143q-29 -185 -209 -185q-82 0 -126.5 39t-44.5 111q0 20 3 41l23 142q30 186 209 186zM209 60q54 0 83.5 30.5t39.5 95.5l20 124q3 21 3 38q0 87 -90 87q-53 0 -82.5 -30.5t-40.5 -95.5l-20 -124q-3 -21 -3 -38
q0 -87 90 -87zM431 697l-105 -122q-9 -9 -20 -9h-45q-10 0 -13 6t3 14l96 122q9 10 21 10h53q11 0 14 -6.5t-4 -14.5z" />
    <glyph glyph-name="ocircumflex" unicode="&#xf4;" horiz-adv-x="475" 
d="M269 507q82 0 126 -39t44 -111q0 -19 -3 -41l-22 -143q-29 -185 -209 -185q-82 0 -126.5 39t-44.5 111q0 20 3 41l23 142q30 186 209 186zM209 60q54 0 83.5 30.5t39.5 95.5l20 124q3 21 3 38q0 87 -90 87q-53 0 -82.5 -30.5t-40.5 -95.5l-20 -124q-3 -21 -3 -38
q0 -87 90 -87zM306 660l-73 -85q-9 -9 -20 -9h-41q-10 0 -13 6t4 14l104 122q9 10 21 10h45q14 0 20 -12l64 -121q4 -8 1 -13.5t-12 -5.5h-37q-13 0 -19 11z" />
    <glyph glyph-name="otilde" unicode="&#xf5;" horiz-adv-x="475" 
d="M269 507q82 0 126 -39t44 -111q0 -19 -3 -41l-22 -143q-29 -185 -209 -185q-82 0 -126.5 39t-44.5 111q0 20 3 41l23 142q30 186 209 186zM209 60q54 0 83.5 30.5t39.5 95.5l20 124q3 21 3 38q0 87 -90 87q-53 0 -82.5 -30.5t-40.5 -95.5l-20 -124q-3 -21 -3 -38
q0 -87 90 -87zM184 576h-24q-18 0 -13 18q27 102 101 102q31 0 66 -31q25 -22 39 -22q28 0 42 41q4 13 17 13h25q18 0 13 -18q-29 -102 -101 -102q-33 0 -67 31q-25 22 -39 22q-28 0 -42 -41q-4 -13 -17 -13z" />
    <glyph glyph-name="odieresis" unicode="&#xf6;" horiz-adv-x="475" 
d="M269 507q82 0 126 -39t44 -111q0 -19 -3 -41l-22 -143q-29 -185 -209 -185q-82 0 -126.5 39t-44.5 111q0 20 3 41l23 142q30 186 209 186zM209 60q54 0 83.5 30.5t39.5 95.5l20 124q3 21 3 38q0 87 -90 87q-53 0 -82.5 -30.5t-40.5 -95.5l-20 -124q-3 -21 -3 -38
q0 -87 90 -87zM212 590q-21 0 -33.5 12.5t-12.5 32.5q0 23 15 38.5t38 15.5q20 0 33 -13t13 -33q0 -23 -15.5 -38t-37.5 -15zM379 590q-20 0 -33 13t-13 33q0 23 15 38t37 15q21 0 34 -13t13 -33q0 -23 -15 -38t-38 -15z" />
    <glyph glyph-name="divide" unicode="&#xf7;" horiz-adv-x="529" 
d="M26 260l6 40q3 17 21 17h447q21 0 18 -20l-6 -40q-3 -17 -21 -17h-447q-21 0 -18 20zM237 26q-23 0 -36.5 14t-13.5 35q0 25 17 42t41 17q22 0 36 -14t14 -35q0 -25 -17 -42t-41 -17zM300 424q-23 0 -36.5 14t-13.5 35q0 25 17 42t41 17q22 0 36 -14t14 -35
q0 -25 -17 -42t-41 -17z" />
    <glyph glyph-name="oslash" unicode="&#xf8;" horiz-adv-x="475" 
d="M440 498l25 -23q12 -10 1 -24l-27 -31q11 -30 11 -63q0 -19 -3 -41l-22 -143q-29 -185 -209 -185q-74 0 -117 32l-19 -22q-12 -13 -24 -1l-25 23q-12 10 -1 24l26 31q-11 28 -11 63q0 20 3 41l23 142q30 186 209 186q74 0 117 -32l19 22q12 13 24 1zM132 164l212 249
q-22 22 -68 22q-53 0 -82.5 -30.5t-40.5 -95.5l-20 -124q-3 -18 -3 -21h2zM366 331h-2l-212 -249q22 -22 68 -22q54 0 83 30.5t40 95.5l20 124q3 15 3 21z" />
    <glyph glyph-name="ugrave" unicode="&#xf9;" horiz-adv-x="488" 
d="M462 475l-49 -308q-29 -179 -201 -179q-80 0 -122.5 37t-42.5 107q0 20 3 41l48 305q3 17 21 17h44q21 0 18 -20l-47 -297q-3 -20 -3 -34q0 -84 86 -84q51 0 79 28.5t38 88.5l47 301q3 17 21 17h42q21 0 18 -20zM321 566h-39q-14 0 -19 11l-65 121q-10 20 12 20h48
q14 0 20 -13l55 -120q9 -19 -12 -19z" />
    <glyph glyph-name="uacute" unicode="&#xfa;" horiz-adv-x="488" 
d="M462 475l-49 -308q-29 -179 -201 -179q-80 0 -122.5 37t-42.5 107q0 20 3 41l48 305q3 17 21 17h44q21 0 18 -20l-47 -297q-3 -20 -3 -34q0 -84 86 -84q51 0 79 28.5t38 88.5l47 301q3 17 21 17h42q21 0 18 -20zM438 697l-105 -122q-9 -9 -20 -9h-45q-10 0 -13 6t3 14
l96 122q9 10 21 10h53q11 0 14 -6.5t-4 -14.5z" />
    <glyph glyph-name="ucircumflex" unicode="&#xfb;" horiz-adv-x="488" 
d="M462 475l-49 -308q-29 -179 -201 -179q-80 0 -122.5 37t-42.5 107q0 20 3 41l48 305q3 17 21 17h44q21 0 18 -20l-47 -297q-3 -20 -3 -34q0 -84 86 -84q51 0 79 28.5t38 88.5l47 301q3 17 21 17h42q21 0 18 -20zM313 660l-73 -85q-9 -9 -20 -9h-41q-10 0 -13 6t4 14
l104 122q9 10 21 10h45q14 0 20 -12l64 -121q4 -8 1 -13.5t-12 -5.5h-37q-13 0 -19 11z" />
    <glyph glyph-name="udieresis" unicode="&#xfc;" horiz-adv-x="488" 
d="M462 475l-49 -308q-29 -179 -201 -179q-80 0 -122.5 37t-42.5 107q0 20 3 41l48 305q3 17 21 17h44q21 0 18 -20l-47 -297q-3 -20 -3 -34q0 -84 86 -84q51 0 79 28.5t38 88.5l47 301q3 17 21 17h42q21 0 18 -20zM219 590q-21 0 -33.5 12.5t-12.5 32.5q0 23 15 38.5
t38 15.5q20 0 33 -13t13 -33q0 -23 -15.5 -38t-37.5 -15zM386 590q-20 0 -33 13t-13 33q0 23 15 38t37 15q21 0 34 -13t13 -33q0 -23 -15 -38t-38 -15z" />
    <glyph glyph-name="yacute" unicode="&#xfd;" horiz-adv-x="499" 
d="M417 495h44q21 0 18 -20l-76 -473q-13 -83 -66.5 -128.5t-139.5 -45.5q-102 0 -161 56q-12 12 -1 27l22 28q12 15 27 2q44 -41 113 -41q108 0 125 112l6 37h-2q-43 -45 -117 -45q-72 0 -110.5 36.5t-38.5 105.5q0 25 4 46l45 286q3 17 21 17h44q21 0 18 -20l-44 -278
q-3 -19 -3 -36q0 -85 87 -85q100 0 120 122l44 280q3 17 21 17zM452 697l-105 -122q-9 -9 -20 -9h-45q-10 0 -13 6t3 14l96 122q9 10 21 10h53q11 0 14 -6.5t-4 -14.5z" />
    <glyph glyph-name="thorn" unicode="&#xfe;" horiz-adv-x="493" 
d="M306 507q75 0 115 -37.5t40 -107.5q0 -25 -4 -46l-22 -142q-30 -186 -198 -186q-85 0 -115 57h-2l-30 -188q-3 -17 -21 -17h-44q-21 0 -18 20l131 823q3 17 21 17h44q21 0 18 -20l-35 -219h2q43 46 118 46zM354 186l20 124q3 21 3 37q0 88 -91 88q-104 0 -124 -126
l-19 -124q-3 -19 -3 -35q0 -90 91 -90q53 0 82.5 31t40.5 95z" />
    <glyph glyph-name="ydieresis" unicode="&#xff;" horiz-adv-x="499" 
d="M417 495h44q21 0 18 -20l-76 -473q-13 -83 -66.5 -128.5t-139.5 -45.5q-102 0 -161 56q-12 12 -1 27l22 28q12 15 27 2q44 -41 113 -41q108 0 125 112l6 37h-2q-43 -45 -117 -45q-72 0 -110.5 36.5t-38.5 105.5q0 25 4 46l45 286q3 17 21 17h44q21 0 18 -20l-44 -278
q-3 -19 -3 -36q0 -85 87 -85q100 0 120 122l44 280q3 17 21 17zM233 590q-21 0 -33.5 12.5t-12.5 32.5q0 23 15 38.5t38 15.5q20 0 33 -13t13 -33q0 -23 -15.5 -38t-37.5 -15zM400 590q-20 0 -33 13t-13 33q0 23 15 38t37 15q21 0 34 -13t13 -33q0 -23 -15 -38t-38 -15z" />
    <glyph glyph-name="Amacron" unicode="&#x100;" horiz-adv-x="587" 
d="M419 647l113 -626q3 -21 -17 -21h-52q-18 0 -21 17l-19 115h-272l-56 -118q-7 -14 -23 -14h-55q-24 0 -14 22l311 628q7 14 22 14h63q17 0 20 -17zM355 557h-2l-164 -346h222zM523 810l-5 -33q-3 -15 -19 -15h-229q-18 0 -15 18l5 32q1 16 18 16h230q18 0 15 -18z" />
    <glyph glyph-name="amacron" unicode="&#x101;" horiz-adv-x="456" 
d="M249 507q83 0 127.5 -39t44.5 -114q0 -21 -4 -44l-22 -136q-29 -186 -212 -186q-78 0 -120.5 36.5t-42.5 102.5q0 80 51 123t148 43h112l2 12q3 21 3 38q0 92 -98 92q-55 0 -102 -37q-17 -14 -28 4l-17 28q-9 15 6 27q68 50 152 50zM189 60q54 0 84 30.5t41 95.5l6 38
h-98q-57 0 -88 -24t-31 -70q0 -70 86 -70zM426 647l-5 -33q-3 -15 -19 -15h-229q-18 0 -15 18l5 32q1 16 18 16h230q18 0 15 -18z" />
    <glyph glyph-name="Abreve" unicode="&#x102;" horiz-adv-x="587" 
d="M419 647l113 -626q3 -21 -17 -21h-52q-18 0 -21 17l-19 115h-272l-56 -118q-7 -14 -23 -14h-55q-24 0 -14 22l311 628q7 14 22 14h63q17 0 20 -17zM355 557h-2l-164 -346h222zM488 864h30q17 0 14 -17q-11 -51 -49 -78.5t-93 -27.5q-56 0 -89 29t-34 79q0 15 15 15h31
q12 0 15 -14q8 -45 63 -45q59 0 79 47q6 12 18 12z" />
    <glyph glyph-name="abreve" unicode="&#x103;" horiz-adv-x="456" 
d="M249 507q83 0 127.5 -39t44.5 -114q0 -21 -4 -44l-22 -136q-29 -186 -212 -186q-78 0 -120.5 36.5t-42.5 102.5q0 80 51 123t148 43h112l2 12q3 21 3 38q0 92 -98 92q-55 0 -102 -37q-17 -14 -28 4l-17 28q-9 15 6 27q68 50 152 50zM189 60q54 0 84 30.5t41 95.5l6 38
h-98q-57 0 -88 -24t-31 -70q0 -70 86 -70zM391 701h30q17 0 14 -17q-11 -51 -49 -78.5t-93 -27.5q-56 0 -89 29t-34 79q0 15 15 15h31q12 0 15 -14q8 -45 63 -45q59 0 79 47q6 12 18 12z" />
    <glyph glyph-name="Aogonek" unicode="&#x104;" horiz-adv-x="587" 
d="M515 -105l12 -18q9 -13 -3 -23q-33 -26 -79 -26q-37 0 -59 19t-22 51q0 73 80 110l-21 124h-272l-56 -118q-7 -14 -23 -14h-55q-24 0 -14 22l311 628q7 14 22 14h63q17 0 20 -17l113 -626q3 -21 -17 -21h-3q-87 -32 -87 -84q0 -14 8.5 -23t22.5 -9q17 0 36 14
q14 11 23 -3zM411 211l-56 346h-2l-164 -346h222z" />
    <glyph glyph-name="aogonek" unicode="&#x105;" horiz-adv-x="456" 
d="M249 507q83 0 127.5 -39t44.5 -114q0 -21 -4 -44l-22 -136q-19 -126 -113 -169q-77 -36 -77 -89q0 -14 8.5 -23t21.5 -9q19 0 38 15q13 10 22 -4l11 -18q8 -14 -4 -23q-34 -26 -75 -26q-37 0 -59.5 20t-22.5 53q0 50 42 85v2h-4q-78 0 -120.5 36.5t-42.5 102.5
q0 80 51 123t148 43h112l2 12q3 21 3 38q0 92 -98 92q-55 0 -102 -37q-17 -14 -28 4l-17 28q-9 15 6 27q68 50 152 50zM320 224h-98q-57 0 -88 -24t-31 -70q0 -70 86 -70q54 0 84 30.5t41 95.5z" />
    <glyph glyph-name="Cacute" unicode="&#x106;" horiz-adv-x="527" 
d="M261 67q94 0 149 81q11 16 26 5l35 -23q16 -10 5 -26q-79 -116 -221 -116q-99 0 -152.5 49t-53.5 140q0 29 4 54l33 208q38 237 263 237q151 0 197 -120q6 -17 -10 -25l-40 -18q-17 -7 -25 11q-32 73 -127 73q-144 0 -171 -173l-29 -187q-4 -24 -4 -50q0 -120 121 -120z
M503 860l-105 -122q-9 -9 -20 -9h-45q-10 0 -13 6t3 14l96 122q9 10 21 10h53q11 0 14 -6.5t-4 -14.5z" />
    <glyph glyph-name="cacute" unicode="&#x107;" horiz-adv-x="405" 
d="M334 91l17 -25q11 -15 -3 -27q-60 -51 -140 -51q-83 0 -128 39.5t-45 114.5q0 13 4 43l21 132q30 190 209 190q83 0 133 -45q13 -13 0 -27l-24 -26q-11 -13 -26 0q-29 26 -83 26q-108 0 -128 -131l-18 -114q-3 -20 -3 -37q0 -93 98 -93q45 0 89 34q15 14 27 -3zM417 697
l-105 -122q-9 -9 -20 -9h-45q-10 0 -13 6t3 14l96 122q9 10 21 10h53q11 0 14 -6.5t-4 -14.5z" />
    <glyph glyph-name="Ccircumflex" unicode="&#x108;" horiz-adv-x="527" 
d="M261 67q94 0 149 81q11 16 26 5l35 -23q16 -10 5 -26q-79 -116 -221 -116q-99 0 -152.5 49t-53.5 140q0 29 4 54l33 208q38 237 263 237q151 0 197 -120q6 -17 -10 -25l-40 -18q-17 -7 -25 11q-32 73 -127 73q-144 0 -171 -173l-29 -187q-4 -24 -4 -50q0 -120 121 -120z
M378 823l-73 -85q-9 -9 -20 -9h-41q-10 0 -13 6t4 14l104 122q9 10 21 10h45q14 0 20 -12l64 -121q4 -8 1 -13.5t-12 -5.5h-37q-13 0 -19 11z" />
    <glyph glyph-name="ccircumflex" unicode="&#x109;" horiz-adv-x="405" 
d="M334 91l17 -25q11 -15 -3 -27q-60 -51 -140 -51q-83 0 -128 39.5t-45 114.5q0 13 4 43l21 132q30 190 209 190q83 0 133 -45q13 -13 0 -27l-24 -26q-11 -13 -26 0q-29 26 -83 26q-108 0 -128 -131l-18 -114q-3 -20 -3 -37q0 -93 98 -93q45 0 89 34q15 14 27 -3zM292 660
l-73 -85q-9 -9 -20 -9h-41q-10 0 -13 6t4 14l104 122q9 10 21 10h45q14 0 20 -12l64 -121q4 -8 1 -13.5t-12 -5.5h-37q-13 0 -19 11z" />
    <glyph glyph-name="Cdotaccent" unicode="&#x10a;" horiz-adv-x="527" 
d="M261 67q94 0 149 81q11 16 26 5l35 -23q16 -10 5 -26q-79 -116 -221 -116q-99 0 -152.5 49t-53.5 140q0 29 4 54l33 208q38 237 263 237q151 0 197 -120q6 -17 -10 -25l-40 -18q-17 -7 -25 11q-32 73 -127 73q-144 0 -171 -173l-29 -187q-4 -24 -4 -50q0 -120 121 -120z
M367 750q-22 0 -35 13.5t-13 34.5q0 25 16 41t39 16q22 0 35.5 -13.5t13.5 -33.5q0 -25 -16 -41.5t-40 -16.5z" />
    <glyph glyph-name="cdotaccent" unicode="&#x10b;" horiz-adv-x="405" 
d="M334 91l17 -25q11 -15 -3 -27q-60 -51 -140 -51q-83 0 -128 39.5t-45 114.5q0 13 4 43l21 132q30 190 209 190q83 0 133 -45q13 -13 0 -27l-24 -26q-11 -13 -26 0q-29 26 -83 26q-108 0 -128 -131l-18 -114q-3 -20 -3 -37q0 -93 98 -93q45 0 89 34q15 14 27 -3zM281 587
q-22 0 -35 13.5t-13 34.5q0 25 16 41t39 16q22 0 35.5 -13.5t13.5 -33.5q0 -25 -16 -41.5t-40 -16.5z" />
    <glyph glyph-name="Ccaron" unicode="&#x10c;" horiz-adv-x="527" 
d="M261 67q94 0 149 81q11 16 26 5l35 -23q16 -10 5 -26q-79 -116 -221 -116q-99 0 -152.5 49t-53.5 140q0 29 4 54l33 208q38 237 263 237q151 0 197 -120q6 -17 -10 -25l-40 -18q-17 -7 -25 11q-32 73 -127 73q-144 0 -171 -173l-29 -187q-4 -24 -4 -50q0 -120 121 -120z
M508 861l-104 -122q-9 -10 -21 -10h-45q-14 0 -20 12l-64 121q-5 8 -1.5 13.5t13.5 5.5h36q14 0 19 -11l44 -82l73 84q9 9 20 9h41q10 0 13 -6t-4 -14z" />
    <glyph glyph-name="ccaron" unicode="&#x10d;" horiz-adv-x="405" 
d="M334 91l17 -25q11 -15 -3 -27q-60 -51 -140 -51q-83 0 -128 39.5t-45 114.5q0 13 4 43l21 132q30 190 209 190q83 0 133 -45q13 -13 0 -27l-24 -26q-11 -13 -26 0q-29 26 -83 26q-108 0 -128 -131l-18 -114q-3 -20 -3 -37q0 -93 98 -93q45 0 89 34q15 14 27 -3zM422 698
l-104 -122q-9 -10 -21 -10h-45q-14 0 -20 12l-64 121q-5 8 -1.5 13.5t13.5 5.5h36q14 0 19 -11l44 -82l73 84q9 9 20 9h41q10 0 13 -6t-4 -14z" />
    <glyph glyph-name="Dcaron" unicode="&#x10e;" horiz-adv-x="591" 
d="M166 664h195q211 0 211 -177q0 -22 -5 -54l-33 -207q-18 -114 -84 -170t-185 -56h-201q-21 0 -18 20l99 627q3 17 21 17zM446 240l30 185q4 23 4 46q0 114 -130 114h-124l-81 -506h123q78 0 121 39.5t57 121.5zM509 861l-104 -122q-9 -10 -21 -10h-45q-14 0 -20 12
l-64 121q-5 8 -1.5 13.5t13.5 5.5h36q14 0 19 -11l44 -82l73 84q9 9 20 9h41q10 0 13 -6t-4 -14z" />
    <glyph glyph-name="dcaron" unicode="&#x10f;" horiz-adv-x="488" 
d="M432 700h44q21 0 18 -20l-81 -506q-30 -186 -208 -186q-82 0 -126 39t-44 111q0 20 3 42l22 141q30 186 199 186q84 0 113 -55h2l37 231q3 17 21 17zM332 186l20 124q3 20 3 36q0 89 -89 89q-54 0 -84 -30.5t-41 -95.5l-19 -124q-3 -21 -3 -38q0 -87 90 -87
q54 0 83.5 30.5t39.5 95.5zM630 681l-55 -163q-4 -13 -18 -13h-28q-18 0 -13 18l42 162q4 15 19 15h39q19 0 14 -19z" />
    <glyph glyph-name="Dcroat" unicode="&#x110;" horiz-adv-x="602" 
d="M177 664h195q211 0 211 -177q0 -22 -5 -54l-33 -207q-18 -114 -84 -170t-185 -56h-201q-21 0 -18 20l44 277h-46q-21 0 -18 20l6 42q3 17 21 17h49l43 271q3 17 21 17zM457 240l30 185q4 23 4 46q0 114 -130 114h-124l-33 -209h115q21 0 18 -20l-7 -42q-3 -17 -21 -17
h-118l-35 -218h123q78 0 121 39.5t57 121.5z" />
    <glyph glyph-name="dcroat" unicode="&#x111;" horiz-adv-x="491" 
d="M485 624h42q20 0 17 -19l-5 -34q-2 -16 -20 -16h-45l-61 -381q-30 -186 -208 -186q-82 0 -126 39t-44 111q0 20 3 42l22 141q30 186 199 186q84 0 113 -55h2l16 103h-121q-20 0 -17 19l6 34q3 16 20 16h124l9 59q3 17 21 17h44q21 0 18 -20zM332 186l20 124q3 20 3 36
q0 89 -89 89q-54 0 -84 -30.5t-41 -95.5l-19 -124q-3 -21 -3 -38q0 -87 90 -87q54 0 83.5 30.5t39.5 95.5z" />
    <glyph glyph-name="Emacron" unicode="&#x112;" horiz-adv-x="538" 
d="M192 375h261q21 0 18 -20l-7 -42q-3 -17 -21 -17h-263l-35 -217h305q21 0 18 -20l-7 -42q-3 -17 -21 -17h-376q-21 0 -18 20l99 627q3 17 21 17h377q20 0 17 -20l-6 -41q-1 -18 -20 -18h-308zM510 810l-5 -33q-3 -15 -19 -15h-229q-18 0 -15 18l5 32q1 16 18 16h230
q18 0 15 -18z" />
    <glyph glyph-name="emacron" unicode="&#x113;" horiz-adv-x="458" 
d="M266 507q80 0 123 -38.5t43 -110.5q0 -20 -3 -42l-12 -80q-3 -17 -21 -17h-269l-5 -29q-3 -21 -3 -37q0 -48 26 -70.5t80 -22.5q53 0 104 43q15 14 26 -3l18 -27q11 -15 -3 -27q-65 -58 -152 -58q-89 0 -136 38.5t-47 113.5q0 24 4 45l21 136q30 186 206 186zM347 288
l3 22q3 21 3 38q0 87 -89 87q-54 0 -83 -30.5t-40 -95.5l-3 -21h209zM430 647l-5 -33q-3 -15 -19 -15h-229q-18 0 -15 18l5 32q1 16 18 16h230q18 0 15 -18z" />
    <glyph glyph-name="Ebreve" unicode="&#x114;" horiz-adv-x="538" 
d="M192 375h261q21 0 18 -20l-7 -42q-3 -17 -21 -17h-263l-35 -217h305q21 0 18 -20l-7 -42q-3 -17 -21 -17h-376q-21 0 -18 20l99 627q3 17 21 17h377q20 0 17 -20l-6 -41q-1 -18 -20 -18h-308zM475 864h30q17 0 14 -17q-11 -51 -49 -78.5t-93 -27.5q-56 0 -89 29t-34 79
q0 15 15 15h31q12 0 15 -14q8 -45 63 -45q59 0 79 47q6 12 18 12z" />
    <glyph glyph-name="ebreve" unicode="&#x115;" horiz-adv-x="458" 
d="M266 507q80 0 123 -38.5t43 -110.5q0 -20 -3 -42l-12 -80q-3 -17 -21 -17h-269l-5 -29q-3 -21 -3 -37q0 -48 26 -70.5t80 -22.5q53 0 104 43q15 14 26 -3l18 -27q11 -15 -3 -27q-65 -58 -152 -58q-89 0 -136 38.5t-47 113.5q0 24 4 45l21 136q30 186 206 186zM347 288
l3 22q3 21 3 38q0 87 -89 87q-54 0 -83 -30.5t-40 -95.5l-3 -21h209zM395 701h30q17 0 14 -17q-11 -51 -49 -78.5t-93 -27.5q-56 0 -89 29t-34 79q0 15 15 15h31q12 0 15 -14q8 -45 63 -45q59 0 79 47q6 12 18 12z" />
    <glyph glyph-name="Edotaccent" unicode="&#x116;" horiz-adv-x="538" 
d="M192 375h261q21 0 18 -20l-7 -42q-3 -17 -21 -17h-263l-35 -217h305q21 0 18 -20l-7 -42q-3 -17 -21 -17h-376q-21 0 -18 20l99 627q3 17 21 17h377q20 0 17 -20l-6 -41q-1 -18 -20 -18h-308zM374 750q-22 0 -35 13.5t-13 34.5q0 25 16 41t39 16q22 0 35.5 -13.5
t13.5 -33.5q0 -25 -16 -41.5t-40 -16.5z" />
    <glyph glyph-name="edotaccent" unicode="&#x117;" horiz-adv-x="458" 
d="M266 507q80 0 123 -38.5t43 -110.5q0 -20 -3 -42l-12 -80q-3 -17 -21 -17h-269l-5 -29q-3 -21 -3 -37q0 -48 26 -70.5t80 -22.5q53 0 104 43q15 14 26 -3l18 -27q11 -15 -3 -27q-65 -58 -152 -58q-89 0 -136 38.5t-47 113.5q0 24 4 45l21 136q30 186 206 186zM347 288
l3 22q3 21 3 38q0 87 -89 87q-54 0 -83 -30.5t-40 -95.5l-3 -21h209zM294 587q-22 0 -35 13.5t-13 34.5q0 25 16 41t39 16q22 0 35.5 -13.5t13.5 -33.5q0 -25 -16 -41.5t-40 -16.5z" />
    <glyph glyph-name="Eogonek" unicode="&#x118;" horiz-adv-x="538" 
d="M166 664h377q20 0 17 -20l-6 -41q-1 -18 -20 -18h-308l-34 -210h261q21 0 18 -20l-7 -42q-3 -17 -21 -17h-263l-35 -217h305q21 0 18 -20l-7 -42q-3 -17 -21 -17h-10q-47 -15 -71 -38.5t-24 -48.5q0 -13 8.5 -21t22.5 -8q18 0 38 15q13 10 22 -4l11 -18q8 -14 -4 -23
q-34 -26 -79 -26q-36 0 -58 18.5t-22 49.5q0 65 65 102v2h-275q-21 0 -18 20l99 627q3 17 21 17z" />
    <glyph glyph-name="eogonek" unicode="&#x119;" horiz-adv-x="458" 
d="M266 507q80 0 123 -38.5t43 -110.5q0 -20 -3 -42l-12 -80q-3 -17 -21 -17h-269l-5 -29q-3 -21 -3 -37q0 -48 26 -70.5t80 -22.5q53 0 104 43q15 14 26 -3l18 -27q11 -15 -3 -27q-27 -24 -58 -38q-81 -39 -81 -92q0 -14 8.5 -23t21.5 -9q19 0 38 15q13 10 22 -4l11 -18
q8 -14 -4 -23q-34 -26 -75 -26q-37 0 -59.5 20t-22.5 53q0 50 42 85v2q-87 2 -132.5 40.5t-45.5 111.5q0 24 4 45l21 136q30 186 206 186zM347 288l3 22q3 21 3 38q0 87 -89 87q-54 0 -83 -30.5t-40 -95.5l-3 -21h209z" />
    <glyph glyph-name="Ecaron" unicode="&#x11a;" horiz-adv-x="538" 
d="M192 375h261q21 0 18 -20l-7 -42q-3 -17 -21 -17h-263l-35 -217h305q21 0 18 -20l-7 -42q-3 -17 -21 -17h-376q-21 0 -18 20l99 627q3 17 21 17h377q20 0 17 -20l-6 -41q-1 -18 -20 -18h-308zM515 861l-104 -122q-9 -10 -21 -10h-45q-14 0 -20 12l-64 121q-5 8 -1.5 13.5
t13.5 5.5h36q14 0 19 -11l44 -82l73 84q9 9 20 9h41q10 0 13 -6t-4 -14z" />
    <glyph glyph-name="ecaron" unicode="&#x11b;" horiz-adv-x="458" 
d="M266 507q80 0 123 -38.5t43 -110.5q0 -20 -3 -42l-12 -80q-3 -17 -21 -17h-269l-5 -29q-3 -21 -3 -37q0 -48 26 -70.5t80 -22.5q53 0 104 43q15 14 26 -3l18 -27q11 -15 -3 -27q-65 -58 -152 -58q-89 0 -136 38.5t-47 113.5q0 24 4 45l21 136q30 186 206 186zM347 288
l3 22q3 21 3 38q0 87 -89 87q-54 0 -83 -30.5t-40 -95.5l-3 -21h209zM435 698l-104 -122q-9 -10 -21 -10h-45q-14 0 -20 12l-64 121q-5 8 -1.5 13.5t13.5 5.5h36q13 0 19 -11l44 -82l73 84q9 9 20 9h41q10 0 13 -6t-4 -14z" />
    <glyph glyph-name="Gcircumflex" unicode="&#x11c;" horiz-adv-x="569" 
d="M539 337l-18 -109q-40 -240 -261 -240q-101 0 -156.5 49t-55.5 140q0 23 5 55l33 208q38 236 267 236q156 0 205 -120q7 -18 -10 -25l-41 -18q-16 -7 -25 10q-37 74 -135 74q-147 0 -174 -174l-29 -185q-4 -24 -4 -49q0 -122 126 -122q74 0 115.5 43t56.5 132l6 36h-123
q-21 0 -18 20l6 42q3 17 21 17h191q21 0 18 -20zM382 823l-73 -85q-9 -9 -20 -9h-41q-10 0 -13 6t4 14l104 122q9 10 21 10h45q14 0 20 -12l64 -121q4 -8 1 -13.5t-12 -5.5h-37q-13 0 -19 11z" />
    <glyph glyph-name="gcircumflex" unicode="&#x11d;" horiz-adv-x="488" 
d="M280 507q82 0 126.5 -38.5t44.5 -110.5q0 -22 -4 -43l-50 -313q-13 -83 -66.5 -128.5t-139.5 -45.5q-102 0 -161 56q-12 12 -1 27l22 28q12 15 27 2q44 -41 113 -41q107 0 124 112l6 37h-2q-42 -45 -114 -45q-76 0 -116.5 38t-40.5 108q0 25 4 46l20 125q29 186 208 186z
M345 202l18 108q3 21 3 37q0 88 -90 88q-53 0 -82.5 -31t-40.5 -95l-17 -108q-3 -21 -3 -37q0 -88 90 -88q102 0 122 126zM317 660l-73 -85q-9 -9 -20 -9h-41q-10 0 -13 6t4 14l104 122q9 10 21 10h45q14 0 20 -12l64 -121q4 -8 1 -13.5t-12 -5.5h-37q-13 0 -19 11z" />
    <glyph glyph-name="Gbreve" unicode="&#x11e;" horiz-adv-x="569" 
d="M539 337l-18 -109q-40 -240 -261 -240q-101 0 -156.5 49t-55.5 140q0 23 5 55l33 208q38 236 267 236q156 0 205 -120q7 -18 -10 -25l-41 -18q-16 -7 -25 10q-37 74 -135 74q-147 0 -174 -174l-29 -185q-4 -24 -4 -49q0 -122 126 -122q74 0 115.5 43t56.5 132l6 36h-123
q-21 0 -18 20l6 42q3 17 21 17h191q21 0 18 -20zM472 864h30q17 0 14 -17q-11 -51 -49 -78.5t-93 -27.5q-56 0 -89 29t-34 79q0 15 15 15h31q12 0 15 -14q8 -45 63 -45q59 0 79 47q6 12 18 12z" />
    <glyph glyph-name="gbreve" unicode="&#x11f;" horiz-adv-x="488" 
d="M280 507q82 0 126.5 -38.5t44.5 -110.5q0 -22 -4 -43l-50 -313q-13 -83 -66.5 -128.5t-139.5 -45.5q-102 0 -161 56q-12 12 -1 27l22 28q12 15 27 2q44 -41 113 -41q107 0 124 112l6 37h-2q-42 -45 -114 -45q-76 0 -116.5 38t-40.5 108q0 25 4 46l20 125q29 186 208 186z
M345 202l18 108q3 21 3 37q0 88 -90 88q-53 0 -82.5 -31t-40.5 -95l-17 -108q-3 -21 -3 -37q0 -88 90 -88q102 0 122 126zM407 701h30q17 0 14 -17q-11 -51 -49 -78.5t-93 -27.5q-56 0 -89 29t-34 79q0 15 15 15h31q12 0 15 -14q8 -45 63 -45q59 0 79 47q6 12 18 12z" />
    <glyph glyph-name="Gdotaccent" unicode="&#x120;" horiz-adv-x="569" 
d="M539 337l-18 -109q-40 -240 -261 -240q-101 0 -156.5 49t-55.5 140q0 23 5 55l33 208q38 236 267 236q156 0 205 -120q7 -18 -10 -25l-41 -18q-16 -7 -25 10q-37 74 -135 74q-147 0 -174 -174l-29 -185q-4 -24 -4 -49q0 -122 126 -122q74 0 115.5 43t56.5 132l6 36h-123
q-21 0 -18 20l6 42q3 17 21 17h191q21 0 18 -20zM371 750q-22 0 -35 13.5t-13 34.5q0 25 16 41t39 16q22 0 35.5 -13.5t13.5 -33.5q0 -25 -16 -41.5t-40 -16.5z" />
    <glyph glyph-name="gdotaccent" unicode="&#x121;" horiz-adv-x="488" 
d="M280 507q82 0 126.5 -38.5t44.5 -110.5q0 -22 -4 -43l-50 -313q-13 -83 -66.5 -128.5t-139.5 -45.5q-102 0 -161 56q-12 12 -1 27l22 28q12 15 27 2q44 -41 113 -41q107 0 124 112l6 37h-2q-42 -45 -114 -45q-76 0 -116.5 38t-40.5 108q0 25 4 46l20 125q29 186 208 186z
M345 202l18 108q3 21 3 37q0 88 -90 88q-53 0 -82.5 -31t-40.5 -95l-17 -108q-3 -21 -3 -37q0 -88 90 -88q102 0 122 126zM306 587q-22 0 -35 13.5t-13 34.5q0 25 16 41t39 16q22 0 35.5 -13.5t13.5 -33.5q0 -25 -16 -41.5t-40 -16.5z" />
    <glyph glyph-name="uni0122" unicode="&#x122;" horiz-adv-x="569" 
d="M539 337l-18 -109q-40 -240 -261 -240q-101 0 -156.5 49t-55.5 140q0 23 5 55l33 208q38 236 267 236q156 0 205 -120q7 -18 -10 -25l-41 -18q-16 -7 -25 10q-37 74 -135 74q-147 0 -174 -174l-29 -185q-4 -24 -4 -49q0 -122 126 -122q74 0 115.5 43t56.5 132l6 36h-123
q-21 0 -18 20l6 42q3 17 21 17h191q21 0 18 -20zM239 -48q21 0 33 -13t12 -36q0 -31 -21.5 -61.5t-52.5 -43.5q-11 -5 -16 6l-6 14q-4 10 6 16q15 9 25 27q-33 7 -33 42q0 22 15 35.5t38 13.5z" />
    <glyph glyph-name="uni0123" unicode="&#x123;" horiz-adv-x="488" 
d="M325 671q33 -7 33 -41q0 -23 -15 -36.5t-38 -13.5q-20 0 -32.5 13t-12.5 35q0 33 19 64t56 44q10 3 15 -6l9 -16q4 -9 -6 -15q-19 -10 -28 -28zM280 507q82 0 126.5 -38.5t44.5 -110.5q0 -22 -4 -43l-50 -313q-13 -83 -66.5 -128.5t-139.5 -45.5q-102 0 -161 56
q-12 12 -1 27l22 28q12 15 27 2q44 -41 113 -41q107 0 124 112l6 37h-2q-42 -45 -114 -45q-76 0 -116.5 38t-40.5 108q0 25 4 46l20 125q29 186 208 186zM345 202l18 108q3 21 3 37q0 88 -90 88q-53 0 -82.5 -31t-40.5 -95l-17 -108q-3 -21 -3 -37q0 -88 90 -88
q102 0 122 126z" />
    <glyph glyph-name="Hcircumflex" unicode="&#x124;" horiz-adv-x="623" 
d="M609 644l-99 -627q-3 -17 -21 -17h-51q-21 0 -18 20l44 277h-284l-44 -280q-3 -17 -21 -17h-51q-21 0 -18 20l99 627q3 17 21 17h51q21 0 18 -20l-43 -268h284l43 271q3 17 21 17h51q21 0 18 -20zM409 823l-73 -85q-9 -9 -20 -9h-41q-10 0 -13 6t4 14l104 122q9 10 21 10
h45q14 0 20 -12l64 -121q4 -8 1 -13.5t-12 -5.5h-37q-13 0 -19 11z" />
    <glyph glyph-name="hcircumflex" unicode="&#x125;" horiz-adv-x="499" 
d="M305 507q73 0 111.5 -37t38.5 -106q0 -24 -4 -45l-48 -302q-3 -17 -21 -17h-44q-21 0 -18 20l47 294q3 21 3 37q0 84 -87 84q-99 0 -119 -122l-47 -296q-3 -17 -21 -17h-44q-21 0 -18 20l105 663q3 17 21 17h44q21 0 18 -20l-35 -218h2q42 45 116 45zM211 854l-73 -85
q-9 -9 -20 -9h-41q-10 0 -13 6t4 14l104 122q9 10 21 10h45q14 0 20 -12l64 -121q4 -8 1 -13.5t-12 -5.5h-37q-13 0 -19 11z" />
    <glyph glyph-name="Hbar" unicode="&#x126;" horiz-adv-x="634" 
d="M598 540h45q19 0 16 -18l-6 -35q-3 -16 -18 -16h-48l-72 -454q-3 -17 -21 -17h-51q-21 0 -18 20l44 277h-284l-44 -280q-3 -17 -21 -17h-51q-21 0 -18 20l71 451h-44q-19 0 -16 18l6 35q3 16 18 16h47l17 107q3 17 21 17h51q21 0 18 -20l-17 -104h284l17 107q3 17 21 17
h51q21 0 18 -20zM197 376h284l15 95h-284z" />
    <glyph glyph-name="hbar" unicode="&#x127;" horiz-adv-x="502" 
d="M308 507q73 0 111.5 -37t38.5 -106q0 -24 -4 -45l-48 -302q-3 -17 -21 -17h-44q-21 0 -18 20l47 294q3 21 3 37q0 84 -87 84q-99 0 -119 -122l-47 -296q-3 -17 -21 -17h-44q-21 0 -18 20l85 535h-47q-20 0 -17 19l6 34q3 16 20 16h49l9 59q3 17 21 17h44q21 0 18 -20
l-9 -56h110q20 0 17 -19l-6 -34q-3 -16 -20 -16h-112l-15 -93h2q42 45 116 45z" />
    <glyph glyph-name="Itilde" unicode="&#x128;" horiz-adv-x="249" 
d="M99 739h-24q-18 0 -13 18q27 102 101 102q31 0 66 -31q25 -22 39 -22q28 0 42 41q4 13 17 13h25q18 0 13 -18q-29 -102 -101 -102q-33 0 -67 31q-25 22 -39 22q-28 0 -42 -41q-4 -13 -17 -13zM115 0h-51q-21 0 -18 20l99 627q3 17 21 17h51q21 0 18 -20l-99 -627
q-3 -17 -21 -17z" />
    <glyph glyph-name="itilde" unicode="&#x129;" horiz-adv-x="217" 
d="M60 576h-24q-18 0 -13 18q27 102 101 102q31 0 66 -31q25 -22 39 -22q28 0 42 41q4 13 17 13h25q18 0 13 -18q-29 -102 -101 -102q-33 0 -67 31q-25 22 -39 22q-28 0 -42 -41q-4 -13 -17 -13zM129 495h44q21 0 18 -20l-73 -458q-3 -17 -21 -17h-44q-21 0 -18 20l73 458
q3 17 21 17z" />
    <glyph glyph-name="Imacron" unicode="&#x12a;" horiz-adv-x="249" 
d="M115 0h-51q-21 0 -18 20l99 627q3 17 21 17h51q21 0 18 -20l-99 -627q-3 -17 -21 -17zM346 810l-5 -33q-3 -15 -19 -15h-229q-18 0 -15 18l5 32q1 16 18 16h230q18 0 15 -18z" />
    <glyph glyph-name="imacron" unicode="&#x12b;" horiz-adv-x="217" 
d="M127 495h44q21 0 18 -20l-73 -458q-3 -17 -21 -17h-44q-21 0 -18 20l73 458q3 17 21 17zM305 647l-5 -33q-3 -15 -19 -15h-229q-18 0 -15 18l5 32q1 16 18 16h230q18 0 15 -18z" />
    <glyph glyph-name="Ibreve" unicode="&#x12c;" horiz-adv-x="249" 
d="M115 0h-51q-21 0 -18 20l99 627q3 17 21 17h51q21 0 18 -20l-99 -627q-3 -17 -21 -17zM311 864h30q17 0 14 -17q-11 -51 -49 -78.5t-93 -27.5q-56 0 -89 29t-34 79q0 15 15 15h31q12 0 15 -14q8 -45 63 -45q59 0 79 47q6 12 18 12z" />
    <glyph glyph-name="ibreve" unicode="&#x12d;" horiz-adv-x="217" 
d="M127 495h44q21 0 18 -20l-73 -458q-3 -17 -21 -17h-44q-21 0 -18 20l73 458q3 17 21 17zM270 701h30q17 0 14 -17q-11 -51 -49 -78.5t-93 -27.5q-56 0 -89 29t-34 79q0 15 15 15h31q12 0 15 -14q8 -45 63 -45q59 0 79 47q6 12 18 12z" />
    <glyph glyph-name="Iogonek" unicode="&#x12e;" horiz-adv-x="248" 
d="M111 0q-78 -34 -78 -84q0 -14 8.5 -23t22.5 -9q17 0 36 14q14 11 23 -3l12 -18q8 -14 -4 -23q-34 -26 -78 -26q-37 0 -59.5 19.5t-22.5 50.5q0 67 74 108v2q-4 5 -2 12l99 627q3 17 21 17h51q21 0 18 -20l-99 -627q-3 -17 -22 -17z" />
    <glyph glyph-name="iogonek" unicode="&#x12f;" horiz-adv-x="217" 
d="M124 495h44q21 0 18 -20l-73 -458q-3 -12 -15 -17q-75 -31 -75 -84q0 -14 8.5 -23t21.5 -9q19 0 38 15q13 10 22 -4l11 -18q8 -14 -4 -23q-34 -26 -78 -26q-36 0 -58.5 19.5t-22.5 50.5q0 69 71 108v2q-4 5 -2 12l73 458q3 17 21 17zM166 587q-21 0 -34.5 13.5
t-13.5 33.5q0 26 15.5 42t40.5 16q22 0 35.5 -13.5t13.5 -34.5q0 -25 -16.5 -41t-40.5 -16z" />
    <glyph glyph-name="Idotaccent" unicode="&#x130;" horiz-adv-x="249" 
d="M115 0h-51q-21 0 -18 20l99 627q3 17 21 17h51q21 0 18 -20l-99 -627q-3 -17 -21 -17zM210 750q-22 0 -35 13.5t-13 34.5q0 25 16 41t39 16q22 0 35.5 -13.5t13.5 -33.5q0 -25 -16 -41.5t-40 -16.5z" />
    <glyph glyph-name="dotlessi" unicode="&#x131;" horiz-adv-x="217" 
d="M127 495h44q21 0 18 -20l-73 -458q-3 -17 -21 -17h-44q-21 0 -18 20l73 458q3 17 21 17z" />
    <glyph glyph-name="IJ" unicode="&#x132;" horiz-adv-x="763" 
d="M760 644l-67 -427q-36 -229 -246 -229q-144 0 -198 108q-7 16 7 25l38 24q16 10 26 -7q40 -71 128 -71q132 0 157 163l66 417q3 17 21 17h50q21 0 18 -20zM115 0h-51q-21 0 -18 20l99 627q3 17 21 17h51q21 0 18 -20l-99 -627q-3 -17 -21 -17z" />
    <glyph glyph-name="ij" unicode="&#x133;" horiz-adv-x="434" 
d="M386 587q-21 0 -34.5 13.5t-13.5 33.5q0 26 15.5 42t40.5 16q22 0 35.5 -13.5t13.5 -34.5q0 -25 -16.5 -41t-40.5 -16zM164 -88q69 0 81 75l78 491q3 17 21 17h44q21 0 18 -20l-78 -491q-24 -144 -159 -144h-13q-21 0 -18 20l5 35q3 17 21 17zM169 587q-21 0 -34.5 13.5
t-13.5 33.5q0 26 15.5 42t40.5 16q22 0 35.5 -13.5t13.5 -34.5q0 -25 -16.5 -41t-40.5 -16zM95 0h-44q-21 0 -18 20l73 458q3 17 21 17h44q21 0 18 -20l-73 -458q-3 -17 -21 -17z" />
    <glyph glyph-name="Jcircumflex" unicode="&#x134;" horiz-adv-x="520" 
d="M509 823l-73 -85q-9 -9 -20 -9h-41q-10 0 -13 6t4 14l104 122q9 10 21 10h45q14 0 20 -12l64 -121q4 -8 1 -13.5t-12 -5.5h-37q-13 0 -19 11zM521 644l-67 -427q-36 -229 -246 -229q-144 0 -198 108q-7 16 7 25l38 24q16 10 26 -7q40 -71 128 -71q132 0 157 163l66 417
q3 17 21 17h50q21 0 18 -20z" />
    <glyph glyph-name="jcircumflex" unicode="&#x135;" horiz-adv-x="217" 
d="M180 660l-73 -85q-9 -9 -20 -9h-41q-10 0 -13 6t4 14l104 122q9 10 21 10h45q14 0 20 -12l64 -121q4 -8 1 -13.5t-12 -5.5h-37q-13 0 -19 11zM-53 -88q69 0 81 75l78 491q3 17 21 17h44q21 0 18 -20l-78 -491q-24 -144 -159 -144h-13q-21 0 -18 20l5 35q3 17 21 17z" />
    <glyph glyph-name="uni0136" unicode="&#x136;" horiz-adv-x="561" 
d="M479 0h-65q-15 0 -23 12l-209 301l-46 -296q-3 -17 -21 -17h-51q-21 0 -18 20l99 627q3 17 21 17h51q21 0 18 -20l-43 -272h2l282 282q10 10 24 10h70q13 0 15.5 -7t-6.5 -16l-312 -305l223 -312q7 -10 3.5 -17t-14.5 -7zM246 -48q21 0 33 -13t12 -36q0 -31 -21.5 -61.5
t-52.5 -43.5q-11 -5 -16 6l-6 14q-4 10 6 16q15 9 25 27q-33 7 -33 42q0 22 15 35.5t38 13.5z" />
    <glyph glyph-name="uni0137" unicode="&#x137;" horiz-adv-x="450" 
d="M387 495h59q13 0 15.5 -7t-6.5 -16l-225 -220l163 -229q7 -10 3.5 -16.5t-15.5 -6.5h-54q-14 0 -23 12l-153 221l-34 -216q-3 -17 -21 -17h-44q-21 0 -18 20l105 663q3 17 21 17h44q21 0 18 -20l-63 -396h2l202 201q10 10 24 10zM197 -48q21 0 33 -13t12 -36
q0 -31 -21.5 -61.5t-52.5 -43.5q-11 -5 -16 6l-6 14q-4 10 6 16q15 9 25 27q-33 7 -33 42q0 22 15 35.5t38 13.5z" />
    <glyph glyph-name="kgreenlandic" unicode="&#x138;" horiz-adv-x="450" 
d="M387 495h59q13 0 15.5 -7t-6.5 -16l-225 -220l163 -229q7 -10 3.5 -16.5t-15.5 -6.5h-54q-16 0 -23 12l-153 221l-34 -216q-3 -17 -21 -17h-44q-21 0 -18 20l72 458q3 17 21 17h44q21 0 18 -20l-30 -191h2l202 201q10 10 24 10z" />
    <glyph glyph-name="Lacute" unicode="&#x139;" horiz-adv-x="499" 
d="M425 0h-361q-21 0 -18 20l99 627q3 17 21 17h51q21 0 18 -20l-90 -565h290q21 0 18 -20l-7 -42q-3 -17 -21 -17zM346 860l-105 -122q-9 -9 -20 -9h-45q-10 0 -13 6t3 14l96 122q9 10 21 10h53q11 0 14 -6.5t-4 -14.5z" />
    <glyph glyph-name="lacute" unicode="&#x13a;" horiz-adv-x="218" 
d="M336 891l-105 -122q-9 -9 -20 -9h-45q-10 0 -13 6t3 14l96 122q9 10 21 10h53q11 0 14 -6.5t-4 -14.5zM96 0h-44q-21 0 -18 20l105 663q3 17 21 17h44q21 0 18 -20l-105 -663q-3 -17 -21 -17z" />
    <glyph glyph-name="uni013B" unicode="&#x13b;" horiz-adv-x="499" 
d="M425 0h-361q-21 0 -18 20l99 627q3 17 21 17h51q21 0 18 -20l-90 -565h290q21 0 18 -20l-7 -42q-3 -17 -21 -17zM230 -48q21 0 33 -13t12 -36q0 -31 -21.5 -61.5t-52.5 -43.5q-11 -5 -16 6l-6 14q-4 10 6 16q15 9 25 27q-33 7 -33 42q0 22 15 35.5t38 13.5z" />
    <glyph glyph-name="uni013C" unicode="&#x13c;" horiz-adv-x="218" 
d="M95 0h-44q-21 0 -18 20l105 663q3 17 21 17h44q21 0 18 -20l-105 -663q-3 -17 -21 -17zM59 -48q21 0 33 -13t12 -36q0 -31 -21.5 -61.5t-52.5 -43.5q-11 -5 -16 6l-6 14q-4 10 6 16q15 9 25 27q-33 7 -33 42q0 22 15 35.5t38 13.5z" />
    <glyph glyph-name="Lcaron" unicode="&#x13d;" horiz-adv-x="499" 
d="M425 0h-361q-21 0 -18 20l99 627q3 17 21 17h51q21 0 18 -20l-90 -565h290q21 0 18 -20l-7 -42q-3 -17 -21 -17zM409 681l-55 -163q-4 -13 -18 -13h-28q-18 0 -13 18l42 162q5 15 19 15h39q19 0 14 -19z" />
    <glyph glyph-name="lcaron" unicode="&#x13e;" horiz-adv-x="218" 
d="M96 0h-44q-21 0 -18 20l105 663q3 17 21 17h44q21 0 18 -20l-105 -663q-3 -17 -21 -17zM357 681l-55 -163q-4 -13 -18 -13h-28q-18 0 -13 18l42 162q4 15 19 15h39q19 0 14 -19z" />
    <glyph glyph-name="Ldot" unicode="&#x13f;" horiz-adv-x="499" 
d="M425 0h-361q-21 0 -18 20l99 627q3 17 21 17h51q21 0 18 -20l-90 -565h290q21 0 18 -20l-7 -42q-3 -17 -21 -17zM385 280q-22 0 -35 13.5t-13 34.5q0 25 16 41t39 16q22 0 35.5 -13.5t13.5 -33.5q0 -25 -16 -41.5t-40 -16.5z" />
    <glyph glyph-name="ldot" unicode="&#x140;" horiz-adv-x="272" 
d="M96 0h-44q-21 0 -18 20l105 663q3 17 21 17h44q21 0 18 -20l-105 -663q-3 -17 -21 -17zM256 280q-22 0 -35 13.5t-13 34.5q0 25 16 41t39 16q22 0 35.5 -13.5t13.5 -33.5q0 -25 -16 -41.5t-40 -16.5z" />
    <glyph glyph-name="Lslash" unicode="&#x141;" horiz-adv-x="510" 
d="M155 79h290q21 0 18 -20l-7 -42q-3 -17 -21 -17h-361q-21 0 -18 20l26 162l-49 -29q-10 -6 -15.5 -2t-3.5 15l7 55q1 13 13 20l63 38l58 368q3 17 21 17h51q21 0 18 -20l-49 -305l212 128q9 6 14.5 2t4.5 -15l-8 -55q-1 -13 -13 -20l-225 -136z" />
    <glyph glyph-name="lslash" unicode="&#x142;" horiz-adv-x="235" 
d="M192 444l53 35q10 6 16 2t4 -16l-7 -45q-1 -13 -13 -20l-67 -45l-54 -338q-3 -17 -21 -17h-44q-21 0 -18 20l43 274l-54 -36q-10 -6 -16 -2t-5 15l7 46q1 13 13 20l69 46l48 300q3 17 21 17h44q21 0 18 -20z" />
    <glyph glyph-name="Nacute" unicode="&#x143;" horiz-adv-x="623" 
d="M489 0h-56q-16 0 -22 15l-196 505h-2l-79 -503q-3 -17 -21 -17h-49q-21 0 -18 20l99 627q3 17 21 17h64q16 0 22 -15l190 -492h2l77 490q3 17 21 17h49q21 0 18 -20l-99 -627q-3 -17 -21 -17zM534 860l-105 -122q-9 -9 -20 -9h-45q-10 0 -13 6t3 14l96 122q9 10 21 10h53
q11 0 14 -6.5t-4 -14.5z" />
    <glyph glyph-name="nacute" unicode="&#x144;" horiz-adv-x="494" 
d="M315 20l47 293q3 19 3 37q0 85 -87 85q-52 0 -81 -30t-39 -93l-46 -295q-3 -17 -21 -17h-44q-21 0 -18 20l48 305q29 182 205 182q80 0 123.5 -38t43.5 -109q0 -20 -3 -41l-48 -302q-3 -17 -21 -17h-44q-21 0 -18 20zM444 697l-105 -122q-9 -9 -20 -9h-45q-10 0 -13 6
t3 14l96 122q9 10 21 10h53q11 0 14 -6.5t-4 -14.5z" />
    <glyph glyph-name="uni0145" unicode="&#x145;" horiz-adv-x="623" 
d="M489 0h-56q-16 0 -22 15l-196 505h-2l-79 -503q-3 -17 -21 -17h-49q-21 0 -18 20l99 627q3 17 21 17h64q16 0 22 -15l190 -492h2l77 490q3 17 21 17h49q21 0 18 -20l-99 -627q-3 -17 -21 -17zM263 -48q21 0 33 -13t12 -36q0 -31 -21.5 -61.5t-52.5 -43.5q-11 -5 -16 6
l-6 14q-4 10 6 16q15 9 25 27q-33 7 -33 42q0 22 15 35.5t38 13.5z" />
    <glyph glyph-name="uni0146" unicode="&#x146;" horiz-adv-x="494" 
d="M315 20l47 293q3 19 3 37q0 85 -87 85q-52 0 -81 -30t-39 -93l-46 -295q-3 -17 -21 -17h-44q-21 0 -18 20l48 305q29 182 205 182q80 0 123.5 -38t43.5 -109q0 -20 -3 -41l-48 -302q-3 -17 -21 -17h-44q-21 0 -18 20zM199 -48q21 0 33 -13t12 -36q0 -31 -21.5 -61.5
t-52.5 -43.5q-11 -5 -16 6l-6 14q-4 10 6 16q15 9 25 27q-33 7 -33 42q0 22 15 35.5t38 13.5z" />
    <glyph glyph-name="Ncaron" unicode="&#x147;" horiz-adv-x="623" 
d="M489 0h-56q-16 0 -22 15l-196 505h-2l-79 -503q-3 -17 -21 -17h-49q-21 0 -18 20l99 627q3 17 21 17h64q16 0 22 -15l190 -492h2l77 490q3 17 21 17h49q21 0 18 -20l-99 -627q-3 -17 -21 -17zM539 861l-104 -122q-9 -10 -21 -10h-45q-14 0 -20 12l-64 121q-5 8 -1.5 13.5
t13.5 5.5h36q14 0 19 -11l44 -82l73 84q9 9 20 9h41q10 0 13 -6t-4 -14z" />
    <glyph glyph-name="ncaron" unicode="&#x148;" horiz-adv-x="494" 
d="M315 20l47 293q3 19 3 37q0 85 -87 85q-52 0 -81 -30t-39 -93l-46 -295q-3 -17 -21 -17h-44q-21 0 -18 20l48 305q29 182 205 182q80 0 123.5 -38t43.5 -109q0 -20 -3 -41l-48 -302q-3 -17 -21 -17h-44q-21 0 -18 20zM449 698l-104 -122q-9 -10 -21 -10h-45q-14 0 -20 12
l-64 121q-5 8 -1.5 13.5t13.5 5.5h36q14 0 19 -11l44 -82l73 84q9 9 20 9h41q10 0 13 -6t-4 -14z" />
    <glyph glyph-name="napostrophe" unicode="&#x149;" horiz-adv-x="494" 
d="M315 20l47 293q3 19 3 37q0 85 -87 85q-52 0 -81 -30t-39 -93l-46 -295q-3 -17 -21 -17h-44q-21 0 -18 20l48 305q29 182 205 182q80 0 123.5 -38t43.5 -109q0 -20 -3 -41l-48 -302q-3 -17 -21 -17h-44q-21 0 -18 20zM184 721q21 0 33.5 -13.5t12.5 -36.5
q0 -37 -23.5 -76.5t-64.5 -69.5q-9 -8 -17 2l-12 16q-8 10 2 16q36 31 46 68q-31 10 -31 41q0 25 15 39t39 14z" />
    <glyph glyph-name="Eng" unicode="&#x14a;" horiz-adv-x="623" 
d="M542 664h49q21 0 18 -20l-104 -660q-22 -144 -158 -144h-31q-21 0 -18 20l6 39q3 17 21 17h12q68 0 80 71l1 10l-203 523h-2l-79 -503q-3 -17 -21 -17h-49q-21 0 -18 20l99 627q3 17 21 17h64q16 0 22 -15l190 -492h2l77 490q3 17 21 17z" />
    <glyph glyph-name="eng" unicode="&#x14b;" horiz-adv-x="494" 
d="M310 -13l52 326q3 19 3 37q0 85 -87 85q-52 0 -81 -30t-39 -93l-46 -295q-3 -17 -21 -17h-44q-21 0 -18 20l48 305q29 182 205 182q80 0 123.5 -38t43.5 -109q0 -20 -3 -41l-53 -335q-24 -144 -159 -144h-13q-21 0 -18 20l5 35q3 17 21 17q69 0 81 75z" />
    <glyph glyph-name="Omacron" unicode="&#x14c;" horiz-adv-x="588" 
d="M53 231l33 208q38 237 264 237q103 0 159.5 -49t56.5 -140q0 -22 -5 -54l-33 -208q-38 -237 -264 -237q-104 0 -159.5 49.5t-55.5 141.5q0 28 4 52zM173 424l-29 -187q-4 -23 -4 -48q0 -122 128 -122q75 0 116.5 41.5t55.5 129.5l30 189q4 24 4 50q0 120 -127 120
q-75 0 -117.5 -42.5t-56.5 -130.5zM513 810l-5 -33q-3 -15 -19 -15h-229q-18 0 -15 18l5 32q1 16 18 16h230q18 0 15 -18z" />
    <glyph glyph-name="omacron" unicode="&#x14d;" horiz-adv-x="475" 
d="M269 507q82 0 126 -39t44 -111q0 -19 -3 -41l-22 -143q-29 -185 -209 -185q-82 0 -126.5 39t-44.5 111q0 20 3 41l23 142q30 186 209 186zM209 60q54 0 83.5 30.5t39.5 95.5l20 124q3 21 3 38q0 87 -90 87q-53 0 -82.5 -30.5t-40.5 -95.5l-20 -124q-3 -21 -3 -38
q0 -87 90 -87zM431 647l-5 -33q-3 -15 -19 -15h-229q-18 0 -15 18l5 32q1 16 18 16h230q18 0 15 -18z" />
    <glyph glyph-name="Obreve" unicode="&#x14e;" horiz-adv-x="588" 
d="M53 231l33 208q38 237 264 237q103 0 159.5 -49t56.5 -140q0 -22 -5 -54l-33 -208q-38 -237 -264 -237q-104 0 -159.5 49.5t-55.5 141.5q0 28 4 52zM173 424l-29 -187q-4 -23 -4 -48q0 -122 128 -122q75 0 116.5 41.5t55.5 129.5l30 189q4 24 4 50q0 120 -127 120
q-75 0 -117.5 -42.5t-56.5 -130.5zM478 864h30q17 0 14 -17q-11 -51 -49 -78.5t-93 -27.5q-56 0 -89 29t-34 79q0 15 15 15h31q12 0 15 -14q8 -45 63 -45q59 0 79 47q6 12 18 12z" />
    <glyph glyph-name="obreve" unicode="&#x14f;" horiz-adv-x="475" 
d="M269 507q82 0 126 -39t44 -111q0 -19 -3 -41l-22 -143q-29 -185 -209 -185q-82 0 -126.5 39t-44.5 111q0 20 3 41l23 142q30 186 209 186zM209 60q54 0 83.5 30.5t39.5 95.5l20 124q3 21 3 38q0 87 -90 87q-53 0 -82.5 -30.5t-40.5 -95.5l-20 -124q-3 -21 -3 -38
q0 -87 90 -87zM396 701h30q17 0 14 -17q-11 -51 -49 -78.5t-93 -27.5q-56 0 -89 29t-34 79q0 15 15 15h31q12 0 15 -14q8 -45 63 -45q59 0 79 47q6 12 18 12z" />
    <glyph glyph-name="Ohungarumlaut" unicode="&#x150;" horiz-adv-x="588" 
d="M53 231l33 208q38 237 264 237q103 0 159.5 -49t56.5 -140q0 -22 -5 -54l-33 -208q-38 -237 -264 -237q-104 0 -159.5 49.5t-55.5 141.5q0 28 4 52zM173 424l-29 -187q-4 -23 -4 -48q0 -122 128 -122q75 0 116.5 41.5t55.5 129.5l30 189q4 24 4 50q0 120 -127 120
q-75 0 -117.5 -42.5t-56.5 -130.5zM425 860l-99 -122q-6 -9 -20 -9h-36q-10 0 -13 5.5t3 13.5l90 123q7 10 21 10h44q11 0 14 -6.5t-4 -14.5zM576 860l-99 -122q-6 -9 -20 -9h-35q-10 0 -13 5.5t3 13.5l89 123q7 10 21 10h44q11 0 14 -6.5t-4 -14.5z" />
    <glyph glyph-name="ohungarumlaut" unicode="&#x151;" horiz-adv-x="475" 
d="M269 507q82 0 126 -39t44 -111q0 -19 -3 -41l-22 -143q-29 -185 -209 -185q-82 0 -126.5 39t-44.5 111q0 20 3 41l23 142q30 186 209 186zM209 60q54 0 83.5 30.5t39.5 95.5l20 124q3 21 3 38q0 87 -90 87q-53 0 -82.5 -30.5t-40.5 -95.5l-20 -124q-3 -21 -3 -38
q0 -87 90 -87zM343 697l-99 -122q-6 -9 -20 -9h-36q-10 0 -13 6t3 13l90 123q7 10 21 10h44q11 0 14 -6.5t-4 -14.5zM494 697l-99 -122q-6 -9 -20 -9h-35q-10 0 -13 6t3 13l89 123q7 10 21 10h44q11 0 14 -6.5t-4 -14.5z" />
    <glyph glyph-name="OE" unicode="&#x152;" horiz-adv-x="882" 
d="M531 375h262q21 0 18 -20l-6 -42q-3 -17 -21 -17h-265l-35 -217h306q21 0 18 -20l-6 -42q-3 -17 -21 -17h-522q-103 0 -157 45.5t-54 133.5q0 22 5 54l33 207q18 114 84 169t185 55h528q21 0 18 -20l-6 -42q-3 -17 -21 -17h-309zM475 585h-123q-154 0 -179 -161l-29 -185
q-4 -21 -4 -45q0 -115 130 -115h124z" />
    <glyph glyph-name="oe" unicode="&#x153;" horiz-adv-x="753" 
d="M570 507q74 0 115.5 -39.5t41.5 -109.5q0 -20 -3 -42l-13 -80q-3 -17 -21 -17h-269l-5 -29q-3 -21 -3 -38q0 -49 25.5 -70.5t80.5 -21.5q54 0 102 42q15 14 27 -3l19 -27q11 -14 -3 -26q-64 -58 -147 -58q-123 0 -155 85h-2q-48 -85 -162 -85q-79 0 -121.5 38.5
t-42.5 110.5q0 19 3 42l23 142q30 186 202 186q117 0 146 -82h2q48 82 160 82zM332 186l20 124q3 21 3 38q0 87 -90 87q-53 0 -82.5 -30.5t-40.5 -95.5l-20 -124q-3 -21 -3 -38q0 -87 90 -87q54 0 83 30.5t40 95.5zM641 288l3 22q3 21 3 38q0 87 -89 87q-53 0 -82.5 -30.5
t-40.5 -95.5l-3 -21h209z" />
    <glyph glyph-name="Racute" unicode="&#x154;" horiz-adv-x="568" 
d="M376 269l111 -247q4 -10 0.5 -16t-14.5 -6h-60q-16 0 -22 15l-104 247h-113l-38 -245q-3 -17 -21 -17h-51q-21 0 -18 20l99 627q3 17 21 17h179q208 0 208 -172q0 -192 -177 -223zM461 485q0 100 -125 100h-110l-39 -244h108q86 0 126 35t40 109zM500 860l-105 -122
q-9 -9 -20 -9h-45q-10 0 -13 6t3 14l96 122q9 10 21 10h53q11 0 14 -6.5t-4 -14.5z" />
    <glyph glyph-name="racute" unicode="&#x155;" horiz-adv-x="364" 
d="M29 20l49 309q29 178 186 178q64 0 112 -32q14 -10 3 -26l-20 -29q-10 -15 -26 -4q-28 19 -67 19q-46 0 -71.5 -27.5t-34.5 -84.5l-48 -306q-3 -17 -21 -17h-44q-21 0 -18 20zM405 697l-105 -122q-9 -9 -20 -9h-45q-10 0 -13 6t3 14l96 122q9 10 21 10h53q11 0 14 -6.5
t-4 -14.5z" />
    <glyph glyph-name="uni0156" unicode="&#x156;" horiz-adv-x="568" 
d="M376 269l111 -247q4 -10 0.5 -16t-14.5 -6h-60q-16 0 -22 15l-104 247h-113l-38 -245q-3 -17 -21 -17h-51q-21 0 -18 20l99 627q3 17 21 17h179q208 0 208 -172q0 -192 -177 -223zM461 485q0 100 -125 100h-110l-39 -244h108q86 0 126 35t40 109zM249 -48q21 0 33 -13
t12 -36q0 -31 -21.5 -61.5t-52.5 -43.5q-11 -5 -16 6l-6 14q-4 10 6 16q15 9 25 27q-33 7 -33 42q0 22 15 35.5t38 13.5z" />
    <glyph glyph-name="uni0157" unicode="&#x157;" horiz-adv-x="364" 
d="M28 20l49 309q29 178 186 178q64 0 112 -32q14 -10 3 -26l-20 -29q-10 -15 -26 -4q-28 19 -67 19q-46 0 -71.5 -27.5t-34.5 -84.5l-48 -306q-3 -17 -21 -17h-44q-21 0 -18 20zM54 -48q21 0 33 -13t12 -36q0 -31 -21.5 -61.5t-52.5 -43.5q-11 -5 -16 6l-6 14q-4 10 6 16
q15 9 25 27q-33 7 -33 42q0 22 15 35.5t38 13.5z" />
    <glyph glyph-name="Rcaron" unicode="&#x158;" horiz-adv-x="568" 
d="M376 269l111 -247q4 -10 0.5 -16t-14.5 -6h-60q-16 0 -22 15l-104 247h-113l-38 -245q-3 -17 -21 -17h-51q-21 0 -18 20l99 627q3 17 21 17h179q208 0 208 -172q0 -192 -177 -223zM461 485q0 100 -125 100h-110l-39 -244h108q86 0 126 35t40 109zM505 861l-104 -122
q-9 -10 -21 -10h-45q-14 0 -20 12l-64 121q-5 8 -1.5 13.5t13.5 5.5h36q14 0 19 -11l44 -82l73 84q9 9 20 9h41q10 0 13 -6t-4 -14z" />
    <glyph glyph-name="rcaron" unicode="&#x159;" horiz-adv-x="364" 
d="M29 20l49 309q29 178 186 178q64 0 112 -32q14 -10 3 -26l-20 -29q-10 -15 -26 -4q-28 19 -67 19q-46 0 -71.5 -27.5t-34.5 -84.5l-48 -306q-3 -17 -21 -17h-44q-21 0 -18 20zM410 698l-104 -122q-9 -10 -21 -10h-45q-14 0 -20 12l-64 121q-5 8 -1.5 13.5t13.5 5.5h36
q13 0 19 -11l44 -82l73 84q9 9 20 9h41q10 0 13 -6t-4 -14z" />
    <glyph glyph-name="Sacute" unicode="&#x15a;" horiz-adv-x="512" 
d="M331 676q133 0 191 -82q10 -15 -4 -26l-37 -29q-15 -12 -27 5q-40 53 -127 53q-68 0 -109 -35t-41 -93q0 -40 29 -62t103 -36q98 -19 138 -56.5t40 -106.5q0 -101 -66 -160.5t-178 -59.5q-152 0 -219 97q-9 15 5 26l36 29q15 12 27 -4q51 -69 156 -69q68 0 108.5 34.5
t40.5 93.5q0 39 -29 60.5t-102 35.5q-98 19 -138.5 57t-40.5 108q0 101 66 160.5t178 59.5zM486 860l-105 -122q-9 -9 -20 -9h-45q-10 0 -13 6t3 14l96 122q9 10 21 10h53q11 0 14 -6.5t-4 -14.5z" />
    <glyph glyph-name="sacute" unicode="&#x15b;" horiz-adv-x="413" 
d="M191 -12q-113 0 -170 58q-13 13 0 26l24 28q12 15 26 1q44 -41 120 -41q52 0 81.5 23t29.5 63q0 29 -21.5 44.5t-78.5 25.5q-75 13 -106 41t-31 82q0 78 54 123t147 45q87 0 139 -43q14 -11 2 -26l-23 -29q-11 -14 -26 -2q-36 28 -93 28q-55 0 -86 -22.5t-31 -62.5
q0 -27 21.5 -41.5t74.5 -22.5q78 -12 110 -41.5t32 -86.5q0 -79 -52 -124.5t-143 -45.5zM414 697l-105 -122q-9 -9 -20 -9h-45q-10 0 -13 6t3 14l96 122q9 10 21 10h53q11 0 14 -6.5t-4 -14.5z" />
    <glyph glyph-name="Scircumflex" unicode="&#x15c;" horiz-adv-x="512" 
d="M331 676q133 0 191 -82q10 -15 -4 -26l-37 -29q-15 -12 -27 5q-40 53 -127 53q-68 0 -109 -35t-41 -93q0 -40 29 -62t103 -36q98 -19 138 -56.5t40 -106.5q0 -101 -66 -160.5t-178 -59.5q-152 0 -219 97q-9 15 5 26l36 29q15 12 27 -4q51 -69 156 -69q68 0 108.5 34.5
t40.5 93.5q0 39 -29 60.5t-102 35.5q-98 19 -138.5 57t-40.5 108q0 101 66 160.5t178 59.5zM361 823l-73 -85q-9 -9 -20 -9h-41q-10 0 -13 6t4 14l104 122q9 10 21 10h45q14 0 20 -12l64 -121q4 -8 1 -13.5t-12 -5.5h-37q-13 0 -19 11z" />
    <glyph glyph-name="scircumflex" unicode="&#x15d;" horiz-adv-x="413" 
d="M191 -12q-113 0 -170 58q-13 13 0 26l24 28q12 15 26 1q44 -41 120 -41q52 0 81.5 23t29.5 63q0 29 -21.5 44.5t-78.5 25.5q-75 13 -106 41t-31 82q0 78 54 123t147 45q87 0 139 -43q14 -11 2 -26l-23 -29q-11 -14 -26 -2q-36 28 -93 28q-55 0 -86 -22.5t-31 -62.5
q0 -27 21.5 -41.5t74.5 -22.5q78 -12 110 -41.5t32 -86.5q0 -79 -52 -124.5t-143 -45.5zM289 660l-73 -85q-9 -9 -20 -9h-41q-10 0 -13 6t4 14l104 122q9 10 21 10h45q14 0 20 -12l64 -121q4 -8 1 -13.5t-12 -5.5h-37q-13 0 -19 11z" />
    <glyph glyph-name="Scedilla" unicode="&#x15e;" horiz-adv-x="512" 
d="M24 85q-9 15 5 26l36 29q15 12 27 -4q51 -69 156 -69q68 0 108.5 34.5t40.5 93.5q0 39 -29 60.5t-102 35.5q-98 19 -138.5 57t-40.5 108q0 101 66 160.5t178 59.5q133 0 191 -82q10 -15 -4 -26l-37 -29q-15 -12 -27 5q-40 53 -127 53q-68 0 -109 -35t-41 -93
q0 -40 29 -62t103 -36q98 -19 138 -56.5t40 -106.5q0 -99 -64 -158.5t-172 -61.5l-12 -34q63 -6 63 -56q0 -70 -99 -70q-44 0 -75 17q-11 6 -5 20l9 20q6 13 20 5q26 -12 50 -12q41 0 41 23q0 21 -46 21q-17 0 -11 16l19 52q-123 10 -181 95z" />
    <glyph glyph-name="scedilla" unicode="&#x15f;" horiz-adv-x="413" 
d="M21 46q-13 13 0 26l24 28q12 15 26 1q44 -41 120 -41q52 0 81.5 23t29.5 63q0 29 -21.5 44.5t-78.5 25.5q-75 13 -106 41t-31 82q0 78 54 123t147 45q87 0 139 -43q14 -11 2 -26l-23 -29q-11 -14 -26 -2q-36 28 -93 28q-55 0 -86 -22.5t-31 -62.5q0 -27 21.5 -41.5
t74.5 -22.5q78 -12 110 -41.5t32 -86.5q0 -78 -49 -122.5t-135 -47.5l-12 -34q63 -6 63 -56q0 -70 -99 -70q-44 0 -75 17q-11 6 -5 20l9 20q6 13 20 5q26 -12 50 -12q41 0 41 23q0 21 -46 21q-17 0 -11 16l19 51q-88 9 -135 57z" />
    <glyph glyph-name="Scaron" unicode="&#x160;" horiz-adv-x="512" 
d="M331 676q133 0 191 -82q10 -15 -4 -26l-37 -29q-15 -12 -27 5q-40 53 -127 53q-68 0 -109 -35t-41 -93q0 -40 29 -62t103 -36q98 -19 138 -56.5t40 -106.5q0 -101 -66 -160.5t-178 -59.5q-152 0 -219 97q-9 15 5 26l36 29q15 12 27 -4q51 -69 156 -69q68 0 108.5 34.5
t40.5 93.5q0 39 -29 60.5t-102 35.5q-98 19 -138.5 57t-40.5 108q0 101 66 160.5t178 59.5zM491 861l-104 -122q-9 -10 -21 -10h-45q-14 0 -20 12l-64 121q-5 8 -1.5 13.5t13.5 5.5h36q14 0 19 -11l44 -82l73 84q9 9 20 9h41q10 0 13 -6t-4 -14z" />
    <glyph glyph-name="scaron" unicode="&#x161;" horiz-adv-x="413" 
d="M191 -12q-113 0 -170 58q-13 13 0 26l24 28q12 15 26 1q44 -41 120 -41q52 0 81.5 23t29.5 63q0 29 -21.5 44.5t-78.5 25.5q-75 13 -106 41t-31 82q0 78 54 123t147 45q87 0 139 -43q14 -11 2 -26l-23 -29q-11 -14 -26 -2q-36 28 -93 28q-55 0 -86 -22.5t-31 -62.5
q0 -27 21.5 -41.5t74.5 -22.5q78 -12 110 -41.5t32 -86.5q0 -79 -52 -124.5t-143 -45.5zM419 698l-104 -122q-9 -10 -21 -10h-45q-14 0 -20 12l-64 121q-5 8 -1.5 13.5t13.5 5.5h36q14 0 19 -11l44 -82l73 84q9 9 20 9h41q10 0 13 -6t-4 -14z" />
    <glyph glyph-name="uni0162" unicode="&#x162;" horiz-adv-x="493" 
d="M106 664h415q21 0 18 -20l-6 -42q-3 -17 -21 -17h-164l-90 -568q-3 -17 -21 -17h-5l-16 -46q63 -6 63 -56q0 -70 -99 -70q-44 0 -75 17q-11 6 -5 20l9 20q6 13 20 5q26 -12 50 -12q41 0 41 23q0 21 -46 21q-17 0 -11 16l23 62q-21 0 -18 20l90 565h-162q-21 0 -18 20
l7 42q3 17 21 17z" />
    <glyph glyph-name="uni0163" unicode="&#x163;" horiz-adv-x="355" 
d="M213 495h135q21 0 18 -20l-5 -35q-3 -17 -21 -17h-138l-43 -276q-2 -16 -2 -22q0 -65 67 -65q22 0 48 12q19 10 25 -9l11 -32q5 -17 -10 -25q-36 -18 -83 -18q-11 0 -31 2l-13 -36q63 -6 63 -56q0 -70 -99 -70q-44 0 -75 17q-11 6 -5 20l9 20q6 13 20 5q26 -12 50 -12
q41 0 41 23q0 21 -46 21q-17 0 -11 16l23 63q-68 28 -68 111q0 18 3 37l43 274h-49q-21 0 -18 20l5 35q3 17 21 17h52l18 115q3 17 21 17h44q21 0 18 -20z" />
    <glyph glyph-name="Tcaron" unicode="&#x164;" horiz-adv-x="493" 
d="M348 585l-90 -568q-3 -17 -21 -17h-51q-21 0 -18 20l90 565h-162q-21 0 -18 20l7 42q3 17 21 17h415q21 0 18 -20l-6 -42q-3 -17 -21 -17h-164zM474 861l-104 -122q-9 -10 -21 -10h-45q-14 0 -20 12l-64 121q-5 8 -1.5 13.5t13.5 5.5h36q13 0 19 -11l44 -82l73 84
q9 9 20 9h41q10 0 13 -6t-4 -14z" />
    <glyph glyph-name="tcaron" unicode="&#x165;" horiz-adv-x="355" 
d="M202 423l-43 -276q-2 -16 -2 -22q0 -65 67 -65q22 0 48 12q19 10 25 -9l11 -32q5 -17 -10 -25q-36 -18 -83 -18q-68 0 -105 32t-37 92q0 18 3 37l43 274h-49q-21 0 -18 20l5 35q3 17 21 17h52l18 115q3 17 21 17h44q21 0 18 -20l-18 -112h135q21 0 18 -20l-5 -35
q-3 -17 -21 -17h-138zM425 716l-55 -163q-4 -13 -18 -13h-28q-18 0 -13 18l42 162q4 15 19 15h39q19 0 14 -19z" />
    <glyph glyph-name="Tbar" unicode="&#x166;" horiz-adv-x="493" 
d="M106 664h415q21 0 18 -20l-6 -42q-3 -17 -21 -17h-164l-30 -191h99q19 0 16 -18l-6 -35q-1 -16 -18 -16h-102l-49 -308q-3 -17 -21 -17h-51q-21 0 -18 20l49 305h-101q-19 0 -16 18l6 35q1 16 18 16h104l30 191h-162q-21 0 -18 20l7 42q3 17 21 17z" />
    <glyph glyph-name="tbar" unicode="&#x167;" horiz-adv-x="367" 
d="M219 495h135q21 0 18 -20l-5 -35q-3 -17 -21 -17h-138l-18 -115h116q20 0 17 -19l-6 -34q-3 -16 -20 -16h-118l-14 -92q-2 -16 -2 -22q0 -65 67 -65q22 0 48 12q19 10 25 -9l11 -32q5 -17 -10 -25q-36 -18 -83 -18q-68 0 -105 32t-37 92q0 18 3 37l14 90h-41
q-20 0 -17 19l6 34q3 16 20 16h43l18 115h-49q-21 0 -18 20l5 35q3 17 21 17h52l18 115q3 17 21 17h44q21 0 18 -20z" />
    <glyph glyph-name="Utilde" unicode="&#x168;" horiz-adv-x="588" 
d="M582 644l-67 -427q-36 -229 -251 -229q-98 0 -151 47.5t-53 135.5q0 28 4 52l67 424q3 17 21 17h51q21 0 18 -20l-66 -416q-4 -23 -4 -46q0 -115 118 -115q70 0 108.5 39.5t51.5 123.5l66 417q3 17 21 17h48q21 0 18 -20zM267 739h-24q-18 0 -13 18q27 102 101 102
q31 0 66 -31q25 -22 39 -22q28 0 42 41q4 13 17 13h25q18 0 13 -18q-29 -102 -101 -102q-33 0 -67 31q-25 22 -39 22q-28 0 -42 -41q-4 -13 -17 -13z" />
    <glyph glyph-name="utilde" unicode="&#x169;" horiz-adv-x="488" 
d="M462 475l-49 -308q-29 -179 -201 -179q-80 0 -122.5 37t-42.5 107q0 20 3 41l48 305q3 17 21 17h44q21 0 18 -20l-47 -297q-3 -20 -3 -34q0 -84 86 -84q51 0 79 28.5t38 88.5l47 301q3 17 21 17h42q21 0 18 -20zM191 576h-24q-18 0 -13 18q27 102 101 102q31 0 66 -31
q25 -22 39 -22q28 0 42 41q4 13 17 13h25q18 0 13 -18q-29 -102 -101 -102q-33 0 -67 31q-25 22 -39 22q-28 0 -42 -41q-4 -13 -17 -13z" />
    <glyph glyph-name="Umacron" unicode="&#x16a;" horiz-adv-x="588" 
d="M582 644l-67 -427q-36 -229 -251 -229q-98 0 -151 47.5t-53 135.5q0 28 4 52l67 424q3 17 21 17h51q21 0 18 -20l-66 -416q-4 -23 -4 -46q0 -115 118 -115q70 0 108.5 39.5t51.5 123.5l66 417q3 17 21 17h48q21 0 18 -20zM514 810l-5 -33q-3 -15 -19 -15h-229
q-18 0 -15 18l5 32q1 16 18 16h230q18 0 15 -18z" />
    <glyph glyph-name="umacron" unicode="&#x16b;" horiz-adv-x="488" 
d="M462 475l-49 -308q-29 -179 -201 -179q-80 0 -122.5 37t-42.5 107q0 20 3 41l48 305q3 17 21 17h44q21 0 18 -20l-47 -297q-3 -20 -3 -34q0 -84 86 -84q51 0 79 28.5t38 88.5l47 301q3 17 21 17h42q21 0 18 -20zM438 647l-5 -33q-3 -15 -19 -15h-229q-18 0 -15 18l5 32
q1 16 18 16h230q18 0 15 -18z" />
    <glyph glyph-name="Ubreve" unicode="&#x16c;" horiz-adv-x="588" 
d="M582 644l-67 -427q-36 -229 -251 -229q-98 0 -151 47.5t-53 135.5q0 28 4 52l67 424q3 17 21 17h51q21 0 18 -20l-66 -416q-4 -23 -4 -46q0 -115 118 -115q70 0 108.5 39.5t51.5 123.5l66 417q3 17 21 17h48q21 0 18 -20zM479 864h30q17 0 14 -17q-11 -51 -49 -78.5
t-93 -27.5q-56 0 -89 29t-34 79q0 15 15 15h31q12 0 15 -14q8 -45 63 -45q59 0 79 47q6 12 18 12z" />
    <glyph glyph-name="ubreve" unicode="&#x16d;" horiz-adv-x="488" 
d="M462 475l-49 -308q-29 -179 -201 -179q-80 0 -122.5 37t-42.5 107q0 20 3 41l48 305q3 17 21 17h44q21 0 18 -20l-47 -297q-3 -20 -3 -34q0 -84 86 -84q51 0 79 28.5t38 88.5l47 301q3 17 21 17h42q21 0 18 -20zM403 701h30q17 0 14 -17q-11 -51 -49 -78.5t-93 -27.5
q-56 0 -89 29t-34 79q0 15 15 15h31q12 0 15 -14q8 -45 63 -45q59 0 79 47q6 12 18 12z" />
    <glyph glyph-name="Uring" unicode="&#x16e;" horiz-adv-x="588" 
d="M582 644l-67 -427q-36 -229 -251 -229q-98 0 -151 47.5t-53 135.5q0 28 4 52l67 424q3 17 21 17h51q21 0 18 -20l-66 -416q-4 -23 -4 -46q0 -115 118 -115q70 0 108.5 39.5t51.5 123.5l66 417q3 17 21 17h48q21 0 18 -20zM376 723q-34 0 -55.5 21t-21.5 53q0 38 26.5 64
t63.5 26q33 0 54.5 -21t21.5 -53q0 -38 -26 -64t-63 -26zM378 767q18 0 30 12.5t12 30.5q0 15 -9.5 24t-24.5 9q-18 0 -30 -12.5t-12 -30.5q0 -33 34 -33z" />
    <glyph glyph-name="uring" unicode="&#x16f;" horiz-adv-x="488" 
d="M462 475l-49 -308q-29 -179 -201 -179q-80 0 -122.5 37t-42.5 107q0 20 3 41l48 305q3 17 21 17h44q21 0 18 -20l-47 -297q-3 -20 -3 -34q0 -84 86 -84q51 0 79 28.5t38 88.5l47 301q3 17 21 17h42q21 0 18 -20zM300 560q-34 0 -55.5 21t-21.5 53q0 38 26.5 64t63.5 26
q33 0 54.5 -21t21.5 -53q0 -38 -26 -64t-63 -26zM302 604q18 0 30 12t12 31q0 15 -9.5 24t-24.5 9q-18 0 -30 -12t-12 -31q0 -33 34 -33z" />
    <glyph glyph-name="Uhungarumlaut" unicode="&#x170;" horiz-adv-x="588" 
d="M582 644l-67 -427q-36 -229 -251 -229q-98 0 -151 47.5t-53 135.5q0 28 4 52l67 424q3 17 21 17h51q21 0 18 -20l-66 -416q-4 -23 -4 -46q0 -115 118 -115q70 0 108.5 39.5t51.5 123.5l66 417q3 17 21 17h48q21 0 18 -20zM426 860l-99 -122q-6 -9 -20 -9h-36
q-10 0 -13 5.5t3 13.5l90 123q7 10 21 10h44q11 0 14 -6.5t-4 -14.5zM577 860l-99 -122q-6 -9 -20 -9h-35q-10 0 -13 5.5t3 13.5l89 123q7 10 21 10h44q11 0 14 -6.5t-4 -14.5z" />
    <glyph glyph-name="uhungarumlaut" unicode="&#x171;" horiz-adv-x="488" 
d="M462 475l-49 -308q-29 -179 -201 -179q-80 0 -122.5 37t-42.5 107q0 20 3 41l48 305q3 17 21 17h44q21 0 18 -20l-47 -297q-3 -20 -3 -34q0 -84 86 -84q51 0 79 28.5t38 88.5l47 301q3 17 21 17h42q21 0 18 -20zM350 697l-99 -122q-6 -9 -20 -9h-36q-10 0 -13 6t3 13
l90 123q7 10 21 10h44q11 0 14 -6.5t-4 -14.5zM501 697l-99 -122q-6 -9 -20 -9h-35q-10 0 -13 6t3 13l89 123q7 10 21 10h44q11 0 14 -6.5t-4 -14.5z" />
    <glyph glyph-name="Uogonek" unicode="&#x172;" horiz-adv-x="588" 
d="M516 664h48q21 0 18 -20l-67 -427q-26 -162 -146 -213q-77 -33 -77 -88q0 -14 8.5 -23t21.5 -9q19 0 38 15q13 10 22 -4l11 -18q8 -14 -4 -23q-34 -26 -75 -26q-37 0 -59.5 20t-22.5 53q0 50 42 85v2h-10q-98 0 -151 47.5t-53 135.5q0 28 4 52l67 424q3 17 21 17h51
q21 0 18 -20l-66 -416q-4 -23 -4 -46q0 -115 118 -115q70 0 108.5 39.5t51.5 123.5l66 417q3 17 21 17z" />
    <glyph glyph-name="uogonek" unicode="&#x173;" horiz-adv-x="488" 
d="M402 495h42q21 0 18 -20l-49 -308q-20 -123 -110 -164q-74 -34 -74 -87q0 -14 8.5 -23t21.5 -9q19 0 38 15q13 10 22 -4l11 -18q8 -14 -4 -23q-34 -26 -75 -26q-37 0 -59.5 20t-22.5 53q0 50 42 85v2q-79 1 -121.5 38t-42.5 106q0 20 3 41l48 305q3 17 21 17h44
q21 0 18 -20l-47 -297q-3 -20 -3 -34q0 -84 86 -84q51 0 79 28.5t38 88.5l47 301q3 17 21 17z" />
    <glyph glyph-name="Wcircumflex" unicode="&#x174;" horiz-adv-x="853" 
d="M817 664h57q23 0 15 -22l-267 -627q-6 -15 -22 -15h-65q-19 0 -20 18l-48 469h-2l-199 -472q-6 -15 -22 -15h-64q-18 0 -20 18l-67 626q-2 20 18 20h56q19 0 20 -18l45 -500h2l212 503q6 15 22 15h46q18 0 20 -18l53 -500h2l206 503q6 15 22 15zM523 823l-73 -85
q-9 -9 -20 -9h-41q-10 0 -13 6t4 14l104 122q9 10 21 10h45q14 0 20 -12l64 -121q4 -8 1 -13.5t-12 -5.5h-37q-13 0 -19 11z" />
    <glyph glyph-name="wcircumflex" unicode="&#x175;" horiz-adv-x="691" 
d="M646 495h48q11 0 14.5 -6t-0.5 -16l-209 -459q-6 -14 -22 -14h-50q-17 0 -20 18l-42 320h-2l-147 -324q-6 -14 -22 -14h-50q-17 0 -20 18l-63 457q-3 20 17 20h48q19 0 20 -18l40 -353h2l159 357q6 14 22 14h34q17 0 20 -18l46 -350h2l153 354q6 14 22 14zM418 660
l-73 -85q-9 -9 -20 -9h-41q-10 0 -13 6t4 14l104 122q9 10 21 10h45q14 0 20 -12l64 -121q4 -8 1 -13.5t-12 -5.5h-37q-13 0 -19 11z" />
    <glyph glyph-name="Ycircumflex" unicode="&#x176;" horiz-adv-x="530" 
d="M255 0h-51q-21 0 -18 20l43 275l-150 347q-4 10 -0.5 16t14.5 6h59q16 0 22 -15l113 -273l198 276q9 12 24 12h62q12 0 15.5 -6.5t-3.5 -16.5l-264 -351l-43 -273q-3 -17 -21 -17zM362 823l-73 -85q-9 -9 -20 -9h-41q-10 0 -13 6t4 14l104 122q9 10 21 10h45q14 0 20 -12
l64 -121q4 -8 1 -13.5t-12 -5.5h-37q-13 0 -19 11z" />
    <glyph glyph-name="ycircumflex" unicode="&#x177;" horiz-adv-x="499" 
d="M417 495h44q21 0 18 -20l-76 -473q-13 -83 -66.5 -128.5t-139.5 -45.5q-102 0 -161 56q-12 12 -1 27l22 28q12 15 27 2q44 -41 113 -41q108 0 125 112l6 37h-2q-43 -45 -117 -45q-72 0 -110.5 36.5t-38.5 105.5q0 25 4 46l45 286q3 17 21 17h44q21 0 18 -20l-44 -278
q-3 -19 -3 -36q0 -85 87 -85q100 0 120 122l44 280q3 17 21 17zM327 660l-73 -85q-9 -9 -20 -9h-41q-10 0 -13 6t4 14l104 122q9 10 21 10h45q14 0 20 -12l64 -121q4 -8 1 -13.5t-12 -5.5h-37q-13 0 -19 11z" />
    <glyph glyph-name="Ydieresis" unicode="&#x178;" horiz-adv-x="530" 
d="M255 0h-51q-21 0 -18 20l43 275l-150 347q-4 10 -0.5 16t14.5 6h59q16 0 22 -15l113 -273l198 276q9 12 24 12h62q12 0 15.5 -6.5t-3.5 -16.5l-264 -351l-43 -273q-3 -17 -21 -17zM268 753q-21 0 -33.5 12.5t-12.5 32.5q0 23 15 38.5t38 15.5q20 0 33 -13t13 -33
q0 -23 -15.5 -38t-37.5 -15zM435 753q-20 0 -33 13t-13 33q0 23 15 38t37 15q21 0 34 -13t13 -33q0 -23 -15 -38t-38 -15z" />
    <glyph glyph-name="Zacute" unicode="&#x179;" horiz-adv-x="522" 
d="M125 79h313q21 0 18 -20l-6 -42q-3 -17 -21 -17h-405q-21 0 -18 20l7 49q1 13 10 23l401 493h-293q-21 0 -18 20l7 42q3 17 21 17h385q21 0 18 -20l-8 -50q-1 -12 -10 -22zM486 860l-105 -122q-9 -9 -20 -9h-45q-10 0 -13 6t3 14l96 122q9 10 21 10h53q11 0 14 -6.5
t-4 -14.5z" />
    <glyph glyph-name="zacute" unicode="&#x17a;" horiz-adv-x="427" 
d="M110 72h234q21 0 18 -20l-5 -35q-3 -17 -21 -17h-315q-21 0 -18 20l6 43q1 13 10 23l298 337h-214q-21 0 -18 20l5 35q3 17 21 17h296q21 0 18 -20l-7 -43q-1 -13 -10 -23zM413 697l-105 -122q-9 -9 -20 -9h-45q-10 0 -13 6t3 14l96 122q9 10 21 10h53q11 0 14 -6.5
t-4 -14.5z" />
    <glyph glyph-name="Zdotaccent" unicode="&#x17b;" horiz-adv-x="522" 
d="M125 79h313q21 0 18 -20l-6 -42q-3 -17 -21 -17h-405q-21 0 -18 20l7 49q1 13 10 23l401 493h-293q-21 0 -18 20l7 42q3 17 21 17h385q21 0 18 -20l-8 -50q-1 -12 -10 -22zM350 750q-22 0 -35 13.5t-13 34.5q0 25 16 41t39 16q22 0 35.5 -13.5t13.5 -33.5
q0 -25 -16 -41.5t-40 -16.5z" />
    <glyph glyph-name="zdotaccent" unicode="&#x17c;" horiz-adv-x="427" 
d="M110 72h234q21 0 18 -20l-5 -35q-3 -17 -21 -17h-315q-21 0 -18 20l6 43q1 13 10 23l298 337h-214q-21 0 -18 20l5 35q3 17 21 17h296q21 0 18 -20l-7 -43q-1 -13 -10 -23zM277 587q-22 0 -35 13.5t-13 34.5q0 25 16 41t39 16q22 0 35.5 -13.5t13.5 -33.5
q0 -25 -16 -41.5t-40 -16.5z" />
    <glyph glyph-name="Zcaron" unicode="&#x17d;" horiz-adv-x="522" 
d="M491 861l-104 -122q-9 -10 -21 -10h-45q-14 0 -20 12l-64 121q-5 8 -1.5 13.5t13.5 5.5h36q14 0 19 -11l44 -82l73 84q9 9 20 9h41q10 0 13 -6t-4 -14zM125 79h313q21 0 18 -20l-6 -42q-3 -17 -21 -17h-405q-21 0 -18 20l7 49q1 13 10 23l401 493h-293q-21 0 -18 20l7 42
q3 17 21 17h385q21 0 18 -20l-8 -50q-1 -12 -10 -22z" />
    <glyph glyph-name="zcaron" unicode="&#x17e;" horiz-adv-x="427" 
d="M110 72h234q21 0 18 -20l-5 -35q-3 -17 -21 -17h-315q-21 0 -18 20l6 43q1 13 10 23l298 337h-214q-21 0 -18 20l5 35q3 17 21 17h296q21 0 18 -20l-7 -43q-1 -13 -10 -23zM418 698l-104 -122q-9 -10 -21 -10h-45q-14 0 -20 12l-64 121q-5 8 -1.5 13.5t13.5 5.5h36
q13 0 19 -11l44 -82l73 84q9 9 20 9h41q10 0 13 -6t-4 -14z" />
    <glyph glyph-name="florin" unicode="&#x192;" horiz-adv-x="529" 
d="M445 564q-83 0 -114 -102l-16 -53h146q21 0 18 -20l-5 -35q-3 -17 -21 -17h-159l-116 -391q-4 -16 -22 -16h-44q-22 0 -16 21l115 386h-93q-21 0 -18 20l5 35q3 17 21 17h106l17 57q26 87 73.5 128.5t120.5 41.5q60 0 100 -21q17 -8 7 -25l-17 -32q-9 -16 -25 -7
q-26 13 -63 13z" />
    <glyph glyph-name="AEacute" unicode="&#x1fc;" horiz-adv-x="875" 
d="M529 375h262q21 0 18 -20l-7 -42q-3 -17 -21 -17h-264l-35 -217h306q21 0 18 -20l-7 -42q-3 -17 -21 -17h-377q-21 0 -18 20l18 112h-237l-86 -120q-8 -12 -23 -12h-61q-12 0 -15.5 6.5t3.5 16.5l458 629q8 12 24 12h416q21 0 18 -20l-6 -42q-3 -17 -21 -17h-308z
M413 211l56 348h-2l-246 -348h192zM667 860l-105 -122q-9 -9 -20 -9h-45q-10 0 -13 6t3 14l96 122q9 10 21 10h53q11 0 14 -6.5t-4 -14.5z" />
    <glyph glyph-name="aeacute" unicode="&#x1fd;" horiz-adv-x="734" 
d="M553 507q74 0 114.5 -38.5t40.5 -108.5q0 -14 -4 -44l-12 -77q-3 -17 -21 -17h-269l-5 -32q-3 -21 -3 -38q0 -48 26 -70t80 -22q53 0 104 43q15 14 26 -3l18 -27q10 -15 -3 -27q-64 -58 -150 -58q-123 0 -153 84h-2q-50 -84 -168 -84q-71 0 -111.5 36.5t-40.5 101.5
q0 80 50.5 122.5t147.5 42.5h113l2 14q3 21 3 39q0 47 -23.5 69t-73.5 22q-58 0 -106 -38q-15 -12 -26 5l-17 28q-9 15 5 26q68 51 150 51q115 0 144 -83h2q49 83 162 83zM621 291l3 19q4 21 4 40q0 85 -87 85q-105 0 -126 -126l-3 -18h209zM320 222h-100q-117 0 -117 -93
q0 -69 85 -69q55 0 85 30.5t41 95.5zM560 697l-105 -122q-9 -9 -20 -9h-45q-10 0 -13 6t3 14l96 122q9 10 21 10h53q11 0 14 -6.5t-4 -14.5z" />
    <glyph glyph-name="Oslashacute" unicode="&#x1fe;" horiz-adv-x="588" 
d="M572 667l24 -21q12 -12 2 -26l-39 -47q17 -39 17 -86q0 -22 -5 -54l-33 -208q-38 -237 -264 -237q-101 0 -156 47l-30 -36q-12 -14 -26 -2l-24 21q-12 12 -2 26l39 48q-16 40 -16 87q0 28 4 52l33 208q38 237 264 237q101 0 157 -47l29 36q12 14 26 2zM183 424l-29 -187
q-4 -23 -4 -48v-4h2l308 375q-31 37 -103 37q-75 0 -117.5 -42.5t-56.5 -130.5zM482 479l-307 -374q31 -38 103 -38q75 0 116.5 41.5t55.5 129.5l30 189q4 24 4 50v2h-2zM523 860l-105 -122q-9 -9 -20 -9h-45q-10 0 -13 6t3 14l96 122q9 10 21 10h53q11 0 14 -6.5t-4 -14.5z
" />
    <glyph glyph-name="oslashacute" unicode="&#x1ff;" horiz-adv-x="475" 
d="M440 498l25 -23q12 -10 1 -24l-27 -31q11 -30 11 -63q0 -19 -3 -41l-22 -143q-29 -185 -209 -185q-74 0 -117 32l-19 -22q-12 -13 -24 -1l-25 23q-12 10 -1 24l26 31q-11 28 -11 63q0 20 3 41l23 142q30 186 209 186q74 0 117 -32l19 22q12 13 24 1zM132 164l212 249
q-22 22 -68 22q-53 0 -82.5 -30.5t-40.5 -95.5l-20 -124q-3 -18 -3 -21h2zM366 331h-2l-212 -249q22 -22 68 -22q54 0 83 30.5t40 95.5l20 124q3 15 3 21zM442 697l-105 -122q-9 -9 -20 -9h-45q-10 0 -13 6t3 14l96 122q9 10 21 10h53q11 0 14 -6.5t-4 -14.5z" />
    <glyph glyph-name="uni0218" unicode="&#x218;" horiz-adv-x="512" 
d="M331 676q133 0 191 -82q10 -15 -4 -26l-37 -29q-15 -12 -27 5q-40 53 -127 53q-68 0 -109 -35t-41 -93q0 -40 29 -62t103 -36q98 -19 138 -56.5t40 -106.5q0 -101 -66 -160.5t-178 -59.5q-152 0 -219 97q-9 15 5 26l36 29q15 12 27 -4q51 -69 156 -69q68 0 108.5 34.5
t40.5 93.5q0 39 -29 60.5t-102 35.5q-98 19 -138.5 57t-40.5 108q0 101 66 160.5t178 59.5zM221 -48q21 0 33 -13t12 -36q0 -31 -21.5 -61.5t-52.5 -43.5q-11 -5 -16 6l-6 14q-4 10 6 16q15 9 25 27q-33 7 -33 42q0 22 15 35.5t38 13.5z" />
    <glyph glyph-name="uni0219" unicode="&#x219;" horiz-adv-x="413" 
d="M191 -12q-113 0 -170 58q-13 13 0 26l24 28q12 15 26 1q44 -41 120 -41q52 0 81.5 23t29.5 63q0 29 -21.5 44.5t-78.5 25.5q-75 13 -106 41t-31 82q0 78 54 123t147 45q87 0 139 -43q14 -11 2 -26l-23 -29q-11 -14 -26 -2q-36 28 -93 28q-55 0 -86 -22.5t-31 -62.5
q0 -27 21.5 -41.5t74.5 -22.5q78 -12 110 -41.5t32 -86.5q0 -79 -52 -124.5t-143 -45.5zM172 -48q21 0 33 -13t12 -36q0 -31 -21.5 -61.5t-52.5 -43.5q-11 -5 -16 6l-6 14q-4 10 6 16q15 9 25 27q-33 7 -33 42q0 22 15 35.5t38 13.5z" />
    <glyph glyph-name="uni021A" unicode="&#x21a;" horiz-adv-x="493" 
d="M348 585l-90 -568q-3 -17 -21 -17h-51q-21 0 -18 20l90 565h-162q-21 0 -18 20l7 42q3 17 21 17h415q21 0 18 -20l-6 -42q-3 -17 -21 -17h-164zM198 -48q21 0 33 -13t12 -36q0 -31 -21.5 -61.5t-52.5 -43.5q-11 -5 -16 6l-6 14q-4 10 6 16q15 9 25 27q-33 7 -33 42
q0 22 15 35.5t38 13.5z" />
    <glyph glyph-name="uni021B" unicode="&#x21b;" horiz-adv-x="355" 
d="M202 423l-43 -276q-2 -16 -2 -22q0 -65 67 -65q22 0 48 12q19 10 25 -9l11 -32q5 -17 -10 -25q-36 -18 -83 -18q-68 0 -105 32t-37 92q0 18 3 37l43 274h-49q-21 0 -18 20l5 35q3 17 21 17h52l18 115q3 17 21 17h44q21 0 18 -20l-18 -112h135q21 0 18 -20l-5 -35
q-3 -17 -21 -17h-138zM153 -48q21 0 33 -13t12 -36q0 -31 -21.5 -61.5t-52.5 -43.5q-11 -5 -16 6l-6 14q-4 10 6 16q15 9 25 27q-33 7 -33 42q0 22 15 35.5t38 13.5z" />
    <glyph glyph-name="uni0237" unicode="&#x237;" horiz-adv-x="217" 
d="M-53 -88q69 0 81 75l78 491q3 17 21 17h44q21 0 18 -20l-78 -491q-24 -144 -159 -144h-13q-21 0 -18 20l5 35q3 17 21 17z" />
    <glyph glyph-name="circumflex" unicode="&#x2c6;" horiz-adv-x="500" 
d="M323 660l-73 -85q-9 -9 -20 -9h-41q-10 0 -13 6t4 14l104 122q9 10 21 10h45q14 0 20 -12l64 -121q4 -8 1 -13.5t-12 -5.5h-37q-13 0 -19 11z" />
    <glyph glyph-name="caron" unicode="&#x2c7;" horiz-adv-x="500" 
d="M453 698l-104 -122q-9 -10 -21 -10h-45q-14 0 -20 12l-64 121q-5 8 -1.5 13.5t13.5 5.5h36q14 0 19 -11l44 -82l73 84q9 9 20 9h41q10 0 13 -6t-4 -14z" />
    <glyph glyph-name="breve" unicode="&#x2d8;" horiz-adv-x="500" 
d="M409 701h30q17 0 14 -17q-11 -51 -49 -78.5t-93 -27.5q-56 0 -89 29t-34 79q0 15 15 15h31q12 0 15 -14q8 -45 63 -45q59 0 79 47q6 12 18 12z" />
    <glyph glyph-name="dotaccent" unicode="&#x2d9;" horiz-adv-x="500" 
d="M308 587q-22 0 -35 13.5t-13 34.5q0 25 16 41t39 16q22 0 35.5 -13.5t13.5 -33.5q0 -25 -16 -41.5t-40 -16.5z" />
    <glyph glyph-name="ring" unicode="&#x2da;" horiz-adv-x="500" 
d="M306 560q-34 0 -55.5 21t-21.5 53q0 38 26.5 64t63.5 26q33 0 54.5 -21t21.5 -53q0 -38 -26 -64t-63 -26zM308 604q18 0 30 12t12 31q0 15 -9.5 24t-24.5 9q-18 0 -30 -12t-12 -31q0 -33 34 -33z" />
    <glyph glyph-name="ogonek" unicode="&#x2db;" horiz-adv-x="500" 
d="M276 -105l11 -18q8 -14 -4 -23q-34 -26 -75 -26q-37 0 -59.5 20t-22.5 53q0 82 114 128l27 -21q-81 -39 -81 -92q0 -14 8.5 -23t21.5 -9q18 0 38 15q13 10 22 -4z" />
    <glyph glyph-name="tilde" unicode="&#x2dc;" horiz-adv-x="500" 
d="M202 576h-24q-18 0 -13 18q27 102 101 102q31 0 66 -31q25 -22 39 -22q28 0 42 41q4 13 17 13h25q18 0 13 -18q-29 -102 -101 -102q-33 0 -67 31q-25 22 -39 22q-28 0 -42 -41q-4 -13 -17 -13z" />
    <glyph glyph-name="hungarumlaut" unicode="&#x2dd;" horiz-adv-x="500" 
d="M360 697l-99 -122q-6 -9 -20 -9h-36q-10 0 -13 6t3 13l90 123q7 10 21 10h44q11 0 14 -6.5t-4 -14.5zM511 697l-99 -122q-6 -9 -20 -9h-35q-10 0 -13 6t3 13l89 123q7 10 21 10h44q11 0 14 -6.5t-4 -14.5z" />
    <glyph glyph-name="uni0394" unicode="&#x394;" horiz-adv-x="587" 
d="M420 647l112 -626q3 -21 -17 -21h-498q-24 0 -14 22l311 628q7 14 22 14h64q17 0 20 -17zM355 553h-2l-227 -474h306z" />
    <glyph glyph-name="uni03A9" unicode="&#x3a9;" horiz-adv-x="588" 
d="M354 676q103 0 159 -49t56 -140q0 -22 -5 -54l-26 -161q-23 -141 -127 -191v-2h76q21 0 18 -20l-7 -42q-3 -17 -21 -17h-153q-21 0 -18 20l7 47q1 14 16 21q95 41 118 178l26 160q4 24 4 50q0 121 -127 121q-75 0 -117 -42.5t-56 -129.5l-25 -160q-4 -25 -4 -52
q0 -90 62 -124q15 -7 12 -23l-7 -49q-3 -17 -21 -17h-153q-21 0 -18 20l6 42q3 17 21 17h86v2q-76 45 -76 148q0 26 4 49l25 161q38 237 265 237z" />
    <glyph glyph-name="uni03BC" unicode="&#x3bc;" horiz-adv-x="499" 
d="M414 495h44q21 0 18 -20l-49 -305q-29 -182 -190 -182q-82 0 -114 53h-2l-29 -184q-3 -17 -21 -17h-44q-21 0 -18 20l97 618q3 17 21 17h44q21 0 18 -20l-47 -294q-3 -18 -3 -34q0 -87 88 -87q52 0 81 29.5t39 92.5l46 296q3 17 21 17z" />
    <glyph glyph-name="pi" unicode="&#x3c0;" horiz-adv-x="517" 
d="M376 423h-174l-64 -406q-3 -17 -21 -17h-44q-21 0 -18 20l64 403h-49q-21 0 -18 20l5 35q3 17 21 17h442q21 0 18 -20l-6 -35q-3 -17 -20 -17h-53l-64 -406q-3 -17 -21 -17h-44q-21 0 -18 20z" />
    <glyph glyph-name="uni1E02" unicode="&#x1e02;" horiz-adv-x="564" 
d="M428 338v-2q90 -33 90 -134q0 -106 -60.5 -154t-192.5 -48h-201q-21 0 -18 20l99 627q3 17 21 17h181q203 0 203 -150q0 -141 -122 -176zM192 376h112q79 0 117 30t38 93q0 45 -29.5 65.5t-90.5 20.5h-113zM145 79h129q79 0 116.5 31.5t37.5 97.5q0 89 -118 89h-130z
M362 750q-22 0 -35 13.5t-13 34.5q0 25 16 41t39 16q22 0 35.5 -13.5t13.5 -33.5q0 -25 -16 -41.5t-40 -16.5z" />
    <glyph glyph-name="uni1E03" unicode="&#x1e03;" horiz-adv-x="488" 
d="M298 507q76 0 115.5 -37.5t39.5 -108.5q0 -22 -4 -45l-22 -142q-30 -186 -209 -186q-82 0 -126 39t-44 111q0 20 3 42l80 503q3 17 21 17h44q21 0 18 -20l-35 -219h2q43 46 117 46zM345 186l20 124q3 21 3 38q0 87 -90 87q-104 0 -124 -126l-19 -124q-3 -21 -3 -38
q0 -87 90 -87q54 0 83.5 30.5t39.5 95.5zM192 781q-22 0 -35 13.5t-13 34.5q0 25 16 41t39 16q22 0 35.5 -13.5t13.5 -33.5q0 -25 -16 -41.5t-40 -16.5z" />
    <glyph glyph-name="uni1E0A" unicode="&#x1e0a;" horiz-adv-x="591" 
d="M166 664h195q211 0 211 -177q0 -22 -5 -54l-33 -207q-18 -114 -84 -170t-185 -56h-201q-21 0 -18 20l99 627q3 17 21 17zM446 240l30 185q4 23 4 46q0 114 -130 114h-124l-81 -506h123q78 0 121 39.5t57 121.5zM368 750q-22 0 -35 13.5t-13 34.5q0 25 16 41t39 16
q22 0 35.5 -13.5t13.5 -33.5q0 -25 -16 -41.5t-40 -16.5z" />
    <glyph glyph-name="uni1E0B" unicode="&#x1e0b;" horiz-adv-x="488" 
d="M432 700h44q21 0 18 -20l-81 -506q-30 -186 -208 -186q-82 0 -126 39t-44 111q0 20 3 42l22 141q30 186 199 186q84 0 113 -55h2l37 231q3 17 21 17zM332 186l20 124q3 20 3 36q0 89 -89 89q-54 0 -84 -30.5t-41 -95.5l-19 -124q-3 -21 -3 -38q0 -87 90 -87
q54 0 83.5 30.5t39.5 95.5zM473 781q-22 0 -35 13.5t-13 34.5q0 25 16 41t39 16q22 0 35.5 -13.5t13.5 -33.5q0 -25 -16 -41.5t-40 -16.5z" />
    <glyph glyph-name="uni1E1E" unicode="&#x1e1e;" horiz-adv-x="505" 
d="M191 369h251q21 0 18 -20l-7 -42q-3 -17 -21 -17h-253l-43 -273q-3 -17 -21 -17h-51q-21 0 -18 20l99 627q3 17 21 17h367q20 0 17 -20l-6 -41q-1 -18 -20 -18h-298zM358 750q-22 0 -35 13.5t-13 34.5q0 25 16 41t39 16q22 0 35.5 -13.5t13.5 -33.5q0 -25 -16 -41.5
t-40 -16.5z" />
    <glyph glyph-name="uni1E1F" unicode="&#x1e1f;" 
d="M320 640q-84 0 -100 -104l-7 -41h135q21 0 18 -20l-5 -35q-3 -17 -21 -17h-138l-64 -406q-3 -17 -21 -17h-44q-21 0 -18 20l64 403h-49q-21 0 -18 20l5 35q3 17 21 17h53l7 47q28 170 180 170q59 0 100 -21q16 -7 7 -25l-16 -32q-9 -16 -24 -8q-27 14 -65 14zM298 781
q-22 0 -35 13.5t-13 34.5q0 25 16 41t39 16q22 0 35.5 -13.5t13.5 -33.5q0 -25 -16 -41.5t-40 -16.5z" />
    <glyph glyph-name="uni1E40" unicode="&#x1e40;" horiz-adv-x="820" 
d="M686 0h-51q-21 0 -18 20l81 515h-2l-275 -522q-7 -13 -22 -13h-48q-18 0 -21 17l-112 522h-2l-82 -522q-3 -17 -21 -17h-49q-21 0 -18 20l99 627q3 17 21 17h94q18 0 21 -17l110 -516h2l269 519q7 14 22 14h104q21 0 18 -20l-99 -627q-3 -17 -21 -17zM494 750
q-22 0 -35 13.5t-13 34.5q0 25 16 41t39 16q22 0 35.5 -13.5t13.5 -33.5q0 -25 -16 -41.5t-40 -16.5z" />
    <glyph glyph-name="uni1E41" unicode="&#x1e41;" horiz-adv-x="754" 
d="M552 507q76 0 117 -37t41 -107q0 -13 -4 -43l-48 -303q-3 -17 -21 -17h-44q-21 0 -18 20l47 295q3 21 3 37q0 83 -81 83q-49 0 -76 -29.5t-37 -91.5l-46 -297q-3 -17 -21 -17h-44q-21 0 -18 20l47 295q3 21 3 38q0 82 -82 82q-48 0 -75 -28.5t-36 -87.5l-47 -302
q-3 -17 -21 -17h-44q-21 0 -18 20l48 305q29 182 192 182q102 0 136 -67h2q46 67 145 67zM438 587q-22 0 -35 13.5t-13 34.5q0 25 16 41t39 16q22 0 35.5 -13.5t13.5 -33.5q0 -25 -16 -41.5t-40 -16.5z" />
    <glyph glyph-name="uni1E56" unicode="&#x1e56;" horiz-adv-x="546" 
d="M166 664h184q207 0 207 -173q0 -121 -65 -178t-202 -57h-117l-37 -239q-3 -17 -21 -17h-51q-21 0 -18 20l99 627q3 17 21 17zM466 483q0 53 -31 77.5t-95 24.5h-114l-40 -250h113q86 0 126.5 36t40.5 112zM366 750q-22 0 -35 13.5t-13 34.5q0 25 16 41t39 16
q22 0 35.5 -13.5t13.5 -33.5q0 -25 -16 -41.5t-40 -16.5z" />
    <glyph glyph-name="uni1E57" unicode="&#x1e57;" horiz-adv-x="488" 
d="M285 507q82 0 126.5 -38.5t44.5 -110.5q0 -20 -4 -43l-22 -141q-30 -186 -198 -186q-85 0 -114 56h-2l-30 -187q-3 -17 -21 -17h-43q-21 0 -18 20l73 461q29 186 208 186zM349 186l19 124q3 21 3 37q0 88 -90 88q-104 0 -123 -126l-19 -124q-3 -19 -3 -35q0 -90 91 -90
q53 0 82 31t40 95zM312 587q-22 0 -35 13.5t-13 34.5q0 25 16 41t39 16q22 0 35.5 -13.5t13.5 -33.5q0 -25 -16 -41.5t-40 -16.5z" />
    <glyph glyph-name="uni1E60" unicode="&#x1e60;" horiz-adv-x="512" 
d="M331 676q133 0 191 -82q10 -15 -4 -26l-37 -29q-15 -12 -27 5q-40 53 -127 53q-68 0 -109 -35t-41 -93q0 -40 29 -62t103 -36q98 -19 138 -56.5t40 -106.5q0 -101 -66 -160.5t-178 -59.5q-152 0 -219 97q-9 15 5 26l36 29q15 12 27 -4q51 -69 156 -69q68 0 108.5 34.5
t40.5 93.5q0 39 -29 60.5t-102 35.5q-98 19 -138.5 57t-40.5 108q0 101 66 160.5t178 59.5zM350 750q-22 0 -35 13.5t-13 34.5q0 25 16 41t39 16q22 0 35.5 -13.5t13.5 -33.5q0 -25 -16 -41.5t-40 -16.5z" />
    <glyph glyph-name="uni1E61" unicode="&#x1e61;" horiz-adv-x="413" 
d="M191 -12q-113 0 -170 58q-13 13 0 26l24 28q12 15 26 1q44 -41 120 -41q52 0 81.5 23t29.5 63q0 29 -21.5 44.5t-78.5 25.5q-75 13 -106 41t-31 82q0 78 54 123t147 45q87 0 139 -43q14 -11 2 -26l-23 -29q-11 -14 -26 -2q-36 28 -93 28q-55 0 -86 -22.5t-31 -62.5
q0 -27 21.5 -41.5t74.5 -22.5q78 -12 110 -41.5t32 -86.5q0 -79 -52 -124.5t-143 -45.5zM278 587q-22 0 -35 13.5t-13 34.5q0 25 16 41t39 16q22 0 35.5 -13.5t13.5 -33.5q0 -25 -16 -41.5t-40 -16.5z" />
    <glyph glyph-name="uni1E6A" unicode="&#x1e6a;" horiz-adv-x="493" 
d="M348 585l-90 -568q-3 -17 -21 -17h-51q-21 0 -18 20l90 565h-162q-21 0 -18 20l7 42q3 17 21 17h415q21 0 18 -20l-6 -42q-3 -17 -21 -17h-164zM333 750q-22 0 -35 13.5t-13 34.5q0 25 16 41t39 16q22 0 35.5 -13.5t13.5 -33.5q0 -25 -16 -41.5t-40 -16.5z" />
    <glyph glyph-name="uni1E6B" unicode="&#x1e6b;" horiz-adv-x="355" 
d="M202 423l-43 -276q-2 -16 -2 -22q0 -65 67 -65q22 0 48 12q19 10 25 -9l11 -32q5 -17 -10 -25q-36 -18 -83 -18q-68 0 -105 32t-37 92q0 18 3 37l43 274h-49q-21 0 -18 20l5 35q3 17 21 17h52l18 115q3 17 21 17h44q21 0 18 -20l-18 -112h135q21 0 18 -20l-5 -35
q-3 -17 -21 -17h-138zM210 713q-22 0 -35 13.5t-13 34.5q0 25 16 41t39 16q22 0 35.5 -13.5t13.5 -33.5q0 -25 -16 -41.5t-40 -16.5z" />
    <glyph glyph-name="Wgrave" unicode="&#x1e80;" horiz-adv-x="853" 
d="M817 664h57q23 0 15 -22l-267 -627q-6 -15 -22 -15h-65q-19 0 -20 18l-48 469h-2l-199 -472q-6 -15 -22 -15h-64q-18 0 -20 18l-67 626q-2 20 18 20h56q19 0 20 -18l45 -500h2l212 503q6 15 22 15h46q18 0 20 -18l53 -500h2l206 503q6 15 22 15zM531 729h-39
q-14 0 -19 11l-65 121q-10 20 12 20h48q14 0 20 -13l55 -120q9 -19 -12 -19z" />
    <glyph glyph-name="wgrave" unicode="&#x1e81;" horiz-adv-x="691" 
d="M646 495h48q11 0 14.5 -6t-0.5 -16l-209 -459q-6 -14 -22 -14h-50q-17 0 -20 18l-42 320h-2l-147 -324q-6 -14 -22 -14h-50q-17 0 -20 18l-63 457q-3 20 17 20h48q19 0 20 -18l40 -353h2l159 357q6 14 22 14h34q17 0 20 -18l46 -350h2l153 354q6 14 22 14zM426 566h-39
q-14 0 -19 11l-65 121q-10 20 12 20h48q14 0 20 -13l55 -120q9 -19 -12 -19z" />
    <glyph glyph-name="Wacute" unicode="&#x1e82;" horiz-adv-x="853" 
d="M817 664h57q23 0 15 -22l-267 -627q-6 -15 -22 -15h-65q-19 0 -20 18l-48 469h-2l-199 -472q-6 -15 -22 -15h-64q-18 0 -20 18l-67 626q-2 20 18 20h56q19 0 20 -18l45 -500h2l212 503q6 15 22 15h46q18 0 20 -18l53 -500h2l206 503q6 15 22 15zM648 860l-105 -122
q-9 -9 -20 -9h-45q-10 0 -13 6t3 14l96 122q9 10 21 10h53q11 0 14 -6.5t-4 -14.5z" />
    <glyph glyph-name="wacute" unicode="&#x1e83;" horiz-adv-x="691" 
d="M646 495h48q11 0 14.5 -6t-0.5 -16l-209 -459q-6 -14 -22 -14h-50q-17 0 -20 18l-42 320h-2l-147 -324q-6 -14 -22 -14h-50q-17 0 -20 18l-63 457q-3 20 17 20h48q19 0 20 -18l40 -353h2l159 357q6 14 22 14h34q17 0 20 -18l46 -350h2l153 354q6 14 22 14zM543 697
l-105 -122q-9 -9 -20 -9h-45q-10 0 -13 6t3 14l96 122q9 10 21 10h53q11 0 14 -6.5t-4 -14.5z" />
    <glyph glyph-name="Wdieresis" unicode="&#x1e84;" horiz-adv-x="853" 
d="M817 664h57q23 0 15 -22l-267 -627q-6 -15 -22 -15h-65q-19 0 -20 18l-48 469h-2l-199 -472q-6 -15 -22 -15h-64q-18 0 -20 18l-67 626q-2 20 18 20h56q19 0 20 -18l45 -500h2l212 503q6 15 22 15h46q18 0 20 -18l53 -500h2l206 503q6 15 22 15zM429 753
q-21 0 -33.5 12.5t-12.5 32.5q0 23 15 38.5t38 15.5q20 0 33 -13t13 -33q0 -23 -15.5 -38t-37.5 -15zM596 753q-20 0 -33 13t-13 33q0 23 15 38t37 15q21 0 34 -13t13 -33q0 -23 -15 -38t-38 -15z" />
    <glyph glyph-name="wdieresis" unicode="&#x1e85;" horiz-adv-x="691" 
d="M646 495h48q11 0 14.5 -6t-0.5 -16l-209 -459q-6 -14 -22 -14h-50q-17 0 -20 18l-42 320h-2l-147 -324q-6 -14 -22 -14h-50q-17 0 -20 18l-63 457q-3 20 17 20h48q19 0 20 -18l40 -353h2l159 357q6 14 22 14h34q17 0 20 -18l46 -350h2l153 354q6 14 22 14zM324 590
q-21 0 -33.5 12.5t-12.5 32.5q0 23 15 38.5t38 15.5q20 0 33 -13t13 -33q0 -23 -15.5 -38t-37.5 -15zM491 590q-20 0 -33 13t-13 33q0 23 15 38t37 15q21 0 34 -13t13 -33q0 -23 -15 -38t-38 -15z" />
    <glyph glyph-name="Ygrave" unicode="&#x1ef2;" horiz-adv-x="530" 
d="M255 0h-51q-21 0 -18 20l43 275l-150 347q-4 10 -0.5 16t14.5 6h59q16 0 22 -15l113 -273l198 276q9 12 24 12h62q12 0 15.5 -6.5t-3.5 -16.5l-264 -351l-43 -273q-3 -17 -21 -17zM370 729h-39q-14 0 -19 11l-65 121q-10 20 12 20h48q14 0 20 -13l55 -120q9 -19 -12 -19z
" />
    <glyph glyph-name="ygrave" unicode="&#x1ef3;" horiz-adv-x="499" 
d="M417 495h44q21 0 18 -20l-76 -473q-13 -83 -66.5 -128.5t-139.5 -45.5q-102 0 -161 56q-12 12 -1 27l22 28q12 15 27 2q44 -41 113 -41q108 0 125 112l6 37h-2q-43 -45 -117 -45q-72 0 -110.5 36.5t-38.5 105.5q0 25 4 46l45 286q3 17 21 17h44q21 0 18 -20l-44 -278
q-3 -19 -3 -36q0 -85 87 -85q100 0 120 122l44 280q3 17 21 17zM335 566h-39q-13 0 -19 11l-65 121q-10 20 12 20h48q14 0 20 -13l55 -120q9 -19 -12 -19z" />
    <glyph glyph-name="uni2007" unicode="&#x2007;" horiz-adv-x="529" 
 />
    <glyph glyph-name="figuredash" unicode="&#x2012;" horiz-adv-x="529" 
d="M491 279h-435q-18 0 -15 18l5 33q1 16 18 16h435q18 0 15 -18l-5 -33q-1 -16 -18 -16z" />
    <glyph glyph-name="endash" unicode="&#x2013;" horiz-adv-x="500" 
d="M456 239h-406q-18 0 -15 18l5 33q1 16 18 16h406q18 0 15 -18l-5 -33q-1 -16 -18 -16z" />
    <glyph glyph-name="emdash" unicode="&#x2014;" horiz-adv-x="900" 
d="M856 239h-806q-18 0 -15 18l5 33q1 16 18 16h806q18 0 15 -18l-5 -33q-1 -16 -18 -16z" />
    <glyph glyph-name="quoteleft" unicode="&#x2018;" horiz-adv-x="233" 
d="M154 459q-23 0 -36.5 14.5t-13.5 39.5q0 41 26 84t70 76q10 8 18 -3l13 -17q8 -10 -2 -18q-40 -33 -50 -74q34 -10 34 -44q0 -27 -16.5 -42.5t-42.5 -15.5z" />
    <glyph glyph-name="quoteright" unicode="&#x2019;" horiz-adv-x="233" 
d="M188 676q23 0 36.5 -14.5t13.5 -39.5q0 -41 -26 -84t-70 -76q-10 -8 -18 3l-13 17q-8 10 2 18q40 33 50 74q-34 10 -34 44q0 27 16.5 42.5t42.5 15.5z" />
    <glyph glyph-name="quotesinglbase" unicode="&#x201a;" horiz-adv-x="233" 
d="M96 99q23 0 36.5 -14.5t13.5 -39.5q0 -41 -26 -84t-70 -76q-10 -8 -18 3l-13 17q-8 10 2 18q40 33 50 74q-34 10 -34 44q0 27 16.5 42.5t42.5 15.5z" />
    <glyph glyph-name="quotedblleft" unicode="&#x201c;" horiz-adv-x="410" 
d="M331 459q-23 0 -36.5 14.5t-13.5 39.5q0 41 26 84t70 76q10 8 18 -3l13 -17q8 -10 -2 -18q-40 -33 -50 -74q34 -10 34 -44q0 -27 -16.5 -42.5t-42.5 -15.5zM154 459q-23 0 -36.5 14.5t-13.5 39.5q0 41 26 84t70 76q10 8 18 -3l13 -17q8 -10 -2 -18q-40 -33 -50 -74
q34 -10 34 -44q0 -27 -16.5 -42.5t-42.5 -15.5z" />
    <glyph glyph-name="quotedblright" unicode="&#x201d;" horiz-adv-x="410" 
d="M188 676q23 0 36.5 -14.5t13.5 -39.5q0 -41 -26 -84t-70 -76q-10 -8 -18 3l-13 17q-8 10 2 18q40 33 50 74q-34 10 -34 44q0 27 16.5 42.5t42.5 15.5zM365 676q23 0 36.5 -14.5t13.5 -39.5q0 -41 -26 -84t-70 -76q-10 -8 -18 3l-13 17q-8 10 2 18q40 33 50 74
q-34 10 -34 44q0 27 16.5 42.5t42.5 15.5z" />
    <glyph glyph-name="quotedblbase" unicode="&#x201e;" horiz-adv-x="410" 
d="M273 99q23 0 36.5 -14.5t13.5 -39.5q0 -41 -26 -84t-70 -76q-10 -8 -18 3l-13 17q-8 10 2 18q40 33 50 74q-34 10 -34 44q0 27 16.5 42.5t42.5 15.5zM96 99q23 0 36.5 -14.5t13.5 -39.5q0 -41 -26 -84t-70 -76q-10 -8 -18 3l-13 17q-8 10 2 18q40 33 50 74q-34 10 -34 44
q0 27 16.5 42.5t42.5 15.5z" />
    <glyph glyph-name="dagger" unicode="&#x2020;" horiz-adv-x="438" 
d="M292 482l-61 -384q-2 -15 -17 -15h-35q-17 0 -14 17l60 382h-129q-17 0 -14 17l5 30q2 15 17 15h131l23 141q3 15 17 15h35q17 0 14 -17l-22 -139h129q18 0 15 -17l-5 -31q-3 -14 -18 -14h-131z" />
    <glyph glyph-name="daggerdbl" unicode="&#x2021;" horiz-adv-x="438" 
d="M264 301h129q17 0 14 -17l-5 -31q-1 -15 -17 -15h-131l-23 -140q-2 -15 -17 -15h-35q-17 0 -14 17l22 138h-129q-18 0 -15 17l5 31q3 15 18 15h131l28 181h-129q-17 0 -14 17l5 30q2 15 17 15h131l23 141q3 15 17 15h35q17 0 14 -17l-22 -139h129q18 0 15 -17l-5 -31
q-3 -14 -18 -14h-131z" />
    <glyph glyph-name="bullet" unicode="&#x2022;" horiz-adv-x="500" 
d="M248 165q-51 0 -85 34t-34 84q0 57 40.5 97t96.5 40q51 0 84.5 -34t33.5 -84q0 -57 -40 -97t-96 -40z" />
    <glyph glyph-name="ellipsis" unicode="&#x2026;" horiz-adv-x="900" 
d="M696 -12q-22 0 -36.5 14t-14.5 37q0 25 17.5 42.5t42.5 17.5q23 0 37 -14.5t14 -36.5q0 -26 -17.5 -43t-42.5 -17zM413 -12q-23 0 -37 14t-14 37q0 25 17.5 42.5t42.5 17.5q23 0 37 -14.5t14 -36.5q0 -26 -17.5 -43t-42.5 -17zM129 -12q-23 0 -37 14t-14 37
q0 25 17.5 42.5t42.5 17.5q23 0 37 -14.5t14 -36.5q0 -26 -17.5 -43t-42.5 -17z" />
    <glyph glyph-name="perthousand" unicode="&#x2030;" horiz-adv-x="919" 
d="M628 115l12 79q18 120 133 120q52 0 81 -26t29 -73q0 -17 -2 -27l-12 -79q-18 -121 -132 -121q-53 0 -82 26t-29 74q0 17 2 27zM702 187l-12 -75q-2 -16 -2 -21q0 -46 51 -46q30 0 46 17t22 53l12 76q2 14 2 19q0 47 -50 47q-32 0 -47.5 -16.5t-21.5 -53.5zM63 437l12 79
q18 120 133 120q52 0 81 -26t29 -73q0 -17 -2 -27l-12 -79q-18 -121 -132 -121q-53 0 -82 26t-29 74q0 17 2 27zM137 509l-12 -75q-2 -16 -2 -21q0 -46 51 -46q30 0 46 17t22 53l12 76q2 14 2 19q0 47 -50 47q-32 0 -47.5 -16.5t-21.5 -53.5zM340 115l12 79q18 120 133 120
q52 0 81 -26t29 -73q0 -17 -2 -27l-12 -79q-18 -121 -132 -121q-53 0 -82 26t-29 74q0 17 2 27zM414 187l-12 -75q-2 -16 -2 -21q0 -46 51 -46q30 0 46 17t22 53l12 76q2 14 2 19q0 47 -50 47q-32 0 -47.5 -16.5t-21.5 -53.5zM50 18l487 597q7 9 18 9h43q10 0 12.5 -5
t-3.5 -13l-487 -597q-8 -9 -18 -9h-43q-10 0 -12.5 5t3.5 13z" />
    <glyph glyph-name="guilsinglleft" unicode="&#x2039;" horiz-adv-x="251" 
d="M107 243l79 -165q10 -20 -12 -20h-38q-14 0 -20 12l-81 165q-6 11 3 23l132 169q9 10 21 10h42q11 0 14 -6t-4 -15z" />
    <glyph glyph-name="guilsinglright" unicode="&#x203a;" horiz-adv-x="251" 
d="M222 236l-132 -168q-9 -10 -21 -10h-42q-11 0 -14 6t4 15l136 173l-79 165q-10 20 12 20h38q14 0 20 -12l81 -166q6 -11 -3 -23z" />
    <glyph glyph-name="fraction" unicode="&#x2044;" horiz-adv-x="136" 
d="M-197 18l488 597q8 9 18 9h40q10 0 12.5 -5t-3.5 -13l-488 -597q-7 -9 -18 -9h-40q-10 0 -12.5 5t3.5 13z" />
    <glyph glyph-name="zerosuperior" unicode="&#x2070;" 
d="M73 492l22 134q21 130 143 130q56 0 87 -28t31 -79q0 -18 -2 -28l-22 -135q-21 -130 -143 -130q-56 0 -87 28t-31 80q0 18 2 28zM155 621l-21 -130q-2 -16 -2 -23q0 -57 60 -57q66 0 80 81l21 130q2 16 2 23q0 56 -60 56q-68 0 -80 -80z" />
    <glyph glyph-name="foursuperior" unicode="&#x2074;" 
d="M310 503h30q16 0 14 -16l-4 -25q-2 -14 -16 -14h-32l-12 -71q-2 -14 -16 -14h-31q-16 0 -13 16l11 69h-164q-17 0 -14 16l5 32q1 9 9 18l205 227q7 8 18 8h34q16 0 13 -16zM274 654h-2l-134 -151h111z" />
    <glyph glyph-name="fivesuperior" unicode="&#x2075;" 
d="M164 749h189q16 0 14 -16l-4 -25q-2 -14 -16 -14h-152l-23 -98h2q30 16 67 16q49 0 79 -31t30 -82q0 -66 -41.5 -104.5t-112.5 -38.5q-79 0 -120 51q-9 10 2 21l18 17q12 10 21 -1q29 -33 79 -33q43 0 67.5 22.5t24.5 60.5q0 30 -17.5 46.5t-47.5 16.5q-39 0 -67 -22
q-9 -6 -20 -5l-18 3q-15 2 -12 17l42 186q3 13 16 13z" />
    <glyph glyph-name="sixsuperior" unicode="&#x2076;" 
d="M156 590h2q29 25 77 25q47 0 76 -31t29 -82q0 -66 -39 -106t-104 -40q-55 0 -87.5 30t-32.5 81q0 8 2 24l22 135q10 62 47 96t97 34q66 0 104 -36q11 -10 0 -21l-19 -21q-10 -11 -22 0q-24 23 -60 23q-75 0 -87 -82zM220 560q-32 0 -53.5 -20t-27.5 -55q-1 -5 -1 -15
q0 -27 16.5 -43t44.5 -16q36 0 58 23.5t22 63.5q0 29 -16 45.5t-43 16.5z" />
    <glyph glyph-name="sevensuperior" unicode="&#x2077;" 
d="M388 733l-5 -32q-2 -11 -6 -18l-198 -310q-6 -10 -18 -10h-37q-10 0 -12.5 5.5t2.5 12.5l201 313h-146l-9 -54q-2 -14 -16 -14h-28q-16 0 -13 16l15 93q2 14 16 14h241q16 0 13 -16z" />
    <glyph glyph-name="eightsuperior" unicode="&#x2078;" 
d="M288 560v-2q50 -24 50 -81q0 -55 -39.5 -88t-106.5 -33q-62 0 -96.5 27.5t-34.5 76.5q0 81 81 106v2q-42 24 -42 73q0 53 37 84t99 31q57 0 88.5 -26t31.5 -72q0 -74 -68 -98zM221 589q35 0 54.5 16.5t19.5 47.5q0 48 -60 48q-35 0 -54.5 -17t-19.5 -48q0 -47 60 -47z
M193 411q40 0 62 19t22 53q0 53 -70 53q-40 0 -62.5 -19t-22.5 -53q0 -53 71 -53z" />
    <glyph glyph-name="ninesuperior" unicode="&#x2079;" 
d="M241 756q54 0 86.5 -30t32.5 -80q0 -7 -2 -25l-21 -135q-10 -62 -47 -96t-97 -34q-67 0 -105 36q-11 9 -1 21l18 22q9 10 20 1q28 -25 65 -25q74 0 86 82l5 28h-2q-30 -24 -77 -24t-75.5 30.5t-28.5 80.5q0 68 39 108t104 40zM298 627q1 5 1 15q0 27 -16 43t-44 16
q-36 0 -58 -23.5t-22 -63.5q0 -29 16 -45.5t43 -16.5q33 0 54 20t26 55z" />
    <glyph glyph-name="zeroinferior" unicode="&#x2080;" 
d="M-10 -31l22 134q21 130 143 130q56 0 87 -28t31 -79q0 -18 -2 -28l-22 -135q-21 -130 -143 -130q-56 0 -87 28t-31 80q0 18 2 28zM72 98l-21 -130q-2 -16 -2 -23q0 -57 60 -57q67 0 80 81l21 130q2 16 2 23q0 56 -60 56q-68 0 -80 -80z" />
    <glyph glyph-name="oneinferior" unicode="&#x2081;" 
d="M179 -160h-31q-16 0 -13 16l45 285l-73 -49q-13 -8 -21 5l-13 21q-8 13 4 20l122 82q9 6 18 6h22q16 0 13 -16l-57 -356q-2 -14 -16 -14z" />
    <glyph glyph-name="twoinferior" unicode="&#x2082;" 
d="M74 -105h148q16 0 13 -16l-4 -25q-2 -14 -16 -14h-217q-16 0 -14 16l4 26q1 12 9 18l167 145q28 25 39 43t11 40q0 23 -14.5 36.5t-41.5 13.5q-44 0 -80 -44q-9 -12 -21 -2l-19 18q-10 10 -2 21q50 62 128 62q52 0 82 -28.5t30 -75.5q0 -36 -16 -62.5t-58 -62.5
l-128 -107v-2z" />
    <glyph glyph-name="threeinferior" unicode="&#x2083;" 
d="M214 39v-2q51 -22 51 -81t-38.5 -91t-107.5 -32q-82 0 -123 53q-9 10 2 21l18 17q12 10 21 -2q28 -34 83 -34q39 0 61 18.5t22 52.5q0 54 -77 54h-17q-16 0 -14 16l4 23q2 14 16 14h15q91 0 91 64q0 48 -60 48q-44 0 -81 -37q-12 -12 -21 1l-17 20q-9 11 1 21
q53 50 126 50q53 0 83.5 -26t30.5 -72q0 -77 -69 -96z" />
    <glyph glyph-name="fourinferior" unicode="&#x2084;" 
d="M227 -20h30q16 0 14 -16l-4 -25q-2 -14 -16 -14h-32l-12 -71q-2 -14 -16 -14h-31q-16 0 -13 16l11 69h-164q-17 0 -14 16l5 32q1 9 9 18l205 227q7 8 18 8h34q16 0 13 -16zM191 131h-2l-134 -151h111z" />
    <glyph glyph-name="fiveinferior" unicode="&#x2085;" 
d="M81 226h189q16 0 14 -16l-4 -25q-2 -14 -16 -14h-152l-23 -98h2q30 16 67 16q49 0 79 -31t30 -82q0 -66 -41.5 -104.5t-112.5 -38.5q-79 0 -120 51q-9 10 2 21l18 17q12 10 21 -1q29 -33 79 -33q43 0 67.5 22.5t24.5 60.5q0 30 -17.5 46.5t-47.5 16.5q-39 0 -67 -22
q-9 -6 -20 -5l-18 3q-15 2 -12 17l42 186q3 13 16 13z" />
    <glyph glyph-name="sixinferior" unicode="&#x2086;" 
d="M73 67h2q29 25 77 25q47 0 76 -31t29 -82q0 -66 -39 -106t-104 -40q-55 0 -87.5 30t-32.5 81q0 8 2 24l22 135q10 62 47 96t97 34q66 0 104 -36q11 -10 0 -21l-19 -21q-10 -11 -22 0q-24 23 -60 23q-75 0 -87 -82zM137 37q-32 0 -53.5 -20t-27.5 -55q-1 -5 -1 -15
q0 -27 16.5 -43t44.5 -16q36 0 58 23.5t22 63.5q0 29 -16 45.5t-43 16.5z" />
    <glyph glyph-name="seveninferior" unicode="&#x2087;" 
d="M305 210l-5 -32q-2 -11 -6 -18l-198 -310q-6 -10 -18 -10h-37q-10 0 -12.5 5t2.5 13l201 313h-146l-9 -54q-2 -14 -16 -14h-28q-16 0 -13 16l15 93q2 14 16 14h241q16 0 13 -16z" />
    <glyph glyph-name="eightinferior" unicode="&#x2088;" 
d="M205 37v-2q50 -24 50 -81q0 -55 -39.5 -88t-106.5 -33q-62 0 -96.5 27.5t-34.5 76.5q0 81 81 106v2q-42 24 -42 73q0 53 37 84t99 31q57 0 88.5 -26t31.5 -72q0 -74 -68 -98zM138 66q35 0 54.5 16.5t19.5 47.5q0 48 -60 48q-35 0 -54.5 -17t-19.5 -48q0 -47 60 -47z
M110 -112q40 0 62 19t22 53q0 53 -70 53q-40 0 -62.5 -19t-22.5 -53q0 -53 71 -53z" />
    <glyph glyph-name="nineinferior" unicode="&#x2089;" 
d="M158 233q54 0 86.5 -30t32.5 -80q0 -7 -2 -25l-21 -135q-10 -62 -47 -96t-97 -34q-67 0 -105 36q-11 9 -1 21l18 22q9 10 20 1q28 -25 65 -25q74 0 86 82l5 28h-2q-30 -24 -77 -24t-75.5 30.5t-28.5 80.5q0 68 39 108t104 40zM215 104q1 5 1 15q0 27 -16 43t-44 16
q-36 0 -58 -23.5t-22 -63.5q0 -29 16 -45.5t43 -16.5q33 0 54 20t26 55z" />
    <glyph glyph-name="Euro" unicode="&#x20ac;" horiz-adv-x="529" 
d="M275 64q82 0 132 66q12 17 26 5l31 -25q14 -11 4 -26q-71 -96 -203 -96q-89 0 -138.5 45t-49.5 128q0 26 4 49h-31q-19 0 -16 18l6 35q1 16 18 16h34l11 71h-31q-19 0 -16 18l6 35q1 16 18 16h34q35 217 237 217q65 0 113.5 -26t71.5 -73q8 -17 -9 -26l-37 -20
q-15 -8 -25 9q-34 60 -119 60q-123 0 -145 -141h193q21 0 14 -20l-14 -36q-4 -13 -19 -13h-186l-11 -71h164q21 0 14 -20l-14 -36q-4 -13 -19 -13h-157q-3 -21 -3 -38q0 -108 112 -108z" />
    <glyph glyph-name="uni20B9" unicode="&#x20b9;" horiz-adv-x="529" 
d="M143 624h409q21 0 14 -19l-13 -37q-4 -14 -20 -14h-87v-2q28 -31 31 -82h53q21 0 14 -19l-13 -37q-4 -14 -20 -14h-39q-16 -80 -80.5 -116.5t-193.5 -36.5h-14v-2l213 -222q9 -9 6 -16t-15 -7h-66q-14 0 -23 10l-230 244q-10 12 -5 25l9 26q4 15 20 15h113q80 0 122 19
t56 61h-285q-21 0 -13 20l14 37q4 13 19 13h272q-5 41 -40 59.5t-108 18.5h-120q-21 0 -15 21l15 41q5 14 20 14z" />
    <glyph glyph-name="uni2113" unicode="&#x2113;" horiz-adv-x="436" 
d="M97 135l-29 -16q-18 -9 -26 9l-14 34q-8 17 9 25q34 17 74 42l41 260q11 70 54 108.5t109 38.5q57 0 88.5 -31.5t31.5 -87.5q0 -172 -245 -327l-4 -25q-2 -11 -2 -29q0 -72 67 -72q32 0 69 27q17 12 26 -6l17 -34q8 -16 -6 -26q-52 -37 -117 -37q-70 0 -106.5 35
t-36.5 99v13zM309 563q-60 0 -72 -81l-30 -187h2q146 112 146 218q0 50 -46 50z" />
    <glyph glyph-name="uni2117" unicode="&#x2117;" horiz-adv-x="766" 
d="M337 516h100q118 0 118 -94q0 -136 -152 -136h-58l-20 -124q-2 -14 -16 -14h-29q-16 0 -13 16l54 338q2 14 16 14zM494 415q0 49 -64 49h-56l-21 -126h56q85 0 85 77zM436 676q135 0 221 -84.5t86 -215.5q0 -159 -114 -273.5t-273 -114.5q-135 0 -221 84.5t-86 215.5
q0 159 114 273.5t273 114.5zM359 40q133 0 229.5 99t96.5 235q0 110 -70.5 180t-182.5 70q-133 0 -229 -99t-96 -235q0 -110 70 -180t182 -70z" />
    <glyph glyph-name="trademark" unicode="&#x2122;" horiz-adv-x="769" 
d="M97 664h227q17 0 14 -16l-4 -23q-3 -14 -16 -14h-85l-46 -287q-2 -14 -16 -14h-29q-16 0 -13 16l45 285h-83q-17 0 -14 16l4 23q3 14 16 14zM706 664h62q16 0 13 -16l-51 -324q-2 -14 -16 -14h-29q-16 0 -13 16l42 265h-2l-147 -270q-6 -11 -18 -11h-20q-13 0 -16 13
l-60 263h-2l-43 -262q-2 -14 -16 -14h-27q-16 0 -13 16l51 324q2 14 16 14h58q13 0 16 -13l57 -253h2l138 255q5 11 18 11z" />
    <glyph glyph-name="uni2126" unicode="&#x2126;" horiz-adv-x="582" 
d="M351 676q103 0 159 -49t56 -140q0 -22 -5 -54l-26 -161q-23 -141 -127 -191v-2h76q21 0 18 -20l-7 -42q-3 -17 -21 -17h-153q-21 0 -18 20l7 47q1 14 16 21q95 41 118 178l26 160q4 24 4 50q0 121 -127 121q-75 0 -117 -42.5t-56 -129.5l-25 -160q-4 -25 -4 -52
q0 -90 62 -124q15 -7 12 -23l-7 -49q-3 -17 -21 -17h-153q-21 0 -18 20l6 42q3 17 21 17h86v2q-76 45 -76 148q0 26 4 49l25 161q38 237 265 237z" />
    <glyph glyph-name="estimated" unicode="&#x212e;" horiz-adv-x="820" 
d="M202 112q89 -103 223 -103q139 0 233 115h54q-52 -63 -127.5 -99t-161.5 -36q-150 0 -256 100.5t-106 243.5t106 243.5t256 100.5t256 -100.5t106 -243.5v-8h-587q-4 0 -4 -4v-189q0 -8 8 -20zM198 343h450q6 0 6 6v189q0 12 -10 22q-92 97 -219 97q-130 0 -223 -101
q-8 -12 -8 -22v-185q0 -6 4 -6z" />
    <glyph glyph-name="onethird" unicode="&#x2153;" horiz-adv-x="796" 
d="M702 199v-2q51 -22 51 -81t-38.5 -91t-107.5 -32q-82 0 -123 53q-9 10 2 21l18 17q12 10 21 -2q28 -34 83 -34q39 0 61 18.5t22 52.5q0 54 -77 54h-17q-16 0 -14 16l4 23q2 14 16 14h15q91 0 91 64q0 48 -60 48q-44 0 -81 -37q-12 -12 -21 1l-17 20q-9 11 1 21
q53 50 126 50q53 0 83.5 -26t30.5 -72q0 -77 -69 -96zM240 238h-31q-16 0 -13 16l45 285l-73 -49q-13 -8 -21 5l-13 21q-8 13 4 20l122 82q9 6 18 6h22q16 0 13 -16l-57 -356q-2 -14 -16 -14zM135 18l488 597q8 9 18 9h40q10 0 12.5 -5t-3.5 -13l-488 -597q-7 -9 -18 -9h-40
q-10 0 -12.5 5t3.5 13z" />
    <glyph glyph-name="twothirds" unicode="&#x2154;" horiz-adv-x="796" 
d="M138 293h148q16 0 13 -16l-4 -25q-2 -14 -16 -14h-217q-16 0 -14 16l4 26q1 12 9 18l167 145q28 25 39 43t11 40q0 23 -14.5 36.5t-41.5 13.5q-44 0 -80 -44q-9 -12 -21 -2l-19 18q-10 10 -2 21q50 62 128 62q52 0 82 -28.5t30 -75.5q0 -36 -16 -62.5t-58 -62.5
l-128 -107v-2zM699 199v-2q51 -22 51 -81t-38.5 -91t-107.5 -32q-82 0 -123 53q-9 10 2 21l18 17q12 10 21 -2q28 -34 83 -34q39 0 61 18.5t22 52.5q0 54 -77 54h-17q-16 0 -14 16l4 23q2 14 16 14h15q91 0 91 64q0 48 -60 48q-44 0 -81 -37q-12 -12 -21 1l-17 20
q-9 11 1 21q53 50 126 50q53 0 83.5 -26t30.5 -72q0 -77 -69 -96zM152 18l488 597q8 9 18 9h40q10 0 12.5 -5t-3.5 -13l-488 -597q-7 -9 -18 -9h-40q-10 0 -12.5 5t3.5 13z" />
    <glyph glyph-name="oneeighth" unicode="&#x215b;" horiz-adv-x="796" 
d="M702 197v-2q50 -24 50 -81q0 -55 -39.5 -88t-106.5 -33q-62 0 -96.5 27.5t-34.5 76.5q0 81 81 106v2q-42 24 -42 73q0 53 37 84t99 31q57 0 88.5 -26t31.5 -72q0 -74 -68 -98zM635 226q35 0 54.5 16.5t19.5 47.5q0 48 -60 48q-35 0 -54.5 -17t-19.5 -48q0 -47 60 -47z
M607 48q40 0 62 19t22 53q0 53 -70 53q-40 0 -62.5 -19t-22.5 -53q0 -53 71 -53zM240 238h-31q-16 0 -13 16l45 285l-73 -49q-13 -8 -21 5l-13 21q-8 13 4 20l122 82q9 6 18 6h22q16 0 13 -16l-57 -356q-2 -14 -16 -14zM135 18l488 597q8 9 18 9h40q10 0 12.5 -5t-3.5 -13
l-488 -597q-7 -9 -18 -9h-40q-10 0 -12.5 5t3.5 13z" />
    <glyph glyph-name="threeeighths" unicode="&#x215c;" horiz-adv-x="796" 
d="M144 18l488 597q7 9 18 9h40q10 0 12.5 -5t-3.5 -13l-488 -597q-8 -9 -18 -9h-40q-10 0 -12.5 5t3.5 13zM706 197v-2q50 -24 50 -81q0 -55 -39.5 -88t-106.5 -33q-62 0 -96.5 27.5t-34.5 76.5q0 81 81 106v2q-42 24 -42 73q0 53 37 84t99 31q57 0 88.5 -26t31.5 -72
q0 -74 -68 -98zM639 226q35 0 54.5 16.5t19.5 47.5q0 48 -60 48q-35 0 -54.5 -17t-19.5 -48q0 -47 60 -47zM611 48q40 0 62 19t22 53q0 53 -70 53q-40 0 -62.5 -19t-22.5 -53q0 -53 71 -53zM277 437v-2q51 -22 51 -81t-38.5 -91t-107.5 -32q-82 0 -123 53q-9 10 2 21l18 17
q12 10 21 -2q28 -34 83 -34q39 0 61 18.5t22 52.5q0 54 -77 54h-17q-16 0 -14 16l4 23q2 14 16 14h15q91 0 91 64q0 48 -60 48q-44 0 -81 -37q-12 -12 -21 1l-17 20q-9 11 1 21q53 50 126 50q53 0 83.5 -26t30.5 -72q0 -77 -69 -96z" />
    <glyph glyph-name="fiveeighths" unicode="&#x215d;" horiz-adv-x="796" 
d="M144 18l488 597q7 9 18 9h40q10 0 12.5 -5t-3.5 -13l-488 -597q-8 -9 -18 -9h-40q-10 0 -12.5 5t3.5 13zM706 197v-2q50 -24 50 -81q0 -55 -39.5 -88t-106.5 -33q-62 0 -96.5 27.5t-34.5 76.5q0 81 81 106v2q-42 24 -42 73q0 53 37 84t99 31q57 0 88.5 -26t31.5 -72
q0 -74 -68 -98zM639 226q35 0 54.5 16.5t19.5 47.5q0 48 -60 48q-35 0 -54.5 -17t-19.5 -48q0 -47 60 -47zM611 48q40 0 62 19t22 53q0 53 -70 53q-40 0 -62.5 -19t-22.5 -53q0 -53 71 -53zM145 624h189q16 0 14 -16l-4 -25q-2 -14 -16 -14h-152l-23 -98h2q30 16 67 16
q49 0 79 -31t30 -82q0 -66 -41.5 -104.5t-112.5 -38.5q-79 0 -120 51q-9 10 2 21l18 17q12 10 21 -1q29 -33 79 -33q43 0 67.5 22.5t24.5 60.5q0 30 -17.5 46.5t-47.5 16.5q-39 0 -67 -22q-9 -6 -20 -5l-18 3q-15 2 -12 17l42 186q3 13 16 13z" />
    <glyph glyph-name="seveneighths" unicode="&#x215e;" horiz-adv-x="796" 
d="M98 18l488 597q7 9 18 9h40q10 0 12.5 -5t-3.5 -13l-488 -597q-8 -9 -18 -9h-40q-10 0 -12.5 5t3.5 13zM700 197v-2q50 -24 50 -81q0 -55 -39.5 -88t-106.5 -33q-62 0 -96.5 27.5t-34.5 76.5q0 81 81 106v2q-42 24 -42 73q0 53 37 84t99 31q57 0 88.5 -26t31.5 -72
q0 -74 -68 -98zM633 226q35 0 54.5 16.5t19.5 47.5q0 48 -60 48q-35 0 -54.5 -17t-19.5 -48q0 -47 60 -47zM605 48q40 0 62 19t22 53q0 53 -70 53q-40 0 -62.5 -19t-22.5 -53q0 -53 71 -53zM369 608l-5 -32q-2 -11 -6 -18l-198 -310q-6 -10 -18 -10h-37q-10 0 -12.5 5
t2.5 13l201 313h-146l-9 -54q-2 -14 -16 -14h-28q-16 0 -13 16l15 93q2 14 16 14h241q16 0 13 -16z" />
    <glyph glyph-name="partialdiff" unicode="&#x2202;" horiz-adv-x="539" 
d="M335 676q91 0 137 -57.5t46 -165.5q0 -40 -6.5 -86t-20 -100t-38 -102.5t-57 -88.5t-81.5 -64t-107 -24q-80 0 -127 47t-47 127q0 114 71.5 193t175.5 79q99 0 141 -69h2q8 46 8 90q0 145 -113 145q-53 0 -102 -34q-17 -12 -27 4l-20 32q-10 16 4 25q67 49 161 49z
M213 64q60 0 108.5 50.5t77.5 141.5q-3 47 -31.5 74.5t-75.5 27.5q-71 0 -121 -56t-50 -136q0 -49 24 -75.5t68 -26.5z" />
    <glyph glyph-name="uni2206" unicode="&#x2206;" horiz-adv-x="581" 
d="M417 647l112 -626q3 -21 -17 -21h-498q-24 0 -14 22l311 628q7 14 22 14h64q17 0 20 -17zM352 553h-2l-227 -474h306z" />
    <glyph glyph-name="product" unicode="&#x220f;" horiz-adv-x="606" 
d="M611 644l-112 -707q-3 -17 -21 -17h-51q-21 0 -18 20l102 645h-305l-102 -648q-3 -17 -21 -17h-51q-21 0 -18 20l112 707q3 17 21 17h446q21 0 18 -20z" />
    <glyph glyph-name="summation" unicode="&#x2211;" horiz-adv-x="486" 
d="M176 585l166 -285q8 -14 -3 -26l-242 -275h321q21 0 18 -20l-7 -42q-3 -17 -21 -17h-415q-21 0 -18 20l7 49q1 13 11 23l250 280l-159 278q-6 12 -5 25l8 52q3 17 21 17h415q21 0 18 -20l-7 -42q-3 -17 -21 -17h-337z" />
    <glyph glyph-name="minus" unicode="&#x2212;" horiz-adv-x="529" 
d="M491 240h-447q-21 0 -18 20l6 40q3 17 21 17h447q21 0 18 -20l-6 -40q-3 -17 -21 -17z" />
    <glyph glyph-name="uni2219" unicode="&#x2219;" horiz-adv-x="233" 
d="M122 257q-22 0 -36.5 14.5t-14.5 36.5q0 25 17.5 42.5t42.5 17.5q23 0 37 -14.5t14 -36.5q0 -26 -17.5 -43t-42.5 -17z" />
    <glyph glyph-name="radical" unicode="&#x221a;" horiz-adv-x="516" 
d="M517 664h43q23 0 15 -22l-293 -707q-6 -15 -22 -15h-58q-16 0 -21 17l-53 256l-66 -17q-18 -5 -23 14l-6 25q-5 18 14 23l121 32q18 5 23 -14l45 -241h2l257 634q6 15 22 15z" />
    <glyph glyph-name="infinity" unicode="&#x221e;" horiz-adv-x="628" 
d="M477 459q58 0 92 -35t34 -96q0 -74 -41.5 -118.5t-109.5 -44.5q-87 0 -138 90q-67 -90 -144 -90q-58 0 -91 34.5t-33 94.5q0 76 41 120.5t109 44.5q86 0 137 -90q69 90 144 90zM178 230q56 0 110 76q-25 49 -46.5 68.5t-50.5 19.5q-35 0 -57 -26.5t-22 -69.5
q0 -68 66 -68zM535 326q0 68 -66 68q-55 0 -109 -76q25 -49 47 -68.5t50 -19.5q35 0 56.5 26.5t21.5 69.5z" />
    <glyph glyph-name="integral" unicode="&#x222b;" horiz-adv-x="326" 
d="M150 519q14 90 65 138.5t132 53.5q10 1 14.5 -4t3.5 -15l-3 -34q-1 -17 -19 -19q-43 -6 -73 -39.5t-39 -91.5q-12 -75 -22 -230q-10 -163 -25 -257q-14 -90 -64.5 -138.5t-131.5 -53.5q-10 -1 -14.5 4t-3.5 15l3 34q1 18 19 19q43 6 73 39.5t39 91.5q11 74 21 229
q13 184 25 258z" />
    <glyph glyph-name="approxequal" unicode="&#x2248;" horiz-adv-x="529" 
d="M202 388q-49 0 -97 -62q-12 -16 -27 -5l-27 20q-15 10 -4 27q67 97 156 97q52 0 113 -40q46 -31 79 -31q48 0 96 63q12 16 27 4l27 -20q15 -10 4 -27q-67 -97 -155 -97q-57 0 -114 41q-43 30 -78 30zM166 163q-49 0 -97 -62q-12 -16 -27 -5l-27 20q-15 10 -4 27
q67 97 156 97q52 0 113 -40q47 -31 79 -31q48 0 96 63q12 16 27 4l27 -20q15 -10 4 -27q-67 -97 -155 -97q-57 0 -114 41q-43 30 -78 30z" />
    <glyph glyph-name="notequal" unicode="&#x2260;" horiz-adv-x="529" 
d="M256 205h212q20 0 17 -20l-6 -39q-2 -18 -20 -18h-259l-77 -106q-9 -12 -24 -12h-38q-12 0 -15.5 6.5t3.5 16.5l69 95h-76q-21 0 -18 20l6 40q3 17 21 17h123l109 148h-206q-21 0 -18 20l6 40q3 17 21 17h253l77 106q9 12 24 12h38q12 0 15.5 -6.5t-3.5 -16.5l-69 -95h82
q21 0 18 -20l-6 -40q-3 -17 -21 -17h-129z" />
    <glyph glyph-name="lessequal" unicode="&#x2264;" horiz-adv-x="529" 
d="M76 384l441 164q10 4 16 -0.5t4 -15.5l-6 -45q-2 -16 -16 -20l-349 -126v-2l305 -123q16 -6 13 -23l-7 -42q-3 -21 -23 -13l-387 164q-16 6 -13 24l6 38q3 15 16 20zM32 77h412q21 0 18 -20l-6 -40q-3 -17 -21 -17h-412q-21 0 -18 20l6 40q3 17 21 17z" />
    <glyph glyph-name="greaterequal" unicode="&#x2265;" horiz-adv-x="529" 
d="M111 549l386 -163q16 -7 13 -24l-6 -38q-3 -15 -16 -20l-441 -165q-11 -4 -16.5 1t-3.5 15l6 46q1 14 16 20l350 126v2l-305 123q-16 6 -13 23l7 41q3 21 23 13zM32 77h412q21 0 18 -20l-6 -40q-3 -17 -21 -17h-412q-21 0 -18 20l6 40q3 17 21 17z" />
    <glyph glyph-name="lozenge" unicode="&#x25ca;" horiz-adv-x="515" 
d="M369 659l127 -313q6 -14 -3 -26l-229 -318q-8 -12 -23 -12h-35q-16 0 -22 15l-126 313q-6 14 3 26l228 318q7 12 23 12h35q16 0 22 -15zM320 581h-2l-177 -254l92 -245h2l178 255z" />
    <glyph glyph-name="uniE069" unicode="&#xe069;" horiz-adv-x="217" 
d="M169 587q-21 0 -34.5 13.5t-13.5 33.5q0 26 15.5 42t40.5 16q22 0 35.5 -13.5t13.5 -34.5q0 -25 -16.5 -41t-40.5 -16zM95 0h-44q-21 0 -18 20l73 458q3 17 21 17h44q21 0 18 -20l-73 -458q-3 -17 -21 -17z" />
    <glyph glyph-name="uniEF01" unicode="&#xef01;" horiz-adv-x="500" 
d="M201 -48q21 0 33 -13t12 -36q0 -31 -21.5 -61.5t-52.5 -43.5q-11 -5 -16 6l-6 14q-4 10 6 16q15 9 25 27q-33 7 -33 42q0 22 15 35.5t38 13.5z" />
    <glyph glyph-name="uniEF02" unicode="&#xef02;" horiz-adv-x="500" 
d="M368 681l-55 -163q-4 -13 -18 -13h-28q-18 0 -13 18l42 162q5 15 19 15h39q19 0 14 -19z" />
    <glyph glyph-name="uniF8FF" unicode="&#xf8ff;" horiz-adv-x="1000" 
d="M439 210v52h-1l-17 -78h-23l28 126h27v-66h1l28 66h31l-28 -126h-24l17 78h-1l-22 -52h-16zM140 285l-17 -77q-7 -24 -25 -24h-46l28 126h43q18 0 18 -15q0 -4 -1 -10zM293 184h-24l6 26h-17l-7 -26h-24l23 103q5 23 26 23h22q18 0 18 -15q0 -4 -1 -10zM570 184h-24l6 26
h-17l-7 -26h-24l23 103q5 23 26 23h22q18 0 18 -15q0 -4 -1 -10zM401 285l-11 -52q-4 -17 -13 -20l6 -29h-23l-4 26h-13l-6 -26h-24l28 126h43q18 0 18 -15q0 -4 -1 -10zM845 285l-12 -53q-4 -22 -24 -22h-22l-6 -26h-24l28 126h43q18 0 18 -15q0 -4 -1 -10zM233 310
l-28 -126h-24l6 26h-18l-6 -26h-24l28 126h24l-18 -81h18l18 81h24zM703 310h24l-17 -75q-1 -6 4 -6h7q5 0 6 4l17 77h24l-17 -78q-4 -22 -24 -22l-14 -26h-24l14 26q-18 0 -18 15q0 5 1 10zM901 242l-4 -19h-26l-4 -20h33l-5 -19h-56l28 126h57l-5 -19h-32l-11 -49h25z
M671 291l-24 -107h-24l24 107h-19l4 19h61l-4 -19h-18zM100 291l-20 -88h13q4 0 6 5l17 77q1 6 -3 6h-13zM810 233l11 52q1 6 -4 6h-12l-14 -62h13q5 0 6 4zM366 233l11 52q1 6 -4 6h-12l-14 -62h13q5 0 6 4zM564 291h-7q-5 0 -6 -5l-13 -57h18l12 56q1 6 -4 6zM287 291h-7
q-5 0 -6 -5l-13 -57h18l12 56q1 6 -4 6zM987 333v-30h-6v25h-1l-7 -20h-4l-7 20h-1v-25h-5v30h10l5 -16h1l5 16h10zM952 333v-5h-9v-25h-6v25h-8v5h23z" />
    <glyph glyph-name="zero.numr" 
d="M54 367l22 134q21 130 143 130q56 0 87 -28t31 -79q0 -18 -2 -28l-22 -135q-21 -130 -143 -130q-56 0 -87 28t-31 80q0 18 2 28zM136 496l-21 -130q-2 -16 -2 -23q0 -57 60 -57q67 0 80 81l21 130q2 16 2 23q0 56 -60 56q-68 0 -80 -80z" />
    <glyph glyph-name="one.numr" 
d="M243 238h-31q-16 0 -13 16l45 285l-73 -49q-13 -8 -21 5l-13 21q-8 13 4 20l122 82q9 6 18 6h22q16 0 13 -16l-57 -356q-2 -14 -16 -14z" />
    <glyph glyph-name="two.numr" 
d="M138 293h148q16 0 13 -16l-4 -25q-2 -14 -16 -14h-217q-16 0 -14 16l4 26q1 12 9 18l167 145q28 25 39 43t11 40q0 23 -14.5 36.5t-41.5 13.5q-44 0 -80 -44q-9 -12 -21 -2l-19 18q-10 10 -2 21q50 62 128 62q52 0 82 -28.5t30 -75.5q0 -36 -16 -62.5t-58 -62.5
l-128 -107v-2z" />
    <glyph glyph-name="three.numr" 
d="M278 437v-2q51 -22 51 -81t-38.5 -91t-107.5 -32q-82 0 -123 53q-9 10 2 21l18 17q12 10 21 -2q28 -34 83 -34q39 0 61 18.5t22 52.5q0 54 -77 54h-17q-16 0 -14 16l4 23q2 14 16 14h15q91 0 91 64q0 48 -60 48q-44 0 -81 -37q-12 -12 -21 1l-17 20q-9 11 1 21
q53 50 126 50q53 0 83.5 -26t30.5 -72q0 -77 -69 -96z" />
    <glyph glyph-name="four.numr" 
d="M291 378h30q16 0 14 -16l-4 -25q-2 -14 -16 -14h-32l-12 -71q-2 -14 -16 -14h-31q-16 0 -13 16l11 69h-164q-17 0 -14 16l5 32q1 9 9 18l205 227q7 8 18 8h34q16 0 13 -16zM255 529h-2l-134 -151h111z" />
    <glyph glyph-name="five.numr" 
d="M145 624h189q16 0 14 -16l-4 -25q-2 -14 -16 -14h-152l-23 -98h2q30 16 67 16q49 0 79 -31t30 -82q0 -66 -41.5 -104.5t-112.5 -38.5q-79 0 -120 51q-9 10 2 21l18 17q12 10 21 -1q29 -33 79 -33q43 0 67.5 22.5t24.5 60.5q0 30 -17.5 46.5t-47.5 16.5q-39 0 -67 -22
q-9 -6 -20 -5l-18 3q-15 2 -12 17l42 186q3 13 16 13z" />
    <glyph glyph-name="six.numr" 
d="M137 465h2q29 25 77 25q47 0 76 -31t29 -82q0 -66 -39 -106t-104 -40q-55 0 -87.5 30t-32.5 81q0 8 2 24l22 135q10 62 47 96t97 34q66 0 104 -36q11 -10 0 -21l-19 -21q-10 -11 -22 0q-24 23 -60 23q-75 0 -87 -82zM201 435q-32 0 -53.5 -20t-27.5 -55q-1 -5 -1 -15
q0 -27 16.5 -43t44.5 -16q36 0 58 23.5t22 63.5q0 29 -16 45.5t-43 16.5z" />
    <glyph glyph-name="seven.numr" 
d="M369 608l-5 -32q-2 -11 -6 -18l-198 -310q-6 -10 -18 -10h-37q-10 0 -12.5 5t2.5 13l201 313h-146l-9 -54q-2 -14 -16 -14h-28q-16 0 -13 16l15 93q2 14 16 14h241q16 0 13 -16z" />
    <glyph glyph-name="eight.numr" 
d="M269 435v-2q50 -24 50 -81q0 -55 -39.5 -88t-106.5 -33q-62 0 -96.5 27.5t-34.5 76.5q0 81 81 106v2q-42 24 -42 73q0 53 37 84t99 31q57 0 88.5 -26t31.5 -72q0 -74 -68 -98zM202 464q35 0 54.5 16.5t19.5 47.5q0 48 -60 48q-35 0 -54.5 -17t-19.5 -48q0 -47 60 -47z
M174 286q40 0 62 19t22 53q0 53 -70 53q-40 0 -62.5 -19t-22.5 -53q0 -53 71 -53z" />
    <glyph glyph-name="nine.numr" 
d="M222 631q54 0 86.5 -30t32.5 -80q0 -7 -2 -25l-21 -135q-10 -62 -47 -96t-97 -34q-67 0 -105 36q-11 9 -1 21l18 22q9 10 20 1q28 -25 65 -25q74 0 86 82l5 28h-2q-30 -24 -77 -24t-75.5 30.5t-28.5 80.5q0 68 39 108t104 40zM279 502q1 5 1 15q0 27 -16 43t-44 16
q-36 0 -58 -23.5t-22 -63.5q0 -29 16 -45.5t43 -16.5q33 0 54 20t26 55z" />
    <glyph glyph-name="zero.dnom" 
d="M16 129l22 134q21 130 143 130q56 0 87 -28t31 -79q0 -18 -2 -28l-22 -135q-21 -130 -143 -130q-56 0 -87 28t-31 80q0 18 2 28zM98 258l-21 -130q-2 -16 -2 -23q0 -57 60 -57q67 0 80 81l21 130q2 16 2 23q0 56 -60 56q-68 0 -80 -80z" />
    <glyph glyph-name="one.dnom" 
d="M205 0h-31q-16 0 -13 16l45 285l-73 -49q-13 -8 -21 5l-13 21q-8 13 4 20l122 82q9 6 18 6h22q16 0 13 -16l-57 -356q-2 -14 -16 -14z" />
    <glyph glyph-name="two.dnom" 
d="M100 55h148q16 0 13 -16l-4 -25q-2 -14 -16 -14h-217q-16 0 -14 16l4 26q1 12 9 18l167 145q28 25 39 43t11 40q0 23 -14.5 36.5t-41.5 13.5q-44 0 -80 -44q-9 -12 -21 -2l-19 18q-10 10 -2 21q50 62 128 62q52 0 82 -28.5t30 -75.5q0 -36 -16 -62.5t-58 -62.5l-128 -107
v-2z" />
    <glyph glyph-name="three.dnom" 
d="M240 199v-2q51 -22 51 -81t-38.5 -91t-107.5 -32q-82 0 -123 53q-9 10 2 21l18 17q12 10 21 -2q28 -34 83 -34q39 0 61 18.5t22 52.5q0 54 -77 54h-17q-16 0 -14 16l4 23q2 14 16 14h15q91 0 91 64q0 48 -60 48q-44 0 -81 -37q-12 -12 -21 1l-17 20q-9 11 1 21
q53 50 126 50q53 0 83.5 -26t30.5 -72q0 -77 -69 -96z" />
    <glyph glyph-name="four.dnom" 
d="M253 140h30q16 0 14 -16l-4 -25q-2 -14 -16 -14h-32l-12 -71q-2 -14 -16 -14h-31q-16 0 -13 16l11 69h-164q-17 0 -14 16l5 32q1 9 9 18l205 227q7 8 18 8h34q16 0 13 -16zM217 291h-2l-134 -151h111z" />
    <glyph glyph-name="five.dnom" 
d="M107 386h189q16 0 14 -16l-4 -25q-2 -14 -16 -14h-152l-23 -98h2q30 16 67 16q49 0 79 -31t30 -82q0 -66 -41.5 -104.5t-112.5 -38.5q-79 0 -120 51q-9 10 2 21l18 17q12 10 21 -1q29 -33 79 -33q43 0 67.5 22.5t24.5 60.5q0 30 -17.5 46.5t-47.5 16.5q-39 0 -67 -22
q-9 -6 -20 -5l-18 3q-15 2 -12 17l42 186q3 13 16 13z" />
    <glyph glyph-name="six.dnom" 
d="M99 227h2q29 25 77 25q47 0 76 -31t29 -82q0 -66 -39 -106t-104 -40q-55 0 -87.5 30t-32.5 81q0 8 2 24l22 135q10 62 47 96t97 34q66 0 104 -36q11 -10 0 -21l-19 -21q-10 -11 -22 0q-24 23 -60 23q-75 0 -87 -82zM163 197q-32 0 -53.5 -20t-27.5 -55q-1 -5 -1 -15
q0 -27 16.5 -43t44.5 -16q36 0 58 23.5t22 63.5q0 29 -16 45.5t-43 16.5z" />
    <glyph glyph-name="seven.dnom" 
d="M331 370l-5 -32q-2 -11 -6 -18l-198 -310q-6 -10 -18 -10h-37q-10 0 -12.5 5t2.5 13l201 313h-146l-9 -54q-2 -14 -16 -14h-28q-16 0 -13 16l15 93q2 14 16 14h241q16 0 13 -16z" />
    <glyph glyph-name="eight.dnom" 
d="M231 197v-2q50 -24 50 -81q0 -55 -39.5 -88t-106.5 -33q-62 0 -96.5 27.5t-34.5 76.5q0 81 81 106v2q-42 24 -42 73q0 53 37 84t99 31q57 0 88.5 -26t31.5 -72q0 -74 -68 -98zM164 226q35 0 54.5 16.5t19.5 47.5q0 48 -60 48q-35 0 -54.5 -17t-19.5 -48q0 -47 60 -47z
M136 48q40 0 62 19t22 53q0 53 -70 53q-40 0 -62.5 -19t-22.5 -53q0 -53 71 -53z" />
    <glyph glyph-name="nine.dnom" 
d="M184 393q54 0 86.5 -30t32.5 -80q0 -7 -2 -25l-21 -135q-10 -62 -47 -96t-97 -34q-67 0 -105 36q-11 9 -1 21l18 22q9 10 20 1q28 -25 65 -25q74 0 86 82l5 28h-2q-30 -24 -77 -24t-75.5 30.5t-28.5 80.5q0 68 39 108t104 40zM241 264q1 5 1 15q0 27 -16 43t-44 16
q-36 0 -58 -23.5t-22 -63.5q0 -29 16 -45.5t43 -16.5q33 0 54 20t26 55z" />
    </font>
</defs>
</svg>
